<?xml version="1.0" standalone="no"?>
<!DOCTYPE svg PUBLIC "-//W3C//DTD SVG 20010904//EN"
 "http://www.w3.org/TR/2001/REC-SVG-20010904/DTD/svg10.dtd">
<svg version="1.0" xmlns="http://www.w3.org/2000/svg"
 width="1000.000000pt" height="1000.000000pt" viewBox="0 0 1000.000000 1000.000000"
 preserveAspectRatio="xMidYMid meet">
<metadata>
Created by potrace 1.16, written by Peter Selinger 2001-2019
</metadata>
<g transform="translate(0.000000,1000.000000) scale(1.000000,-1.000000)"
fill="#000000" stroke="none">
<path d="M560 767 c0 0 -5 0 -11 0 -14 -1 -27 -2 -33 -3 -1 -1 -4 -1 -7 -1 -3
-1 -7 -1 -8 -1 -1 -1 -4 -1 -8 -1 -4 -1 -7 -1 -7 -1 0 -1 -3 -1 -5 -1 -2 -1
-6 -1 -7 -2 -1 0 -4 0 -6 -1 -2 0 -4 0 -5 -1 -2 0 -4 0 -6 -1 -2 0 -4 -1 -6
-1 -1 -1 -2 -1 -2 -1 0 1 -5 -1 -11 -2 -6 -2 -13 -3 -14 -4 -1 0 -3 0 -3 -1
-1 0 -2 0 -4 -1 -1 0 -12 -4 -23 -8 -12 -5 -22 -8 -22 -8 -3 -1 -10 -3 -10 -4
-1 0 -2 -1 -2 -1 -9 -1 -90 -36 -116 -50 -32 -16 -66 -44 -78 -62 -6 -9 -8
-20 -6 -27 1 -2 1 -4 1 -5 0 0 1 -1 1 -1 1 0 1 -1 1 -1 0 -4 12 -13 17 -15 1
0 1 0 1 0 2 -1 23 -2 27 -1 2 1 5 1 6 1 1 1 3 1 5 1 4 1 51 18 73 26 13 5 25
9 26 9 0 0 1 1 2 1 0 1 7 3 9 4 0 0 2 0 4 1 13 5 37 13 45 15 1 0 3 1 6 1 2 1
4 2 4 1 0 0 1 0 2 1 1 0 3 1 4 1 1 1 6 2 11 3 5 2 9 3 11 3 1 1 4 2 6 2 3 1 5
2 5 1 0 0 1 0 2 1 1 0 3 1 4 1 1 1 5 2 9 3 3 0 6 1 7 2 1 0 3 0 4 1 2 0 4 1 5
1 1 1 6 2 11 3 5 2 10 3 12 3 2 1 4 1 4 1 0 1 2 1 4 1 5 1 6 1 17 4 4 1 9 2
10 3 1 0 3 0 4 0 1 1 3 1 5 2 2 0 4 0 5 0 1 1 4 1 7 2 2 0 5 0 6 1 1 0 4 0 7
0 5 1 7 1 12 2 1 1 4 1 6 2 12 1 18 3 21 3 2 1 13 3 22 3 6 1 8 1 14 3 1 0 3
0 3 1 0 0 4 1 9 2 9 3 17 4 26 4 6 0 8 0 12 -3 4 -2 5 -3 8 -12 3 -8 3 -10 3
-15 -2 -16 -9 -35 -25 -63 -7 -12 -11 -19 -18 -35 -2 -4 -7 -14 -11 -23 -7
-14 -11 -21 -19 -35 -11 -20 -27 -52 -34 -70 -15 -33 -23 -58 -25 -74 -1 -2
-1 -5 -1 -6 -1 -2 -2 -6 -2 -13 -1 -2 -1 -5 -1 -6 -1 -1 -1 -4 -1 -6 -1 -2 -1
-5 -2 -6 0 -1 0 -4 -1 -6 0 -2 0 -5 -1 -6 0 -2 0 -10 -1 -19 0 -8 0 -17 -1
-19 0 -2 -1 -6 -1 -9 -1 -2 -1 -5 -2 -6 0 -1 0 -7 0 -13 -1 -10 -1 -12 1 -16
1 -2 4 -5 6 -7 3 -2 4 -2 9 -2 8 0 12 2 21 10 7 7 10 12 16 23 3 4 9 13 15 20
13 16 37 48 42 56 2 3 8 14 13 24 5 10 14 25 19 33 5 8 13 23 18 33 11 22 18
34 19 36 2 3 22 41 27 52 13 30 17 38 22 50 3 7 6 16 7 19 1 2 2 5 3 6 0 2 0
1 2 9 4 12 4 13 6 24 1 7 1 30 0 37 -2 10 -7 27 -11 34 -11 20 -31 37 -50 42
-2 1 -6 3 -9 4 -5 3 -15 8 -20 8 -3 1 -9 3 -14 6 -20 11 -49 24 -57 26 -9 1
-15 2 -38 4 -10 0 -27 1 -27 0z"/>
</g>
</svg>
