<?xml version="1.0" standalone="no"?>
<!DOCTYPE svg PUBLIC "-//W3C//DTD SVG 20010904//EN"
 "http://www.w3.org/TR/2001/REC-SVG-20010904/DTD/svg10.dtd">
<svg version="1.0" xmlns="http://www.w3.org/2000/svg"
 width="1000.000000pt" height="1000.000000pt" viewBox="0 0 1000.000000 1000.000000"
 preserveAspectRatio="xMidYMid meet">
<metadata>
Created by potrace 1.16, written by Peter Selinger 2001-2019
</metadata>
<g transform="translate(0.000000,1000.000000) scale(1.000000,-1.000000)"
fill="#000000" stroke="none">
<path d="M437 815 c0 0 -4 0 -9 0 -5 -1 -10 -1 -11 -1 -1 -1 -4 -1 -6 -1 -2
-1 -5 -1 -6 -2 -1 0 -4 0 -5 -1 -2 0 -6 -1 -8 -1 -2 -1 -6 -1 -7 -2 -1 0 -3 0
-4 -1 -1 0 -3 0 -4 0 -1 -1 -4 -2 -7 -2 -8 -3 -10 -3 -13 -4 -1 0 -3 -1 -4 -1
-1 -1 -2 -1 -2 -1 0 1 -4 -1 -10 -2 -5 -2 -11 -3 -12 -4 -1 0 -3 -1 -5 -1 -1
-1 -3 -1 -5 -2 -1 0 -13 -4 -27 -8 -14 -5 -27 -9 -28 -10 -1 0 -3 -1 -5 -1 -1
-1 -3 -1 -3 -2 -1 0 -1 0 -1 0 0 0 -1 0 -2 0 -6 -2 -59 -20 -71 -25 -20 -8
-28 -12 -34 -18 -7 -7 -9 -13 -9 -21 0 -14 7 -24 20 -28 3 -1 17 -1 21 0 2 0
5 1 6 1 4 1 6 2 11 3 2 0 5 1 7 1 5 1 8 2 11 3 3 0 3 0 9 2 2 1 5 1 6 2 1 0 6
1 11 2 5 2 11 3 12 3 4 1 6 2 13 4 4 0 7 1 8 2 1 0 3 0 4 1 1 0 3 0 4 0 1 1 3
1 4 1 1 1 3 1 5 1 1 1 4 1 5 2 1 0 4 0 5 1 3 0 6 1 10 1 1 1 4 1 6 1 2 1 4 1
6 2 5 0 9 1 12 2 1 0 4 0 6 1 7 1 9 1 15 1 5 1 12 2 17 3 1 0 5 0 8 1 3 0 6 0
7 1 12 2 45 2 52 0 7 -2 7 -3 7 -14 -1 -6 -2 -15 -3 -20 -1 -6 -2 -12 -2 -13
-1 -5 -2 -8 -2 -10 -1 -1 -1 -3 -1 -5 -1 -2 -1 -5 -1 -5 -1 -1 -2 -12 -3 -31
-1 -13 -2 -22 -3 -28 -1 -1 -1 -4 -2 -7 -1 -5 0 -5 -1 -8 -1 -2 -1 -5 -2 -6 0
-1 0 -3 0 -4 -1 -1 -1 -3 -2 -4 0 -3 0 -3 -2 -9 -1 -2 -1 -5 -2 -6 0 -1 -1 -4
-2 -8 -1 -4 -2 -7 -2 -7 -1 -1 -1 -2 -1 -3 -1 -2 -3 -8 -4 -11 0 -1 0 -3 -1
-4 -3 -12 -3 -21 -3 -35 0 -18 1 -24 9 -36 6 -10 19 -21 27 -22 1 0 2 -1 3 -1
2 -2 16 -1 23 1 21 7 31 18 46 46 5 11 16 40 17 48 1 1 1 4 2 6 1 2 1 5 2 6 0
0 1 3 1 7 2 7 3 9 4 13 0 1 0 3 1 4 0 1 0 3 1 5 0 1 0 4 1 5 1 6 1 8 2 12 0 2
0 5 1 7 0 1 1 6 1 15 3 24 3 49 1 57 -1 1 -2 8 -3 16 -2 7 -3 14 -3 16 -1 1
-1 4 -1 6 -1 2 -1 5 -2 7 0 1 0 4 -1 8 0 3 0 7 0 8 -1 1 -1 5 -2 7 0 2 0 5 -1
7 0 1 0 3 -1 4 -2 10 -6 22 -11 33 -1 4 -7 13 -8 14 0 0 -2 2 -3 4 -4 6 -12
13 -18 17 -5 3 -19 11 -21 11 0 0 -2 1 -4 1 -5 1 -7 2 -13 3 -4 0 -21 1 -21 0z"/>
</g>
</svg>
