<?xml version="1.0" standalone="no"?>
<!DOCTYPE svg PUBLIC "-//W3C//DTD SVG 20010904//EN"
 "http://www.w3.org/TR/2001/REC-SVG-20010904/DTD/svg10.dtd">
<svg version="1.0" xmlns="http://www.w3.org/2000/svg"
 width="1000.000000pt" height="1000.000000pt" viewBox="0 0 1000.000000 1000.000000"
 preserveAspectRatio="xMidYMid meet">
<metadata>
Created by potrace 1.16, written by Peter Selinger 2001-2019
</metadata>
<g transform="translate(0.000000,1000.000000) scale(1.000000,-1.000000)"
fill="#000000" stroke="none">
<path d="M424 956 c0 -1 -3 -1 -7 -1 -4 -1 -8 -1 -9 -2 -6 -1 -12 -2 -19 -3
-3 0 -6 0 -7 -1 -1 0 -4 0 -6 0 -2 -1 -5 -1 -6 -1 -1 -1 -4 -1 -6 -1 -2 -1 -4
-1 -6 -1 -1 -1 -4 -1 -6 -1 -3 -1 -11 -2 -17 -4 -6 -1 -13 -2 -14 -3 -1 0 -9
-2 -16 -4 -7 -2 -15 -3 -16 -4 -1 0 -4 -1 -6 -1 -1 -1 -3 -2 -3 -1 0 0 -7 -3
-16 -6 -18 -6 -35 -14 -50 -24 -6 -4 -14 -9 -18 -11 -9 -5 -19 -15 -23 -22 -5
-10 -3 -22 4 -28 6 -6 11 -7 24 -7 11 0 16 0 18 1 0 1 2 1 3 1 1 1 4 1 7 2 2
0 6 1 9 2 5 0 8 1 10 1 1 1 3 1 4 1 6 2 8 2 10 3 2 1 3 1 3 1 0 -1 9 2 20 6
11 4 20 7 20 6 0 0 1 0 2 1 1 0 3 1 5 1 2 1 5 1 5 1 0 1 2 1 4 1 2 1 4 1 6 1
1 1 3 1 5 1 2 1 5 1 6 1 3 1 8 2 16 3 3 0 6 0 7 1 13 2 68 2 88 0 0 0 -1 -9
-1 -16 -1 -5 -2 -15 -3 -23 0 -8 -1 -19 -2 -23 -1 -11 -1 -22 -1 -35 -1 -9 -1
-17 -1 -18 -2 -5 -2 -19 0 -27 3 -16 7 -26 15 -32 8 -6 11 -7 22 -7 8 0 9 0
16 3 12 6 24 20 30 33 2 4 6 15 7 20 0 1 1 5 2 9 1 3 2 7 3 8 0 0 0 3 1 5 1 2
1 6 2 7 0 1 0 3 1 5 2 13 2 110 0 119 -1 1 -1 3 -1 4 -2 9 -8 20 -13 28 -13
16 -29 25 -53 29 -2 0 -5 0 -6 1 -3 0 -43 1 -43 1z"/>
</g>
</svg>
