<?xml version="1.0" standalone="no"?>
<!DOCTYPE svg PUBLIC "-//W3C//DTD SVG 20010904//EN"
 "http://www.w3.org/TR/2001/REC-SVG-20010904/DTD/svg10.dtd">
<svg version="1.0" xmlns="http://www.w3.org/2000/svg"
 width="1000.000000pt" height="1000.000000pt" viewBox="0 0 1000.000000 1000.000000"
 preserveAspectRatio="xMidYMid meet">
<metadata>
Created by potrace 1.16, written by Peter Selinger 2001-2019
</metadata>
<g transform="translate(0.000000,1000.000000) scale(1.000000,-1.000000)"
fill="#000000" stroke="none">
<path d="M437 713 c0 0 -5 0 -11 0 -7 -1 -12 -1 -14 -1 -1 -1 -5 -1 -8 -1 -4
-1 -8 -1 -9 -1 -1 -1 -4 -1 -6 -1 -2 -1 -5 -1 -6 -1 -1 -1 -4 -1 -6 -2 -8 -1
-21 -4 -31 -7 -13 -4 -41 -15 -49 -20 -17 -8 -48 -25 -56 -30 -12 -7 -35 -24
-41 -30 -11 -11 -14 -25 -9 -34 6 -11 18 -15 31 -11 3 1 12 6 20 10 22 12 49
25 64 31 13 4 38 13 42 14 4 0 6 1 13 3 2 0 5 1 7 1 2 1 4 1 4 1 0 1 2 1 4 1
2 1 5 1 6 1 1 1 4 1 6 2 3 0 6 0 8 1 15 2 48 3 54 2 3 -1 3 -2 -1 -14 -2 -9
-4 -11 -20 -38 -7 -11 -15 -24 -18 -29 -3 -6 -10 -17 -15 -26 -5 -9 -12 -21
-15 -27 -11 -19 -28 -45 -47 -74 -5 -8 -17 -26 -25 -40 -8 -14 -17 -27 -18
-30 -7 -10 -16 -32 -18 -44 -1 -2 -5 -12 -10 -23 -3 -9 -3 -10 -3 -18 0 -8 0
-10 2 -15 6 -12 17 -19 30 -19 12 0 19 3 33 17 3 3 11 9 19 14 18 12 20 15 38
36 8 11 16 21 17 22 18 21 33 43 54 79 7 13 18 31 24 41 17 29 32 63 42 98 3
13 4 15 5 21 0 2 0 4 1 5 2 13 2 43 0 56 -1 1 -1 3 -1 5 -1 2 -1 6 -2 8 0 3
-1 5 -2 9 0 1 0 3 0 4 -1 1 -1 2 -1 2 0 0 0 1 -1 2 0 1 -2 7 -5 12 -9 19 -27
33 -47 37 -6 1 -28 2 -29 1z"/>
</g>
</svg>
