<?xml version="1.0" standalone="no"?>
<!DOCTYPE svg PUBLIC "-//W3C//DTD SVG 20010904//EN"
 "http://www.w3.org/TR/2001/REC-SVG-20010904/DTD/svg10.dtd">
<svg version="1.0" xmlns="http://www.w3.org/2000/svg"
 width="1000.000000pt" height="1000.000000pt" viewBox="0 0 1000.000000 1000.000000"
 preserveAspectRatio="xMidYMid meet">
<metadata>
Created by potrace 1.16, written by Peter Selinger 2001-2019
</metadata>
<g transform="translate(0.000000,1000.000000) scale(1.000000,-1.000000)"
fill="#000000" stroke="none">
<path d="M567 953 c0 0 -7 0 -14 0 -7 -1 -15 -1 -17 -1 -2 -1 -7 -1 -10 -1
-12 -2 -25 -3 -28 -4 -1 0 -4 0 -7 -1 -3 0 -6 0 -7 -1 -1 0 -4 0 -6 0 -2 -1
-5 -1 -6 -1 -1 -1 -4 -1 -6 -1 -2 -1 -5 -1 -6 -2 -1 0 -4 0 -5 -1 -9 -1 -25
-4 -33 -7 -5 -1 -11 -2 -12 -3 -1 0 -3 0 -3 -1 -1 0 -2 0 -4 -1 -6 -1 -41 -13
-54 -19 -45 -20 -70 -39 -71 -56 0 -6 1 -9 6 -13 4 -4 9 -5 20 -4 10 0 13 0
27 3 2 1 6 1 7 1 1 1 3 1 4 1 1 1 3 1 4 1 1 1 6 2 11 3 7 2 12 3 21 4 1 1 3 1
4 1 1 1 3 1 5 1 4 1 6 2 11 3 2 0 5 1 7 2 4 0 5 0 11 1 3 1 6 1 15 3 2 0 5 0
6 1 1 0 5 0 10 0 4 1 9 1 12 2 2 0 7 0 12 1 4 0 9 0 11 1 25 2 97 2 112 0 1
-1 5 -1 7 -1 14 -2 31 -9 38 -15 5 -5 12 -13 13 -16 1 -3 1 -35 0 -38 -1 -2
-1 -5 -2 -7 0 -3 0 -7 -1 -8 0 -1 0 -9 0 -18 -1 -24 -2 -37 -2 -43 -1 -6 0
-11 4 -16 8 -10 21 -11 32 -3 2 2 7 4 11 6 12 6 19 11 28 21 10 11 16 20 19
28 2 5 5 19 6 26 1 1 1 4 1 5 2 6 2 8 4 23 1 9 0 29 -1 36 -1 1 -1 4 -2 5 -1
10 -9 26 -18 38 -6 8 -21 24 -28 29 -2 1 -4 4 -6 5 -1 1 -2 2 -2 1 0 0 0 0 -1
1 -2 2 -27 16 -34 18 -5 2 -22 7 -26 8 -5 1 -6 1 -11 2 -3 0 -7 0 -9 1 -5 0
-47 1 -47 0z"/>
</g>
</svg>
