<?xml version="1.0" standalone="no"?>
<!DOCTYPE svg PUBLIC "-//W3C//DTD SVG 20010904//EN"
 "http://www.w3.org/TR/2001/REC-SVG-20010904/DTD/svg10.dtd">
<svg version="1.0" xmlns="http://www.w3.org/2000/svg"
 width="1000.000000pt" height="1000.000000pt" viewBox="0 0 1000.000000 1000.000000"
 preserveAspectRatio="xMidYMid meet">
<metadata>
Created by potrace 1.16, written by Peter Selinger 2001-2019
</metadata>
<g transform="translate(0.000000,1000.000000) scale(1.000000,-1.000000)"
fill="#000000" stroke="none">
<path d="M502 766 c0 0 -4 0 -8 -1 -4 0 -8 0 -9 -1 -3 0 -14 -1 -27 -2 -8 -1
-14 -2 -18 -3 -2 0 -5 0 -6 -1 -3 0 -7 -1 -16 -3 -1 0 -4 0 -6 -1 -2 0 -6 -1
-8 -1 -2 -1 -6 -1 -7 -2 -1 0 -3 0 -4 -1 -1 0 -3 0 -5 -1 -1 0 -3 0 -4 -1 -2
0 -4 0 -8 -2 -2 0 -7 -1 -13 -3 -6 -2 -11 -3 -13 -4 -3 0 -27 -10 -33 -13 -3
-2 -9 -5 -13 -8 -4 -2 -12 -6 -17 -9 -24 -11 -33 -19 -34 -29 -2 -12 15 -13
49 -3 1 0 6 0 10 0 11 0 24 0 33 0 4 1 9 1 10 2 4 0 13 1 15 2 2 0 5 0 7 1 8
1 12 1 14 1 1 1 5 1 8 1 4 1 7 1 9 1 2 1 12 2 23 2 20 2 25 2 34 4 12 1 114 1
127 -1 1 -1 5 -1 7 -1 2 -1 5 -1 6 -1 1 -1 3 -1 5 -1 4 -1 8 -2 10 -2 1 -1 3
-1 4 -1 1 -1 4 -1 6 -2 1 0 5 -1 9 -2 3 -1 6 -1 7 -1 0 0 1 -1 2 -1 0 -1 1 -1
1 -1 0 1 2 0 4 -1 2 -1 4 -1 4 -1 0 0 0 0 0 0 0 0 1 0 2 0 1 -1 5 -2 10 -4 12
-5 15 -9 15 -21 0 -12 -1 -16 -11 -43 -4 -8 -8 -19 -10 -23 -2 -5 -8 -20 -13
-33 -9 -22 -13 -30 -21 -44 -3 -6 -6 -12 -10 -25 -4 -11 -5 -17 -5 -28 0 -7 0
-14 2 -23 0 -2 1 -6 1 -8 0 -2 0 -7 -1 -11 -1 -9 -1 -15 2 -20 4 -10 13 -16
24 -15 2 0 4 0 6 0 1 0 2 1 1 1 0 0 1 1 2 1 4 1 10 8 15 16 4 7 6 9 21 19 12
8 27 25 36 40 7 12 24 50 38 85 4 9 8 18 9 20 0 1 0 2 0 2 1 2 3 10 4 10 0 1
0 1 0 1 0 0 0 1 1 2 0 1 0 3 0 4 2 4 2 7 3 10 0 2 0 4 1 5 1 7 1 15 1 28 0 15
0 21 -3 32 0 1 0 4 -1 5 -4 19 -18 44 -37 63 -9 9 -16 14 -28 20 -8 4 -31 12
-36 13 -1 0 -3 0 -4 1 -2 0 -5 1 -9 2 -2 0 -5 0 -6 1 -5 1 -8 1 -11 2 -3 0 -6
0 -7 0 -1 1 -5 1 -8 1 -3 1 -7 1 -9 1 -2 1 -7 1 -11 2 -4 0 -9 0 -11 1 -10 1
-27 1 -60 1 -20 1 -37 1 -37 0z"/>
</g>
</svg>
