<?xml version="1.0" standalone="no"?>
<!DOCTYPE svg PUBLIC "-//W3C//DTD SVG 20010904//EN"
 "http://www.w3.org/TR/2001/REC-SVG-20010904/DTD/svg10.dtd">
<svg version="1.0" xmlns="http://www.w3.org/2000/svg"
 width="1000.000000pt" height="1000.000000pt" viewBox="0 0 1000.000000 1000.000000"
 preserveAspectRatio="xMidYMid meet">
<metadata>
Created by potrace 1.16, written by Peter Selinger 2001-2019
</metadata>
<g transform="translate(0.000000,1000.000000) scale(1.000000,-1.000000)"
fill="#000000" stroke="none">
<path d="M411 801 c-17 -7 -32 -23 -50 -54 -9 -16 -35 -68 -64 -128 -8 -15
-18 -35 -24 -45 -21 -37 -23 -42 -25 -60 0 -8 0 -20 0 -23 1 -5 5 -12 8 -14 7
-5 15 -7 25 -4 15 4 33 19 42 34 22 38 49 89 53 101 l1 2 3 -3 c1 -1 4 -5 6
-7 8 -10 11 -13 19 -21 16 -17 26 -27 41 -40 3 -3 19 -14 30 -22 4 -4 9 -7 9
-7 0 0 5 -3 10 -7 14 -9 14 -9 14 -13 5 -22 30 -32 51 -19 2 1 4 2 4 2 1 0 1
0 1 1 -1 0 0 1 1 2 5 3 10 12 18 29 6 16 12 32 13 37 1 1 2 5 3 10 1 4 2 8 3
9 0 2 1 5 1 8 1 1 1 4 2 6 1 2 1 6 2 7 0 3 3 12 4 15 0 1 1 0 3 -3 2 -2 5 -5
7 -7 1 -1 7 -8 14 -14 19 -22 45 -46 65 -63 2 -2 5 -4 6 -5 1 -1 4 -3 6 -5 6
-5 7 -6 14 -12 2 -2 7 -7 10 -9 3 -2 7 -6 8 -7 5 -4 12 -9 15 -11 16 -6 35 -1
44 12 6 7 9 15 8 23 0 7 0 11 -1 12 0 0 0 0 0 1 -1 1 -4 8 -5 10 -3 3 -10 10
-15 14 -2 2 -5 5 -7 6 -4 4 -15 14 -16 15 -1 0 -4 3 -7 6 -4 2 -7 5 -7 5 0 0
-3 3 -6 5 -4 3 -7 6 -8 6 0 1 -5 5 -10 10 -12 11 -31 30 -46 46 -19 21 -30 30
-48 41 -1 1 -1 1 1 9 2 4 3 8 4 9 0 1 0 2 1 3 0 0 2 7 4 15 2 7 4 14 4 15 1 4
3 11 6 18 5 15 1 26 -11 31 -11 5 -26 0 -40 -14 -14 -15 -26 -36 -45 -84 -7
-15 -17 -46 -18 -51 -1 -2 -1 -3 -1 -4 -1 0 -1 -2 -1 -3 -1 -1 -2 -5 -3 -8 0
-4 -1 -7 -2 -8 0 -1 -1 -6 -2 -10 -2 -5 -3 -10 -3 -11 -1 -2 -1 -3 -1 -3 0 0
0 0 0 -1 -1 -2 -2 -2 -10 3 -9 7 -24 18 -29 22 -5 5 -29 29 -35 36 -7 8 -14
16 -16 18 -1 2 -2 3 -2 4 -1 0 -4 3 -6 6 -4 5 -14 14 -17 15 -2 1 2 9 15 31 5
9 10 20 12 23 3 7 8 21 9 25 0 1 0 4 1 5 0 4 0 14 -1 18 -1 7 -7 14 -14 18 -7
4 -18 4 -25 1z"/>
</g>
</svg>
