<?xml version="1.0" standalone="no"?>
<!DOCTYPE svg PUBLIC "-//W3C//DTD SVG 20010904//EN"
 "http://www.w3.org/TR/2001/REC-SVG-20010904/DTD/svg10.dtd">
<svg version="1.0" xmlns="http://www.w3.org/2000/svg"
 width="1000.000000pt" height="1000.000000pt" viewBox="0 0 1000.000000 1000.000000"
 preserveAspectRatio="xMidYMid meet">
<metadata>
Created by potrace 1.16, written by Peter Selinger 2001-2019
</metadata>
<g transform="translate(0.000000,1000.000000) scale(1.000000,-1.000000)"
fill="#000000" stroke="none">
<path d="M420 820 c-12 -4 -24 -15 -34 -33 -5 -10 -14 -32 -16 -38 0 -1 0 -1
0 -1 0 0 0 -1 0 -2 -1 -1 -2 -4 -3 -7 -1 -3 -2 -6 -1 -6 0 0 0 -1 -1 -1 -1 -1
-1 -2 0 -2 0 0 0 -1 -1 -2 -1 -1 -1 -1 -1 -2 0 0 0 0 0 0 0 0 0 -1 -1 -2 0 -1
-2 -8 -4 -16 -5 -15 -13 -46 -14 -51 -1 -4 -2 -7 -2 -9 -1 -1 -1 -3 -1 -4 -1
-1 -1 -5 -2 -7 0 -2 -1 -6 -1 -8 -1 -6 -2 -9 -3 -9 0 0 -7 6 -14 13 -18 18
-28 32 -42 57 -4 7 -8 13 -12 16 l-3 3 4 8 c4 8 7 18 8 23 0 2 0 4 1 5 0 2 0
7 1 14 1 25 -7 38 -23 37 -6 0 -15 -4 -21 -10 -20 -17 -23 -20 -33 -37 -15
-24 -23 -43 -42 -105 -13 -41 -21 -66 -22 -75 -1 -4 -2 -7 -2 -10 -2 -7 -2 -9
-3 -21 0 -20 3 -29 12 -38 7 -7 13 -9 23 -9 6 0 8 0 14 3 11 5 17 13 23 28 1
4 2 8 3 9 1 4 1 7 2 10 1 7 4 21 6 28 1 3 2 7 2 8 1 1 1 2 1 2 0 0 0 0 0 1 1
1 2 7 5 14 2 6 3 12 3 12 1 3 5 15 5 15 1 0 3 -3 6 -7 2 -4 5 -7 5 -7 0 0 1
-1 2 -3 6 -8 32 -35 44 -44 2 -1 4 -3 4 -4 1 0 8 -5 15 -10 9 -7 13 -11 13
-12 0 -2 -1 -8 -2 -12 -1 -9 -2 -24 -1 -31 3 -12 17 -27 30 -29 3 -1 12 -1 15
-1 3 1 9 4 12 6 2 1 3 2 3 1 1 0 1 0 1 1 -1 0 0 1 2 2 6 5 11 17 12 28 1 8 2
14 4 22 2 9 2 9 4 14 2 7 2 8 3 17 0 5 0 10 0 11 1 1 1 4 2 6 0 2 0 4 1 5 0 2
0 5 1 7 0 2 0 5 1 6 0 1 0 4 1 6 0 2 0 5 1 6 0 1 0 3 0 5 2 10 2 10 7 3 9 -12
24 -33 26 -35 1 -2 5 -5 7 -8 6 -7 30 -31 40 -39 11 -11 13 -13 17 -20 2 -3 4
-6 4 -7 0 -2 11 -12 17 -15 13 -7 26 -7 37 0 15 10 21 32 13 49 -6 17 -14 28
-33 45 -10 9 -35 34 -40 39 -1 2 -4 5 -5 7 -2 3 -4 5 -5 5 0 1 -5 8 -11 16
-13 18 -17 23 -25 31 -3 3 -10 10 -15 15 -6 5 -10 9 -9 9 0 1 0 2 0 3 1 1 4
13 9 28 1 3 2 7 3 8 0 0 1 4 2 9 7 24 8 33 8 42 0 6 -3 17 -4 17 -1 0 -1 0 -1
1 2 1 -11 12 -17 13 -5 1 -11 1 -15 0z"/>
</g>
</svg>
