<?xml version="1.0" standalone="no"?>
<!DOCTYPE svg PUBLIC "-//W3C//DTD SVG 20010904//EN"
 "http://www.w3.org/TR/2001/REC-SVG-20010904/DTD/svg10.dtd">
<svg version="1.0" xmlns="http://www.w3.org/2000/svg"
 width="1000.000000pt" height="1000.000000pt" viewBox="0 0 1000.000000 1000.000000"
 preserveAspectRatio="xMidYMid meet">
<metadata>
Created by potrace 1.16, written by Peter Selinger 2001-2019
</metadata>
<g transform="translate(0.000000,1000.000000) scale(1.000000,-1.000000)"
fill="#000000" stroke="none">
<path d="M579 955 c-6 -1 -12 -4 -19 -11 -15 -13 -43 -51 -59 -79 -5 -8 -12
-20 -16 -27 l-8 -12 -37 24 -37 24 3 4 c16 25 20 44 11 58 -5 8 -16 14 -26 14
-5 0 -7 0 -14 -1 -12 -3 -26 -16 -47 -46 -39 -54 -50 -68 -77 -94 -25 -24 -29
-28 -32 -38 -4 -10 -3 -22 2 -33 5 -11 13 -16 25 -17 13 0 23 3 34 11 3 3 16
15 28 27 12 12 22 21 23 21 0 0 0 0 0 1 -1 0 2 3 5 7 4 4 9 10 13 15 4 5 7 9
8 9 0 0 12 -8 26 -17 15 -10 30 -20 34 -23 7 -4 12 -8 20 -16 1 -1 2 -3 2 -4
0 -7 7 -16 17 -20 5 -3 8 -3 14 -3 9 0 11 0 19 3 7 4 17 11 23 18 8 8 29 41
38 59 4 8 8 15 8 15 0 0 2 -2 4 -3 7 -6 15 -12 19 -15 3 -2 5 -4 5 -4 1 -1 14
-11 17 -14 1 -1 5 -4 10 -7 12 -10 15 -12 22 -18 10 -10 31 -24 43 -30 10 -6
15 -7 28 -7 12 0 19 2 25 6 1 2 3 3 3 2 1 0 1 0 1 1 0 0 1 2 2 4 4 5 6 12 6
19 -1 8 -2 10 -9 21 -6 10 -12 16 -22 22 -10 6 -22 15 -29 21 -2 2 -10 8 -16
13 -10 7 -38 30 -51 40 -1 1 -4 3 -6 5 -2 2 -5 4 -6 5 -1 0 -4 3 -8 6 l-6 4 2
4 c9 21 11 28 11 37 -1 5 -1 7 -4 10 -5 7 -13 10 -22 9z"/>
</g>
</svg>
