<?xml version="1.0" standalone="no"?>
<!DOCTYPE svg PUBLIC "-//W3C//DTD SVG 20010904//EN"
 "http://www.w3.org/TR/2001/REC-SVG-20010904/DTD/svg10.dtd">
<svg version="1.0" xmlns="http://www.w3.org/2000/svg"
 width="1000.000000pt" height="1000.000000pt" viewBox="0 0 1000.000000 1000.000000"
 preserveAspectRatio="xMidYMid meet">
<metadata>
Created by potrace 1.16, written by Peter Selinger 2001-2019
</metadata>
<g transform="translate(0.000000,1000.000000) scale(1.000000,-1.000000)"
fill="#000000" stroke="none">
<path d="M446 726 c-14 -5 -25 -17 -41 -45 -8 -14 -18 -38 -23 -52 -3 -10 -10
-36 -11 -40 -1 -2 -3 -11 -6 -21 -3 -10 -5 -19 -5 -19 -1 -1 -1 -4 -2 -7 -1
-3 -2 -7 -2 -8 -1 -1 -3 -7 -4 -14 -2 -7 -4 -14 -5 -15 0 -1 0 -3 0 -3 -1 -1
-1 -3 -1 -5 -1 -2 -2 -3 -2 -3 -1 0 -12 17 -26 39 -6 9 -12 18 -12 18 -1 0 -1
1 -1 2 0 0 0 1 -1 1 0 0 -2 3 -4 6 -10 13 -17 21 -25 29 l-7 7 3 8 c2 4 3 8 4
9 0 1 0 2 1 2 0 1 0 1 0 2 0 0 0 0 1 1 0 1 0 1 0 2 0 0 0 0 1 1 0 1 0 1 0 1 0
0 0 1 1 2 0 1 1 5 2 9 1 3 2 8 3 9 0 1 1 5 1 7 6 26 1 45 -15 55 -8 5 -21 7
-31 5 -7 -2 -17 -10 -21 -17 -2 -4 -5 -11 -5 -16 -1 -3 -1 -6 -2 -7 -1 -7 -4
-20 -8 -30 -2 -6 -4 -12 -4 -12 -1 -1 -1 -3 -2 -4 -1 -3 -16 -47 -16 -48 0 0
0 0 0 0 0 -1 0 -1 0 -2 -1 0 -2 -5 -4 -10 -2 -6 -3 -11 -3 -11 -1 -1 -3 -9 -7
-19 -3 -10 -5 -18 -6 -18 0 0 0 -1 0 -2 -7 -15 -26 -71 -27 -77 -1 -2 -1 -5
-1 -6 -3 -14 -4 -23 -3 -29 1 -3 1 -5 1 -5 1 -3 6 -11 9 -14 4 -5 12 -9 17
-11 3 0 18 0 20 0 5 1 13 7 17 11 6 6 9 13 11 24 1 4 2 9 2 10 1 1 1 3 1 4 1
3 8 24 9 26 0 0 1 1 1 2 0 0 14 39 16 43 0 1 0 2 0 2 1 2 8 24 9 24 0 1 3 -4
7 -10 36 -58 53 -82 72 -101 5 -6 10 -11 10 -12 0 -3 0 -2 3 -10 4 -13 10 -21
20 -26 7 -3 12 -3 24 0 3 1 16 13 16 16 0 0 0 1 1 1 1 0 1 0 1 1 0 0 0 2 1 4
1 3 2 4 2 5 0 0 1 1 1 3 1 1 1 3 2 3 0 1 0 1 0 2 0 0 0 0 1 6 2 6 2 6 3 12 0
3 0 7 1 8 0 1 0 4 1 7 0 4 2 13 3 17 0 1 0 4 1 6 0 1 1 5 1 7 1 2 1 5 2 7 0 1
1 5 2 8 0 1 0 2 0 3 0 2 1 1 4 -4 8 -15 23 -37 31 -47 1 0 5 -4 9 -9 18 -20
28 -29 38 -34 10 -4 28 -7 38 -5 7 2 15 8 19 15 4 7 4 19 2 24 -1 0 -1 1 -1 1
2 0 -8 16 -9 17 -1 0 -1 1 -1 1 0 1 -1 2 -1 2 -40 41 -42 44 -55 66 -15 25
-22 37 -28 46 -4 5 -10 13 -13 17 l-6 8 3 11 c2 6 3 11 3 12 0 0 1 1 1 2 1 0
1 1 1 1 -1 0 0 3 2 7 1 4 2 9 3 10 0 1 1 3 1 4 1 1 1 2 0 2 0 0 0 1 1 1 0 1 1
2 1 2 0 1 9 28 14 38 1 2 1 4 1 4 1 0 2 3 3 7 1 3 2 6 3 7 0 1 0 3 1 4 1 4 1
18 0 19 0 1 -1 2 -1 3 0 2 -4 9 -6 12 -8 7 -20 10 -30 8z"/>
</g>
</svg>
