<?xml version="1.0" standalone="no"?>
<!DOCTYPE svg PUBLIC "-//W3C//DTD SVG 20010904//EN"
 "http://www.w3.org/TR/2001/REC-SVG-20010904/DTD/svg10.dtd">
<svg version="1.0" xmlns="http://www.w3.org/2000/svg"
 width="1000.000000pt" height="1000.000000pt" viewBox="0 0 1000.000000 1000.000000"
 preserveAspectRatio="xMidYMid meet">
<metadata>
Created by potrace 1.16, written by Peter Selinger 2001-2019
</metadata>
<g transform="translate(0.000000,1000.000000) scale(1.000000,-1.000000)"
fill="#000000" stroke="none">
<path d="M248 960 c-8 -3 -14 -7 -24 -17 -13 -13 -24 -29 -49 -71 -7 -12 -17
-28 -22 -37 -5 -9 -13 -22 -17 -29 -4 -9 -10 -18 -14 -23 -9 -11 -10 -13 -12
-19 -2 -6 -2 -21 0 -24 0 0 0 0 0 -1 1 -1 4 -7 6 -9 0 0 1 -2 2 -2 1 -3 11 -9
16 -11 1 0 1 0 1 0 2 -1 13 -1 17 -1 16 4 34 21 47 45 2 4 6 11 8 16 2 4 8 13
12 19 4 7 7 13 8 13 0 1 1 2 1 2 1 0 23 -15 30 -21 5 -3 15 -11 16 -12 0 -1 4
-5 8 -8 16 -14 14 -12 14 -22 1 -9 2 -15 6 -20 17 -25 53 -22 66 5 1 3 2 6 2
6 1 1 32 63 32 63 0 0 6 -4 12 -9 9 -7 31 -28 45 -43 7 -9 13 -13 20 -17 10
-4 17 -5 26 -4 2 1 4 1 5 1 1 0 2 1 1 1 0 0 1 1 3 2 5 2 11 8 14 15 6 12 5 26
-5 41 -2 4 -4 7 -4 8 -1 0 -4 3 -7 7 -5 6 -27 28 -35 36 -3 2 -11 9 -18 15
-17 13 -17 13 -22 16 l-4 2 1 4 c1 2 2 4 3 6 0 1 0 2 1 3 0 0 1 3 1 5 3 8 2
23 -1 29 -4 9 -11 15 -20 17 -12 2 -25 -3 -36 -16 -17 -18 -27 -35 -42 -70 -9
-19 -9 -20 -9 -21 0 -1 -1 -1 -3 1 -1 1 -5 4 -8 7 -6 6 -28 22 -36 27 -2 2 -5
4 -5 4 0 0 -3 2 -5 4 -3 2 -6 3 -6 4 0 0 2 3 4 6 10 14 18 30 20 38 2 16 -5
31 -18 37 -5 3 -6 3 -14 3 -4 1 -8 0 -12 -1z"/>
</g>
</svg>
