<?xml version="1.0" standalone="no"?>
<!DOCTYPE svg PUBLIC "-//W3C//DTD SVG 20010904//EN"
 "http://www.w3.org/TR/2001/REC-SVG-20010904/DTD/svg10.dtd">
<svg version="1.0" xmlns="http://www.w3.org/2000/svg"
 width="1000.000000pt" height="1000.000000pt" viewBox="0 0 1000.000000 1000.000000"
 preserveAspectRatio="xMidYMid meet">
<metadata>
Created by potrace 1.16, written by Peter Selinger 2001-2019
</metadata>
<g transform="translate(0.000000,1000.000000) scale(1.000000,-1.000000)"
fill="#000000" stroke="none">
<path d="M361 709 c-18 -4 -29 -18 -41 -53 -7 -18 -17 -55 -20 -72 -1 -1 -1
-3 -1 -4 -1 -1 -1 -3 -1 -4 -1 -1 -1 -4 -1 -5 -1 -1 -1 -3 -1 -4 -2 -5 -8 -27
-9 -30 -1 -2 -2 -4 -2 -4 0 -1 0 -1 0 -1 0 -1 0 -1 0 -2 -1 0 -2 -4 -3 -9 -2
-5 -3 -9 -3 -9 -1 -1 -2 -5 -3 -9 -1 -4 -2 -8 -3 -8 0 -1 0 -1 0 -1 0 0 0 -1
0 -2 -1 -1 -2 -6 -4 -12 -2 -5 -5 -18 -8 -28 -7 -27 -13 -42 -22 -63 -11 -23
-12 -39 -5 -52 4 -7 15 -15 20 -17 1 0 1 0 1 0 2 -1 14 -2 20 -1 9 2 21 11 25
19 2 5 7 17 16 37 6 15 16 44 18 56 1 4 4 15 5 18 l1 3 12 -12 c13 -13 15 -14
34 -29 13 -9 24 -18 34 -27 2 -1 7 -6 12 -11 7 -7 12 -11 15 -11 0 0 1 -1 2
-1 0 0 2 -1 4 -1 3 -1 3 -1 2 -4 -1 -2 -1 -4 -1 -5 -1 -1 -1 -2 -1 -2 0 0 0 0
0 -1 -1 -1 -1 -1 -1 -1 0 -1 0 -1 0 -2 -1 -1 -1 -1 -1 -1 0 -1 0 -1 0 -2 -1 0
-1 -1 -1 -2 -3 -8 -3 -19 -2 -26 7 -27 34 -36 57 -20 8 7 17 19 20 30 2 7 11
37 12 37 0 1 1 2 1 2 0 1 6 22 7 23 0 0 1 1 1 2 0 0 1 4 3 9 1 5 2 9 3 9 0 1
0 1 0 1 0 0 0 1 0 2 1 1 2 5 3 10 2 5 3 9 3 9 0 0 1 4 3 9 1 5 2 9 3 10 0 1 0
2 0 3 0 0 3 -5 7 -11 12 -21 26 -39 37 -52 3 -3 6 -7 21 -26 3 -4 9 -11 15
-17 3 -3 7 -8 9 -12 12 -20 20 -28 34 -31 14 -4 31 1 38 11 4 5 6 15 6 25 0
10 -1 15 -12 32 -7 13 -12 20 -22 30 -3 3 -10 12 -15 18 -5 6 -10 13 -12 15
-1 1 -4 4 -6 7 -2 2 -4 5 -5 6 -8 10 -22 31 -41 65 -3 5 -8 15 -12 24 -3 6 -6
12 -8 14 l-3 5 4 15 c5 14 7 25 9 32 0 1 1 7 2 12 1 5 2 11 3 13 0 3 3 19 5
24 1 5 1 19 -1 23 -5 12 -19 17 -33 10 -12 -6 -30 -28 -40 -47 -5 -10 -12 -25
-12 -28 -1 -1 -1 -2 -1 -3 -1 -2 -3 -9 -4 -11 0 -1 0 -2 0 -2 0 0 0 0 0 -1 -1
0 -2 -4 -3 -8 -1 -4 -2 -8 -3 -9 0 -1 -2 -9 -5 -17 -3 -9 -5 -17 -5 -18 -1 -1
-2 -4 -3 -7 -1 -4 -2 -7 -2 -7 0 0 0 0 0 0 0 0 0 -1 -1 -2 0 -1 -2 -8 -4 -15
-2 -7 -4 -14 -4 -15 -1 -2 -2 -6 -3 -9 -1 -4 -2 -7 -2 -8 0 0 -1 -2 -1 -4 -1
-3 -1 -5 -2 -6 0 -4 -8 -29 -9 -31 0 0 -2 0 -5 3 -13 12 -28 24 -45 37 -15 11
-33 27 -40 37 -5 7 -10 18 -12 27 -1 3 -3 9 -4 13 -1 3 -2 7 -2 9 1 4 2 8 3
10 0 2 1 5 2 9 2 15 11 43 18 62 5 12 7 16 7 17 0 1 1 3 1 5 3 9 2 22 -3 31
-4 7 -14 14 -21 16 -5 1 -13 1 -18 -1z"/>
</g>
</svg>
