<?xml version="1.0" standalone="no"?>
<!DOCTYPE svg PUBLIC "-//W3C//DTD SVG 20010904//EN"
 "http://www.w3.org/TR/2001/REC-SVG-20010904/DTD/svg10.dtd">
<svg version="1.0" xmlns="http://www.w3.org/2000/svg"
 width="1000.000000pt" height="1000.000000pt" viewBox="0 0 1000.000000 1000.000000"
 preserveAspectRatio="xMidYMid meet">
<metadata>
Created by potrace 1.16, written by Peter Selinger 2001-2019
</metadata>
<g transform="translate(0.000000,1000.000000) scale(1.000000,-1.000000)"
fill="#000000" stroke="none">
<path d="M333 695 c0 0 -2 0 -4 0 -2 -1 -5 -1 -6 -2 -1 -1 -2 -1 -2 -1 0 1
-13 -4 -21 -9 -19 -11 -35 -25 -51 -46 -11 -13 -15 -19 -21 -33 -5 -10 -13
-31 -14 -37 -1 -2 -1 -5 -1 -6 -2 -6 -4 -14 -5 -22 0 -2 0 -5 -1 -6 0 -5 -1
-23 -1 -37 0 -21 0 -28 3 -45 1 -1 2 -7 4 -12 11 -32 26 -51 52 -63 6 -4 19
-8 23 -9 1 -1 4 -1 7 -2 2 -1 6 -1 8 -2 2 0 4 0 5 -1 12 -2 45 -2 58 0 1 1 4
1 6 1 6 1 7 1 18 4 4 1 9 2 10 2 1 1 3 1 4 2 2 0 4 1 5 1 5 1 22 8 30 11 4 2
8 4 8 3 1 0 1 0 1 1 -1 0 3 3 8 5 13 7 24 15 34 25 11 11 13 15 22 27 11 18
17 33 20 52 1 7 1 38 0 46 -4 27 -11 46 -27 70 -13 21 -31 37 -51 49 -5 3 -14
7 -17 8 -1 0 -2 0 -2 0 0 0 0 0 -1 0 0 1 -5 2 -9 3 -14 3 -24 4 -32 4 -6 0
-22 -2 -25 -3 -1 0 -2 2 -3 4 0 4 -1 6 -5 9 -3 4 -10 8 -15 9 -3 0 -12 1 -12
0z m30 -61 c9 -4 31 -20 41 -30 1 -1 7 -5 13 -9 15 -11 22 -19 30 -34 8 -14 9
-23 9 -43 0 -17 -1 -21 -8 -33 -10 -14 -18 -21 -35 -29 -7 -4 -24 -11 -28 -11
-1 -1 -4 -2 -7 -2 -3 -1 -7 -2 -8 -3 -1 0 -4 0 -5 0 -21 -5 -45 -4 -61 1 -8 3
-11 6 -15 14 -2 4 -4 7 -4 7 1 0 0 2 -1 5 -2 9 -3 29 -2 49 1 8 1 10 3 17 0 1
0 4 1 6 0 2 0 4 1 5 0 1 0 3 1 4 2 11 9 27 22 46 12 17 17 24 28 36 l10 11 5
-2 c3 -1 8 -3 10 -5z"/>
</g>
</svg>
