<?xml version="1.0" standalone="no"?>
<!DOCTYPE svg PUBLIC "-//W3C//DTD SVG 20010904//EN"
 "http://www.w3.org/TR/2001/REC-SVG-20010904/DTD/svg10.dtd">
<svg version="1.0" xmlns="http://www.w3.org/2000/svg"
 width="1000.000000pt" height="1000.000000pt" viewBox="0 0 1000.000000 1000.000000"
 preserveAspectRatio="xMidYMid meet">
<metadata>
Created by potrace 1.16, written by Peter Selinger 2001-2019
</metadata>
<g transform="translate(0.000000,1000.000000) scale(1.000000,-1.000000)"
fill="#000000" stroke="none">
<path d="M507 921 c0 0 -4 0 -9 0 -5 -1 -10 -1 -11 -1 -1 -1 -4 -1 -7 -1 -4
-1 -7 -1 -7 -2 -1 0 -2 0 -9 -2 -1 0 -3 0 -4 -1 -3 -1 -4 -1 -7 -2 -26 -5 -78
-34 -98 -53 -9 -9 -18 -23 -20 -32 0 -2 0 -4 -1 -5 -1 -3 -1 -20 0 -24 4 -20
23 -41 47 -53 6 -4 21 -10 24 -10 0 -1 1 -1 2 -1 3 -2 22 -7 25 -7 5 -1 8 -2
10 -2 1 -1 3 -1 5 -1 2 -1 4 -1 6 -1 1 -1 4 -1 7 -1 3 -1 7 -1 8 -2 1 0 6 0
10 -1 3 0 7 0 8 -1 13 -2 95 -2 118 0 2 1 7 1 12 1 5 1 9 1 11 1 1 1 4 1 7 1
5 1 7 1 13 2 15 4 29 10 37 17 8 8 12 14 15 25 1 2 1 19 0 22 -1 4 -4 14 -5
16 0 1 0 2 -1 3 0 3 -5 19 -6 20 0 0 -1 1 -1 2 0 2 -6 13 -10 18 -10 13 -17
19 -35 30 -24 14 -51 25 -72 29 -2 0 -4 0 -5 1 -1 0 -3 0 -5 0 -3 0 -5 1 -7 4
-6 5 -16 9 -25 11 -4 0 -20 1 -20 0z m39 -60 c16 -5 29 -12 41 -21 15 -11 27
-24 32 -35 3 -7 4 -9 1 -9 -1 0 -4 0 -8 0 -15 -2 -46 -3 -70 -3 -19 0 -46 1
-50 1 -2 1 -6 1 -9 1 -4 1 -8 1 -9 1 -1 1 -4 1 -6 1 -6 1 -9 2 -15 3 -2 1 -5
1 -6 2 -3 0 -13 3 -15 4 -1 0 -2 0 -2 1 -1 0 -4 1 -7 2 l-6 3 10 7 c14 10 18
12 30 18 8 4 24 10 33 12 2 1 6 3 23 9 9 4 18 7 20 7 1 0 7 -2 13 -4z"/>
</g>
</svg>
