<?xml version="1.0" standalone="no"?>
<!DOCTYPE svg PUBLIC "-//W3C//DTD SVG 20010904//EN"
 "http://www.w3.org/TR/2001/REC-SVG-20010904/DTD/svg10.dtd">
<svg version="1.0" xmlns="http://www.w3.org/2000/svg"
 width="1000.000000pt" height="1000.000000pt" viewBox="0 0 1000.000000 1000.000000"
 preserveAspectRatio="xMidYMid meet">
<metadata>
Created by potrace 1.16, written by Peter Selinger 2001-2019
</metadata>
<g transform="translate(0.000000,1000.000000) scale(1.000000,-1.000000)"
fill="#000000" stroke="none">
<path d="M441 697 c0 0 -2 0 -3 0 -6 -2 -8 -2 -12 -4 -13 -4 -24 -11 -37 -23
-18 -17 -27 -26 -37 -41 -8 -13 -32 -61 -40 -83 -4 -9 -9 -25 -10 -30 -1 -1
-2 -6 -3 -11 -1 -5 -2 -10 -2 -12 -1 -5 -2 -11 -3 -14 -1 -8 -1 -17 -1 -32 0
-13 0 -19 2 -26 2 -12 3 -13 3 -14 0 0 0 -1 2 -4 1 -4 9 -20 10 -21 1 -1 3 -3
4 -6 7 -9 26 -25 39 -32 11 -5 28 -11 40 -13 1 -1 3 -1 5 -1 1 -1 4 -1 7 -2 2
0 5 0 7 -1 12 -2 50 -2 62 0 1 1 3 1 5 1 5 1 8 2 10 2 1 1 3 1 4 1 5 1 7 2 8
2 0 1 2 1 3 1 10 2 37 14 52 23 22 12 54 35 68 47 2 2 4 3 4 3 1 0 1 0 1 0 0
1 4 6 10 11 11 12 18 21 25 34 4 7 10 20 12 25 0 1 0 3 1 4 1 9 2 22 1 31 -1
7 -7 21 -11 30 -3 6 -20 29 -26 37 0 0 -3 3 -5 7 -3 4 -6 7 -6 8 -1 0 -4 3 -6
6 -9 11 -37 38 -49 48 -25 19 -45 31 -68 39 -15 5 -15 5 -35 6 -4 1 -9 2 -11
3 -4 1 -8 2 -13 2 -4 0 -7 0 -7 -1z m10 -71 c5 -1 11 -4 14 -5 3 -1 6 -2 7 -2
0 -1 1 -1 2 -1 1 -1 4 -2 8 -3 15 -5 25 -11 42 -24 13 -11 16 -13 25 -22 12
-12 21 -23 30 -34 2 -4 5 -7 6 -8 6 -8 15 -21 16 -24 2 -5 0 -9 -6 -18 -10
-15 -38 -39 -69 -58 -16 -9 -40 -20 -51 -22 -1 0 -3 0 -4 -1 -10 -3 -40 -3
-53 -1 -1 1 -3 1 -6 1 -21 4 -37 14 -41 26 -2 8 -3 21 -2 34 1 7 1 9 3 18 1 3
1 7 2 9 0 1 1 3 1 4 1 1 1 2 1 2 -1 0 6 19 11 30 9 23 30 63 40 79 12 20 14
23 15 23 0 0 4 -1 9 -3z"/>
</g>
</svg>
