<?xml version="1.0" standalone="no"?>
<!DOCTYPE svg PUBLIC "-//W3C//DTD SVG 20010904//EN"
 "http://www.w3.org/TR/2001/REC-SVG-20010904/DTD/svg10.dtd">
<svg version="1.0" xmlns="http://www.w3.org/2000/svg"
 width="1000.000000pt" height="1000.000000pt" viewBox="0 0 1000.000000 1000.000000"
 preserveAspectRatio="xMidYMid meet">
<metadata>
Created by potrace 1.16, written by Peter Selinger 2001-2019
</metadata>
<g transform="translate(0.000000,1000.000000) scale(1.000000,-1.000000)"
fill="#000000" stroke="none">
<path d="M498 726 c0 0 -3 0 -6 0 -3 -1 -7 -1 -8 -1 -1 -1 -4 -1 -6 -1 -2 -1
-6 -1 -8 -2 -2 0 -5 -1 -7 -1 -2 -1 -4 -1 -4 -1 -1 0 -4 -1 -7 -2 -6 -2 -7 -2
-13 -3 -10 -2 -12 -2 -15 -4 -2 -1 -9 -4 -14 -5 -20 -7 -51 -24 -72 -40 -8 -6
-20 -18 -27 -27 -9 -11 -17 -31 -20 -45 0 -2 0 -5 -1 -6 -1 -8 -1 -26 -1 -34
5 -40 22 -69 53 -88 7 -5 25 -14 25 -13 0 0 1 0 1 -1 2 -1 22 -7 31 -10 1 0 3
0 5 -1 2 0 3 -1 3 0 0 0 1 0 2 -1 1 0 3 -1 5 -1 1 -1 3 -1 5 -1 4 -1 16 -4 19
-4 2 -1 5 -1 6 -1 4 -1 13 -3 18 -3 2 -1 5 -1 6 -1 1 -1 5 -1 7 -1 8 -1 14 -2
17 -3 6 -1 19 -1 35 -1 19 0 26 0 39 3 2 1 5 1 6 1 16 4 49 21 66 34 19 15 36
42 40 62 1 5 1 31 0 37 -1 5 -2 9 -2 9 0 0 0 0 0 1 -1 1 -1 3 -2 4 0 1 0 2 -1
3 0 3 -11 25 -18 37 -1 2 -4 7 -6 11 -3 6 -10 17 -12 20 -1 0 -3 2 -4 4 -3 4
-25 26 -31 31 -2 2 -5 4 -5 5 -5 4 -29 19 -44 27 -8 4 -19 9 -23 10 -1 0 -3 0
-4 1 -3 0 -6 1 -11 2 -4 0 -17 1 -17 0z m-34 -53 c9 -3 11 -4 17 -9 4 -2 34
-18 35 -18 1 0 23 -13 29 -17 6 -4 10 -7 19 -16 10 -10 14 -15 22 -30 19 -35
22 -45 17 -57 -6 -11 -24 -23 -41 -26 -2 0 -6 -1 -8 -1 -7 -1 -46 0 -57 3 -1
0 -4 0 -7 0 -3 1 -7 1 -8 2 -1 0 -4 0 -7 0 -2 1 -5 1 -6 2 -1 0 -4 0 -6 1 -2
0 -5 0 -6 1 -1 0 -4 0 -5 1 -1 0 -4 0 -5 1 -1 0 -4 0 -5 1 -1 0 -4 0 -5 1 -1
0 -4 0 -5 1 -2 0 -4 1 -5 1 -1 1 -2 1 -2 1 0 -1 -1 0 -3 0 -2 1 -4 1 -5 1 -1
1 -8 3 -11 4 0 0 -2 0 -3 0 -8 3 -22 10 -27 15 -9 9 -13 30 -10 44 1 3 1 5 2
6 0 1 0 2 0 2 0 0 0 0 0 1 1 4 6 13 14 24 5 6 10 14 12 17 4 6 14 16 27 25 8
7 32 22 34 22 1 0 5 -1 9 -3z"/>
</g>
</svg>
