<?xml version="1.0" standalone="no"?>
<!DOCTYPE svg PUBLIC "-//W3C//DTD SVG 20010904//EN"
 "http://www.w3.org/TR/2001/REC-SVG-20010904/DTD/svg10.dtd">
<svg version="1.0" xmlns="http://www.w3.org/2000/svg"
 width="1000.000000pt" height="1000.000000pt" viewBox="0 0 1000.000000 1000.000000"
 preserveAspectRatio="xMidYMid meet">
<metadata>
Created by potrace 1.16, written by Peter Selinger 2001-2019
</metadata>
<g transform="translate(0.000000,1000.000000) scale(1.000000,-1.000000)"
fill="#000000" stroke="none">
<path d="M366 731 c-2 0 -6 -1 -10 -1 -8 -1 -17 -4 -32 -10 -19 -9 -37 -20
-51 -34 -11 -11 -10 -10 -21 -25 -10 -13 -15 -22 -18 -36 0 -1 0 -3 -1 -4 -1
-5 -2 -12 -3 -19 -1 -11 0 -41 1 -50 1 -1 1 -3 1 -5 2 -7 2 -9 5 -18 6 -22 19
-45 32 -59 17 -16 39 -25 72 -28 14 -1 41 0 59 1 8 1 16 2 17 3 2 0 4 0 6 1 8
1 12 1 18 3 2 0 5 1 6 1 1 1 4 1 5 1 1 1 3 1 4 1 1 1 6 2 11 4 29 10 52 28 61
49 5 11 7 20 10 37 0 2 0 6 1 8 3 23 0 54 -9 82 -4 11 -14 32 -17 37 -13 15
-25 24 -38 32 -13 8 -15 8 -36 9 -36 1 -35 1 -41 -2 l-5 -3 1 5 c2 14 -13 25
-28 20z m24 -36 c2 -1 4 -3 4 -3 2 -2 9 -6 18 -10 9 -3 10 -4 18 -12 5 -5 12
-12 16 -15 7 -7 13 -14 17 -22 1 -3 1 -5 2 -5 0 0 0 -2 1 -3 1 -3 5 -18 6 -25
0 -3 0 -13 0 -23 0 -16 0 -18 -2 -23 -5 -14 -20 -25 -41 -29 -1 0 -4 -1 -6 -1
-2 -1 -5 -1 -7 -2 -3 0 -5 0 -6 -1 -1 0 -5 0 -8 -1 -3 0 -7 0 -8 -1 -5 0 -22
-1 -31 -1 -23 0 -37 3 -41 8 -6 8 -13 23 -14 33 -3 13 -3 38 0 46 1 1 1 2 0 2
0 0 1 2 1 4 1 1 2 3 1 3 0 0 0 1 1 2 1 2 1 5 2 8 0 2 0 5 1 7 0 1 0 3 1 5 0 3
6 15 10 21 5 6 15 17 16 16 1 0 1 0 1 1 -1 1 5 6 13 11 10 7 14 9 19 9 2 0 5
1 7 1 4 2 5 2 9 0z"/>
</g>
</svg>
