<?xml version="1.0" standalone="no"?>
<!DOCTYPE svg PUBLIC "-//W3C//DTD SVG 20010904//EN"
 "http://www.w3.org/TR/2001/REC-SVG-20010904/DTD/svg10.dtd">
<svg version="1.0" xmlns="http://www.w3.org/2000/svg"
 width="1000.000000pt" height="1000.000000pt" viewBox="0 0 1000.000000 1000.000000"
 preserveAspectRatio="xMidYMid meet">
<metadata>
Created by potrace 1.16, written by Peter Selinger 2001-2019
</metadata>
<g transform="translate(0.000000,1000.000000) scale(1.000000,-1.000000)"
fill="#000000" stroke="none">
<path d="M372 919 c0 0 -5 0 -10 0 -5 -1 -10 -1 -11 -1 -1 -1 -7 -1 -13 -1 -5
-1 -11 -1 -12 -1 -1 -1 -3 -1 -5 -1 -7 -2 -13 -3 -19 -4 -4 -1 -16 -4 -18 -5
-1 0 -5 -1 -7 -2 -6 -2 -7 -2 -22 -4 -9 -1 -39 -9 -52 -14 -4 -2 -13 -7 -19
-10 -20 -12 -38 -32 -46 -52 -2 -4 -3 -9 -3 -11 -1 -2 -1 -5 -2 -6 0 -3 0 -24
0 -27 1 -2 1 -4 1 -5 5 -22 19 -39 41 -48 8 -3 25 -7 33 -9 2 0 5 0 5 0 0 -1
3 -1 6 -1 3 -1 6 -1 7 -1 1 -1 4 -1 8 -1 3 -1 7 -1 8 -1 3 -1 11 -2 22 -3 3 0
8 0 10 0 4 -1 19 -2 28 -3 6 0 22 -1 31 -2 17 -1 44 0 56 2 1 0 4 0 7 1 7 1
22 5 31 8 13 5 34 18 40 25 1 1 3 2 3 1 1 0 1 0 1 0 -1 1 1 4 4 7 6 6 12 19
15 28 8 35 -5 74 -37 107 -4 4 -9 8 -11 10 -10 8 -27 17 -39 20 -12 3 -11 3
-28 4 -2 1 -3 1 -3 0z m-47 -51 c4 -1 9 -1 10 -1 1 -1 4 -1 7 -1 6 -1 26 -11
38 -19 7 -5 21 -17 26 -24 4 -5 9 -16 9 -21 0 -4 0 -5 -4 -8 -3 -2 -6 -3 -6
-4 -1 0 -2 -1 -2 -1 -1 0 -4 -1 -7 -2 -3 -1 -6 -2 -8 -2 -1 -1 -4 -1 -6 -2 -8
-1 -55 0 -76 2 -2 0 -8 0 -13 1 -6 0 -12 0 -14 1 -2 0 -7 0 -11 0 -4 1 -9 1
-11 1 -2 1 -6 1 -9 2 -3 0 -7 0 -8 1 -1 0 -5 0 -7 0 -4 1 -6 1 -12 3 -1 0 -4
0 -5 1 -7 1 -7 1 -5 4 0 2 4 6 7 9 3 4 7 9 10 11 6 9 10 13 18 20 10 9 32 19
52 25 8 2 15 4 16 4 0 1 1 1 2 0 1 0 5 0 9 0z"/>
</g>
</svg>
