<?xml version="1.0" standalone="no"?>
<!DOCTYPE svg PUBLIC "-//W3C//DTD SVG 20010904//EN"
 "http://www.w3.org/TR/2001/REC-SVG-20010904/DTD/svg10.dtd">
<svg version="1.0" xmlns="http://www.w3.org/2000/svg"
 width="1000.000000pt" height="1000.000000pt" viewBox="0 0 1000.000000 1000.000000"
 preserveAspectRatio="xMidYMid meet">
<metadata>
Created by potrace 1.16, written by Peter Selinger 2001-2019
</metadata>
<g transform="translate(0.000000,1000.000000) scale(1.000000,-1.000000)"
fill="#000000" stroke="none">
<path d="M347 800 c0 -1 -3 -1 -7 -1 -4 -1 -8 -1 -9 -1 -1 -1 -4 -1 -6 -2 -3
0 -5 0 -6 -1 -1 0 -3 0 -4 -1 -1 0 -3 0 -4 0 -1 -1 -3 -1 -4 -1 -4 -2 -7 -2
-9 -3 -1 0 -8 -2 -15 -4 -7 -2 -14 -4 -15 -5 -2 0 -8 -2 -14 -4 -6 -1 -12 -3
-13 -3 -1 -1 -8 -2 -15 -4 -7 -2 -14 -4 -15 -4 -8 -2 -27 -9 -32 -13 -10 -6
-18 -18 -18 -29 -1 -5 0 -10 2 -14 0 -1 0 -2 0 -2 0 -1 0 -1 1 -1 1 0 1 0 1
-1 0 -1 1 -2 2 -3 11 -14 30 -18 53 -14 1 1 8 2 16 5 8 2 15 3 16 4 1 0 2 0 3
0 0 1 2 1 3 1 1 1 7 2 13 4 6 2 11 3 12 4 1 0 7 2 14 4 7 2 13 4 13 3 0 0 1 0
2 1 1 0 3 1 4 1 2 1 4 1 9 3 1 0 3 0 4 1 4 1 7 1 10 2 2 0 4 0 4 1 4 2 -15
-24 -30 -41 -1 -1 -4 -5 -6 -8 -6 -6 -29 -33 -31 -35 0 0 -4 -5 -9 -10 -10
-12 -15 -17 -33 -35 -11 -12 -26 -28 -32 -35 -1 -1 -4 -4 -5 -6 -2 -2 -6 -6
-9 -10 -11 -15 -15 -25 -15 -37 0 -7 0 -9 3 -16 5 -13 16 -22 29 -22 10 -1 25
5 32 13 2 1 5 6 8 10 5 8 6 8 19 23 22 24 38 40 39 39 0 0 0 0 0 1 -1 0 1 3 4
6 3 2 9 9 14 14 5 6 10 12 11 13 l3 4 4 -5 c6 -8 24 -26 32 -31 4 -4 17 -13
29 -21 12 -8 27 -18 34 -23 6 -5 17 -12 23 -16 6 -4 12 -9 14 -10 5 -4 6 -5 7
-5 1 0 1 0 1 -1 0 -1 0 -1 1 -1 1 1 1 1 1 0 0 -1 4 -2 11 -4 2 0 18 0 20 0 11
3 22 15 25 26 0 3 0 16 -1 17 0 1 0 2 -1 4 0 1 -1 3 -1 4 -1 0 -1 1 -1 1 1 0
0 2 -2 5 -5 7 -15 16 -31 27 -8 5 -18 12 -22 15 -4 3 -17 12 -29 20 -28 19
-36 24 -46 36 -5 5 -12 11 -14 14 l-5 5 9 12 c11 14 29 41 34 49 4 7 6 16 5
24 0 5 -1 10 -1 10 0 0 0 1 -1 2 0 1 0 3 -1 3 0 1 -2 4 -3 8 -2 7 -4 12 -8 18
-12 14 -23 21 -39 25 -2 0 -32 1 -32 1z"/>
</g>
</svg>
