<?xml version="1.0" standalone="no"?>
<!DOCTYPE svg PUBLIC "-//W3C//DTD SVG 20010904//EN"
 "http://www.w3.org/TR/2001/REC-SVG-20010904/DTD/svg10.dtd">
<svg version="1.0" xmlns="http://www.w3.org/2000/svg"
 width="1000.000000pt" height="1000.000000pt" viewBox="0 0 1000.000000 1000.000000"
 preserveAspectRatio="xMidYMid meet">
<metadata>
Created by potrace 1.16, written by Peter Selinger 2001-2019
</metadata>
<g transform="translate(0.000000,1000.000000) scale(1.000000,-1.000000)"
fill="#000000" stroke="none">
<path d="M349 953 c0 -1 -3 -1 -5 -1 -3 -1 -7 -1 -8 -1 -1 -1 -4 -1 -6 -1 -2
-1 -5 -1 -6 -1 -1 -1 -4 -1 -6 -1 -2 -1 -5 -1 -6 -1 -1 -1 -4 -1 -6 -2 -3 0
-5 0 -6 -1 -1 0 -3 0 -5 0 -4 -1 -6 -2 -11 -3 -1 0 -4 0 -5 -1 -1 0 -7 -1 -12
-3 -5 -1 -10 -2 -11 -3 -8 -1 -23 -7 -32 -12 -14 -7 -24 -16 -26 -24 0 -1 0
-3 -1 -4 -1 -5 0 -13 2 -19 4 -8 13 -16 23 -18 8 -1 24 0 40 3 12 2 19 3 17 2
-1 0 -2 -1 -2 -1 0 0 -5 -4 -11 -9 -12 -9 -31 -24 -34 -27 -1 -1 -9 -8 -18
-16 -32 -26 -43 -40 -44 -58 -1 -4 1 -12 3 -17 3 -5 3 -5 7 -10 9 -10 24 -14
38 -10 6 2 17 10 23 17 6 8 7 8 23 21 8 7 15 13 15 13 1 2 20 16 40 32 l22 17
4 -4 c3 -3 15 -14 21 -19 1 -1 4 -4 8 -6 3 -3 11 -11 19 -18 7 -8 16 -16 20
-20 4 -4 12 -12 19 -18 9 -9 20 -17 23 -18 0 0 1 0 2 0 4 -2 12 -3 22 -3 10 0
11 1 17 4 8 3 10 6 14 13 1 4 2 6 2 12 -1 4 -1 8 -1 10 -2 4 -5 13 -9 18 -2 4
-25 27 -36 37 -3 3 -11 10 -18 18 -12 11 -17 15 -28 25 -1 1 -5 4 -8 7 -3 3
-7 6 -8 7 -2 2 -1 2 8 10 11 9 18 17 21 26 2 5 2 8 2 19 0 14 -1 18 -7 24 -3
3 -13 9 -18 10 -1 0 -3 0 -4 1 -5 1 -7 1 -9 2 -1 0 -3 0 -5 1 -3 0 -42 1 -43
1z"/>
</g>
</svg>
