<?xml version="1.0" standalone="no"?>
<!DOCTYPE svg PUBLIC "-//W3C//DTD SVG 20010904//EN"
 "http://www.w3.org/TR/2001/REC-SVG-20010904/DTD/svg10.dtd">
<svg version="1.0" xmlns="http://www.w3.org/2000/svg"
 width="1000.000000pt" height="1000.000000pt" viewBox="0 0 1000.000000 1000.000000"
 preserveAspectRatio="xMidYMid meet">
<metadata>
Created by potrace 1.16, written by Peter Selinger 2001-2019
</metadata>
<g transform="translate(0.000000,1000.000000) scale(1.000000,-1.000000)"
fill="#000000" stroke="none">
<path d="M360 719 c0 0 -4 0 -9 0 -5 -1 -9 -1 -11 -1 -2 -1 -7 -2 -13 -3 -4 0
-11 -2 -18 -3 -1 -1 -3 -1 -4 -1 -1 -1 -3 -1 -6 -2 -2 0 -4 -1 -4 -1 0 0 -2 0
-3 -1 -2 -1 -4 -1 -5 -2 -2 0 -10 -2 -18 -5 -9 -3 -18 -5 -19 -6 -1 0 -8 -2
-15 -5 -43 -15 -56 -23 -62 -36 -4 -7 -4 -9 -4 -18 0 -7 0 -10 2 -14 4 -8 11
-14 19 -18 5 -3 8 -4 15 -4 9 0 7 -1 41 13 14 5 50 17 51 17 0 -1 -11 -21 -14
-26 -1 -2 -2 -4 -2 -4 0 -1 -4 -7 -8 -14 -4 -7 -8 -13 -8 -13 0 -1 -7 -12 -15
-26 -24 -39 -28 -46 -34 -58 -5 -13 -13 -29 -18 -38 -10 -17 -18 -35 -20 -44
0 -1 0 -3 0 -4 -1 -1 -1 -3 -1 -4 -1 -1 -1 -3 -1 -4 -1 -3 -2 -12 -2 -16 0 -6
1 -9 3 -14 3 -6 5 -9 9 -13 2 -1 4 -3 4 -4 3 -2 12 -5 18 -6 16 -1 31 8 38 23
1 3 2 6 3 8 0 1 0 3 1 4 0 2 1 4 2 9 1 6 5 15 21 45 2 3 6 12 10 20 3 7 12 23
20 37 8 13 18 29 22 36 4 7 8 13 8 13 1 0 2 -3 4 -6 2 -4 7 -10 10 -15 3 -5 7
-9 7 -10 1 -1 8 -11 15 -21 8 -10 18 -24 23 -31 4 -7 13 -19 19 -26 5 -7 12
-17 15 -22 4 -5 9 -11 12 -14 11 -11 28 -15 41 -11 3 1 7 2 8 2 1 0 2 1 2 1 0
1 1 3 3 6 3 3 6 9 6 11 0 0 1 1 1 2 1 0 1 1 1 1 -1 0 0 1 0 3 1 4 1 13 0 17 0
1 0 3 -1 5 -1 7 -8 19 -27 44 -6 8 -15 21 -19 27 -10 14 -12 17 -13 18 0 0 -3
3 -5 6 -3 4 -5 7 -6 8 -2 3 -14 18 -15 21 -2 1 -4 4 -5 6 -2 2 -4 5 -5 6 -5 7
-10 12 -22 24 l-13 13 2 4 c4 6 9 13 18 24 9 11 14 20 16 26 1 2 3 7 4 11 2 4
3 7 2 13 0 6 0 10 -1 12 0 0 0 1 0 1 0 1 0 1 -1 1 -1 0 -1 0 -1 1 1 1 -3 7 -8
12 -5 5 -12 10 -15 11 -1 0 -3 0 -4 1 -2 0 -6 1 -9 1 -4 0 -8 0 -9 0 -2 1 -3
1 -3 0z"/>
</g>
</svg>
