<?xml version="1.0" standalone="no"?>
<!DOCTYPE svg PUBLIC "-//W3C//DTD SVG 20010904//EN"
 "http://www.w3.org/TR/2001/REC-SVG-20010904/DTD/svg10.dtd">
<svg version="1.0" xmlns="http://www.w3.org/2000/svg"
 width="1000.000000pt" height="1000.000000pt" viewBox="0 0 1000.000000 1000.000000"
 preserveAspectRatio="xMidYMid meet">
<metadata>
Created by potrace 1.16, written by Peter Selinger 2001-2019
</metadata>
<g transform="translate(0.000000,1000.000000) scale(1.000000,-1.000000)"
fill="#000000" stroke="none">
<path d="M468 697 c0 -1 -4 -1 -8 -1 -9 -1 -12 -2 -24 -4 -7 -1 -22 -5 -41
-12 -19 -6 -24 -8 -57 -26 -23 -12 -40 -23 -50 -33 -8 -8 -11 -13 -11 -20 0
-8 5 -13 16 -13 5 0 7 0 13 1 1 1 10 4 21 7 11 3 20 6 21 7 1 0 5 1 10 2 4 2
10 3 14 3 4 1 8 1 9 1 1 1 5 1 8 1 3 1 7 1 8 1 1 1 4 1 7 1 3 1 6 1 7 1 2 1
12 2 20 3 8 0 19 1 24 2 15 3 44 3 56 0 0 -1 2 -1 4 -1 4 -2 13 -7 17 -10 3
-2 3 -3 3 -8 0 -14 -7 -30 -24 -56 -14 -22 -23 -34 -44 -60 -23 -29 -45 -52
-74 -79 -6 -6 -19 -18 -28 -27 -9 -9 -19 -17 -21 -19 -2 -1 -5 -4 -7 -5 -3 -4
-9 -13 -7 -13 0 0 0 -1 -1 -1 -2 -2 -2 -15 -1 -19 1 -2 1 -4 1 -5 1 -2 6 -10
10 -14 10 -8 22 -10 34 -6 6 1 9 3 17 10 2 2 7 5 10 7 7 5 30 22 34 26 31 28
42 39 59 58 16 17 16 18 29 33 l11 14 7 -9 c3 -5 7 -10 7 -10 1 -1 4 -5 8 -10
6 -8 16 -20 21 -24 1 -2 9 -11 21 -25 4 -6 10 -12 13 -16 1 -2 6 -6 10 -11 11
-12 21 -23 23 -23 0 0 1 0 1 -1 0 -1 11 -6 14 -7 14 -3 28 -4 32 -1 2 0 3 1 3
0 0 0 0 0 1 1 0 0 2 2 4 3 7 6 11 18 9 28 -6 21 -9 28 -24 44 -2 2 -6 6 -10
11 -4 5 -9 10 -10 11 -2 2 -5 6 -7 8 -2 2 -4 5 -4 5 0 0 -3 3 -5 6 -7 8 -8 10
-13 15 -12 13 -17 20 -25 30 -4 5 -7 10 -8 11 -1 0 -1 1 -1 2 0 0 0 1 -1 1 -1
1 -5 7 -10 14 l-9 13 5 8 c5 8 16 29 16 30 0 1 1 2 1 4 1 1 1 3 2 4 2 8 3 12
4 14 0 1 0 3 1 4 3 12 3 36 0 51 -1 5 -9 21 -12 25 -9 11 -23 23 -38 31 -6 4
-27 11 -33 12 -2 1 -5 1 -6 1 -1 1 -5 1 -7 2 -2 0 -6 0 -7 1 -3 0 -38 1 -38 1z"/>
</g>
</svg>
