<?xml version="1.0" standalone="no"?>
<!DOCTYPE svg PUBLIC "-//W3C//DTD SVG 20010904//EN"
 "http://www.w3.org/TR/2001/REC-SVG-20010904/DTD/svg10.dtd">
<svg version="1.0" xmlns="http://www.w3.org/2000/svg"
 width="1000.000000pt" height="1000.000000pt" viewBox="0 0 1000.000000 1000.000000"
 preserveAspectRatio="xMidYMid meet">
<metadata>
Created by potrace 1.16, written by Peter Selinger 2001-2019
</metadata>
<g transform="translate(0.000000,1000.000000) scale(1.000000,-1.000000)"
fill="#000000" stroke="none">
<path d="M528 805 c0 0 -5 0 -11 0 -7 -1 -13 -1 -15 -2 -13 -1 -23 -2 -26 -3
-1 0 -4 0 -7 0 -3 -1 -6 -1 -7 -2 -2 0 -4 0 -6 -1 -2 0 -4 0 -5 -1 -2 0 -4 0
-5 0 -1 -1 -4 -1 -5 -2 -1 0 -4 0 -6 -1 -2 0 -4 0 -4 -1 0 0 -2 0 -4 -1 -2 0
-5 -1 -7 -1 -3 -1 -5 -1 -5 -2 -1 0 -3 0 -4 0 -1 -1 -7 -2 -11 -4 -5 -1 -10
-2 -11 -2 -1 -1 -4 -2 -7 -2 -4 -1 -8 -2 -9 -3 -1 0 -3 0 -3 -1 -1 0 -2 0 -3
0 -1 -1 -6 -2 -12 -4 -18 -5 -24 -7 -36 -9 -22 -3 -37 -18 -38 -36 0 -15 7
-28 21 -34 3 -2 5 -3 5 -3 1 0 1 0 1 0 1 0 3 -1 6 -1 3 -1 15 -1 18 -1 1 1 3
1 5 1 4 1 7 2 11 2 1 1 3 1 4 1 1 1 6 2 12 4 5 1 10 2 11 2 0 1 4 2 8 3 4 1 8
2 9 3 1 0 7 1 13 3 6 2 12 3 13 3 0 1 3 1 5 2 2 1 5 1 6 2 3 0 3 0 9 2 2 0 5
1 6 1 1 1 5 1 7 2 5 1 9 2 14 3 2 0 4 0 5 1 2 0 4 0 6 1 3 0 3 0 2 -2 -1 -1
-2 -2 -2 -2 0 0 -3 -4 -6 -7 -4 -4 -8 -9 -9 -10 -2 -2 -8 -9 -14 -16 -6 -8
-17 -20 -23 -28 -17 -22 -27 -33 -29 -35 -2 -3 -15 -20 -19 -26 -3 -5 -18 -23
-20 -25 0 0 -2 -3 -5 -5 -2 -3 -4 -6 -4 -6 -4 -3 -27 -39 -31 -46 -7 -13 -7
-26 -2 -38 10 -18 35 -22 54 -8 3 2 6 4 6 4 1 0 1 0 1 1 0 0 2 3 6 7 3 4 12
14 19 24 7 9 14 17 15 19 5 5 18 21 22 28 7 8 16 21 18 23 1 2 3 4 4 5 1 1 9
11 17 21 8 10 15 18 15 17 1 0 4 -4 8 -8 22 -22 55 -54 68 -64 2 -2 5 -4 5 -4
0 0 2 -2 4 -3 2 -1 4 -3 4 -3 0 -1 1 -1 1 -1 1 0 2 0 2 -1 0 0 3 -2 7 -5 3 -2
6 -5 6 -5 1 -1 22 -18 26 -21 3 -2 15 -12 18 -14 15 -15 25 -21 42 -27 19 -7
31 -6 40 1 11 10 12 26 2 44 -7 12 -16 23 -30 35 -3 3 -7 6 -8 8 -2 1 -11 8
-19 15 -9 7 -17 13 -18 14 -3 2 -18 15 -22 17 -1 1 -3 2 -4 3 -1 1 -3 2 -4 3
-2 2 -3 2 -11 9 -10 8 -35 33 -59 57 l-8 9 7 8 c4 4 11 11 14 16 4 4 9 10 12
13 15 17 22 30 24 40 1 4 1 14 0 17 -1 4 -5 13 -6 13 -1 0 -1 1 -1 1 0 1 -2 4
-6 6 -8 8 -15 12 -26 13 -5 0 -31 1 -31 0z"/>
</g>
</svg>
