<?xml version="1.0" standalone="no"?>
<!DOCTYPE svg PUBLIC "-//W3C//DTD SVG 20010904//EN"
 "http://www.w3.org/TR/2001/REC-SVG-20010904/DTD/svg10.dtd">
<svg version="1.0" xmlns="http://www.w3.org/2000/svg"
 width="1000.000000pt" height="1000.000000pt" viewBox="0 0 1000.000000 1000.000000"
 preserveAspectRatio="xMidYMid meet">
<metadata>
Created by potrace 1.16, written by Peter Selinger 2001-2019
</metadata>
<g transform="translate(0.000000,1000.000000) scale(1.000000,-1.000000)"
fill="#000000" stroke="none">
<path d="M489 948 c0 0 -7 0 -14 0 -7 -1 -16 -1 -18 -1 -11 -1 -24 -2 -27 -3
-2 0 -7 0 -11 -1 -5 0 -9 0 -10 0 -1 -1 -4 -1 -8 -1 -4 -1 -7 -1 -8 -2 -1 0
-5 0 -8 -1 -3 0 -6 0 -7 -1 -2 0 -4 0 -6 -1 -3 0 -7 -1 -10 -2 -3 0 -6 -1 -7
-1 -1 -1 -7 -2 -13 -4 -6 -2 -13 -3 -14 -4 -5 -1 -23 -10 -28 -14 -17 -16 -13
-42 8 -52 5 -2 6 -2 18 -2 10 0 24 0 30 1 1 1 5 1 10 1 4 1 9 1 10 1 1 1 5 1
8 2 3 0 7 0 8 1 3 0 9 1 15 1 2 1 5 1 8 1 7 1 13 2 20 2 3 1 9 1 12 2 4 0 6 0
6 -1 0 -1 0 -1 -1 -1 0 1 -1 1 -1 0 0 0 -8 -6 -18 -14 -10 -7 -24 -18 -31 -23
-7 -6 -22 -18 -32 -26 -11 -8 -23 -17 -27 -21 -5 -4 -10 -8 -12 -9 -8 -5 -15
-15 -19 -24 -8 -20 -3 -37 13 -45 5 -2 7 -2 17 -2 18 0 28 4 47 20 15 12 30
23 30 22 1 0 1 0 1 1 -1 0 6 6 42 34 19 14 21 16 23 14 1 0 11 -6 24 -12 31
-16 33 -17 78 -48 27 -19 39 -24 55 -21 2 1 5 1 7 1 4 1 14 7 18 11 8 8 10 22
4 34 -6 13 -13 20 -25 27 -3 2 -10 6 -13 8 -4 3 -13 9 -19 14 -6 4 -15 10 -20
13 -8 6 -19 13 -32 19 l-7 4 7 4 c8 5 13 9 19 15 5 6 11 15 11 21 1 1 2 5 3 9
3 7 3 19 1 25 -4 12 -16 19 -40 25 -6 2 -11 3 -12 4 -2 0 -55 1 -55 0z"/>
</g>
</svg>
