<?xml version="1.0" standalone="no"?>
<!DOCTYPE svg PUBLIC "-//W3C//DTD SVG 20010904//EN"
 "http://www.w3.org/TR/2001/REC-SVG-20010904/DTD/svg10.dtd">
<svg version="1.0" xmlns="http://www.w3.org/2000/svg"
 width="1000.000000pt" height="1000.000000pt" viewBox="0 0 1000.000000 1000.000000"
 preserveAspectRatio="xMidYMid meet">
<metadata>
Created by potrace 1.16, written by Peter Selinger 2001-2019
</metadata>
<g transform="translate(0.000000,1000.000000) scale(1.000000,-1.000000)"
fill="#000000" stroke="none">
<path d="M252 771 c0 -1 -3 -1 -5 -1 -26 -4 -53 -14 -94 -36 -19 -9 -25 -15
-28 -25 -1 -4 -2 -11 -1 -15 2 -8 10 -17 18 -20 7 -2 18 -2 25 1 1 0 3 1 3 1
1 0 3 1 6 2 3 0 7 1 8 1 1 1 9 3 18 6 8 2 16 4 17 5 1 0 7 2 13 4 7 2 12 3 11
3 0 -1 -1 -2 0 -2 0 -1 0 -1 -1 -1 -1 2 -42 -58 -65 -96 -19 -30 -21 -38 -21
-53 0 -7 0 -10 2 -14 0 -2 1 -4 1 -4 0 -1 1 -1 1 -1 1 0 1 0 1 -1 -1 0 1 -2 3
-4 12 -12 26 -12 42 -2 6 4 23 20 29 28 2 3 8 12 13 20 11 20 10 19 15 14 5
-5 14 -13 17 -15 7 -6 36 -24 43 -27 6 -2 7 -2 29 -3 0 0 1 -3 1 -7 2 -25 25
-40 49 -31 10 3 16 7 28 19 22 23 41 45 55 65 6 8 10 14 10 14 1 0 3 -3 7 -8
3 -4 6 -8 6 -8 0 0 2 -2 3 -4 3 -4 5 -6 8 -10 1 -1 3 -4 5 -6 2 -2 4 -5 5 -5
0 -1 3 -5 6 -10 4 -4 7 -8 7 -8 0 0 2 -2 3 -4 2 -2 4 -4 4 -5 1 -1 4 -4 6 -8
2 -4 5 -7 6 -8 0 -1 1 -1 1 -2 0 -1 9 -10 13 -13 9 -5 15 -7 23 -7 11 1 21 7
26 19 4 8 4 8 5 18 0 17 -5 28 -27 57 -15 20 -20 25 -23 29 -1 1 -4 5 -7 9 -5
6 -7 8 -8 10 -1 1 -4 4 -6 8 -7 8 -18 19 -25 24 l-6 4 1 8 c0 10 -1 16 -5 25
-2 3 -3 8 -4 9 -2 18 -8 28 -21 41 -6 6 -17 13 -21 14 -6 1 -10 1 -17 1 -32 0
-68 -16 -96 -44 -17 -17 -23 -30 -21 -44 4 -21 26 -31 44 -22 2 1 7 4 10 6 12
9 38 23 45 24 1 1 4 1 6 2 5 1 5 1 5 -2 -1 -1 -1 -5 -1 -7 -1 -6 -2 -8 -5 -15
-5 -13 -28 -45 -48 -68 -8 -9 -22 -24 -23 -24 0 1 0 2 -1 4 -1 8 -1 10 -2 11
0 0 -1 1 -1 1 -1 4 -1 5 -2 5 -1 0 -1 0 -1 1 2 1 -8 11 -19 17 -25 16 -22 14
-36 27 l-11 11 10 13 c10 14 18 27 21 36 3 10 2 28 -3 36 -11 20 -19 27 -36
31 -9 2 -10 2 -12 2 -1 1 -3 1 -4 2 -1 0 -3 0 -4 1 -3 0 -23 1 -23 1z"/>
</g>
</svg>
