<?xml version="1.0" standalone="no"?>
<!DOCTYPE svg PUBLIC "-//W3C//DTD SVG 20010904//EN"
 "http://www.w3.org/TR/2001/REC-SVG-20010904/DTD/svg10.dtd">
<svg version="1.0" xmlns="http://www.w3.org/2000/svg"
 width="1000.000000pt" height="1000.000000pt" viewBox="0 0 1000.000000 1000.000000"
 preserveAspectRatio="xMidYMid meet">
<metadata>
Created by potrace 1.16, written by Peter Selinger 2001-2019
</metadata>
<g transform="translate(0.000000,1000.000000) scale(1.000000,-1.000000)"
fill="#000000" stroke="none">
<path d="M345 657 c0 0 -2 0 -4 0 -4 -1 -6 -1 -12 -3 -1 0 -4 0 -5 -1 -7 -1
-22 -7 -32 -12 -23 -11 -36 -21 -42 -34 -2 -5 -2 -7 -2 -13 0 -5 0 -9 0 -10 1
-3 6 -10 8 -12 4 -4 8 -6 8 -5 1 0 1 0 1 -1 0 -1 1 -1 10 -2 9 0 12 1 29 9 14
7 26 10 36 10 14 0 18 -1 21 -7 2 -5 2 -16 1 -22 -4 -14 -19 -45 -31 -62 -14
-21 -35 -52 -46 -67 -10 -14 -18 -28 -20 -34 0 -1 0 -6 -1 -10 0 -14 6 -26 16
-31 5 -3 6 -3 15 -3 9 0 12 0 16 2 1 1 2 1 2 0 0 0 1 0 1 1 5 4 11 8 11 7 1 0
1 0 1 1 0 0 1 2 4 5 5 5 16 17 22 25 2 2 13 18 24 33 18 27 19 29 21 27 10
-14 16 -21 28 -34 9 -8 18 -17 21 -20 14 -11 12 -10 20 -15 5 -4 12 -7 14 -8
0 0 1 0 2 0 0 -1 1 -1 1 -1 0 1 1 0 3 0 5 -2 21 -2 24 -1 1 1 2 1 2 0 0 0 -2
-3 -4 -6 -3 -5 -8 -14 -8 -15 0 0 0 0 0 0 -1 -4 -2 -11 -1 -15 1 -3 1 -5 1 -5
0 -1 1 -1 1 -1 1 0 1 0 1 -1 -1 0 0 -2 2 -4 6 -9 13 -12 24 -13 7 0 9 1 14 3
9 4 18 12 41 34 2 2 7 7 10 11 3 4 6 7 6 7 4 4 27 34 34 46 l6 9 3 -4 c2 -2 6
-6 8 -10 3 -3 6 -6 6 -6 0 0 2 -2 3 -3 2 -3 11 -14 17 -20 9 -10 11 -12 15
-16 2 -3 4 -6 4 -6 12 -16 21 -26 26 -29 5 -4 10 -6 10 -5 0 0 1 0 1 -1 2 -2
7 -2 17 -2 10 0 15 1 23 8 6 5 11 15 11 23 0 13 -4 23 -14 35 -1 1 -7 9 -13
17 -7 8 -14 17 -16 19 -5 6 -17 19 -20 22 -1 1 -3 4 -5 6 -1 2 -4 4 -5 6 -1 1
-3 4 -5 6 -2 3 -5 5 -6 7 -1 1 -4 4 -6 8 -3 3 -6 6 -7 6 -2 3 -11 16 -10 17 0
0 0 3 1 7 1 3 1 6 2 7 0 1 1 8 2 15 1 12 0 40 -2 47 0 1 0 3 0 4 -2 7 -2 8 -4
14 -7 18 -17 32 -30 42 -3 3 -14 9 -16 10 -1 0 -1 0 -1 0 -1 0 -1 0 -2 0 0 0
-1 1 -2 1 0 1 -1 1 -1 1 0 -1 -2 0 -5 0 -9 2 -23 2 -33 -1 -3 -1 -5 -1 -6 -2
-3 0 -15 -5 -22 -9 -7 -4 -12 -7 -20 -15 -14 -13 -18 -21 -18 -32 0 -14 6 -20
18 -20 8 0 10 1 21 5 5 2 10 3 10 3 1 1 5 2 9 3 10 3 20 3 23 -1 1 -1 3 -6 4
-11 2 -12 2 -28 -1 -41 0 -1 0 -3 0 -4 -2 -9 -15 -36 -28 -59 -4 -7 -12 -19
-17 -26 -6 -8 -14 -19 -18 -25 -3 -6 -7 -11 -7 -11 0 0 -1 3 -2 6 -1 6 -2 9
-2 9 0 0 0 0 -1 1 -1 8 -9 19 -21 28 -18 14 -35 32 -42 42 -3 3 -7 10 -10 15
-7 13 -8 15 -17 24 -4 4 -4 4 -3 11 3 9 3 14 3 29 0 15 0 20 -4 32 -3 13 -13
30 -22 39 -14 14 -34 22 -57 22 -5 1 -10 1 -10 0z"/>
</g>
</svg>
