<?xml version="1.0" standalone="no"?>
<!DOCTYPE svg PUBLIC "-//W3C//DTD SVG 20010904//EN"
 "http://www.w3.org/TR/2001/REC-SVG-20010904/DTD/svg10.dtd">
<svg version="1.0" xmlns="http://www.w3.org/2000/svg"
 width="1000.000000pt" height="1000.000000pt" viewBox="0 0 1000.000000 1000.000000"
 preserveAspectRatio="xMidYMid meet">
<metadata>
Created by potrace 1.16, written by Peter Selinger 2001-2019
</metadata>
<g transform="translate(0.000000,1000.000000) scale(1.000000,-1.000000)"
fill="#000000" stroke="none">
<path d="M598 941 c0 0 -3 0 -5 0 -2 -1 -5 -1 -6 -1 -4 -1 -11 -2 -11 -3 -2 0
-6 -1 -9 -2 -6 -1 -25 -8 -33 -12 -18 -8 -29 -15 -40 -26 -13 -14 -17 -21 -16
-32 0 -9 0 -11 1 -11 1 0 1 0 1 -1 -1 0 3 -6 6 -9 7 -6 18 -9 30 -7 5 1 32 11
50 17 17 7 31 11 31 9 0 -2 -11 -18 -24 -35 -6 -6 -43 -43 -44 -43 0 0 -3 2
-6 5 -7 7 -15 12 -31 23 -8 4 -14 8 -14 8 0 0 -3 2 -5 4 -2 2 -6 4 -7 6 l-2 2
2 5 c8 21 5 41 -11 66 -8 13 -24 23 -41 26 -10 1 -40 0 -50 -2 -1 0 -4 0 -6 0
-2 -1 -5 -1 -6 -2 -1 0 -4 0 -5 -1 -2 0 -4 0 -5 -1 -2 0 -6 -1 -9 -2 -8 -1
-27 -8 -36 -12 -18 -8 -28 -22 -28 -37 0 -19 15 -34 36 -34 8 0 16 0 21 2 1 1
3 1 3 1 0 0 4 1 8 2 8 3 13 5 18 5 1 1 5 1 7 2 2 0 6 1 9 1 2 1 5 1 6 1 4 1
10 1 10 1 1 -1 -14 -23 -18 -27 -1 -1 -5 -5 -7 -9 -15 -17 -25 -27 -35 -34 -5
-3 -11 -8 -12 -9 -8 -9 -11 -19 -11 -30 1 -8 1 -9 4 -14 4 -9 15 -17 25 -19 4
0 15 -1 19 0 9 2 27 15 42 29 8 8 23 24 24 27 2 2 3 1 9 -4 9 -7 15 -11 26
-17 13 -8 14 -9 20 -14 3 -3 5 -5 6 -5 1 0 1 0 1 -1 0 -1 0 -1 1 0 1 0 1 0 1
-1 0 0 2 -1 5 -2 4 -2 6 -3 7 -5 3 -7 14 -16 24 -18 4 -1 15 -1 20 0 8 2 29
16 44 29 4 4 8 6 8 6 1 0 1 0 1 1 0 0 35 36 36 36 0 0 3 -2 7 -6 1 -1 4 -3 7
-5 2 -3 5 -5 6 -5 0 -1 2 -3 5 -4 2 -2 4 -4 4 -5 6 -5 39 -27 48 -32 7 -3 13
-5 20 -4 7 0 9 0 15 3 13 7 20 20 20 34 0 4 -1 10 -1 10 0 0 0 0 0 1 -2 9 -11
18 -31 31 -13 9 -26 19 -29 22 0 0 -4 3 -8 7 -8 6 -11 9 -17 14 l-4 4 2 6 c2
7 3 10 4 17 3 27 -3 46 -18 61 -6 6 -10 9 -16 12 -5 2 -9 4 -10 4 -2 1 -2 1
-2 1 0 0 -2 0 -7 2 -3 0 -24 1 -24 0z"/>
</g>
</svg>
