<?xml version="1.0" standalone="no"?>
<!DOCTYPE svg PUBLIC "-//W3C//DTD SVG 20010904//EN"
 "http://www.w3.org/TR/2001/REC-SVG-20010904/DTD/svg10.dtd">
<svg version="1.0" xmlns="http://www.w3.org/2000/svg"
 width="1000.000000pt" height="1000.000000pt" viewBox="0 0 1000.000000 1000.000000"
 preserveAspectRatio="xMidYMid meet">
<metadata>
Created by potrace 1.16, written by Peter Selinger 2001-2019
</metadata>
<g transform="translate(0.000000,1000.000000) scale(1.000000,-1.000000)"
fill="#000000" stroke="none">
<path d="M425 935 c0 -1 -2 -1 -5 -1 -13 -2 -36 -14 -46 -25 -8 -8 -16 -20
-17 -26 -1 -1 -1 -4 -1 -5 -4 -16 -2 -23 7 -28 4 -2 11 -2 15 0 2 0 4 1 6 1 4
1 6 2 16 5 5 2 9 4 10 4 1 -1 -14 -25 -19 -31 -1 -1 -5 -6 -9 -12 -4 -6 -9
-12 -11 -14 l-4 -4 -4 4 c-2 2 -4 4 -4 4 -1 0 -2 0 -2 1 -1 1 -6 4 -11 7 -5 3
-10 6 -11 7 -1 1 -5 5 -8 7 -4 3 -8 6 -9 8 -1 1 -4 3 -5 4 l-3 3 2 4 c1 4 1 5
3 10 1 8 2 17 1 25 -1 5 -2 8 -2 9 0 0 0 0 0 1 -2 7 -11 20 -20 28 -3 2 -15 7
-17 7 0 0 -1 1 -3 1 -8 2 -21 3 -33 2 -6 -1 -8 -1 -15 -3 -1 0 -4 0 -6 -1 -2
0 -4 0 -4 -1 -1 0 -2 0 -4 -1 -3 0 -25 -9 -33 -13 -10 -5 -31 -20 -35 -25 -6
-7 -7 -13 -7 -20 1 -7 3 -12 7 -16 4 -4 10 -8 14 -9 6 -1 11 -2 14 -1 5 0 13
1 16 1 1 1 3 1 5 1 5 1 8 2 10 3 6 1 22 5 22 4 0 -3 -42 -44 -53 -52 -6 -4
-12 -9 -14 -11 -18 -22 -8 -54 19 -62 6 -1 17 -1 23 2 3 1 10 5 17 10 9 6 15
11 30 26 l19 18 3 -3 c2 -1 5 -4 6 -5 2 -1 4 -3 4 -4 11 -10 38 -27 46 -29 1
0 2 0 2 0 0 0 1 0 2 -1 1 0 3 0 4 -1 1 0 2 0 2 0 1 0 1 -1 1 -2 0 -3 6 -14 10
-18 8 -8 20 -11 32 -9 4 1 13 6 18 9 2 2 4 4 4 3 1 0 1 0 1 1 -1 1 4 6 20 22
5 6 13 15 16 19 l5 7 3 -3 c9 -10 18 -21 22 -27 19 -31 50 -39 71 -21 4 5 10
13 11 18 0 2 0 17 0 20 -2 6 -6 12 -12 18 -4 4 -8 9 -11 13 -3 5 -12 15 -15
20 -1 0 -4 3 -6 7 -3 3 -9 9 -14 14 l-8 8 2 6 c1 4 2 8 3 9 0 1 0 3 1 4 0 3 1
6 2 13 2 23 -2 38 -15 51 -7 7 -15 11 -26 14 -3 0 -25 1 -25 1z"/>
</g>
</svg>
