<?xml version="1.0" standalone="no"?>
<!DOCTYPE svg PUBLIC "-//W3C//DTD SVG 20010904//EN"
 "http://www.w3.org/TR/2001/REC-SVG-20010904/DTD/svg10.dtd">
<svg version="1.0" xmlns="http://www.w3.org/2000/svg"
 width="1000.000000pt" height="1000.000000pt" viewBox="0 0 1000.000000 1000.000000"
 preserveAspectRatio="xMidYMid meet">
<metadata>
Created by potrace 1.16, written by Peter Selinger 2001-2019
</metadata>
<g transform="translate(0.000000,1000.000000) scale(1.000000,-1.000000)"
fill="#000000" stroke="none">
<path d="M421 769 c0 0 -2 0 -4 0 -3 -1 -8 -2 -11 -3 -4 -1 -8 -2 -8 -3 -1 0
-4 -1 -7 -1 -3 -1 -7 -2 -8 -3 -1 0 -3 0 -4 -1 -1 0 -4 0 -5 -1 -1 0 -6 -1
-10 -2 -8 -3 -19 -6 -20 -6 0 0 -27 -9 -35 -12 -27 -11 -46 -26 -51 -41 -4
-15 2 -30 16 -37 10 -6 20 -6 40 0 4 0 7 1 8 2 1 0 6 1 12 4 5 2 14 5 19 7
l10 3 -2 -3 c-4 -3 -6 -6 -9 -10 -13 -17 -18 -23 -31 -38 -3 -3 -6 -6 -7 -7
-13 -15 -18 -21 -32 -33 -11 -10 -31 -30 -35 -35 -3 -5 -7 -12 -9 -20 -1 -3
-2 -7 -2 -7 -1 0 -1 -1 -1 -2 -2 -2 -3 -14 -2 -19 1 -4 5 -10 8 -13 7 -7 19
-9 30 -4 4 1 9 3 12 4 12 3 17 7 38 28 8 8 16 15 16 14 1 0 1 0 1 1 -1 0 0 1
0 2 1 0 4 3 7 6 3 3 6 5 6 4 1 0 1 0 1 1 0 0 2 3 5 6 2 3 8 9 11 14 4 4 8 8 9
9 1 1 2 1 5 -3 2 -2 6 -7 9 -10 11 -12 19 -20 35 -32 5 -5 10 -9 11 -10 1 0 2
-1 3 -1 0 0 1 -1 2 -1 2 -3 4 -4 14 -11 6 -4 11 -7 10 -7 -2 0 -8 -11 -11 -18
-1 -5 -2 -8 -1 -13 0 -10 0 -10 1 -10 1 0 1 0 1 -1 -1 -1 4 -9 8 -13 5 -5 9
-7 16 -9 4 -2 14 -2 19 -1 4 1 14 6 19 10 3 3 6 4 6 4 1 0 1 0 1 1 -1 1 -1 1
0 1 0 0 4 4 9 8 4 4 8 7 9 7 0 0 0 0 0 1 0 0 2 3 4 6 14 16 17 20 25 29 11 12
17 19 31 37 l10 14 2 -2 c10 -12 18 -21 33 -32 3 -3 7 -6 8 -7 1 0 1 -1 2 -1
0 0 2 -1 3 -2 4 -4 30 -20 32 -20 0 0 4 -3 10 -6 5 -4 10 -6 10 -6 1 0 1 0 1
-1 0 0 1 -1 1 -1 1 0 3 0 5 -1 3 -1 14 -1 18 0 4 1 13 6 16 9 3 3 10 13 10 16
0 0 0 0 0 0 1 5 2 13 1 17 -1 6 -1 6 -4 11 -5 10 -18 21 -41 34 -5 3 -10 6
-11 6 0 1 -2 2 -4 4 -5 4 -18 14 -21 18 -5 5 -7 6 -16 19 -4 5 -8 10 -8 10 -2
2 -3 5 -1 8 1 1 8 15 16 30 7 15 16 32 20 39 9 15 10 19 10 29 0 12 -4 23 -12
30 -4 3 -12 7 -17 7 -2 1 -7 2 -11 3 -4 2 -10 3 -12 3 -12 2 -15 2 -19 2 -7 0
-19 -1 -28 -4 -4 0 -8 -1 -9 -2 -1 0 -3 -1 -4 -1 -1 -1 -2 -1 -2 -1 0 1 -4 0
-9 -2 -5 -2 -9 -3 -10 -3 -4 -1 -26 -10 -36 -15 -28 -12 -41 -26 -42 -44 -2
-16 9 -31 25 -35 3 0 16 -1 19 0 6 2 15 5 29 11 16 6 36 13 37 13 1 -2 -28
-52 -40 -70 -5 -9 -35 -48 -37 -50 0 0 -2 -2 -4 -4 l-3 -4 -10 6 c-6 3 -14 8
-17 10 -4 3 -8 6 -9 7 -18 12 -30 24 -46 43 -2 3 -5 6 -5 6 -6 6 -6 5 4 18 11
15 12 16 25 30 10 10 16 20 18 27 0 2 0 4 0 5 1 2 1 6 1 10 0 3 1 8 2 10 3 9
-2 22 -10 29 -4 4 -13 9 -16 10 -1 0 -1 0 -1 0 -1 0 -1 0 -9 2 -5 1 -25 1 -26
0z"/>
</g>
</svg>
