<?xml version="1.0" standalone="no"?>
<!DOCTYPE svg PUBLIC "-//W3C//DTD SVG 20010904//EN"
 "http://www.w3.org/TR/2001/REC-SVG-20010904/DTD/svg10.dtd">
<svg version="1.0" xmlns="http://www.w3.org/2000/svg"
 width="1000.000000pt" height="1000.000000pt" viewBox="0 0 1000.000000 1000.000000"
 preserveAspectRatio="xMidYMid meet">
<metadata>
Created by potrace 1.16, written by Peter Selinger 2001-2019
</metadata>
<g transform="translate(0.000000,1000.000000) scale(1.000000,-1.000000)"
fill="#000000" stroke="none">
<path d="M296 682 c0 0 -3 0 -5 0 -3 -1 -6 -1 -8 -1 -1 -1 -3 -1 -6 -1 -7 -2
-10 -2 -15 -4 -22 -5 -51 -18 -67 -30 -19 -13 -41 -30 -46 -35 -6 -7 -8 -11
-9 -18 0 -7 2 -13 6 -18 7 -8 13 -9 28 -9 9 0 11 0 26 5 l16 5 -5 -10 c-7 -12
-11 -20 -12 -21 0 -1 -4 -8 -9 -16 -10 -20 -10 -21 -24 -43 -24 -38 -30 -57
-26 -75 2 -13 10 -22 20 -27 5 -2 7 -2 14 -2 7 0 9 0 14 2 7 4 14 10 18 15 1
3 5 10 9 18 3 7 11 21 18 32 6 10 14 24 18 30 l6 12 5 -6 c13 -15 28 -31 40
-40 9 -8 11 -10 19 -16 l5 -5 0 -9 c1 -7 1 -10 3 -14 3 -7 11 -15 17 -18 13
-5 24 -4 37 4 7 4 13 11 20 23 3 6 11 18 17 27 7 9 15 22 20 29 6 11 7 12 9
11 1 -1 7 -5 13 -9 6 -4 12 -8 13 -9 16 -11 24 -17 25 -17 0 -1 2 -3 4 -4 2
-2 5 -5 7 -6 1 -1 4 -4 6 -5 17 -15 19 -17 26 -25 4 -4 10 -9 10 -8 1 0 1 0 1
-1 0 0 1 -1 2 -1 1 -1 3 -1 3 -1 3 -2 4 -2 8 -3 4 -1 13 -1 17 0 8 2 20 10 24
17 2 3 3 6 3 16 1 15 -4 26 -21 43 -4 4 -7 6 -16 14 -2 2 -9 8 -17 15 -8 7
-47 35 -66 47 -2 2 -4 4 -4 4 0 1 4 8 8 17 12 22 13 24 14 41 0 6 0 14 1 18 1
10 0 17 -1 25 0 0 -1 1 -1 2 -1 0 -1 1 -1 1 2 0 -6 12 -10 16 -10 10 -19 13
-36 13 -20 0 -43 -8 -76 -28 -32 -19 -53 -37 -56 -49 -4 -18 7 -31 25 -31 8 0
19 3 38 12 13 6 30 13 34 15 2 0 2 0 1 -1 0 -1 -3 -6 -6 -10 -7 -14 -8 -16
-17 -31 -8 -14 -27 -45 -35 -57 l-4 -6 -4 3 c-2 2 -4 4 -4 4 0 0 -4 3 -8 7
-10 7 -22 20 -33 34 -4 5 -17 19 -19 20 0 1 -1 2 -1 3 0 1 5 10 12 20 25 38
30 47 31 59 0 11 -3 20 -11 28 -5 6 -15 12 -21 13 -4 0 -11 1 -11 0z"/>
</g>
</svg>
