<?xml version="1.0" standalone="no"?>
<!DOCTYPE svg PUBLIC "-//W3C//DTD SVG 20010904//EN"
 "http://www.w3.org/TR/2001/REC-SVG-20010904/DTD/svg10.dtd">
<svg version="1.0" xmlns="http://www.w3.org/2000/svg"
 width="1000.000000pt" height="1000.000000pt" viewBox="0 0 1000.000000 1000.000000"
 preserveAspectRatio="xMidYMid meet">
<metadata>
Created by potrace 1.16, written by Peter Selinger 2001-2019
</metadata>
<g transform="translate(0.000000,1000.000000) scale(1.000000,-1.000000)"
fill="#000000" stroke="none">
<path d="M282 981 c0 0 -5 0 -9 0 -5 -1 -11 -1 -12 -2 -1 0 -3 0 -3 0 -1 0 -2
-1 -3 -1 0 -1 -1 -1 -1 -1 0 1 -2 0 -5 -1 -19 -10 -23 -32 -8 -47 3 -3 6 -6 7
-6 0 0 1 0 1 -1 1 -1 12 -6 27 -10 12 -4 19 -6 28 -7 2 -1 5 -1 6 -1 1 -1 4
-1 6 -2 2 0 4 0 4 -1 0 0 2 0 4 0 1 -1 4 -1 5 -2 1 0 3 0 4 -1 1 0 3 0 5 -1 9
-2 28 -8 34 -10 13 -6 17 -7 26 -8 7 0 10 1 14 2 3 1 5 2 5 1 0 0 0 0 1 1 0 0
2 2 4 3 2 1 4 3 4 3 0 1 1 1 1 0 1 0 1 0 1 1 -1 0 0 1 1 2 1 2 6 10 7 13 1 4
1 15 0 18 -1 5 -4 10 -5 11 -1 1 -1 1 -1 1 1 0 -2 3 -7 9 -7 7 -33 19 -48 22
-1 1 -5 2 -10 3 -5 1 -9 2 -10 3 -1 0 -3 0 -4 1 -1 0 -3 0 -4 0 -1 1 -4 1 -5
2 -2 0 -3 0 -3 0 -1 0 -2 1 -4 1 -2 1 -5 1 -7 2 -2 0 -4 0 -5 1 -1 0 -3 0 -5
1 -3 0 -6 0 -7 1 -2 0 -29 1 -29 0z"/>
<path d="M276 901 c0 0 -3 0 -7 0 -7 -1 -11 -2 -14 -3 -1 0 -3 0 -4 -1 -1 0
-4 0 -5 -1 -1 0 -4 0 -6 -1 -2 0 -4 -1 -5 -1 -1 -1 -2 -1 -2 -1 0 1 -14 -4
-23 -8 -14 -7 -26 -20 -29 -32 -1 -5 0 -18 1 -18 1 0 1 -1 1 -1 0 -1 2 -4 5
-7 2 -2 4 -4 4 -3 0 0 0 0 1 -1 1 -1 7 -4 14 -5 8 -2 22 -2 36 1 4 0 7 1 9 1
1 1 3 1 4 1 2 1 4 1 5 1 1 1 4 1 6 1 2 1 6 1 7 2 9 1 34 1 36 -2 2 -1 -14 -13
-30 -23 -6 -3 -11 -6 -11 -7 -1 0 -2 -1 -2 -1 -1 0 -2 -1 -4 -1 -11 -6 -34
-16 -47 -21 -19 -6 -22 -8 -28 -14 -7 -7 -11 -18 -10 -28 0 -7 0 -8 3 -14 6
-13 19 -21 33 -21 5 -1 9 0 19 3 4 0 31 11 40 15 33 14 66 35 83 50 l5 4 6 -4
c6 -4 36 -26 38 -28 7 -5 34 -24 44 -29 8 -5 18 -10 22 -11 3 0 17 -1 20 0 4
1 11 5 15 8 7 5 13 18 12 29 0 16 -8 27 -26 37 -8 4 -35 22 -38 25 -1 1 -3 2
-3 2 -1 0 -1 1 -2 1 -3 3 -50 38 -56 41 -2 1 -3 2 -3 3 0 3 -7 19 -10 24 -2 3
-7 8 -9 11 -6 6 -19 15 -21 15 0 0 -1 0 -1 1 0 1 0 1 -1 1 0 0 -2 0 -3 1 -2 0
-4 1 -4 1 -1 0 -1 1 -1 1 0 1 0 1 -1 1 0 -1 -2 0 -4 0 -1 1 -3 2 -3 1 -1 0 -1
0 -1 1 0 0 -1 1 -2 1 -3 0 -4 1 -6 1 0 1 -1 1 -1 1 0 -1 -3 0 -7 1 -5 1 -38 1
-39 0z"/>
</g>
</svg>
