<?xml version="1.0" standalone="no"?>
<!DOCTYPE svg PUBLIC "-//W3C//DTD SVG 20010904//EN"
 "http://www.w3.org/TR/2001/REC-SVG-20010904/DTD/svg10.dtd">
<svg version="1.0" xmlns="http://www.w3.org/2000/svg"
 width="1000.000000pt" height="1000.000000pt" viewBox="0 0 1000.000000 1000.000000"
 preserveAspectRatio="xMidYMid meet">
<metadata>
Created by potrace 1.16, written by Peter Selinger 2001-2019
</metadata>
<g transform="translate(0.000000,1000.000000) scale(1.000000,-1.000000)"
fill="#000000" stroke="none">
<path d="M391 728 c-2 -1 -4 -1 -5 -1 -4 -1 -13 -7 -16 -11 -7 -8 -9 -13 -9
-24 0 -9 0 -10 3 -16 5 -11 18 -20 32 -22 1 -1 4 -1 5 -1 3 -1 8 -2 15 -3 3 0
7 0 8 0 1 -1 5 -1 8 -1 5 -1 12 -2 15 -2 1 -1 4 -1 7 -1 2 -1 5 -1 6 -2 1 0 4
0 6 -1 2 0 4 0 5 -1 2 0 4 0 5 0 1 -1 4 -1 5 -1 1 -1 4 -1 5 -1 3 -1 5 -2 11
-3 2 0 6 -1 7 -1 2 -1 4 -1 9 -2 6 -2 8 -2 13 -3 1 -1 4 -1 6 -2 2 0 6 -1 7
-1 2 -1 4 -1 5 -1 1 -1 3 -1 5 -1 2 -1 5 -1 6 -1 5 -2 10 -2 19 -4 3 -1 7 -1
9 -1 3 -1 16 -1 19 -1 5 2 11 4 17 9 13 9 16 13 17 24 0 5 -1 7 -4 13 -5 10
-7 13 -12 18 -5 4 -8 6 -14 9 -5 1 -5 1 -19 4 -7 1 -13 2 -14 3 -1 0 -4 0 -5
1 -1 0 -4 0 -5 1 -1 0 -4 0 -5 1 -2 0 -4 0 -5 1 -2 0 -4 0 -9 2 -3 0 -6 1 -9
2 -1 0 -3 0 -4 1 -5 1 -7 1 -9 2 -1 0 -3 0 -4 1 -1 0 -3 0 -4 1 -1 0 -7 1 -12
2 -15 3 -15 3 -18 4 -2 0 -5 0 -6 1 -5 1 -8 1 -11 2 -3 0 -6 0 -7 1 -4 0 -8 1
-13 2 -3 0 -7 0 -9 1 -2 0 -6 0 -8 1 -9 0 -13 1 -16 2 -6 1 -19 1 -23 0z"/>
<path d="M469 601 c0 0 -5 0 -10 0 -5 -1 -11 -1 -12 -1 -1 -1 -5 -1 -7 -1 -2
-1 -6 -1 -7 -1 -1 -1 -4 -1 -6 -2 -4 0 -8 -1 -20 -3 -1 -1 -4 -1 -6 -2 -2 -1
-5 -1 -5 -2 -4 0 -20 -7 -25 -9 -15 -8 -31 -22 -36 -33 -6 -11 -4 -25 4 -32 9
-8 21 -10 41 -6 1 0 4 0 6 1 5 0 7 1 14 3 4 0 7 1 8 2 1 0 3 0 4 1 1 0 3 0 4
0 1 1 3 1 4 1 1 1 3 1 5 1 1 1 4 1 5 2 1 0 4 0 5 1 1 0 4 0 5 0 1 1 5 1 7 2 2
0 5 0 7 1 8 1 45 2 57 1 7 -1 11 -2 16 -3 0 0 -4 -5 -11 -12 -11 -14 -43 -44
-58 -57 -2 -1 -4 -3 -4 -3 -1 -1 -101 -82 -124 -100 -16 -13 -20 -17 -27 -30
-3 -5 -6 -10 -7 -12 -1 -2 -2 -4 -1 -4 0 0 0 -1 -1 -2 -2 -2 -2 -17 1 -21 6
-12 19 -17 35 -13 13 3 22 6 29 9 2 2 5 3 5 2 1 0 1 0 1 1 -1 0 1 2 3 3 5 4
27 21 28 22 0 0 24 19 53 42 28 24 52 43 52 43 0 0 3 3 6 5 3 2 7 6 10 8 2 2
5 5 6 6 l3 2 5 -7 c3 -4 6 -8 6 -8 1 -1 4 -5 7 -10 4 -5 7 -9 7 -10 1 0 2 -2
4 -4 2 -3 15 -20 19 -23 0 -1 3 -4 5 -8 3 -4 6 -7 6 -8 1 0 3 -3 5 -5 3 -4 57
-58 60 -61 1 0 2 -1 2 0 1 0 1 0 1 -1 0 0 5 -3 8 -4 1 0 1 0 1 0 2 -2 18 -2
24 -1 15 5 24 16 24 33 1 4 0 7 -2 15 -1 5 -6 13 -14 21 -5 5 -13 13 -18 18
-5 5 -12 12 -15 16 -4 3 -8 7 -10 9 -5 6 -41 53 -50 64 -5 7 -9 13 -10 13 0 1
-1 2 -1 3 0 0 0 1 -1 1 0 0 -2 3 -5 6 -4 6 -4 6 0 11 5 6 14 20 18 30 8 18 8
38 1 53 -5 9 -6 10 -13 18 -8 8 -18 15 -33 21 -3 0 -3 0 -10 3 -7 1 -9 2 -14
3 -3 0 -6 0 -7 0 -9 2 -18 2 -36 2 -12 1 -21 1 -21 0z"/>
</g>
</svg>
