<?xml version="1.0" standalone="no"?>
<!DOCTYPE svg PUBLIC "-//W3C//DTD SVG 20010904//EN"
 "http://www.w3.org/TR/2001/REC-SVG-20010904/DTD/svg10.dtd">
<svg version="1.0" xmlns="http://www.w3.org/2000/svg"
 width="1000.000000pt" height="1000.000000pt" viewBox="0 0 1000.000000 1000.000000"
 preserveAspectRatio="xMidYMid meet">
<metadata>
Created by potrace 1.16, written by Peter Selinger 2001-2019
</metadata>
<g transform="translate(0.000000,1000.000000) scale(1.000000,-1.000000)"
fill="#000000" stroke="none">
<path d="M244 771 c-10 -2 -21 -10 -25 -19 -6 -11 -4 -25 3 -36 7 -9 10 -12
52 -36 24 -15 50 -32 50 -32 0 0 -3 -1 -7 -1 -9 0 -20 -1 -25 -3 -1 0 -3 0 -4
0 -1 -1 -4 -1 -6 -2 -2 -1 -5 -1 -5 -1 -3 0 -26 -10 -38 -15 -27 -13 -37 -20
-42 -32 -5 -10 -6 -16 -5 -24 4 -22 27 -34 51 -27 2 1 10 5 18 9 25 13 46 20
60 19 7 0 8 0 11 -2 3 -2 3 -4 0 -12 -3 -8 -6 -13 -14 -26 -4 -5 -10 -16 -15
-24 -9 -15 -20 -31 -29 -43 -13 -16 -21 -29 -23 -35 0 -1 0 -6 -1 -10 0 -8 2
-14 6 -20 3 -5 9 -11 9 -10 1 0 1 0 1 -1 0 -1 7 -4 12 -6 3 -1 7 -1 11 -1 8 1
8 1 14 3 2 1 4 1 4 1 1 0 1 0 1 1 -1 1 0 1 2 1 1 0 1 0 1 1 -1 0 1 2 2 3 2 2
7 8 12 14 4 6 13 18 19 27 7 9 16 22 21 30 11 18 22 37 23 37 1 0 31 -45 37
-56 6 -11 15 -25 21 -32 2 -2 3 -4 4 -5 0 0 3 -3 5 -7 3 -3 7 -9 10 -13 8 -12
15 -17 26 -20 12 -2 25 2 34 11 8 8 11 16 11 27 -1 9 -2 15 -7 22 -1 2 -2 4
-3 5 0 1 -1 2 -1 2 -1 0 -1 1 -1 2 0 0 0 1 -1 1 0 0 -2 2 -3 4 -1 2 -3 4 -3 4
-1 1 -17 22 -20 26 -1 2 -5 8 -7 13 -5 9 -13 22 -14 24 -1 0 -4 4 -7 9 -25 37
-38 51 -54 59 -4 2 -5 2 -6 10 -2 8 -8 22 -12 26 -1 1 -2 2 -2 2 0 1 -3 4 -6
7 l-6 6 6 3 c10 4 19 14 21 23 1 8 1 16 -1 22 -4 11 -9 17 -24 26 -6 3 -13 7
-16 9 -21 15 -71 45 -90 55 -13 6 -25 9 -35 7z"/>
</g>
</svg>
