<?xml version="1.0" standalone="no"?>
<!DOCTYPE svg PUBLIC "-//W3C//DTD SVG 20010904//EN"
 "http://www.w3.org/TR/2001/REC-SVG-20010904/DTD/svg10.dtd">
<svg version="1.0" xmlns="http://www.w3.org/2000/svg"
 width="1000.000000pt" height="1000.000000pt" viewBox="0 0 1000.000000 1000.000000"
 preserveAspectRatio="xMidYMid meet">
<metadata>
Created by potrace 1.16, written by Peter Selinger 2001-2019
</metadata>
<g transform="translate(0.000000,1000.000000) scale(1.000000,-1.000000)"
fill="#000000" stroke="none">
<path d="M465 991 c0 0 -3 0 -7 0 -23 -3 -37 -15 -38 -32 0 -10 3 -17 11 -25
5 -5 21 -14 27 -16 1 0 2 0 2 0 0 0 1 -1 5 -1 1 -1 3 -1 4 -1 1 -1 3 -1 4 -1
1 -1 6 -2 10 -2 3 -1 8 -2 11 -2 3 -1 14 -3 23 -5 6 -1 29 -5 33 -5 2 -1 5 -1
5 -1 0 -1 3 -1 6 -1 2 -1 5 -1 6 -1 1 -1 4 -1 6 -1 2 -1 6 -1 7 -2 3 0 15 0
18 1 1 0 3 0 4 0 3 1 11 6 15 10 4 4 9 12 10 16 0 0 0 2 0 3 2 7 1 18 -3 25
-4 9 -16 18 -25 20 -4 0 -7 1 -12 1 -4 1 -13 3 -24 4 -1 1 -5 1 -8 2 -11 2
-12 2 -15 3 -1 0 -4 0 -5 1 -1 0 -4 0 -5 1 -1 0 -4 0 -5 1 -2 0 -5 0 -6 1 -1
0 -3 0 -5 0 -1 1 -3 1 -6 1 -6 1 -11 2 -13 3 -2 0 -5 0 -7 1 -2 0 -5 0 -5 1
-1 0 -18 2 -18 1z"/>
<path d="M495 906 c0 0 -7 0 -14 0 -7 -1 -15 -1 -17 -1 -2 -1 -7 -1 -10 -1
-11 -1 -22 -3 -38 -5 -2 0 -6 0 -9 -1 -4 0 -8 0 -9 -1 -1 0 -5 0 -7 -1 -10 -1
-21 -6 -25 -11 -5 -7 -7 -16 -4 -24 5 -12 13 -16 41 -21 2 0 24 0 50 -1 26 0
47 0 49 0 1 -1 2 -1 2 -1 0 0 -5 -4 -9 -8 -1 -1 -3 -2 -3 -3 -5 -4 -29 -21
-40 -27 -11 -8 -31 -20 -48 -32 -7 -4 -19 -16 -24 -23 -9 -13 -17 -33 -17 -43
1 -13 10 -19 26 -18 15 0 21 2 36 10 13 6 16 8 38 22 11 7 24 16 31 19 6 4 16
11 22 15 6 5 12 8 12 8 1 0 1 0 1 1 -1 0 4 4 17 14 1 1 2 1 4 -1 5 -4 37 -25
53 -36 13 -8 24 -16 27 -19 2 -2 12 -8 17 -11 6 -3 13 -5 20 -4 7 0 9 0 13 2
1 1 3 2 3 1 1 0 1 0 1 1 0 0 1 1 2 1 5 2 15 15 17 23 1 8 0 19 -4 26 -4 8 -7
10 -17 18 -5 3 -9 6 -9 6 -1 1 -18 13 -25 18 -4 3 -10 6 -13 8 -22 15 -44 30
-45 30 -1 0 -1 3 -1 8 0 9 0 12 -3 18 -3 9 -10 18 -19 24 -4 2 -24 13 -25 13
0 0 -3 1 -6 2 -8 2 -7 2 -12 3 -3 0 -5 0 -6 1 -2 0 -6 0 -10 1 -4 0 -9 0 -10
0 -2 1 -3 1 -3 0z"/>
</g>
</svg>
