<?xml version="1.0" standalone="no"?>
<!DOCTYPE svg PUBLIC "-//W3C//DTD SVG 20010904//EN"
 "http://www.w3.org/TR/2001/REC-SVG-20010904/DTD/svg10.dtd">
<svg version="1.0" xmlns="http://www.w3.org/2000/svg"
 width="1000.000000pt" height="1000.000000pt" viewBox="0 0 1000.000000 1000.000000"
 preserveAspectRatio="xMidYMid meet">
<metadata>
Created by potrace 1.16, written by Peter Selinger 2001-2019
</metadata>
<g transform="translate(0.000000,1000.000000) scale(1.000000,-1.000000)"
fill="#000000" stroke="none">
<path d="M413 846 c-17 -7 -27 -19 -27 -34 0 -12 4 -20 15 -29 6 -6 16 -10 27
-11 2 -1 5 -1 6 -1 1 -1 4 -1 7 -2 3 0 6 0 7 0 1 -1 5 -1 8 -1 4 -1 8 -1 9 -1
1 -1 4 -1 7 -2 3 0 6 0 7 -1 2 0 4 0 5 0 37 -7 57 -13 84 -26 3 -1 12 -5 13
-5 1 0 1 0 1 0 0 0 1 0 2 0 1 -1 4 -1 6 -2 5 -1 19 -1 25 0 8 2 16 8 19 14 3
6 3 6 3 14 0 17 -7 30 -25 41 -7 5 -28 15 -40 19 -3 1 -6 2 -7 3 -1 0 -2 0 -2
1 -1 0 -5 1 -9 2 -5 2 -11 3 -13 4 -2 1 -5 1 -5 2 -1 0 -3 0 -4 0 -2 1 -4 1
-5 2 -2 0 -6 1 -10 2 -2 0 -4 0 -5 1 -2 0 -5 1 -9 2 -2 0 -5 0 -6 1 -5 0 -6 1
-12 2 -3 0 -6 0 -7 1 -2 0 -8 1 -16 2 -3 0 -7 0 -8 1 -1 0 -4 0 -7 0 -2 1 -5
1 -6 2 -1 0 -7 0 -12 1 -8 0 -10 0 -16 -2z"/>
<path d="M521 713 c0 0 -5 0 -10 0 -5 -1 -10 -1 -12 -1 -1 -1 -5 -1 -8 -1 -4
-1 -8 -1 -9 -1 -1 -1 -4 -1 -7 -1 -3 -1 -6 -1 -7 -2 -1 0 -4 0 -6 0 -2 -1 -5
-1 -6 -2 -1 0 -4 0 -5 -1 -2 0 -6 -1 -8 -1 -2 -1 -6 -1 -7 -2 -1 0 -3 0 -4 -1
-1 0 -3 0 -4 0 -1 -1 -6 -2 -11 -3 -6 -2 -12 -3 -13 -4 -1 0 -3 0 -3 -1 -1 0
-2 0 -4 -1 -4 0 -24 -9 -30 -14 -13 -8 -18 -17 -19 -30 0 -10 2 -16 9 -23 8
-9 21 -13 38 -11 10 2 9 2 35 8 12 3 23 6 25 6 3 1 5 1 11 3 2 0 6 1 9 1 2 1
4 1 6 1 2 1 17 3 24 3 23 3 40 3 51 1 2 -1 5 -2 9 -2 1 -1 3 -2 6 -3 4 -1 4
-1 3 -4 -2 -9 -9 -19 -24 -34 -13 -13 -17 -16 -34 -30 -20 -16 -39 -29 -60
-40 -16 -10 -76 -39 -97 -49 -15 -7 -23 -12 -29 -18 -4 -4 -9 -12 -10 -17 0
-1 0 -3 0 -4 -3 -11 0 -20 8 -28 5 -4 14 -10 20 -11 3 0 14 -1 17 0 1 1 3 1 5
1 5 2 20 7 32 13 7 3 13 5 13 5 1 0 1 0 1 1 0 1 0 1 1 1 0 -1 1 -1 1 0 1 1 14
8 15 7 0 0 1 0 1 1 0 0 9 5 20 10 44 22 76 42 102 63 4 3 8 6 9 6 0 0 3 -1 6
-4 2 -2 6 -6 8 -8 9 -8 37 -30 47 -36 14 -10 43 -26 62 -36 9 -4 20 -10 25
-13 9 -5 17 -9 19 -9 1 0 1 0 1 0 4 -1 12 -2 17 -2 6 0 8 0 14 3 2 1 5 2 5 2
1 0 1 0 1 1 -1 0 1 2 3 3 5 5 9 15 9 23 0 5 -1 11 -2 13 -1 1 -1 1 -1 2 0 0
-3 8 -6 12 -6 9 -18 17 -46 31 -17 9 -43 23 -55 31 -7 4 -23 16 -25 18 0 0 -3
3 -6 5 -3 2 -6 5 -7 5 0 1 -3 4 -7 7 l-6 5 6 8 c12 16 22 38 24 55 1 8 0 25
-2 27 0 1 0 2 -1 3 0 2 0 4 -1 5 0 1 -1 3 -1 3 0 2 -8 15 -11 19 -10 12 -24
21 -43 28 -9 3 -11 3 -18 5 -1 0 -4 0 -5 1 -12 2 -15 2 -32 2 -9 1 -16 1 -16
0z"/>
</g>
</svg>
