<?xml version="1.0" standalone="no"?>
<!DOCTYPE svg PUBLIC "-//W3C//DTD SVG 20010904//EN"
 "http://www.w3.org/TR/2001/REC-SVG-20010904/DTD/svg10.dtd">
<svg version="1.0" xmlns="http://www.w3.org/2000/svg"
 width="1000.000000pt" height="1000.000000pt" viewBox="0 0 1000.000000 1000.000000"
 preserveAspectRatio="xMidYMid meet">
<metadata>
Created by potrace 1.16, written by Peter Selinger 2001-2019
</metadata>
<g transform="translate(0.000000,1000.000000) scale(1.000000,-1.000000)"
fill="#000000" stroke="none">
<path d="M248 867 c-32 -6 -42 -42 -18 -64 6 -5 12 -8 26 -11 22 -7 52 -18 66
-26 5 -3 11 -6 31 -15 1 -1 9 -5 17 -10 9 -4 16 -8 17 -8 1 0 3 -1 3 -1 0 0 4
0 7 -1 30 -1 49 29 35 56 -4 8 -14 16 -37 28 -4 2 -8 4 -8 4 0 1 -1 1 -2 1 -1
0 -12 5 -18 9 -21 11 -61 28 -72 31 -1 0 -1 0 -1 0 -1 0 -1 0 -2 1 -1 0 -1 0
-1 0 0 0 -1 0 -2 0 -1 1 -4 1 -6 2 -6 2 -4 1 -13 3 -10 3 -15 3 -22 1z"/>
<path d="M280 723 c0 0 -3 0 -7 0 -3 -1 -7 -1 -8 -1 -1 -1 -4 -1 -6 -2 -4 0
-8 -1 -15 -3 -2 0 -4 0 -5 -1 -10 -2 -33 -10 -33 -12 0 -1 0 -1 -1 -1 -1 1
-10 -6 -15 -12 -13 -16 -12 -35 1 -48 3 -2 11 -7 16 -8 5 -1 16 -1 21 0 2 0 5
1 6 1 2 1 5 1 9 2 1 1 5 2 8 3 4 1 9 2 10 2 2 1 5 1 6 1 1 1 4 1 5 1 7 2 15 2
26 2 13 0 16 0 16 -2 1 -1 0 -14 0 -16 -2 -8 -8 -21 -15 -31 -3 -5 -27 -28
-35 -35 -2 -2 -8 -7 -13 -11 -5 -3 -9 -7 -10 -7 0 -1 -3 -4 -6 -6 -4 -3 -8 -7
-9 -8 -2 -2 -9 -7 -16 -12 -14 -9 -19 -13 -22 -18 -4 -7 -6 -13 -6 -22 1 -9 1
-9 4 -15 2 -4 12 -16 12 -15 0 1 1 0 1 0 6 -6 26 -8 34 -4 1 1 3 1 3 0 1 0 1
0 1 1 -1 0 -1 1 0 1 3 0 35 22 43 30 4 4 16 14 23 19 3 3 7 6 8 6 7 7 14 12
14 12 1 0 1 0 1 1 0 0 6 7 13 14 8 7 15 15 17 17 l3 4 9 -9 c8 -8 20 -18 26
-24 1 -1 4 -3 5 -4 1 -2 5 -4 7 -7 3 -2 6 -4 7 -4 0 -1 2 -2 3 -3 1 -1 3 -2 4
-3 1 -1 3 -2 4 -3 4 -3 29 -22 33 -25 1 -1 5 -4 7 -6 3 -3 6 -5 8 -7 9 -9 19
-18 24 -21 2 -1 4 -3 4 -4 4 -3 15 -10 20 -12 8 -4 19 -5 28 -3 14 3 25 13 28
28 1 4 0 13 -2 17 -3 10 -8 16 -24 29 -6 4 -12 9 -13 9 0 1 -4 5 -9 9 -5 4 -9
8 -9 9 -1 0 -4 3 -7 6 -4 2 -7 5 -7 5 -1 1 -14 11 -33 26 -20 14 -25 19 -31
24 -2 1 -7 6 -12 11 -4 4 -13 12 -18 17 -11 11 -11 11 -16 14 l-4 3 -1 17 c0
18 0 21 -3 31 -8 27 -31 46 -65 53 -4 0 -42 1 -42 0z"/>
</g>
</svg>
