<?xml version="1.0" standalone="no"?>
<!DOCTYPE svg PUBLIC "-//W3C//DTD SVG 20010904//EN"
 "http://www.w3.org/TR/2001/REC-SVG-20010904/DTD/svg10.dtd">
<svg version="1.0" xmlns="http://www.w3.org/2000/svg"
 width="1000.000000pt" height="1000.000000pt" viewBox="0 0 1000.000000 1000.000000"
 preserveAspectRatio="xMidYMid meet">
<metadata>
Created by potrace 1.16, written by Peter Selinger 2001-2019
</metadata>
<g transform="translate(0.000000,1000.000000) scale(1.000000,-1.000000)"
fill="#000000" stroke="none">
<path d="M379 727 c0 0 -5 0 -11 0 -6 -1 -12 -1 -13 -1 -1 -1 -5 -1 -7 -1 -2
-1 -5 -1 -7 -1 -1 -1 -3 -1 -5 -1 -6 -1 -9 -2 -11 -3 -1 0 -3 0 -4 -1 -1 0 -3
0 -4 -1 -1 0 -4 0 -5 -1 -1 0 -3 -1 -5 -1 -1 -1 -3 -1 -4 -2 -11 -2 -47 -16
-70 -27 -18 -8 -24 -13 -30 -21 -10 -14 -11 -28 -3 -40 7 -12 18 -17 34 -17 8
0 15 2 34 11 23 10 36 15 54 21 6 2 11 3 12 3 5 1 7 2 9 2 2 1 6 2 12 3 2 0 5
0 7 1 7 1 33 2 41 1 6 -1 13 -4 14 -6 1 -2 0 -24 -1 -31 -1 -2 -1 -5 -1 -7 -1
-2 -1 -6 -2 -7 0 -1 0 -4 0 -5 -1 -5 -2 -6 -4 -13 -2 -8 -1 -8 -17 -8 -6 -1
-12 -1 -14 -1 -1 -1 -4 -1 -7 -1 -6 -1 -8 -1 -14 -2 -5 -1 -8 -2 -11 -2 -1 -1
-4 -1 -5 -1 -1 -1 -4 -1 -5 -1 -1 -1 -4 -1 -5 -2 -2 0 -7 -1 -11 -2 -5 -1 -10
-2 -11 -3 -1 0 -3 0 -3 -1 0 0 -2 0 -4 0 -1 -1 -7 -2 -11 -4 -5 -1 -11 -2 -12
-3 -1 0 -3 -1 -4 -1 -1 -1 -2 -1 -2 -1 0 1 -15 -4 -19 -6 -6 -4 -17 -14 -21
-20 -10 -15 -7 -33 8 -42 7 -5 18 -8 29 -8 11 0 10 0 26 4 6 2 12 3 13 4 1 0
8 2 17 4 9 2 17 4 18 4 1 1 7 2 12 3 5 1 11 2 14 2 l4 1 -2 -4 c-6 -13 -10
-22 -24 -45 -16 -26 -20 -33 -33 -49 -3 -5 -8 -13 -11 -18 -4 -9 -4 -10 -5
-19 0 -10 1 -15 6 -22 6 -10 14 -14 26 -15 9 0 17 2 24 7 2 2 5 3 5 3 1 0 1 0
1 1 -1 0 3 5 4 4 1 0 1 0 1 1 0 0 2 3 5 6 12 13 21 27 42 62 16 26 22 37 31
58 3 7 9 21 14 31 13 30 22 54 23 60 1 1 1 3 2 6 0 2 1 4 1 4 0 1 1 2 1 4 1 2
1 5 2 7 0 2 0 4 1 5 0 1 0 3 1 6 0 2 0 4 1 5 0 1 0 4 1 7 0 2 0 6 1 7 1 11 2
43 1 51 -3 12 -9 26 -16 35 -4 5 -12 13 -13 13 -1 0 -1 1 -2 1 -4 4 -19 12
-29 15 -10 3 -12 3 -22 5 -5 0 -32 1 -32 0z"/>
</g>
</svg>
