<?xml version="1.0" standalone="no"?>
<!DOCTYPE svg PUBLIC "-//W3C//DTD SVG 20010904//EN"
 "http://www.w3.org/TR/2001/REC-SVG-20010904/DTD/svg10.dtd">
<svg version="1.0" xmlns="http://www.w3.org/2000/svg"
 width="1000.000000pt" height="1000.000000pt" viewBox="0 0 1000.000000 1000.000000"
 preserveAspectRatio="xMidYMid meet">
<metadata>
Created by potrace 1.16, written by Peter Selinger 2001-2019
</metadata>
<g transform="translate(0.000000,1000.000000) scale(1.000000,-1.000000)"
fill="#000000" stroke="none">
<path d="M353 978 c0 0 -5 0 -11 0 -6 -1 -12 -1 -13 -1 -1 -1 -5 -1 -8 -1 -4
-1 -8 -1 -9 -1 -2 -1 -6 -2 -12 -3 -5 0 -12 -2 -19 -3 -1 -1 -3 -1 -4 -1 -1
-1 -5 -2 -8 -3 -3 -1 -6 -1 -7 -2 -3 0 -18 -7 -27 -11 -31 -15 -41 -25 -43
-40 -1 -13 7 -23 21 -27 4 -1 14 0 22 0 7 1 11 2 21 2 4 1 7 1 9 1 1 1 4 1 6
1 4 1 7 1 12 3 1 0 4 0 5 0 1 1 3 1 4 1 1 1 3 1 5 1 2 1 4 1 10 2 1 1 4 1 6 2
2 0 5 0 6 0 26 5 71 6 87 2 1 0 3 0 4 0 4 -1 15 -4 18 -5 11 -5 25 -20 27 -29
0 -2 0 -2 -2 -2 -3 2 -15 5 -18 5 -12 2 -17 2 -36 2 -20 0 -30 0 -48 -1 -3 -1
-9 -1 -13 -1 -8 -1 -11 -1 -21 -2 -3 -1 -8 -1 -11 -2 -12 -1 -22 -2 -31 -4 -1
-1 -3 -1 -4 -1 -1 -1 -3 -1 -4 -1 -5 -2 -12 -4 -12 -5 0 -1 0 -1 -1 -1 -1 1
-10 -5 -13 -9 -6 -6 -8 -12 -9 -20 0 -5 1 -8 2 -12 5 -12 18 -20 34 -23 9 -1
40 -1 55 2 3 0 10 1 22 2 4 0 9 0 11 1 17 1 52 2 62 1 4 -1 6 -1 11 -2 5 -2 7
-2 11 -2 2 0 7 0 9 0 l5 1 -2 -5 c-2 -8 -6 -18 -11 -27 -3 -7 -8 -18 -10 -26
0 -3 -1 -18 0 -21 1 -5 6 -13 10 -16 14 -11 38 -5 57 15 6 6 17 24 22 36 3 8
8 24 9 29 0 1 0 3 1 4 1 4 2 14 4 28 0 6 0 32 0 42 -1 8 -2 18 -3 20 0 2 0 4
-1 6 0 2 -1 4 -1 5 0 2 -1 3 -1 3 0 1 0 1 0 1 0 0 0 1 0 2 -2 9 -12 28 -20 37
-21 25 -40 38 -69 46 -9 2 -11 3 -16 4 -2 0 -4 0 -5 1 -1 0 -4 0 -6 1 -3 0 -7
0 -9 1 -4 0 -50 1 -50 0z"/>
</g>
</svg>
