<?xml version="1.0" standalone="no"?>
<!DOCTYPE svg PUBLIC "-//W3C//DTD SVG 20010904//EN"
 "http://www.w3.org/TR/2001/REC-SVG-20010904/DTD/svg10.dtd">
<svg version="1.0" xmlns="http://www.w3.org/2000/svg"
 width="1000.000000pt" height="1000.000000pt" viewBox="0 0 1000.000000 1000.000000"
 preserveAspectRatio="xMidYMid meet">
<metadata>
Created by potrace 1.16, written by Peter Selinger 2001-2019
</metadata>
<g transform="translate(0.000000,1000.000000) scale(1.000000,-1.000000)"
fill="#000000" stroke="none">
<path d="M516 770 c0 -1 -5 -1 -9 -1 -5 -1 -11 -1 -12 -1 -1 -1 -5 -1 -7 -1
-2 -1 -6 -1 -7 -2 -7 -1 -10 -1 -12 -1 -1 -1 -3 -1 -5 -1 -2 -1 -5 -1 -6 -1
-1 -1 -4 -1 -5 -1 -1 -1 -4 -1 -5 -1 -1 -1 -4 -1 -5 -2 -2 0 -5 -1 -7 -1 -3
-1 -6 -1 -7 -2 -6 -1 -32 -8 -41 -12 -26 -9 -39 -18 -47 -30 -12 -17 -9 -36 7
-46 9 -6 23 -7 42 -3 1 1 9 3 19 6 9 3 18 6 19 6 2 1 4 1 6 2 1 1 3 1 3 1 0 0
1 0 4 1 2 0 5 1 6 1 1 1 4 1 5 1 1 1 4 1 5 2 2 0 4 0 4 0 0 1 2 1 4 1 3 1 5 1
11 2 1 1 4 1 6 2 3 0 5 0 6 1 2 0 5 0 7 1 2 0 5 0 7 1 9 1 38 2 48 1 12 -2 25
-8 32 -15 6 -6 16 -24 17 -31 1 -1 1 -2 1 -3 1 0 1 -4 2 -7 1 -12 1 -12 -5
-11 -2 1 -6 1 -8 1 -2 1 -6 1 -7 1 -4 1 -19 3 -26 4 -22 2 -62 2 -93 0 -19 -2
-30 -3 -34 -3 -2 -1 -6 -1 -8 -2 -3 0 -7 0 -8 -1 -1 0 -4 0 -6 -1 -3 0 -5 0
-6 -1 -2 0 -4 0 -5 -1 -1 0 -4 -1 -6 -1 -3 -1 -5 -1 -6 -2 -5 0 -17 -7 -21
-11 -4 -3 -10 -12 -8 -12 0 0 0 -1 -1 -2 -1 0 -2 -4 -2 -8 0 -10 2 -17 9 -24
7 -7 13 -10 25 -12 3 -1 26 -1 29 -1 1 1 9 2 18 3 1 0 6 0 11 1 4 0 9 0 11 1
3 0 19 1 30 2 8 0 46 0 52 0 2 -1 8 -1 12 -1 4 -1 9 -1 10 -1 1 -1 5 -1 8 -1
3 -1 7 -1 8 -1 1 -1 5 -1 7 -1 3 -1 6 -1 6 -1 0 -1 -5 -14 -14 -35 -13 -28
-17 -35 -30 -51 -10 -14 -12 -18 -13 -30 -1 -27 27 -46 52 -35 3 1 5 2 6 1 0
0 0 0 0 1 -1 1 0 1 2 1 1 0 1 0 1 0 0 1 2 4 6 8 8 8 18 21 26 35 14 23 40 87
47 112 0 1 0 3 1 4 0 2 0 3 2 9 1 5 1 8 2 11 0 2 0 5 1 6 0 5 1 24 1 36 0 14
0 24 -3 33 0 1 0 4 -1 5 -1 7 -6 20 -11 30 -10 21 -23 38 -35 47 -2 1 -4 3 -4
4 -5 4 -28 16 -38 19 -6 2 -17 5 -23 6 -2 0 -5 0 -6 1 -3 0 -41 1 -41 1z"/>
</g>
</svg>
