<?xml version="1.0" standalone="no"?>
<!DOCTYPE svg PUBLIC "-//W3C//DTD SVG 20010904//EN"
 "http://www.w3.org/TR/2001/REC-SVG-20010904/DTD/svg10.dtd">
<svg version="1.0" xmlns="http://www.w3.org/2000/svg"
 width="1000.000000pt" height="1000.000000pt" viewBox="0 0 1000.000000 1000.000000"
 preserveAspectRatio="xMidYMid meet">
<metadata>
Created by potrace 1.16, written by Peter Selinger 2001-2019
</metadata>
<g transform="translate(0.000000,1000.000000) scale(1.000000,-1.000000)"
fill="#000000" stroke="none">
<path d="M477 682 c0 0 -5 0 -9 0 -9 -1 -13 -2 -18 -3 -2 0 -5 0 -7 -1 -2 0
-5 0 -5 -1 0 0 -2 0 -4 0 -2 -1 -4 -1 -5 -2 -1 0 -3 0 -4 -1 -1 0 -3 0 -4 -1
-1 0 -4 0 -5 -1 -1 0 -3 -1 -5 -1 -1 -1 -4 -1 -5 -2 -4 0 -27 -9 -39 -14 -28
-12 -48 -29 -52 -46 -1 -5 0 -15 2 -19 6 -13 22 -19 41 -17 4 1 6 1 11 3 1 0
3 0 4 1 1 0 3 0 4 0 1 1 9 4 18 7 19 8 37 14 37 13 0 0 1 0 2 1 1 0 3 1 4 1 5
1 7 2 9 2 2 1 5 2 11 3 2 0 4 0 5 1 13 2 63 2 77 0 1 -1 5 -1 7 -1 5 -1 6 -1
22 -4 12 -3 30 -10 40 -16 9 -5 13 -10 16 -17 2 -6 2 -8 2 -18 0 -7 -1 -13 -1
-14 -1 0 -2 -1 -4 -1 -1 1 -5 1 -8 2 -4 0 -8 0 -9 1 -1 0 -6 0 -10 1 -4 0 -9
0 -11 1 -24 2 -83 2 -105 0 -2 -1 -6 -1 -10 -1 -4 -1 -9 -1 -11 -2 -2 0 -7 0
-9 -1 -3 0 -7 0 -9 -1 -2 0 -6 0 -8 0 -5 -1 -12 -2 -15 -2 -1 -1 -5 -1 -7 -1
-2 -1 -6 -1 -7 -2 -2 0 -4 0 -6 0 -1 -1 -5 -1 -7 -1 -2 -1 -6 -1 -8 -2 -13 -1
-26 -11 -32 -23 -4 -10 -4 -23 3 -33 4 -7 16 -16 23 -17 1 0 2 -1 3 -1 1 -1
20 0 24 0 1 1 4 1 7 1 3 1 6 1 7 1 1 1 4 1 7 1 3 1 6 1 7 1 1 1 4 1 7 1 3 1 7
1 8 2 1 0 5 0 8 0 3 1 7 1 9 2 2 0 7 0 11 1 3 0 8 0 10 1 18 2 72 2 95 0 2 -1
7 -1 10 -1 4 -1 8 -1 8 -2 2 -1 -33 -47 -45 -61 -3 -2 -15 -16 -17 -18 -4 -6
-14 -20 -16 -25 -14 -27 -3 -49 22 -49 13 0 22 3 36 12 11 7 19 15 40 39 2 2
4 5 4 5 4 4 33 44 42 59 9 13 11 17 22 45 0 1 0 2 0 2 1 0 3 7 6 16 4 14 7 24
9 31 4 19 4 45 1 58 0 2 0 4 -1 6 -1 6 -5 19 -9 27 -10 17 -23 31 -45 44 -4 2
-18 9 -19 10 0 0 -2 0 -4 1 -3 2 -16 6 -18 7 -1 0 -1 0 -1 0 0 0 -1 0 -2 0 -1
1 -4 2 -7 2 -4 1 -8 2 -9 3 -1 0 -3 0 -4 1 -3 0 -5 1 -18 3 -9 2 -11 2 -18 2
-4 1 -8 1 -10 2 -5 0 -59 1 -59 0z"/>
</g>
</svg>
