<?xml version="1.0" standalone="no"?>
<!DOCTYPE svg PUBLIC "-//W3C//DTD SVG 20010904//EN"
 "http://www.w3.org/TR/2001/REC-SVG-20010904/DTD/svg10.dtd">
<svg version="1.0" xmlns="http://www.w3.org/2000/svg"
 width="1000.000000pt" height="1000.000000pt" viewBox="0 0 1000.000000 1000.000000"
 preserveAspectRatio="xMidYMid meet">
<metadata>
Created by potrace 1.16, written by Peter Selinger 2001-2019
</metadata>
<g transform="translate(0.000000,1000.000000) scale(1.000000,-1.000000)"
fill="#000000" stroke="none">
<path d="M490 967 c0 0 -8 0 -16 0 -9 -1 -18 -1 -20 -1 -2 -1 -7 -1 -10 -1 -4
-1 -9 -1 -10 -1 -2 -1 -6 -1 -8 -1 -2 -1 -5 -1 -6 -1 -2 -1 -5 -1 -7 -1 -3 -1
-6 -1 -7 -2 -4 0 -7 -1 -10 -2 -2 0 -6 -1 -9 -2 -3 0 -6 -1 -6 -1 0 0 -6 -2
-14 -5 -34 -12 -53 -24 -60 -39 -6 -13 -1 -27 14 -34 5 -2 6 -2 18 -2 7 0 15
0 18 0 7 2 9 2 15 3 3 0 6 0 7 1 2 0 4 0 5 1 1 0 4 0 5 0 1 1 4 1 6 2 2 0 5 0
6 1 1 0 5 0 7 1 4 0 6 0 11 1 1 1 4 1 7 1 2 1 5 1 6 1 6 1 10 2 16 2 4 1 8 1
11 2 21 2 93 2 106 0 1 -1 5 -1 7 -1 6 -1 11 -2 17 -3 8 -2 21 -9 26 -14 4 -5
4 -8 1 -13 -1 -3 -3 -5 -3 -5 0 0 -3 1 -6 3 -5 3 -11 5 -16 6 -6 0 -13 1 -24
3 -23 2 -92 2 -121 0 -3 -1 -9 -1 -15 -1 -42 -3 -46 -4 -55 -6 -6 -1 -24 -8
-24 -9 0 -1 0 -1 -1 -1 -1 1 -10 -8 -13 -13 -1 -2 -2 -4 -1 -4 0 0 0 -1 -1 -1
0 -1 -1 -4 -1 -8 0 -15 9 -25 29 -33 5 -2 6 -2 14 -4 4 -1 20 -1 30 0 2 1 8 1
14 2 5 0 11 0 14 0 20 2 32 2 70 2 24 0 48 0 53 0 5 -1 10 -1 11 -1 0 0 1 -1
1 -1 0 -1 -11 -14 -18 -22 -8 -8 -13 -16 -14 -22 -1 -1 -1 -3 -2 -5 -2 -11 2
-25 10 -33 2 -2 9 -7 11 -7 0 0 1 0 2 -1 3 -1 9 -2 13 -1 18 1 32 10 52 36 3
5 12 15 18 22 17 22 28 39 34 56 5 13 6 18 8 42 0 5 0 12 1 14 1 10 0 27 -2
31 0 1 -1 2 -1 2 1 2 -5 15 -7 16 -1 1 -1 1 -1 1 1 0 -2 4 -9 11 -7 7 -7 7
-14 12 -7 4 -24 13 -24 12 -1 0 -1 0 -1 1 0 0 0 1 -1 1 0 0 -3 0 -6 2 -3 1 -6
1 -6 2 -1 0 -1 0 -1 0 0 0 -1 0 -2 0 -1 1 -4 2 -8 2 -4 1 -8 2 -11 3 -2 0 -5
0 -6 1 -1 0 -5 0 -7 1 -3 0 -7 0 -8 0 -11 2 -23 2 -50 2 -17 0 -31 0 -31 0z"/>
</g>
</svg>
