<?xml version="1.0" standalone="no"?>
<!DOCTYPE svg PUBLIC "-//W3C//DTD SVG 20010904//EN"
 "http://www.w3.org/TR/2001/REC-SVG-20010904/DTD/svg10.dtd">
<svg version="1.0" xmlns="http://www.w3.org/2000/svg"
 width="1000.000000pt" height="1000.000000pt" viewBox="0 0 1000.000000 1000.000000"
 preserveAspectRatio="xMidYMid meet">
<metadata>
Created by potrace 1.16, written by Peter Selinger 2001-2019
</metadata>
<g transform="translate(0.000000,1000.000000) scale(1.000000,-1.000000)"
fill="#000000" stroke="none">
<path d="M409 787 c0 0 -6 0 -13 0 -7 -1 -14 -1 -15 -1 -2 -1 -7 -1 -10 -1 -4
-1 -9 -1 -10 -2 -1 0 -4 0 -6 -1 -3 0 -6 0 -7 -1 -1 0 -4 0 -6 -1 -3 0 -7 -1
-9 -1 -2 -1 -6 -1 -7 -2 -1 0 -3 0 -4 -1 -1 0 -3 0 -4 -1 -4 0 -6 -1 -13 -3
-5 -1 -9 -2 -10 -2 -7 -2 -12 -4 -24 -8 -17 -7 -49 -21 -55 -24 -17 -11 -20
-30 -7 -43 2 -2 5 -5 8 -6 4 -3 6 -3 13 -5 3 0 17 0 22 0 2 1 6 1 9 1 2 1 6 1
7 1 1 1 4 1 6 2 2 0 5 0 6 1 1 0 4 0 6 1 3 0 25 5 27 6 4 1 18 4 19 5 1 0 3 0
4 0 8 2 15 4 19 4 2 1 5 1 6 1 2 1 10 2 16 3 1 0 6 0 10 1 8 1 38 1 43 0 8 -1
20 -9 28 -16 11 -11 21 -28 24 -39 2 -11 2 -27 0 -26 -6 1 -9 1 -25 3 -5 0 -9
0 -10 1 -2 0 -6 0 -10 1 -5 0 -10 0 -12 1 -2 0 -8 0 -14 1 -7 0 -13 0 -15 1
-5 0 -43 0 -51 0 -7 -1 -16 -2 -19 -3 -1 0 -4 0 -6 -1 -2 0 -4 0 -5 -1 -2 0
-4 -1 -9 -2 -1 0 -6 -1 -11 -3 -26 -8 -42 -25 -42 -42 0 -19 17 -31 41 -31 4
0 18 1 21 2 1 0 4 0 6 1 7 1 11 1 13 2 13 2 58 2 86 0 2 -1 7 -1 12 -2 4 0 9
0 11 -1 1 0 6 0 11 -1 4 0 9 0 10 -1 1 0 4 0 5 0 l3 0 -2 -4 c0 -2 -1 -4 -1
-4 0 -2 -10 -29 -15 -41 -6 -18 -12 -29 -20 -38 -11 -14 -14 -21 -14 -35 0
-27 20 -41 46 -33 5 2 15 7 15 8 1 1 2 1 2 0 1 0 1 0 1 0 0 1 2 4 5 7 14 14
25 33 35 60 3 8 6 15 7 17 0 1 0 2 0 2 1 4 8 21 8 22 1 0 1 1 1 1 -1 0 0 1 0
3 1 3 8 24 9 26 5 21 5 26 7 35 1 4 1 9 2 10 1 12 2 49 1 64 -1 6 -2 15 -5 24
0 1 -1 6 -3 11 -9 25 -29 53 -50 68 -11 9 -32 22 -33 20 -1 0 -1 0 -1 1 0 0 0
1 -1 1 0 0 -4 1 -7 2 -8 2 -10 3 -15 4 -2 0 -4 0 -5 1 -2 0 -30 2 -30 1z"/>
</g>
</svg>
