<?xml version="1.0" standalone="no"?>
<!DOCTYPE svg PUBLIC "-//W3C//DTD SVG 20010904//EN"
 "http://www.w3.org/TR/2001/REC-SVG-20010904/DTD/svg10.dtd">
<svg version="1.0" xmlns="http://www.w3.org/2000/svg"
 width="1000.000000pt" height="1000.000000pt" viewBox="0 0 1000.000000 1000.000000"
 preserveAspectRatio="xMidYMid meet">
<metadata>
Created by potrace 1.16, written by Peter Selinger 2001-2019
</metadata>
<g transform="translate(0.000000,1000.000000) scale(1.000000,-1.000000)"
fill="#000000" stroke="none">
<path d="M618 844 c0 0 -7 0 -16 0 -21 -1 -40 -3 -55 -5 -2 0 -7 0 -9 0 -2 -1
-7 -1 -10 -2 -10 -1 -11 -1 -17 -1 -4 -1 -9 -1 -11 -2 -11 -1 -26 -3 -32 -3
-1 -1 -5 -1 -7 -1 -2 -1 -6 -1 -7 -1 -1 -1 -4 -1 -7 -1 -2 -1 -5 -1 -6 -2 -1
0 -5 0 -7 -1 -2 0 -5 0 -6 -1 -2 0 -4 0 -6 0 -2 -1 -5 -1 -6 -1 -1 -1 -4 -1
-6 -1 -2 -1 -5 -1 -6 -1 -1 -1 -4 -1 -6 -1 -2 -1 -5 -1 -6 -1 -1 -1 -4 -1 -6
-1 -2 -1 -5 -1 -6 -1 -1 -1 -4 -1 -7 -1 -3 -1 -7 -1 -8 -1 -1 -1 -5 -1 -8 -2
-3 0 -6 0 -7 -1 -1 0 -3 0 -4 0 -9 -2 -21 -12 -26 -22 -2 -5 -2 -7 -2 -14 0
-9 0 -10 3 -16 2 -5 10 -14 15 -17 3 -1 3 -1 3 -7 -1 -8 -2 -32 -4 -85 -1 -46
0 -101 1 -111 1 -1 1 -4 2 -6 2 -20 11 -38 24 -51 18 -18 46 -36 63 -41 0 0 1
0 2 0 4 -2 15 -5 19 -6 3 0 5 0 5 0 0 -1 3 -1 5 -1 2 -1 6 -1 7 -2 12 -2 57
-2 81 0 6 1 14 2 16 2 1 1 4 1 7 1 3 1 7 1 8 1 1 1 4 1 7 1 3 1 6 1 7 1 1 1 4
1 8 2 4 0 7 0 8 1 6 1 15 2 36 4 18 1 25 2 28 3 2 0 4 0 5 1 2 0 4 0 5 1 2 1
3 1 3 1 0 -1 3 1 7 3 9 4 15 9 18 16 3 6 3 7 3 16 0 6 0 9 -2 13 -6 13 -17 20
-37 23 -8 1 -15 1 -35 -1 -2 -1 -7 -1 -10 -1 -12 -2 -25 -3 -28 -4 -1 0 -4 0
-7 0 -3 -1 -7 -1 -8 -2 -1 0 -5 0 -7 0 -2 -1 -6 -1 -7 -1 -1 -1 -5 -1 -8 -2
-3 0 -6 0 -7 -1 -1 0 -5 0 -8 -1 -3 0 -7 0 -8 -1 -10 -1 -49 -2 -59 -1 -14 2
-26 5 -35 9 -6 3 -21 13 -26 18 -5 5 -6 8 -7 23 -1 18 -1 24 0 25 1 0 4 0 7 0
2 1 5 1 7 1 10 3 16 4 20 4 2 1 5 1 6 2 1 0 4 0 6 1 2 0 5 0 6 1 1 0 4 0 6 1
7 1 11 1 13 2 2 0 5 0 7 1 2 0 6 0 7 1 1 0 5 0 9 0 4 1 8 1 11 1 20 3 59 3 86
2 19 -2 60 -2 65 -1 1 1 3 1 5 1 4 1 14 6 19 9 10 7 14 16 14 28 -1 13 -7 22
-21 29 -12 7 -19 8 -45 8 -10 1 -24 1 -32 2 -26 1 -76 1 -96 -1 -2 -1 -6 -1
-10 -1 -13 -2 -20 -3 -26 -4 -6 0 -9 -1 -13 -1 -2 -1 -5 -1 -6 -2 -1 0 -5 0
-7 -1 -2 0 -5 0 -6 -1 -2 0 -4 0 -6 0 -2 -1 -5 -1 -6 -2 -1 0 -4 0 -6 -1 -2 0
-4 0 -5 -1 -2 0 -4 0 -5 -1 l-3 0 0 20 c2 43 3 63 5 65 0 1 3 1 5 1 2 1 6 1 7
1 1 1 4 1 6 2 5 0 8 1 13 1 11 2 14 3 19 4 2 0 6 0 7 0 1 1 5 1 8 2 3 0 6 0 7
0 1 1 4 1 7 1 3 1 7 1 9 2 2 0 6 0 10 1 4 0 8 0 9 0 1 1 6 1 10 1 3 1 8 1 9 1
1 1 6 1 10 2 3 0 8 0 10 1 24 2 62 4 94 3 5 0 10 0 12 0 1 1 3 1 5 1 1 1 3 2
5 2 3 1 5 2 5 1 1 0 1 0 1 1 -1 0 0 1 2 2 2 1 4 2 5 3 0 1 2 2 2 1 1 0 1 0 1
1 -1 0 0 2 1 3 3 2 7 10 8 14 2 12 -3 25 -14 35 -3 3 -13 9 -13 8 0 0 -2 0 -3
1 -7 3 -15 3 -37 3 -11 0 -19 0 -19 0z"/>
</g>
</svg>
