<?xml version="1.0" standalone="no"?>
<!DOCTYPE svg PUBLIC "-//W3C//DTD SVG 20010904//EN"
 "http://www.w3.org/TR/2001/REC-SVG-20010904/DTD/svg10.dtd">
<svg version="1.0" xmlns="http://www.w3.org/2000/svg"
 width="1000.000000pt" height="1000.000000pt" viewBox="0 0 1000.000000 1000.000000"
 preserveAspectRatio="xMidYMid meet">
<metadata>
Created by potrace 1.16, written by Peter Selinger 2001-2019
</metadata>
<g transform="translate(0.000000,1000.000000) scale(1.000000,-1.000000)"
fill="#000000" stroke="none">
<path d="M428 761 c0 0 -6 0 -12 0 -6 -1 -13 -1 -14 -1 -2 -1 -9 -2 -17 -2 -1
-1 -4 -1 -7 -1 -2 -1 -6 -1 -8 -2 -2 0 -4 0 -6 0 -1 -1 -4 -1 -6 -1 -2 -1 -6
-1 -7 -2 -1 0 -4 0 -6 -1 -2 0 -6 -1 -8 -1 -2 -1 -6 -1 -7 -2 -1 0 -4 -1 -6
-1 -3 -1 -6 -1 -7 -2 -2 0 -6 -1 -10 -2 -3 -1 -7 -2 -8 -2 -4 0 -84 -29 -94
-34 -10 -5 -18 -16 -21 -26 0 -3 0 -12 0 -15 1 -5 4 -10 6 -14 l4 -4 -1 -35
c0 -19 0 -44 -1 -56 -1 -39 -1 -87 1 -98 1 -1 1 -5 1 -8 1 -3 1 -7 2 -8 0 -1
0 -5 1 -7 0 -2 0 -5 0 -6 1 -1 2 -7 3 -13 0 -6 1 -10 3 -19 1 -5 2 -10 3 -11
2 -13 9 -30 16 -41 16 -23 37 -33 72 -32 8 0 40 1 47 2 21 1 34 2 39 3 1 1 4
1 6 2 6 0 7 1 14 2 4 1 8 2 9 2 4 1 11 3 18 5 3 1 7 2 8 2 3 1 25 9 37 14 7 3
12 5 12 4 0 0 1 0 2 1 1 0 3 1 5 1 4 1 8 2 11 2 3 1 9 4 12 6 1 1 3 2 4 1 0 0
0 0 0 1 -1 0 -1 1 0 1 2 0 9 10 11 16 1 4 2 8 2 14 -1 7 -3 16 -5 17 -1 1 -1
1 -1 1 1 0 0 2 -5 7 -3 3 -8 7 -14 9 -5 2 -8 2 -16 2 -5 -1 -11 -1 -13 -2 -6
-1 -22 -6 -32 -10 -9 -4 -32 -12 -35 -12 -1 -1 -5 -2 -8 -3 -4 -1 -9 -2 -10
-3 -2 0 -4 0 -5 -1 -1 0 -3 0 -4 -1 -1 0 -4 0 -5 0 -9 -2 -15 -3 -31 -5 -4 0
-9 0 -11 -1 -3 0 -15 0 -28 -1 -19 0 -23 0 -24 1 -1 1 -4 11 -4 13 0 1 -1 2
-1 4 -1 2 -1 5 -2 6 0 1 0 4 -1 5 0 1 0 4 -1 6 0 2 -1 6 -1 9 -1 6 -2 10 -3
17 0 2 0 4 0 6 -1 4 -2 14 -2 19 -1 7 -1 7 8 8 1 1 11 4 22 7 11 3 21 6 23 6
1 1 3 1 4 2 2 0 3 1 3 0 0 0 1 0 2 1 1 0 3 1 4 1 1 1 4 2 7 2 2 1 4 2 5 2 0 0
2 1 4 1 3 1 5 1 6 2 1 0 3 0 4 1 1 0 3 0 4 1 1 0 3 0 4 0 1 1 3 1 4 1 1 1 3 1
5 1 1 1 4 1 5 1 6 2 8 2 12 3 2 0 6 0 7 0 5 1 18 2 33 4 3 0 14 0 24 1 25 0
35 1 38 2 1 0 3 0 4 0 0 0 3 2 5 3 8 4 15 11 19 19 3 6 3 7 3 15 0 5 0 10 -1
12 -1 1 -1 3 -1 3 0 1 0 1 -1 1 -1 0 -1 1 -1 1 0 3 -11 13 -17 16 -8 4 -11 4
-22 4 -11 0 -51 -1 -56 -1 -2 -1 -7 -1 -11 -1 -14 -2 -19 -2 -31 -4 -2 0 -5 0
-6 -1 -2 0 -4 0 -6 -1 -3 0 -5 0 -6 -1 -2 0 -5 -1 -9 -2 -2 0 -4 0 -5 -1 -1 0
-3 0 -4 -1 -1 0 -3 0 -4 0 -1 -1 -3 -1 -4 -1 -4 -2 -7 -2 -8 -3 -2 0 -9 -2
-18 -5 -9 -2 -16 -4 -17 -4 -1 -1 -5 -2 -9 -3 -4 -1 -8 -2 -8 -2 0 0 -3 -1 -6
-2 -4 -1 -7 -2 -7 -2 0 0 0 20 0 44 l0 44 6 3 c5 2 37 13 41 13 1 1 5 2 8 3 4
1 8 2 10 2 3 1 7 2 9 2 1 1 3 1 5 1 1 1 4 1 5 2 1 0 4 0 6 1 1 0 3 0 4 0 1 1
3 1 6 1 2 1 4 1 6 1 1 1 4 1 7 1 3 1 7 1 8 2 1 0 5 0 7 0 3 1 8 1 11 2 11 1
17 1 47 1 17 1 32 1 33 1 1 1 3 1 4 1 3 1 11 6 15 10 4 4 9 12 10 16 0 0 0 2
0 3 2 7 1 18 -3 25 -4 9 -15 17 -25 20 -2 0 -62 1 -62 0z"/>
</g>
</svg>
