<?xml version="1.0" standalone="no"?>
<!DOCTYPE svg PUBLIC "-//W3C//DTD SVG 20010904//EN"
 "http://www.w3.org/TR/2001/REC-SVG-20010904/DTD/svg10.dtd">
<svg version="1.0" xmlns="http://www.w3.org/2000/svg"
 width="1000.000000pt" height="1000.000000pt" viewBox="0 0 1000.000000 1000.000000"
 preserveAspectRatio="xMidYMid meet">
<metadata>
Created by potrace 1.16, written by Peter Selinger 2001-2019
</metadata>
<g transform="translate(0.000000,1000.000000) scale(1.000000,-1.000000)"
fill="#000000" stroke="none">
<path d="M546 740 c0 -1 -6 -1 -13 -1 -6 -1 -12 -1 -14 -1 -1 -1 -4 -1 -7 -1
-6 -1 -10 -2 -16 -3 -1 0 -4 0 -7 0 -2 -1 -5 -1 -6 -2 -1 0 -4 0 -6 -1 -2 0
-4 0 -5 -1 -2 0 -4 0 -6 -1 -2 0 -4 0 -5 -1 -2 0 -4 0 -5 0 -1 -1 -4 -1 -5 -1
-1 -1 -4 -1 -5 -2 -2 0 -6 -1 -8 -1 -5 -1 -8 -2 -11 -2 -1 -1 -4 -1 -5 -1 -1
-1 -4 -1 -5 -2 -2 0 -6 -1 -8 -1 -7 -2 -8 -2 -12 -3 -2 0 -4 0 -4 -1 0 0 -2 0
-4 -1 -2 0 -5 -1 -7 -1 -3 -1 -6 -1 -7 -2 -1 0 -4 -1 -6 -1 -3 -1 -5 -1 -6 -2
-1 0 -3 0 -4 0 -1 -1 -3 -1 -4 -1 -20 -5 -34 -17 -38 -32 -1 -5 0 -18 1 -20 1
-2 1 -3 -2 -10 -2 -8 -4 -13 -4 -21 -1 -3 -1 -7 -2 -8 0 -1 0 -6 -1 -9 0 -4 0
-9 -1 -10 -2 -21 -2 -164 0 -189 2 -12 3 -24 4 -30 1 -1 1 -3 1 -4 2 -5 7 -20
10 -25 12 -22 37 -39 63 -43 2 -1 5 -1 6 -2 1 0 6 0 10 -1 7 0 8 0 23 -2 16
-1 63 -1 74 1 1 1 4 1 7 1 9 2 15 3 19 4 1 0 4 0 5 1 6 1 7 1 17 4 5 1 19 5
31 9 12 4 22 7 22 7 0 0 1 1 2 1 1 1 27 10 31 10 5 1 16 5 23 9 16 8 24 21 24
34 0 6 0 11 -1 12 0 0 0 0 0 1 -2 5 -10 14 -18 18 -11 5 -26 6 -42 1 -3 0 -7
-1 -8 -2 -1 0 -20 -6 -41 -13 -43 -14 -48 -16 -64 -18 -2 -1 -4 -1 -6 -2 -4 0
-7 -1 -17 -2 -9 -1 -42 -1 -53 0 -9 1 -11 1 -23 2 -8 1 -13 3 -16 5 -2 3 -5
11 -6 20 0 3 0 7 -1 10 0 2 0 15 -1 29 0 20 0 25 1 25 1 0 3 0 5 0 1 1 4 1 7
1 7 1 12 2 14 2 1 1 4 1 7 1 3 1 6 1 7 2 1 0 5 0 9 1 8 0 10 1 17 2 3 0 7 0 8
0 2 1 8 1 21 3 5 0 8 1 16 2 8 0 12 1 15 1 1 1 5 1 8 2 3 0 6 0 7 0 1 1 11 2
16 2 1 1 5 1 8 2 3 0 7 0 8 1 1 0 5 0 8 0 11 2 15 2 25 2 9 1 13 1 19 2 7 2
19 11 23 20 3 7 3 7 4 16 0 18 -11 33 -29 37 -6 2 -33 2 -47 0 -1 -1 -5 -1 -9
-2 -4 0 -7 0 -8 -1 -1 0 -5 0 -9 -1 -3 0 -7 0 -8 -1 -1 0 -4 0 -7 -1 -3 0 -6
0 -7 0 -1 -1 -4 -1 -8 -1 -4 -1 -7 -1 -8 -2 -1 0 -4 0 -7 0 -3 -1 -7 -1 -8 -2
-2 0 -10 -1 -19 -2 -12 -1 -18 -1 -19 -2 -2 0 -5 0 -7 -1 -3 0 -7 0 -9 0 -2
-1 -6 -1 -9 -2 -3 0 -7 0 -8 -1 -1 0 -4 0 -7 0 -2 -1 -5 -1 -6 -1 -1 -1 -5 -1
-8 -2 l-7 0 1 8 c0 16 1 37 1 39 1 1 1 5 2 9 0 4 0 8 1 9 0 3 1 18 1 22 1 5 1
5 5 5 1 1 4 1 7 2 2 0 5 1 7 1 2 1 4 1 4 1 0 1 2 1 4 1 2 1 4 1 6 1 5 2 16 4
19 4 6 2 9 2 16 4 2 0 6 1 8 1 2 1 4 1 5 1 1 1 3 1 5 1 3 1 5 1 11 2 1 1 4 1
6 2 3 0 5 0 6 1 2 0 5 0 7 1 2 0 5 0 6 1 2 0 10 1 16 2 14 1 49 2 84 1 13 0
15 0 24 4 8 4 14 11 18 19 3 5 3 8 3 13 0 5 0 11 -1 11 0 0 0 0 0 1 -1 3 -6
10 -9 14 -5 5 -10 8 -15 10 -4 2 -6 2 -15 4 -5 0 -69 1 -69 1z"/>
</g>
</svg>
