<?xml version="1.0" standalone="no"?>
<!DOCTYPE svg PUBLIC "-//W3C//DTD SVG 20010904//EN"
 "http://www.w3.org/TR/2001/REC-SVG-20010904/DTD/svg10.dtd">
<svg version="1.0" xmlns="http://www.w3.org/2000/svg"
 width="1000.000000pt" height="1000.000000pt" viewBox="0 0 1000.000000 1000.000000"
 preserveAspectRatio="xMidYMid meet">
<metadata>
Created by potrace 1.16, written by Peter Selinger 2001-2019
</metadata>
<g transform="translate(0.000000,1000.000000) scale(1.000000,-1.000000)"
fill="#000000" stroke="none">
<path d="M431 981 c-1 0 -20 0 -45 -1 -24 0 -45 0 -47 0 -3 -1 -8 -1 -12 -1
-12 -1 -18 -2 -22 -3 -10 -1 -13 -1 -15 -1 -1 -1 -4 -1 -7 -1 -2 -1 -5 -1 -6
-1 -1 -1 -4 -1 -6 -1 -2 -1 -5 -1 -6 -2 -1 0 -4 0 -6 -1 -2 0 -4 0 -5 -1 -2 0
-4 0 -6 -1 -2 0 -6 -1 -8 -1 -2 -1 -6 -1 -7 -2 -2 0 -7 -1 -10 -2 -4 0 -9 -1
-10 -2 -3 0 -12 -2 -17 -3 -1 -1 -3 -1 -4 -1 -13 -3 -23 -11 -28 -21 -6 -14
-4 -30 6 -41 2 -2 2 -4 1 -19 -1 -4 -1 -9 -1 -12 -1 -3 -1 -9 -2 -13 0 -4 0
-9 -1 -11 0 -3 0 -9 -1 -13 0 -5 0 -11 -1 -13 0 -7 0 -25 0 -28 4 -18 9 -27
21 -39 9 -8 26 -19 34 -20 1 -1 3 -1 4 -1 10 -4 46 -4 74 -1 2 0 6 0 8 0 5 1
16 2 25 3 8 0 47 1 78 2 30 0 31 0 38 3 3 1 5 2 6 1 0 0 0 0 0 1 -1 1 0 1 3 1
0 0 0 0 0 0 -1 1 1 3 3 5 4 3 10 13 11 19 1 6 0 14 -2 20 -1 5 -6 12 -9 15 -1
0 -3 2 -3 3 -3 2 -11 6 -17 7 -8 1 -87 0 -114 -1 -8 -1 -21 -2 -25 -3 -2 0 -6
0 -8 0 -24 -3 -48 -3 -50 0 -1 1 -1 5 0 6 0 1 6 1 13 1 6 1 13 1 15 1 2 1 8 1
13 1 5 1 11 1 13 2 2 0 7 0 12 0 4 1 10 1 12 2 2 0 8 0 12 0 4 1 9 1 11 2 2 0
7 0 11 1 4 0 9 0 11 1 1 0 8 0 15 0 24 2 26 2 37 6 13 5 22 13 26 23 5 12 2
24 -8 34 -4 4 -13 10 -17 11 0 0 -3 0 -5 1 -7 2 -9 2 -17 2 -9 0 -37 -1 -47
-2 -3 -1 -8 -1 -12 -2 -4 0 -8 0 -10 -1 -3 0 -8 0 -13 -1 -5 0 -11 0 -13 -1
-6 0 -18 -1 -22 -2 -7 0 -25 -1 -28 -1 -3 0 -3 0 -3 3 0 3 0 3 4 3 1 1 4 1 5
2 1 0 4 0 6 1 1 0 3 0 4 0 1 1 4 1 6 2 2 0 5 0 5 0 0 1 3 1 5 1 2 1 6 1 7 1 2
1 5 1 14 3 3 0 6 0 7 1 1 0 5 0 9 0 4 1 9 1 11 2 14 1 23 1 62 1 23 1 44 1 48
1 8 1 14 3 19 7 3 1 5 2 6 2 0 0 0 0 0 1 -1 0 0 1 1 3 6 5 10 15 10 24 1 7 0
11 -4 19 -4 8 -14 16 -22 19 -5 1 -20 2 -20 1z"/>
</g>
</svg>
