<?xml version="1.0" standalone="no"?>
<!DOCTYPE svg PUBLIC "-//W3C//DTD SVG 20010904//EN"
 "http://www.w3.org/TR/2001/REC-SVG-20010904/DTD/svg10.dtd">
<svg version="1.0" xmlns="http://www.w3.org/2000/svg"
 width="1000.000000pt" height="1000.000000pt" viewBox="0 0 1000.000000 1000.000000"
 preserveAspectRatio="xMidYMid meet">
<metadata>
Created by potrace 1.16, written by Peter Selinger 2001-2019
</metadata>
<g transform="translate(0.000000,1000.000000) scale(1.000000,-1.000000)"
fill="#000000" stroke="none">
<path d="M419 854 c0 0 -14 0 -30 0 -17 -1 -33 -1 -35 -1 -2 -1 -8 -1 -12 -1
-12 -1 -21 -2 -25 -3 -2 -1 -5 -1 -7 -1 -2 -1 -6 -1 -7 -2 -1 0 -4 0 -5 -1 -2
0 -6 -1 -9 -1 -3 -1 -5 -1 -5 -1 -1 0 -4 -1 -8 -2 -4 -1 -9 -2 -10 -3 -5 -1
-32 -10 -47 -16 -33 -13 -36 -15 -42 -23 -6 -7 -8 -14 -7 -23 0 -11 0 -11 1
-11 1 0 1 0 1 -1 -1 0 -1 -1 0 -1 1 -1 1 -2 0 -2 0 -1 0 -1 1 -1 0 0 1 -1 1
-2 1 -1 2 -3 4 -5 l3 -3 1 -15 c1 -33 0 -57 -1 -66 -1 -1 -1 -4 -2 -7 0 -3 0
-6 0 -7 -1 -1 -2 -9 -3 -17 -1 -13 -1 -24 -1 -42 0 -24 0 -29 4 -42 3 -9 3 -9
3 -11 1 -2 2 -5 4 -9 11 -30 27 -46 56 -57 4 -2 9 -3 10 -3 2 -1 3 -1 4 -1 0
-1 2 -1 4 -1 2 -1 5 -1 6 -1 10 -3 48 -3 59 -1 1 1 4 1 7 1 3 1 6 1 7 2 2 0 4
0 6 1 2 0 4 0 5 1 2 0 4 0 5 0 1 1 4 1 6 1 1 1 4 1 5 1 1 1 4 1 6 2 2 0 5 0 6
1 1 0 4 0 6 1 4 0 7 1 13 1 6 1 20 2 42 4 11 0 13 0 20 2 3 0 14 6 14 7 1 1 2
1 2 0 1 0 1 0 1 0 0 1 1 3 4 5 2 3 5 7 7 11 2 5 2 7 2 13 0 10 0 11 -3 18 -4
7 -15 16 -22 18 -1 0 -1 0 -1 0 -4 3 -61 1 -79 -2 -1 -1 -4 -1 -7 -2 -3 0 -6
0 -7 -1 -1 0 -4 0 -6 0 -2 -1 -5 -1 -6 -2 -1 0 -4 0 -6 -1 -2 0 -4 0 -5 -1 -2
0 -4 0 -6 -1 -2 0 -4 0 -5 -1 -2 0 -4 0 -6 -1 -2 0 -4 0 -5 -1 -3 0 -9 -1 -14
-2 -7 0 -29 0 -32 1 -1 0 -4 0 -5 1 -1 0 -5 1 -8 3 -5 2 -8 6 -13 21 -2 6 -2
10 -2 20 l-1 12 5 0 c8 0 13 1 21 2 1 1 4 1 5 2 5 1 7 1 9 1 1 1 3 1 5 1 1 1
4 1 5 2 1 0 4 0 6 1 2 0 4 0 5 1 2 0 4 0 6 1 2 0 4 0 5 1 1 0 4 0 6 1 2 0 5 0
6 1 1 0 5 0 7 1 2 0 6 0 7 1 16 2 57 2 72 0 16 -3 27 -4 35 -3 6 1 15 6 20 11
12 12 14 27 7 43 -1 2 -2 3 -2 3 -1 0 -1 0 -1 1 0 2 -9 10 -15 13 -3 2 -6 3
-6 2 0 0 -1 1 -3 1 -2 1 -6 1 -8 2 -2 0 -5 0 -6 1 -1 0 -4 0 -7 0 -3 1 -6 1
-7 2 -14 2 -72 2 -86 0 -1 -1 -4 -1 -6 -1 -12 -2 -20 -3 -26 -4 -1 -1 -5 -1
-7 -2 -2 0 -5 0 -5 -1 0 0 -3 0 -5 0 -2 -1 -8 -2 -11 -3 -4 0 -9 -1 -10 -2 -1
0 -3 0 -4 -1 -1 0 -3 0 -5 -1 l-4 0 0 22 c0 21 0 36 -2 42 0 1 0 4 -1 5 0 1 0
3 0 4 0 1 4 3 13 6 8 3 15 5 16 5 1 1 7 2 12 3 5 2 12 3 15 3 2 1 5 1 5 1 0 1
3 1 5 1 2 1 6 1 7 1 6 1 17 3 31 3 4 1 18 1 33 1 36 1 41 2 49 4 11 4 21 16
24 27 1 4 0 16 0 19 -1 2 -1 2 -2 5 -1 2 -2 3 -2 3 -1 0 -1 0 -1 1 1 0 0 2 -6
8 -7 7 -15 10 -27 10 -4 1 -8 1 -8 0z"/>
</g>
</svg>
