<?xml version="1.0" standalone="no"?>
<!DOCTYPE svg PUBLIC "-//W3C//DTD SVG 20010904//EN"
 "http://www.w3.org/TR/2001/REC-SVG-20010904/DTD/svg10.dtd">
<svg version="1.0" xmlns="http://www.w3.org/2000/svg"
 width="1000.000000pt" height="1000.000000pt" viewBox="0 0 1000.000000 1000.000000"
 preserveAspectRatio="xMidYMid meet">
<metadata>
Created by potrace 1.16, written by Peter Selinger 2001-2019
</metadata>
<g transform="translate(0.000000,1000.000000) scale(1.000000,-1.000000)"
fill="#000000" stroke="none">
<path d="M553 974 c0 -1 -7 -1 -15 -1 -8 -1 -16 -1 -18 -1 -2 -1 -7 -1 -12 -1
-4 -1 -9 -1 -10 -1 -1 -1 -5 -1 -9 -1 -3 -1 -8 -1 -9 -1 -1 -1 -5 -1 -8 -1 -7
-1 -14 -2 -18 -3 -1 0 -5 0 -7 -1 -3 0 -7 0 -8 -1 -1 0 -5 0 -7 0 -2 -1 -6 -1
-7 -1 -1 -1 -4 -1 -7 -1 -2 -1 -5 -1 -6 -2 -1 0 -4 0 -6 -1 -2 0 -4 0 -5 -1
-2 0 -4 0 -5 -1 -2 0 -5 0 -6 -1 -1 0 -4 0 -5 -1 -1 0 -4 0 -6 -1 -2 0 -5 0
-6 -1 -1 0 -4 0 -6 -1 -15 -2 -28 -15 -31 -30 0 -4 0 -13 0 -14 1 0 0 -3 -2
-7 -1 -3 -2 -7 -2 -9 -1 -1 -1 -4 -2 -5 0 -1 0 -8 -1 -15 0 -15 -1 -27 -2 -32
-1 -7 -2 -17 -5 -30 0 -1 0 -5 -1 -7 0 -2 0 -5 -1 -6 0 -3 0 -21 0 -24 1 -1 1
-3 1 -4 2 -11 11 -25 20 -34 14 -14 28 -21 50 -24 10 -1 57 0 67 1 1 1 5 1 8
1 4 1 8 1 9 1 1 1 4 1 7 1 7 1 12 2 17 2 2 1 8 1 14 2 5 0 11 0 14 1 5 0 57 0
61 0 4 -1 11 -2 14 -2 1 -1 4 -1 6 -1 2 -1 6 -1 7 -2 3 0 17 0 20 0 3 1 14 6
15 8 1 0 2 1 2 0 1 0 1 0 1 0 -1 1 1 3 2 5 3 3 8 11 9 14 0 0 0 2 0 3 1 4 1
17 0 17 0 0 0 0 0 1 -1 4 -6 12 -9 15 -5 5 -9 8 -9 7 0 0 -1 1 -2 1 -4 3 -10
4 -21 6 -3 0 -6 0 -7 1 -15 2 -30 3 -58 3 -22 0 -40 0 -53 -2 -2 0 -8 0 -12 0
-4 -1 -8 -1 -9 -2 -1 0 -5 0 -8 0 -3 -1 -6 -1 -8 -1 -1 -1 -4 -1 -8 -1 -4 -1
-7 -1 -8 -2 -6 -1 -21 -1 -37 -1 -19 -1 -19 0 -18 5 0 1 0 3 1 5 0 1 1 2 1 2
2 0 12 1 15 2 2 0 5 0 14 2 2 0 6 0 7 1 2 0 7 0 18 2 3 0 7 0 9 1 18 2 97 2
111 1 12 -2 24 -2 29 -1 3 1 6 2 6 1 1 0 1 0 1 1 -1 0 1 1 3 3 11 5 20 19 20
31 0 8 -4 19 -10 25 -4 4 -13 10 -13 9 -1 0 -1 0 -1 1 0 0 0 1 -1 1 0 0 -1 0
-1 0 -2 1 -8 2 -12 3 -3 0 -6 0 -7 1 -4 0 -14 1 -19 2 -6 0 -69 0 -81 0 -14
-1 -27 -2 -41 -3 -4 -1 -9 -1 -10 -1 -4 -1 -13 -2 -15 -2 -1 -1 -4 -1 -7 -1
-4 -1 -7 -1 -7 -1 -1 0 -1 1 -2 2 0 2 0 3 1 3 1 0 2 0 3 0 1 1 5 1 11 2 1 1 4
1 5 1 2 1 4 1 14 3 2 0 4 0 6 0 1 1 4 1 8 2 4 0 7 0 8 1 3 0 8 1 15 2 3 0 7 0
9 1 6 0 13 1 19 2 3 0 7 0 9 0 4 1 15 2 28 3 4 0 29 0 55 1 26 0 50 0 53 0 11
1 22 7 28 14 12 14 11 34 -2 47 -7 7 -14 10 -27 14 -3 0 -94 1 -95 1z"/>
</g>
</svg>
