<?xml version="1.0" standalone="no"?>
<!DOCTYPE svg PUBLIC "-//W3C//DTD SVG 20010904//EN"
 "http://www.w3.org/TR/2001/REC-SVG-20010904/DTD/svg10.dtd">
<svg version="1.0" xmlns="http://www.w3.org/2000/svg"
 width="1000.000000pt" height="1000.000000pt" viewBox="0 0 1000.000000 1000.000000"
 preserveAspectRatio="xMidYMid meet">
<metadata>
Created by potrace 1.16, written by Peter Selinger 2001-2019
</metadata>
<g transform="translate(0.000000,1000.000000) scale(1.000000,-1.000000)"
fill="#000000" stroke="none">
<path d="M612 814 c0 0 -3 0 -7 0 -4 -1 -8 -1 -9 -1 -1 -1 -5 -1 -8 -1 -12 -2
-22 -3 -29 -4 -2 0 -6 0 -8 -1 -6 0 -14 -1 -17 -2 -1 0 -5 0 -7 0 -2 -1 -6 -1
-7 -1 -1 -1 -5 -1 -7 -1 -2 -1 -6 -1 -7 -2 -2 0 -4 0 -6 0 -1 -1 -4 -1 -7 -1
-2 -1 -5 -1 -6 -1 -1 -1 -4 -1 -6 -1 -2 -1 -5 -1 -6 -1 -1 -1 -4 -1 -6 -1 -2
-1 -5 -1 -6 -2 -1 0 -4 0 -6 -1 -2 0 -4 0 -5 -1 -2 0 -4 0 -6 -1 -2 0 -4 0 -5
-1 -2 0 -4 0 -6 -1 -2 0 -4 0 -5 -1 -2 0 -4 0 -5 0 -1 -1 -4 -1 -5 -1 -1 -1
-4 -1 -5 -1 -1 -1 -4 -1 -5 -2 -1 0 -4 0 -5 -1 -1 0 -4 -1 -6 -1 -3 -1 -5 -1
-5 -2 -6 -1 -20 -5 -29 -8 -6 -1 -12 -3 -13 -3 -18 -5 -26 -9 -38 -21 -5 -5
-11 -11 -12 -14 -4 -7 -4 -16 -1 -23 2 -4 10 -13 11 -12 1 0 1 0 1 -1 0 0 1
-1 2 -1 1 -1 3 -1 3 -1 3 -2 4 -2 6 -2 3 -1 6 -2 9 -3 1 0 7 0 12 -1 8 0 11 1
19 3 6 2 11 3 11 2 0 0 -1 -2 -1 -5 -1 -3 -2 -6 -3 -7 0 -1 0 -1 0 -1 0 0 -3
-13 -3 -17 -1 -1 -1 -4 -1 -7 -2 -9 -3 -19 -5 -39 0 -4 0 -9 -1 -11 -1 -11 -1
-34 -1 -59 l0 -29 -3 -1 c-4 0 -22 -2 -25 -3 -2 0 -4 0 -6 -1 -13 -1 -30 -9
-38 -17 -7 -8 -10 -15 -11 -24 0 -4 1 -9 1 -11 1 -1 2 -3 1 -3 0 -1 0 -1 1 -1
0 0 1 -1 1 -1 0 -3 9 -12 14 -14 7 -4 15 -5 29 -5 7 1 14 1 15 1 5 1 20 3 34
5 4 0 9 0 11 1 5 0 14 1 30 2 5 0 12 0 16 0 4 1 11 1 17 1 6 1 13 1 16 2 3 0
9 0 14 0 4 1 10 1 12 1 2 1 7 1 10 2 3 0 8 0 10 1 2 0 7 0 10 0 2 1 7 1 9 1 2
1 8 1 12 2 4 0 9 0 11 0 2 1 6 1 10 1 7 1 14 2 20 2 2 1 8 1 12 2 3 0 8 0 10
1 17 1 65 2 80 1 14 -2 20 -2 27 2 15 6 24 21 22 36 -1 4 -2 7 -2 8 -1 0 -1 1
-1 1 2 0 -3 8 -6 12 -6 6 -16 11 -25 14 -9 2 -11 2 -19 3 -14 1 -64 0 -82 -1
-8 -1 -19 -2 -23 -2 l-4 -1 0 13 c1 7 1 14 1 15 1 1 1 5 1 7 1 2 1 6 1 7 1 1
1 4 2 6 0 5 2 14 3 18 0 3 1 6 2 10 0 2 1 6 2 10 2 9 2 10 3 13 0 1 0 3 1 4 0
1 0 3 1 5 0 1 1 7 2 12 2 10 3 12 4 15 0 4 1 7 2 13 2 9 2 9 4 21 1 3 1 7 1 8
1 3 2 15 2 20 1 3 1 3 8 3 20 3 21 3 29 6 16 6 27 14 32 24 6 12 5 22 -4 32
-5 5 -16 11 -22 12 -7 2 -9 2 -12 3 -3 1 -20 1 -21 0z m-87 -91 c-1 -3 -1 -6
-2 -7 0 -1 0 -4 -1 -6 0 -2 0 -4 -1 -5 0 -2 0 -4 0 -5 -1 -1 -1 -3 -1 -4 -1
-2 -6 -26 -7 -29 0 -1 0 -4 -1 -6 0 -2 -1 -6 -1 -7 -1 -5 -2 -7 -2 -9 -1 -1
-1 -3 -1 -4 -1 -1 -1 -4 -1 -5 -1 -1 -1 -3 -1 -4 -1 -2 -1 -5 -2 -7 0 -2 -1
-6 -1 -8 -1 -2 -1 -5 -1 -6 -1 -2 -1 -5 -2 -13 -1 -1 -1 -3 -1 -5 -1 -1 -1 -4
-2 -7 0 -3 0 -6 -1 -7 -1 -7 -2 -21 -2 -37 0 -9 0 -13 -1 -13 -1 0 -9 0 -22
-2 -22 -2 -35 -2 -35 -1 0 4 0 57 0 62 1 7 2 20 2 26 1 2 1 7 1 11 1 3 1 8 2
11 0 3 0 7 0 8 2 10 2 17 2 42 0 28 0 28 2 28 2 0 3 0 4 0 1 1 3 1 5 2 3 0 5
0 6 1 2 0 4 0 6 1 2 0 4 0 5 1 2 0 4 0 6 1 2 0 4 0 5 1 1 0 4 0 6 1 2 0 5 0 6
0 1 1 4 1 7 2 2 0 5 0 6 1 2 0 4 0 6 1 3 0 5 0 5 0 0 0 2 1 4 1 l3 0 0 -4z"/>
</g>
</svg>
