<?xml version="1.0" standalone="no"?>
<!DOCTYPE svg PUBLIC "-//W3C//DTD SVG 20010904//EN"
 "http://www.w3.org/TR/2001/REC-SVG-20010904/DTD/svg10.dtd">
<svg version="1.0" xmlns="http://www.w3.org/2000/svg"
 width="1000.000000pt" height="1000.000000pt" viewBox="0 0 1000.000000 1000.000000"
 preserveAspectRatio="xMidYMid meet">
<metadata>
Created by potrace 1.16, written by Peter Selinger 2001-2019
</metadata>
<g transform="translate(0.000000,1000.000000) scale(1.000000,-1.000000)"
fill="#000000" stroke="none">
<path d="M437 828 c0 0 -4 0 -8 0 -4 -1 -8 -1 -9 -1 -1 -1 -5 -1 -9 -1 -4 -1
-8 -1 -9 -2 -1 0 -5 0 -9 -1 -4 0 -9 0 -11 0 -2 -1 -7 -1 -11 -1 -5 -1 -10 -1
-11 -1 -2 -1 -7 -1 -11 -1 -4 -1 -9 -1 -11 -1 -2 -1 -6 -1 -9 -2 -3 0 -7 0 -8
-1 -1 0 -4 0 -7 0 -8 -2 -12 -2 -14 -2 -1 -1 -4 -1 -6 -1 -2 -1 -5 -1 -6 -2
-1 0 -4 0 -6 -1 -2 0 -6 -1 -8 -1 -2 -1 -6 -1 -7 -2 -3 0 -12 -2 -17 -3 -1 -1
-3 -1 -4 -1 -5 -2 -7 -2 -9 -3 -2 0 -24 -6 -35 -9 -2 0 -3 0 -4 -1 -2 0 -8 -2
-15 -4 -8 -1 -14 -3 -15 -3 -13 -4 -20 -7 -26 -13 -4 -5 -8 -12 -10 -17 -1 -5
-1 -15 1 -19 0 -2 1 -4 0 -4 0 0 0 0 1 -1 0 0 1 -2 2 -4 3 -6 9 -12 16 -15 11
-5 18 -5 34 -2 1 1 4 2 6 2 3 1 5 2 5 1 0 0 1 0 2 1 1 0 3 1 4 1 1 1 4 1 5 1
1 1 3 1 4 1 1 1 2 1 3 1 1 1 1 0 0 -1 0 -1 0 -30 -1 -63 0 -56 -1 -91 -1 -100
-1 -2 -1 -5 -1 -7 0 -4 -1 -4 -9 -7 -13 -4 -30 -11 -34 -13 -11 -7 -19 -23
-18 -35 0 -7 0 -8 3 -14 4 -8 15 -17 26 -20 3 -1 16 -1 20 0 1 1 7 3 13 5 9 3
18 6 19 7 0 0 4 1 9 2 8 3 18 6 22 6 2 1 4 1 5 1 1 1 3 1 4 1 2 1 4 1 5 1 1 1
3 1 5 1 2 1 5 1 6 1 1 1 4 1 6 2 2 0 4 0 6 0 1 1 4 1 6 1 2 1 6 1 7 1 1 1 5 1
8 2 3 0 7 0 8 0 1 1 5 1 9 2 4 0 9 0 11 1 6 0 18 1 24 2 2 0 7 0 11 0 3 1 9 1
14 1 15 1 36 3 39 3 1 1 6 1 11 2 5 0 10 0 12 0 2 1 8 1 13 1 4 1 10 1 12 2 2
0 7 0 12 0 20 2 25 4 35 9 8 5 16 14 18 21 1 4 1 6 1 10 0 5 0 7 -1 9 -1 0 -1
1 -1 1 1 0 0 2 -1 4 -6 12 -20 21 -34 23 -7 1 -16 0 -34 -1 -5 -1 -19 -2 -24
-3 -4 0 -10 0 -24 -2 -3 0 -9 0 -13 -1 -5 0 -11 0 -12 -1 -2 0 -2 0 -2 6 1 9
2 20 3 38 0 26 1 40 3 52 0 2 0 7 1 11 0 5 0 9 0 10 1 1 1 5 2 9 0 4 0 8 1 10
0 1 0 4 0 7 1 3 1 7 1 9 1 2 1 6 2 8 0 2 0 6 1 7 0 1 0 5 1 7 0 2 0 5 1 5 1 1
4 2 13 2 3 1 7 1 9 2 1 0 5 0 8 0 9 1 12 2 16 3 1 1 3 2 3 1 0 0 0 0 1 1 0 0
2 2 4 3 5 3 10 8 13 15 6 14 4 29 -7 41 -4 4 -12 9 -17 11 -2 0 -27 1 -27 0z
m-94 -87 c-1 0 -1 -3 -2 -5 0 -2 0 -6 0 -8 -1 -2 -1 -6 -1 -8 -1 -2 -1 -6 -1
-9 -1 -4 -1 -7 -1 -8 -1 -2 -1 -9 -3 -21 0 -4 0 -9 -1 -11 -1 -11 -2 -29 -2
-51 -1 -25 -2 -32 -3 -36 0 -4 -4 -19 -5 -20 0 0 -4 -1 -10 -2 -10 -1 -10 -1
-15 -2 -10 -1 -10 -1 -9 5 0 13 0 155 0 159 -1 2 -1 5 -2 7 -1 3 -2 3 14 6 2
0 4 0 5 1 2 0 5 0 7 1 2 0 5 0 6 1 1 0 5 0 8 1 3 0 6 0 6 0 0 1 2 1 5 1 2 0 4
0 4 -1z"/>
</g>
</svg>
