<?xml version="1.0" standalone="no"?>
<!DOCTYPE svg PUBLIC "-//W3C//DTD SVG 20010904//EN"
 "http://www.w3.org/TR/2001/REC-SVG-20010904/DTD/svg10.dtd">
<svg version="1.0" xmlns="http://www.w3.org/2000/svg"
 width="1000.000000pt" height="1000.000000pt" viewBox="0 0 1000.000000 1000.000000"
 preserveAspectRatio="xMidYMid meet">
<metadata>
Created by potrace 1.16, written by Peter Selinger 2001-2019
</metadata>
<g transform="translate(0.000000,1000.000000) scale(1.000000,-1.000000)"
fill="#000000" stroke="none">
<path d="M467 723 c0 0 -5 0 -10 0 -6 -1 -12 -1 -13 -1 -2 -1 -6 -1 -10 -1 -4
-1 -7 -1 -8 -2 -2 0 -4 0 -6 -1 -5 0 -8 -1 -19 -3 -5 0 -8 -1 -13 -1 -2 -1 -5
-1 -6 -2 -1 0 -4 0 -6 -1 -2 0 -4 0 -5 -1 -2 0 -4 0 -5 0 -1 -1 -4 -1 -5 -1
-1 -1 -4 -1 -5 -2 -2 0 -4 0 -5 -1 -2 0 -5 -1 -9 -2 -1 0 -3 0 -4 -1 -1 0 -3
0 -5 -1 -1 0 -3 0 -4 -1 -1 0 -3 0 -4 -1 -1 0 -3 0 -4 0 -1 -1 -3 -1 -4 -1 -1
-1 -3 -1 -4 -1 -1 -1 -8 -2 -15 -4 -8 -2 -15 -4 -16 -4 -1 -1 -3 -1 -6 -2 -2
0 -4 -1 -4 -1 -1 0 -3 -1 -4 -1 -1 -1 -3 -1 -4 -2 -2 0 -6 -1 -9 -2 -4 -1 -9
-2 -10 -3 -1 0 -3 0 -3 -1 -1 0 -2 0 -3 0 -1 -1 -14 -4 -23 -7 -3 0 -6 -1 -9
-2 -1 0 -3 0 -4 -1 -3 0 -7 -1 -15 -2 -14 -3 -24 -10 -30 -23 -2 -5 -2 -7 -2
-14 0 -8 0 -13 1 -14 0 0 0 0 0 -1 1 -1 4 -7 5 -9 6 -6 15 -13 20 -13 1 0 2
-1 3 -1 1 -1 18 0 22 0 1 1 4 1 5 2 5 0 7 1 9 1 1 1 3 1 4 2 2 0 2 0 2 -7 -2
-20 -2 -49 -2 -124 0 -75 -1 -84 -2 -84 -1 0 -6 -1 -12 -3 -6 -1 -12 -2 -13
-3 -12 -2 -24 -10 -29 -20 -3 -6 -3 -8 -4 -17 0 -17 10 -32 28 -37 4 -1 18 -1
24 0 1 1 6 2 12 3 5 2 11 3 12 3 2 1 4 1 9 2 1 1 3 1 4 1 1 1 3 1 6 2 2 0 5 1
6 1 1 1 7 2 13 3 5 2 11 3 12 3 4 1 6 2 11 3 2 0 5 1 7 1 1 1 3 1 5 1 7 2 16
4 19 4 2 1 5 1 10 2 1 1 4 1 6 1 1 1 4 1 5 1 1 1 4 1 5 1 1 1 3 1 5 1 1 1 3 1
6 1 2 1 4 1 5 1 0 1 3 1 6 2 2 0 5 0 5 1 0 0 3 0 6 1 2 0 5 0 5 1 0 0 3 0 6 1
2 0 5 0 5 1 0 0 3 0 6 1 2 0 5 0 5 1 0 0 3 0 5 0 2 1 5 1 7 2 2 0 18 3 22 4 2
0 4 0 6 1 6 1 8 1 14 2 3 0 6 0 7 1 5 1 18 1 33 1 17 1 20 1 28 7 8 5 14 14
16 22 1 4 0 16 0 19 -1 2 -1 2 -2 5 -1 2 -2 3 -2 3 -1 0 -1 0 -1 1 1 0 0 2 -6
8 -9 9 -21 12 -43 11 -8 0 -17 0 -19 0 -3 -1 -7 -1 -9 -1 -11 -2 -20 -3 -21
-4 -1 0 -2 2 -1 6 0 1 0 9 0 18 1 21 2 29 2 41 2 24 3 42 3 54 1 10 2 34 3 49
1 5 2 18 3 23 0 2 0 8 1 14 0 5 0 11 0 12 1 2 1 3 11 3 12 0 14 0 22 4 3 1 6
2 7 2 0 0 0 0 0 0 -1 1 1 3 3 5 4 3 9 13 11 19 2 12 -2 26 -12 35 -5 5 -8 6
-15 9 -5 1 -24 3 -25 2z m-78 -88 c-1 0 -1 -5 -1 -9 -1 -5 -1 -11 -1 -13 -1
-4 -2 -21 -3 -29 0 -4 0 -11 0 -16 -1 -12 -2 -22 -2 -35 -2 -23 -2 -29 -3 -36
0 -7 0 -15 -2 -40 -1 -31 -1 -31 -2 -38 -1 -1 -1 -2 -1 -2 0 0 0 -1 0 -1 0 -1
-3 -3 -6 -3 -2 -1 -4 -1 -6 -1 -1 -1 -3 -1 -5 -1 -7 -2 -10 -2 -27 -6 -1 0 -4
0 -5 0 -1 -1 -4 -1 -5 -1 -1 -1 -4 -1 -5 -1 -1 -1 -4 -1 -5 -2 -8 -1 -9 -1 -9
1 0 3 0 144 0 159 0 13 -1 35 -2 44 -1 8 -1 10 1 11 1 0 7 1 14 3 6 2 12 3 13
4 1 0 3 0 4 1 1 0 3 0 4 1 1 0 3 0 4 0 1 1 3 1 6 2 2 0 5 1 6 1 4 1 7 2 9 2 1
1 3 1 5 2 2 0 4 0 4 0 0 1 2 1 5 1 2 1 5 1 7 2 5 1 8 1 8 0z"/>
</g>
</svg>
