<?xml version="1.0" standalone="no"?>
<!DOCTYPE svg PUBLIC "-//W3C//DTD SVG 20010904//EN"
 "http://www.w3.org/TR/2001/REC-SVG-20010904/DTD/svg10.dtd">
<svg version="1.0" xmlns="http://www.w3.org/2000/svg"
 width="1000.000000pt" height="1000.000000pt" viewBox="0 0 1000.000000 1000.000000"
 preserveAspectRatio="xMidYMid meet">
<metadata>
Created by potrace 1.16, written by Peter Selinger 2001-2019
</metadata>
<g transform="translate(0.000000,1000.000000) scale(1.000000,-1.000000)"
fill="#000000" stroke="none">
<path d="M582 982 c0 0 -4 0 -8 0 -5 -1 -10 -1 -12 -1 -2 -1 -7 -1 -11 -1 -4
-1 -9 -1 -11 -1 -2 -1 -7 -1 -10 -1 -13 -2 -18 -2 -21 -2 -1 -1 -5 -1 -8 -1
-3 -1 -7 -1 -8 -2 -1 0 -5 0 -7 0 -2 -1 -6 -1 -7 -1 -1 -1 -5 -1 -8 -2 -3 0
-6 0 -7 -1 -1 0 -4 0 -6 -1 -3 0 -6 0 -7 -1 -7 -1 -9 -1 -13 -1 -2 -1 -5 -1
-6 -2 -1 0 -4 0 -6 -1 -2 0 -5 0 -6 -1 -1 0 -4 0 -6 -1 -2 0 -6 -1 -8 -1 -7
-2 -8 -2 -11 -3 -2 0 -4 0 -5 -1 -2 0 -5 -1 -10 -2 -2 0 -4 0 -4 -1 0 0 -2 0
-4 0 -2 -1 -4 -1 -5 -2 -1 0 -3 0 -4 -1 -1 0 -3 0 -4 -1 -5 -1 -11 -2 -15 -3
-2 0 -4 0 -5 -1 -1 0 -3 0 -4 0 -16 -4 -28 -21 -27 -38 0 -8 0 -9 3 -15 4 -9
15 -18 25 -21 6 -1 21 0 29 2 2 0 3 1 3 0 0 0 1 0 2 1 2 0 4 1 6 1 2 1 5 1 7
2 3 1 4 1 3 -2 -1 -9 -2 -62 -1 -85 0 -4 0 -8 0 -8 -1 -1 -6 -2 -14 -3 -2 0
-6 0 -7 0 -1 -1 -5 -1 -7 -1 -8 -2 -10 -2 -14 -3 -21 -7 -32 -25 -29 -45 1 -4
6 -13 10 -17 5 -4 14 -9 20 -11 5 -1 24 0 34 2 1 0 4 0 8 1 4 0 7 0 8 0 1 1 4
1 7 1 3 1 7 1 8 1 2 1 10 2 16 2 2 1 5 1 7 1 1 1 5 1 8 2 3 0 7 0 8 1 1 0 5 0
8 1 3 0 7 0 8 0 1 1 5 1 9 2 4 0 8 0 9 1 2 0 7 0 19 2 2 0 7 0 9 0 2 1 7 1 10
1 8 1 18 2 22 3 3 0 11 0 35 2 3 0 12 0 21 0 10 0 18 1 21 2 13 3 23 13 27 26
5 16 -2 34 -18 43 -3 2 -5 3 -5 2 0 0 -1 0 -2 1 -1 0 -4 1 -6 2 -5 0 -39 0
-40 -1 -1 0 -1 1 -1 3 0 0 0 4 1 8 0 4 0 9 0 11 1 4 2 18 2 23 2 15 2 24 2 41
0 12 1 20 2 20 0 0 5 0 10 0 12 1 17 2 23 4 8 2 21 9 26 13 2 1 4 3 4 2 1 0 1
0 1 1 -1 0 0 2 1 3 3 3 4 6 5 9 0 1 0 4 0 8 0 10 -6 19 -18 26 -5 4 -16 8 -20
10 -3 0 -31 1 -31 0z m-63 -83 c0 -1 0 -3 -1 -5 -1 -3 -1 -5 -2 -6 0 -3 -1 -4
-1 -6 -1 -2 -1 -4 -1 -5 -1 -1 -1 -4 -2 -6 0 -3 -1 -6 -1 -7 -1 -1 -1 -4 -1
-5 -1 -1 -1 -4 -1 -5 -1 -1 -1 -4 -1 -5 -1 -1 -1 -4 -1 -5 -1 -3 -2 -5 -3 -11
0 -2 -1 -6 -1 -7 -1 -2 -1 -4 -1 -5 -1 -1 -1 -3 -1 -4 -1 -4 -2 -7 -2 -9 -1
-1 -1 -3 -2 -5 -1 -7 -1 -7 -1 -8 -1 0 -2 0 -2 -1 -2 0 -14 -1 -18 -2 -5 0
-10 -1 -17 -2 l-5 0 0 45 c0 24 0 47 0 50 -1 5 0 6 1 6 1 0 2 0 3 0 1 1 4 1 6
1 4 1 7 1 13 2 2 1 6 1 16 3 2 0 5 0 6 1 1 0 5 0 9 1 3 0 6 0 6 0 1 1 5 1 5 0z"/>
</g>
</svg>
