<?xml version="1.0" standalone="no"?>
<!DOCTYPE svg PUBLIC "-//W3C//DTD SVG 20010904//EN"
 "http://www.w3.org/TR/2001/REC-SVG-20010904/DTD/svg10.dtd">
<svg version="1.0" xmlns="http://www.w3.org/2000/svg"
 width="1000.000000pt" height="1000.000000pt" viewBox="0 0 1000.000000 1000.000000"
 preserveAspectRatio="xMidYMid meet">
<metadata>
Created by potrace 1.16, written by Peter Selinger 2001-2019
</metadata>
<g transform="translate(0.000000,1000.000000) scale(1.000000,-1.000000)"
fill="#000000" stroke="none">
<path d="M602 729 c0 0 -11 0 -24 0 -14 -1 -28 -1 -33 -1 -17 -1 -33 -2 -36
-2 -2 -1 -7 -1 -11 -1 -4 -1 -9 -1 -11 -2 -6 0 -14 -1 -22 -2 -12 -1 -25 -2
-28 -3 -1 0 -4 0 -7 -1 -3 0 -6 0 -7 -1 -1 0 -4 0 -7 -1 -3 0 -6 0 -7 -1 -1 0
-4 0 -6 0 -2 -1 -5 -1 -6 -1 -1 -1 -4 -1 -6 -2 -3 0 -9 -1 -14 -2 -5 -1 -11
-2 -12 -3 -1 0 -3 0 -4 -1 -1 0 -3 0 -4 -1 -1 0 -3 0 -4 -1 -1 0 -3 0 -4 -1
-2 0 -7 -1 -11 -2 -5 -2 -10 -3 -11 -3 -1 -1 -4 -1 -6 -2 -2 -1 -4 -1 -4 -2
-1 0 -1 0 -1 0 0 0 -2 0 -3 -1 -1 0 -6 -2 -11 -4 -9 -5 -17 -12 -21 -22 -3 -6
-3 -8 -3 -14 0 -7 0 -10 2 -14 3 -7 10 -13 17 -17 8 -4 11 -4 20 -4 8 0 11 0
18 2 2 1 5 2 6 2 2 1 6 2 11 3 4 2 9 3 10 3 2 1 4 1 5 1 4 2 7 2 8 2 0 1 3 1
9 3 0 0 3 0 6 1 4 1 6 1 7 1 0 0 0 -19 0 -42 1 -23 1 -43 1 -45 1 -2 1 -8 1
-13 1 -6 1 -12 1 -14 1 -2 1 -8 2 -14 0 -7 0 -13 1 -15 0 -3 0 -11 1 -18 0
-16 1 -24 1 -27 1 -2 1 -3 0 -3 -1 0 -4 0 -6 0 -2 -1 -6 -1 -8 -2 -2 0 -4 0
-5 -1 -1 0 -4 0 -6 0 -2 -1 -5 -1 -6 -2 -1 0 -5 0 -7 -1 -2 0 -5 0 -6 -1 -1 0
-4 0 -7 -1 -3 0 -6 0 -7 -1 -1 0 -4 0 -6 -1 -13 -1 -27 -10 -34 -20 -5 -9 -6
-22 -2 -31 2 -4 4 -7 4 -8 1 0 2 -2 3 -2 2 -4 15 -11 24 -13 5 -1 20 0 32 1 1
1 4 1 7 1 2 1 5 1 6 2 1 0 4 0 6 1 2 0 5 0 6 1 1 0 4 0 6 1 5 0 8 1 13 1 12 3
14 3 20 3 3 1 7 1 9 2 6 0 13 1 19 2 10 0 16 1 18 1 1 1 5 1 9 1 4 1 8 1 9 1
1 1 6 1 10 2 4 0 9 0 11 1 2 0 9 0 14 1 5 0 11 0 13 0 2 1 8 1 15 2 6 0 13 0
15 1 2 0 22 0 43 0 21 1 40 1 41 2 4 1 4 1 8 2 14 6 22 20 21 35 0 6 -2 15 -4
16 -1 1 -1 1 -1 1 1 0 0 2 -6 8 -2 2 -7 5 -10 7 -10 4 -12 5 -24 6 -5 0 -9 0
-9 0 -1 1 0 50 1 65 1 1 1 6 1 10 1 5 1 9 1 10 1 1 1 5 1 9 1 5 1 9 2 10 0 2
0 5 1 8 0 4 0 8 1 9 0 1 0 5 0 8 1 4 1 8 2 11 0 8 1 11 2 18 0 3 0 6 1 7 0 1
0 5 1 10 1 12 1 15 1 16 0 0 10 0 23 0 12 1 22 1 24 1 1 1 3 1 5 1 2 1 6 2 9
3 3 2 6 3 6 2 1 0 1 0 1 1 0 1 0 1 1 1 1 -1 1 -1 1 0 0 0 2 1 4 2 4 3 12 11
14 17 3 7 3 17 0 24 -4 7 -10 13 -19 17 -3 2 -7 4 -7 4 -1 0 -1 0 -1 0 -1 0
-1 0 -2 1 -1 0 -1 0 -1 0 -4 2 -17 2 -58 2 -25 0 -46 0 -46 0z m-30 -79 c-1
-1 -1 -5 -2 -8 0 -4 0 -8 -1 -9 0 -1 0 -5 0 -8 -1 -4 -1 -7 -1 -8 -1 -2 -1 -6
-1 -10 -1 -4 -1 -8 -1 -9 -1 -1 -1 -5 -1 -8 -1 -4 -1 -9 -2 -10 0 -1 0 -5 0
-8 -1 -3 -1 -8 -2 -10 0 -5 0 -7 -2 -20 0 -4 0 -8 -1 -10 -1 -12 -1 -29 -1
-49 l0 -24 -3 0 c-3 0 -20 -1 -29 -1 -15 -2 -21 -2 -24 -3 -2 0 -7 0 -11 -1
-4 0 -8 0 -8 0 -1 0 -2 2 -2 5 0 5 -1 31 -1 38 -1 2 -1 8 -1 15 -1 6 -1 12 -2
14 0 2 0 8 -1 14 0 5 0 11 -1 13 -1 6 -1 92 0 92 1 1 6 2 18 3 4 0 9 0 11 1
13 1 26 2 49 3 10 0 18 0 18 1 1 0 2 -1 2 -3z"/>
</g>
</svg>
