<?xml version="1.0" standalone="no"?>
<!DOCTYPE svg PUBLIC "-//W3C//DTD SVG 20010904//EN"
 "http://www.w3.org/TR/2001/REC-SVG-20010904/DTD/svg10.dtd">
<svg version="1.0" xmlns="http://www.w3.org/2000/svg"
 width="1000.000000pt" height="1000.000000pt" viewBox="0 0 1000.000000 1000.000000"
 preserveAspectRatio="xMidYMid meet">
<metadata>
Created by potrace 1.16, written by Peter Selinger 2001-2019
</metadata>
<g transform="translate(0.000000,1000.000000) scale(1.000000,-1.000000)"
fill="#000000" stroke="none">
<path d="M385 955 c0 0 -6 0 -12 0 -7 -1 -14 -1 -16 -1 -2 -1 -7 -1 -10 -1
-13 -2 -23 -3 -27 -3 -1 -1 -4 -1 -6 -1 -2 -1 -5 -1 -6 -1 -2 -1 -5 -1 -7 -1
-2 -1 -5 -1 -6 -1 -2 -1 -5 -1 -8 -1 -3 -1 -7 -1 -8 -1 -1 -1 -5 -1 -8 -2 -3
0 -6 0 -7 -1 -1 0 -4 0 -7 0 -3 -1 -7 -1 -8 -2 -4 0 -18 -2 -24 -3 -3 0 -11 0
-27 -2 -18 -1 -29 -5 -36 -14 -4 -5 -7 -11 -6 -11 0 0 0 -1 -1 -2 -1 -1 -1 -4
-1 -10 0 -11 3 -19 11 -27 3 -2 14 -8 14 -7 0 0 1 0 1 -1 1 0 3 -1 5 -1 1 -1
4 -1 5 -2 3 0 21 0 29 0 l6 1 -1 -11 c0 -6 0 -23 -1 -37 0 -37 0 -37 -1 -37
-13 0 -37 -10 -46 -19 -14 -13 -15 -30 -2 -42 7 -7 16 -11 30 -14 7 -1 28 -1
39 1 1 1 11 2 17 3 1 0 5 0 9 0 6 1 10 1 23 3 26 2 46 2 94 2 24 0 47 0 52 0
4 -1 10 0 14 1 7 1 17 6 22 10 2 1 4 2 4 2 1 0 1 0 1 1 0 0 1 2 2 4 13 17 4
41 -18 52 -10 5 -16 6 -41 6 l-10 0 1 3 c1 11 1 19 1 20 1 1 1 4 1 8 1 6 2 11
3 14 0 1 0 4 1 6 0 3 1 11 3 18 3 14 4 17 4 22 l0 3 11 -1 c12 0 31 -1 46 0
10 1 17 2 20 4 0 1 1 1 1 1 0 -1 2 1 5 4 9 9 11 22 6 33 -3 7 -7 10 -19 17
-19 12 -30 16 -53 18 -8 0 -58 1 -58 0z m-36 -81 c-2 -4 -2 -6 -2 -8 -1 -2 -1
-5 -1 -6 -2 -4 -2 -6 -2 -10 -1 -2 -1 -5 -2 -6 0 -1 0 -4 -1 -7 0 -3 0 -6 0
-7 -1 -1 -1 -4 -1 -7 -1 -4 -1 -8 -1 -9 -1 -1 -1 -6 -1 -9 -2 -15 -2 -19 -3
-19 0 -1 -8 -1 -17 -2 -9 0 -17 0 -18 0 -1 -1 -2 0 -2 0 -1 1 -1 15 -1 31 -1
15 -1 31 -1 33 -2 22 -2 21 0 21 1 0 3 0 5 1 1 0 3 0 6 0 2 1 4 1 6 1 1 1 4 1
6 1 2 1 6 1 7 1 1 1 5 1 8 2 3 0 6 0 6 0 0 0 2 1 4 1 5 0 5 0 5 -2z"/>
</g>
</svg>
