<?xml version="1.0" standalone="no"?>
<!DOCTYPE svg PUBLIC "-//W3C//DTD SVG 20010904//EN"
 "http://www.w3.org/TR/2001/REC-SVG-20010904/DTD/svg10.dtd">
<svg version="1.0" xmlns="http://www.w3.org/2000/svg"
 width="1000.000000pt" height="1000.000000pt" viewBox="0 0 1000.000000 1000.000000"
 preserveAspectRatio="xMidYMid meet">
<metadata>
Created by potrace 1.16, written by Peter Selinger 2001-2019
</metadata>
<g transform="translate(0.000000,1000.000000) scale(1.000000,-1.000000)"
fill="#000000" stroke="none">
<path d="M464 983 c-11 -4 -20 -10 -23 -17 -3 -7 -2 -16 1 -21 7 -10 15 -14
35 -19 7 -2 16 -5 20 -6 7 -3 7 -3 4 -3 -7 0 -34 -1 -55 -3 -7 0 -17 -1 -18
-2 0 0 -2 0 -5 0 -2 -1 -5 -1 -6 -2 -1 0 -4 0 -5 -1 -11 -1 -41 -12 -48 -16
-16 -9 -20 -26 -8 -38 4 -4 11 -7 22 -8 13 -1 17 -1 19 -1 1 -1 4 -1 7 -2 3 0
6 0 7 0 1 -1 5 -1 10 -1 5 -1 9 -1 11 -1 1 -1 3 -1 6 -1 l4 0 -7 -4 c-13 -7
-24 -21 -30 -37 -3 -10 -3 -11 -4 -24 0 -30 14 -60 36 -75 9 -6 21 -11 32 -12
1 -1 4 -1 7 -2 5 -1 33 -1 39 0 16 3 39 11 62 22 24 12 40 26 48 43 3 5 5 9 5
9 -1 0 0 1 0 3 4 11 3 28 -5 44 -3 6 -11 20 -12 21 -1 0 -1 1 -1 2 0 0 0 1 -1
1 0 0 -2 3 -4 5 -2 2 -4 5 -5 6 -1 2 -1 2 3 2 2 1 5 1 7 2 2 0 3 1 3 0 0 -1
41 15 46 17 2 2 6 4 8 5 4 3 6 7 5 11 -3 6 -14 18 -21 21 -11 6 -32 14 -40 16
-1 0 -4 0 -5 1 -6 1 -8 1 -16 2 -5 0 -9 0 -9 0 0 1 1 3 2 5 5 17 -4 33 -22 39
-3 0 -8 3 -11 4 -7 4 -38 12 -49 14 -2 0 -5 0 -6 1 -6 1 -29 1 -33 0z m38
-160 c8 -1 18 -5 26 -10 6 -4 6 -4 10 -11 2 -3 4 -7 6 -8 5 -6 8 -11 8 -12 -2
-2 -33 -16 -40 -18 -7 -1 -9 -1 -17 -1 -5 0 -11 0 -12 0 -3 1 -5 5 -8 17 0 1
0 3 -1 4 0 1 0 4 -1 5 0 1 -1 5 -2 9 -3 9 -3 13 0 19 4 7 7 8 19 7 5 0 11 0
12 -1z"/>
</g>
</svg>
