<?xml version="1.0" standalone="no"?>
<!DOCTYPE svg PUBLIC "-//W3C//DTD SVG 20010904//EN"
 "http://www.w3.org/TR/2001/REC-SVG-20010904/DTD/svg10.dtd">
<svg version="1.0" xmlns="http://www.w3.org/2000/svg"
 width="1000.000000pt" height="1000.000000pt" viewBox="0 0 1000.000000 1000.000000"
 preserveAspectRatio="xMidYMid meet">
<metadata>
Created by potrace 1.16, written by Peter Selinger 2001-2019
</metadata>
<g transform="translate(0.000000,1000.000000) scale(1.000000,-1.000000)"
fill="#000000" stroke="none">
<path d="M246 876 c-26 -5 -39 -35 -24 -57 5 -8 15 -15 24 -17 1 0 16 0 33 0
27 -1 50 -2 55 -2 1 -1 4 -1 7 -1 3 -1 7 -1 8 -1 1 -1 4 -1 7 -2 5 -1 5 0 9
-1 1 -1 4 -1 5 -2 1 0 3 0 5 -1 18 -3 29 -2 40 7 11 8 16 18 16 30 -1 10 -4
17 -12 25 -4 4 -11 9 -14 10 -1 0 -1 0 -1 0 -1 0 -3 1 -6 1 -2 1 -5 1 -6 2 -2
0 -4 0 -4 1 -9 1 -23 4 -26 5 -3 0 -6 0 -7 1 -1 0 -5 0 -8 1 -3 0 -7 0 -8 1
-13 2 -85 2 -93 0z"/>
<path d="M330 755 c0 -1 -6 -1 -12 -1 -7 -1 -14 -1 -16 -1 -2 -1 -7 -1 -10 -1
-4 -1 -9 -1 -10 -1 -2 -1 -6 -1 -10 -1 -4 -1 -8 -1 -9 -1 -1 -1 -5 -1 -9 -2
-4 0 -7 0 -8 0 -1 -1 -5 -1 -8 -1 -4 -1 -9 -1 -10 -1 -1 -1 -5 -1 -8 -2 -3 0
-6 0 -7 -1 -2 0 -4 0 -5 -1 -1 0 -6 -2 -9 -3 -15 -8 -23 -20 -22 -35 0 -17 12
-30 30 -34 5 -2 17 -2 27 -1 2 1 7 1 10 2 3 0 7 0 8 0 4 1 13 2 16 2 1 1 5 1
9 2 4 0 8 0 9 1 1 0 6 0 10 1 4 0 9 0 11 1 24 2 93 2 107 0 1 -1 5 -1 7 -1 2
-1 7 -1 10 -2 6 -1 19 -1 23 0 1 1 3 1 4 1 1 0 2 1 1 1 0 1 6 4 7 3 1 0 1 0 1
1 -1 0 0 1 2 2 1 1 2 2 2 2 0 1 1 1 1 0 1 0 1 0 1 1 -1 0 0 1 1 2 0 1 2 3 4 6
6 10 6 22 1 34 -3 5 -3 6 -8 10 -7 8 -13 11 -27 12 -3 1 -7 1 -10 2 -2 0 -5 0
-6 1 -1 0 -5 0 -7 1 -3 0 -7 0 -9 1 -5 0 -82 1 -82 1z"/>
<path d="M336 637 c0 -1 -6 -1 -13 -1 -33 -2 -40 -3 -55 -6 -9 -1 -28 -12 -34
-19 -9 -9 -10 -21 -2 -29 1 -1 0 -2 -3 -6 -6 -8 -14 -26 -16 -38 -3 -10 -2
-30 1 -40 1 -3 1 -5 1 -5 1 -1 1 -3 3 -7 0 -1 0 -2 0 -2 1 -3 7 -13 11 -19 6
-9 19 -23 22 -23 0 0 1 0 1 -1 1 -1 17 -9 25 -12 7 -3 16 -5 22 -6 2 -1 4 -1
4 -1 3 -2 39 -3 51 -2 24 3 40 9 65 22 26 15 41 29 54 49 3 6 9 18 10 22 0 1
0 3 1 4 0 1 0 8 1 15 0 13 -2 21 -6 32 -12 26 -42 50 -77 63 -6 3 -11 4 -12 5
-1 0 -3 0 -4 1 -1 0 -4 0 -5 1 -2 0 -6 1 -10 2 -5 1 -34 1 -35 1z m-27 -58 c1
0 3 0 4 0 0 -1 3 -1 5 -2 5 -1 7 -2 19 -6 4 -2 17 -7 27 -11 22 -8 29 -12 40
-21 2 -3 4 -5 4 -7 0 -3 -10 -13 -18 -18 -7 -4 -28 -15 -28 -15 0 1 -1 1 -3 0
-10 -4 -35 -5 -49 -1 -17 5 -22 10 -23 27 0 5 0 13 -1 18 0 4 0 11 0 16 0 4
-1 8 -1 10 -1 2 -1 3 6 8 5 4 6 4 11 4 2 -1 6 -1 7 -2z"/>
</g>
</svg>
