<?xml version="1.0" standalone="no"?>
<!DOCTYPE svg PUBLIC "-//W3C//DTD SVG 20010904//EN"
 "http://www.w3.org/TR/2001/REC-SVG-20010904/DTD/svg10.dtd">
<svg version="1.0" xmlns="http://www.w3.org/2000/svg"
 width="1000.000000pt" height="1000.000000pt" viewBox="0 0 1000.000000 1000.000000"
 preserveAspectRatio="xMidYMid meet">
<metadata>
Created by potrace 1.16, written by Peter Selinger 2001-2019
</metadata>
<g transform="translate(0.000000,1000.000000) scale(1.000000,-1.000000)"
fill="#000000" stroke="none">
<path d="M413 780 c0 0 -8 0 -17 0 -9 -1 -18 -1 -20 -1 -2 -1 -7 -1 -10 -1
-16 -2 -19 -2 -22 -2 -6 -1 -12 -2 -15 -3 -1 0 -5 0 -8 -1 -4 0 -7 0 -8 -1 -2
0 -5 0 -7 -1 -12 -1 -35 -11 -43 -18 -8 -8 -11 -20 -8 -31 4 -14 14 -22 32
-24 2 -1 5 -1 6 -2 4 0 22 0 26 0 1 1 5 1 8 2 3 0 6 0 7 0 1 1 4 1 8 2 4 0 7
0 8 0 1 1 5 1 9 2 4 0 9 0 11 1 19 2 65 2 75 1 10 -2 25 -2 32 1 3 1 6 2 6 2
4 1 13 10 16 16 2 5 2 7 2 14 0 7 0 9 -2 14 -3 6 -7 11 -14 16 -3 2 -11 7 -13
8 -1 0 -1 0 -1 0 -1 0 -1 0 -2 1 -1 0 -1 0 -1 0 -1 0 -10 2 -16 3 -5 1 -38 3
-39 2z"/>
<path d="M453 685 c0 0 -16 0 -34 0 -19 -1 -37 -1 -39 -1 -14 -2 -25 -2 -33
-3 -11 -2 -14 -2 -15 -3 -2 0 -4 0 -6 0 -2 -1 -5 -1 -6 -1 -1 -1 -4 -1 -6 -2
-3 0 -5 0 -6 -1 -2 0 -5 -1 -9 -2 -2 0 -4 0 -5 -1 -2 0 -5 -1 -9 -2 -1 0 -5
-1 -8 -2 -3 -1 -6 -1 -6 -1 -4 -1 -13 -5 -17 -7 -8 -4 -22 -18 -25 -24 -5 -10
-2 -24 8 -30 4 -3 21 -9 27 -10 2 0 6 0 9 0 5 0 24 1 27 1 1 1 4 1 7 1 4 1 6
1 13 2 1 1 5 1 8 2 2 0 5 0 6 1 2 0 4 0 6 1 2 0 5 0 6 0 1 1 5 1 8 2 3 0 7 0
8 1 1 0 6 0 11 1 5 0 11 0 13 1 2 0 26 0 53 0 48 1 64 1 68 2 1 1 3 1 4 1 3 1
11 5 15 8 15 10 19 31 10 46 -7 10 -21 18 -36 20 -5 0 -47 1 -47 0z"/>
<path d="M358 573 c0 0 -2 0 -4 0 -3 -1 -6 -1 -10 -2 -2 -1 -4 -1 -5 -1 -5 -1
-15 -5 -15 -6 0 -1 0 -1 -1 0 -1 0 -1 0 -1 -1 0 -1 0 -1 -1 -1 -2 1 -17 -10
-23 -16 -9 -9 -15 -17 -20 -27 -4 -9 -8 -22 -9 -29 0 -2 0 -5 -1 -6 0 -4 0
-23 0 -28 2 -12 2 -14 5 -22 3 -13 12 -30 19 -37 15 -19 29 -28 47 -34 7 -3
10 -3 17 -5 2 0 4 0 4 -1 1 0 18 -1 30 -1 14 0 23 0 30 2 2 0 6 1 7 1 2 1 7 2
13 3 5 2 10 3 11 3 7 2 35 14 46 21 18 10 28 22 32 38 2 6 2 23 1 30 -2 8 -4
15 -5 16 -1 0 -1 1 -1 1 1 0 0 1 -1 3 -1 2 -3 6 -5 10 -6 10 -13 21 -20 26 -4
5 -18 17 -20 19 -8 6 -32 20 -42 24 -3 1 -6 2 -7 2 -2 1 -3 1 -3 2 -1 0 -4 1
-7 2 -4 1 -7 1 -7 2 -2 0 -6 1 -8 2 -1 0 -6 0 -10 1 -4 0 -8 1 -9 1 0 1 -2 2
-2 3 -2 1 -8 3 -11 4 -2 1 -14 2 -14 1z m37 -52 c2 -3 6 -6 8 -9 2 -2 4 -5 6
-7 1 -1 5 -6 8 -11 3 -5 8 -13 12 -17 5 -7 7 -9 12 -15 4 -5 10 -13 10 -14 0
-2 -27 -12 -41 -15 -17 -3 -43 -1 -51 4 -5 3 -10 9 -12 15 -3 7 -4 23 -1 30 2
7 11 22 15 27 1 0 3 3 6 5 2 3 7 7 10 9 3 2 6 4 6 5 1 1 6 -2 12 -7z"/>
</g>
</svg>
