<?xml version="1.0" standalone="no"?>
<!DOCTYPE svg PUBLIC "-//W3C//DTD SVG 20010904//EN"
 "http://www.w3.org/TR/2001/REC-SVG-20010904/DTD/svg10.dtd">
<svg version="1.0" xmlns="http://www.w3.org/2000/svg"
 width="1000.000000pt" height="1000.000000pt" viewBox="0 0 1000.000000 1000.000000"
 preserveAspectRatio="xMidYMid meet">
<metadata>
Created by potrace 1.16, written by Peter Selinger 2001-2019
</metadata>
<g transform="translate(0.000000,1000.000000) scale(1.000000,-1.000000)"
fill="#000000" stroke="none">
<path d="M437 822 c-8 -3 -13 -6 -18 -13 -6 -8 -9 -19 -7 -28 1 -3 1 -5 1 -6
1 -3 8 -13 12 -16 5 -4 11 -7 13 -7 0 0 1 -1 2 -1 0 -1 2 -1 3 -1 1 -1 4 -1 5
-1 1 -1 4 -1 6 -2 1 0 3 0 4 0 1 -1 4 -1 6 -2 6 0 10 -1 13 -1 1 -1 4 -1 6 -2
2 0 4 0 5 0 1 -1 4 -1 6 -2 2 0 5 0 5 0 0 -1 3 -1 5 -1 3 -1 6 -1 6 -1 0 -1 3
-1 5 -1 3 -1 6 -1 6 -1 0 -1 3 -1 5 -1 2 -1 5 -1 7 -1 1 -1 4 -1 7 -2 2 0 6 0
7 -1 11 -1 26 -2 33 -1 5 1 14 4 20 7 17 9 19 14 12 30 -6 16 -18 27 -35 34
-8 3 -12 4 -27 7 -1 0 -4 0 -5 0 -6 2 -58 11 -61 12 -6 0 -15 2 -18 3 -1 0 -7
0 -13 1 -8 0 -11 -1 -16 -2z"/>
<path d="M495 695 c0 0 -17 0 -37 0 -21 -1 -40 -1 -43 -1 -13 -1 -23 -2 -26
-3 -8 -1 -15 -2 -19 -3 -10 -1 -21 -7 -28 -13 -4 -4 -8 -10 -8 -13 -1 0 -1 -1
-1 -2 -1 -1 -1 -4 -2 -8 -1 -22 17 -37 45 -37 5 0 24 1 31 2 20 2 115 3 145 2
16 -1 20 -1 29 -2 2 -1 7 -1 11 -2 3 0 7 0 8 -1 4 0 18 -1 23 -1 7 0 12 1 20
4 13 5 19 10 25 19 3 5 4 8 3 13 -1 1 -1 3 -1 5 -2 7 -9 15 -18 23 -5 3 -14 9
-16 9 0 0 0 0 0 0 -1 0 -3 1 -6 1 -1 1 -4 1 -7 1 -3 1 -7 1 -8 1 -1 1 -5 1 -9
2 -9 1 -10 1 -19 2 -5 0 -10 0 -11 1 -13 1 -80 2 -81 1z"/>
<path d="M492 602 c0 0 -3 0 -5 0 -19 -3 -30 -7 -48 -19 -16 -11 -29 -27 -55
-69 -8 -13 -14 -25 -15 -29 0 -1 0 -1 0 -1 0 -1 -1 -3 -2 -10 -2 -8 -2 -23 -1
-30 2 -5 2 -5 3 -8 3 -13 15 -28 28 -38 8 -6 24 -14 32 -15 0 -1 1 -1 2 -1 4
-2 21 -6 31 -7 18 -3 75 -3 91 -1 1 1 5 1 8 1 6 1 11 2 13 3 1 0 3 0 5 0 4 1
6 2 11 3 2 0 5 1 7 1 2 1 4 1 4 1 0 1 2 1 3 1 13 3 43 16 56 25 10 8 20 21 23
30 1 7 1 19 -1 26 -5 18 -24 42 -45 60 -3 1 -5 3 -5 4 -7 6 -35 27 -47 34 -9
6 -19 10 -31 14 -9 3 -10 4 -13 7 -6 9 -14 14 -27 17 -4 1 -22 2 -22 1z m35
-57 c23 -8 44 -27 66 -56 10 -14 14 -20 14 -22 0 0 -3 -2 -7 -4 -6 -2 -10 -4
-17 -6 -3 0 -7 -1 -9 -2 -1 0 -3 0 -4 -1 -1 0 -3 0 -4 -1 -1 0 -4 0 -5 -1 -1
0 -4 0 -6 -1 -3 0 -6 0 -7 -1 -16 -2 -63 -2 -79 1 -12 2 -27 7 -29 11 -1 3 -1
18 0 23 1 5 8 13 24 30 13 14 14 14 23 19 11 5 23 9 29 10 3 1 5 1 5 2 1 0 1
0 6 -1z"/>
</g>
</svg>
