<?xml version="1.0" standalone="no"?>
<!DOCTYPE svg PUBLIC "-//W3C//DTD SVG 20010904//EN"
 "http://www.w3.org/TR/2001/REC-SVG-20010904/DTD/svg10.dtd">
<svg version="1.0" xmlns="http://www.w3.org/2000/svg"
 width="1000.000000pt" height="1000.000000pt" viewBox="0 0 1000.000000 1000.000000"
 preserveAspectRatio="xMidYMid meet">
<metadata>
Created by potrace 1.16, written by Peter Selinger 2001-2019
</metadata>
<g transform="translate(0.000000,1000.000000) scale(1.000000,-1.000000)"
fill="#000000" stroke="none">
<path d="M422 740 c0 0 -2 0 -4 0 -6 -2 -14 -6 -20 -12 -7 -8 -10 -16 -10 -26
0 -13 9 -27 22 -33 8 -3 11 -4 29 -5 14 0 34 -1 40 -1 6 -1 16 -2 17 -3 2 0 4
0 6 0 2 -1 5 -1 6 -2 1 0 4 0 5 -1 2 0 4 0 6 0 1 -1 4 -1 5 -1 8 -2 11 -2 20
-2 12 0 14 0 22 4 19 10 26 30 16 47 -7 13 -21 22 -40 25 -2 0 -4 0 -5 1 -1 0
-3 0 -5 1 -3 0 -5 0 -6 1 -1 0 -3 0 -5 0 -2 1 -6 1 -9 2 -3 0 -7 1 -9 1 -3 1
-6 1 -8 1 -5 1 -14 2 -27 3 -12 0 -46 1 -46 0z"/>
<path d="M613 630 c0 0 -17 0 -38 0 -21 -1 -40 -1 -43 -1 -3 -1 -12 -1 -20 -1
-23 -1 -35 -2 -48 -3 -2 -1 -7 -1 -11 -1 -4 -1 -8 -1 -9 -1 -1 -1 -4 -1 -7 -2
-3 0 -6 0 -7 -1 -1 0 -4 0 -7 -1 -3 0 -6 0 -7 -1 -1 0 -4 0 -6 0 -2 -1 -5 -1
-6 -2 -1 0 -4 0 -6 -1 -2 0 -4 0 -5 -1 -2 0 -4 0 -6 -1 -3 0 -21 -4 -24 -5 -2
0 -4 0 -5 -1 -1 0 -6 -1 -10 -2 -4 -1 -9 -2 -10 -3 -1 0 -3 -1 -4 -1 -1 -1 -2
-1 -2 -1 0 1 -16 -4 -21 -7 -3 -1 -7 -4 -9 -6 -6 -6 -14 -18 -16 -23 -1 -4 0
-13 1 -17 3 -7 13 -15 24 -20 3 -1 5 -2 6 -2 0 0 0 0 0 0 7 -2 20 -1 30 1 1 1
3 1 4 1 4 1 6 2 17 4 5 2 11 3 13 3 2 1 4 1 10 2 1 1 3 1 4 1 1 1 3 1 5 1 2 1
4 1 6 1 1 1 3 1 5 1 2 1 5 1 6 1 1 1 4 1 6 2 2 0 5 0 6 0 1 1 4 1 7 1 3 1 6 1
7 1 1 1 4 1 7 1 3 1 7 1 8 1 1 1 5 1 10 1 5 1 10 1 12 1 3 1 19 2 36 3 41 2
115 2 156 2 13 -1 25 4 34 12 4 4 7 9 8 11 0 1 0 1 0 1 1 2 2 13 1 18 -3 10
-13 24 -23 28 -2 1 -5 2 -5 2 0 1 -1 1 -2 1 0 1 -1 1 -1 1 0 -1 -1 0 -3 0 -5
2 -18 2 -44 2 -13 0 -24 0 -24 0z"/>
<path d="M522 516 c0 0 -2 0 -5 0 -2 -1 -7 -2 -10 -3 -6 -3 -7 -3 -10 -1 -4 1
-8 2 -15 2 -7 0 -8 0 -17 -3 -26 -7 -50 -35 -61 -71 -5 -15 -6 -23 -6 -41 0
-18 1 -26 6 -40 2 -6 10 -20 12 -22 1 -1 3 -3 4 -5 5 -6 12 -13 20 -18 12 -8
28 -14 44 -17 2 0 5 0 6 -1 15 -2 48 -2 62 0 1 1 4 1 6 1 18 3 36 10 50 20 25
16 40 39 44 63 1 6 1 22 0 29 -1 6 -3 14 -3 14 0 0 0 1 -1 2 0 3 -5 15 -8 20
-7 13 -18 25 -33 38 -20 15 -40 27 -48 30 -1 0 -1 0 -1 0 -1 0 -8 2 -13 3 -4
0 -23 1 -23 0z m-27 -55 c0 0 0 0 1 0 0 -1 3 -2 6 -3 2 -1 7 -3 11 -5 11 -4
45 -28 55 -37 4 -5 7 -9 8 -15 1 -10 0 -13 -9 -20 -9 -7 -24 -10 -44 -10 -9 0
-23 1 -27 2 -1 0 -4 0 -5 1 -3 0 -10 4 -12 5 -3 4 -5 10 -5 18 0 10 1 22 3 29
0 1 0 3 1 4 0 0 1 6 3 12 5 13 9 20 12 19 1 0 2 0 2 0z"/>
</g>
</svg>
