<?xml version="1.0" standalone="no"?>
<!DOCTYPE svg PUBLIC "-//W3C//DTD SVG 20010904//EN"
 "http://www.w3.org/TR/2001/REC-SVG-20010904/DTD/svg10.dtd">
<svg version="1.0" xmlns="http://www.w3.org/2000/svg"
 width="1000.000000pt" height="1000.000000pt" viewBox="0 0 1000.000000 1000.000000"
 preserveAspectRatio="xMidYMid meet">
<metadata>
Created by potrace 1.16, written by Peter Selinger 2001-2019
</metadata>
<g transform="translate(0.000000,1000.000000) scale(1.000000,-1.000000)"
fill="#000000" stroke="none">
<path d="M295 981 c0 -1 -4 -1 -8 -1 -17 -2 -23 -12 -15 -27 6 -11 18 -21 37
-31 5 -3 10 -6 10 -6 1 0 -3 -1 -9 -1 -10 0 -36 -1 -40 -1 -1 -1 -5 -1 -9 -1
-4 -1 -9 -1 -10 -2 -1 0 -4 0 -5 0 -1 -1 -4 -1 -5 -1 -1 -1 -4 -1 -5 -2 -8 -1
-32 -7 -36 -9 -14 -6 -20 -19 -15 -31 3 -9 14 -17 26 -19 1 -1 3 -1 6 -2 2 0
5 -1 7 -1 2 -1 5 -1 10 -2 3 -1 11 -2 13 -2 0 0 -2 -3 -5 -6 -4 -5 -12 -19
-12 -20 0 0 0 -1 0 -2 -2 -5 -3 -11 -2 -21 1 -35 21 -66 55 -85 6 -3 20 -9 26
-9 10 -2 15 -2 25 -2 26 0 45 5 76 23 23 12 34 22 43 38 6 12 8 20 8 33 0 3 0
8 0 9 -1 1 -1 3 -1 5 -3 9 -9 19 -18 28 -4 4 -6 7 -6 7 1 0 3 0 4 0 1 1 6 1
10 1 4 1 9 1 11 2 6 1 45 14 48 16 5 4 8 9 8 15 -1 11 -6 15 -26 22 -7 3 -13
5 -14 6 -1 0 -2 0 -2 1 -1 0 -1 0 -1 0 -1 0 -1 0 -2 1 -1 0 -1 0 -1 0 0 0 -1
0 -2 0 -1 1 -4 1 -6 2 -6 1 -13 2 -34 4 -5 0 -9 0 -10 1 -4 0 -17 1 -22 1 l-4
1 2 4 c2 6 2 13 -1 18 -2 5 -7 12 -10 15 -3 2 -12 7 -17 9 -3 1 -5 2 -5 2 -1
0 -2 1 -2 1 -1 0 -13 4 -26 8 -28 10 -26 9 -32 10 -2 0 -5 0 -6 0 0 1 -1 1 -1
1z m44 -146 c12 -7 23 -13 30 -18 3 -3 8 -6 12 -9 3 -2 7 -5 9 -7 l4 -4 -4 -2
c-2 0 -4 -2 -4 -2 0 -1 0 -1 -1 -1 0 1 -2 0 -4 -1 -7 -5 -28 -15 -33 -17 -9
-2 -24 -2 -29 1 -5 3 -10 7 -13 12 -2 3 -2 6 -3 12 0 8 0 9 3 16 4 8 19 24 23
24 1 0 5 -2 10 -4z"/>
</g>
</svg>
