<?xml version="1.0" standalone="no"?>
<!DOCTYPE svg PUBLIC "-//W3C//DTD SVG 20010904//EN"
 "http://www.w3.org/TR/2001/REC-SVG-20010904/DTD/svg10.dtd">
<svg version="1.0" xmlns="http://www.w3.org/2000/svg"
 width="1000.000000pt" height="1000.000000pt" viewBox="0 0 1000.000000 1000.000000"
 preserveAspectRatio="xMidYMid meet">
<metadata>
Created by potrace 1.16, written by Peter Selinger 2001-2019
</metadata>
<g transform="translate(0.000000,1000.000000) scale(1.000000,-1.000000)"
fill="#000000" stroke="none">
<path d="M631 691 c0 -1 -3 -1 -7 -1 -12 -2 -42 -12 -55 -19 -7 -5 -32 -24
-37 -29 -12 -12 -17 -29 -12 -39 4 -7 10 -10 20 -9 11 0 15 1 30 7 5 2 10 4
11 4 2 1 4 1 5 1 1 1 4 1 5 1 1 1 3 1 4 1 1 1 3 1 4 1 1 1 4 1 5 1 1 1 4 1 6
2 2 0 4 0 5 1 1 0 4 0 6 1 3 0 10 0 17 0 11 0 13 0 18 -2 15 -7 24 -27 20 -47
-1 -12 -6 -26 -18 -54 -10 -25 -20 -44 -34 -69 -20 -37 -21 -37 -34 -51 -10
-10 -13 -14 -16 -19 -4 -9 -4 -10 -4 -19 0 -10 0 -11 3 -17 4 -10 16 -18 27
-21 7 -1 16 0 23 4 3 1 5 2 5 1 1 0 1 0 1 1 -1 0 3 4 4 3 1 0 1 0 1 1 -1 1 17
20 18 19 1 0 1 0 1 1 0 1 0 1 1 1 1 0 1 0 1 1 -1 0 0 1 1 2 10 9 50 81 69 125
3 7 7 15 8 18 1 2 1 4 1 4 1 1 6 15 8 19 0 1 0 2 0 2 1 0 1 3 3 6 1 3 1 6 2 6
0 0 1 5 2 10 2 11 3 13 4 22 3 31 -4 57 -21 83 -15 21 -31 33 -58 43 -11 3
-12 3 -27 4 -9 0 -16 0 -16 0z"/>
<path d="M405 687 c0 0 -9 0 -20 0 -11 -1 -21 -1 -23 -1 -11 -2 -14 -2 -16 -3
-1 0 -4 0 -6 -1 -2 0 -4 0 -5 -1 -1 0 -3 0 -4 -1 -1 0 -3 0 -4 0 -4 -1 -25 -8
-34 -12 -37 -15 -53 -29 -54 -49 0 -6 0 -8 3 -12 4 -9 12 -14 23 -14 8 0 12 0
27 5 17 6 29 9 35 9 14 2 70 5 85 4 2 0 2 -1 1 -5 0 -2 0 -5 -1 -6 0 -2 0 -4
0 -6 -1 -2 -1 -5 -2 -6 0 -1 0 -4 -1 -5 0 -1 -2 -8 -4 -14 -2 -6 -4 -12 -4
-12 -1 -1 -1 -3 -2 -4 -5 -13 -13 -33 -14 -36 0 -1 0 -1 0 -1 0 0 0 -1 -1 -2
0 -1 -2 -8 -4 -16 -3 -9 -5 -16 -5 -17 -1 -2 -1 -2 -1 -2 0 0 0 -1 0 -2 -1 -4
-9 -27 -16 -44 -9 -24 -10 -30 -9 -39 0 -8 0 -9 3 -15 8 -15 24 -23 40 -20 2
1 4 1 5 1 7 2 18 12 24 24 5 12 24 62 26 72 0 2 9 33 11 37 1 4 14 38 18 47 0
1 0 2 0 2 1 0 2 4 3 9 3 9 6 19 6 24 1 1 1 4 1 5 1 1 1 5 2 7 0 2 0 5 1 6 0 5
1 17 1 25 0 17 -3 28 -12 41 -10 15 -23 23 -44 28 -2 0 -29 1 -29 0z"/>
</g>
</svg>
