<?xml version="1.0" standalone="no"?>
<!DOCTYPE svg PUBLIC "-//W3C//DTD SVG 20010904//EN"
 "http://www.w3.org/TR/2001/REC-SVG-20010904/DTD/svg10.dtd">
<svg version="1.0" xmlns="http://www.w3.org/2000/svg"
 width="1000.000000pt" height="1000.000000pt" viewBox="0 0 1000.000000 1000.000000"
 preserveAspectRatio="xMidYMid meet">
<metadata>
Created by potrace 1.16, written by Peter Selinger 2001-2019
</metadata>
<g transform="translate(0.000000,1000.000000) scale(1.000000,-1.000000)"
fill="#000000" stroke="none">
<path d="M480 940 c0 -1 -3 -1 -5 -1 -5 -1 -8 -1 -13 -3 -1 0 -4 0 -5 -1 -3 0
-14 -5 -20 -8 -15 -7 -29 -20 -35 -31 -3 -5 -3 -8 -4 -13 0 -6 1 -8 3 -12 2
-5 7 -9 12 -9 5 -1 12 1 25 6 7 2 13 4 14 4 1 1 5 1 8 2 7 1 23 1 27 -1 5 -3
6 -4 8 -10 1 -5 1 -19 0 -24 -1 -1 -1 -3 -1 -4 -1 -1 -1 -3 -1 -4 -1 -3 -2 -6
-2 -9 -1 -5 -2 -7 -2 -9 -1 -1 -1 -3 -1 -5 -1 -2 -1 -4 -1 -6 -1 -1 -1 -3 -1
-5 -1 -3 -1 -5 -2 -10 -1 -3 -4 -10 -6 -15 -2 -3 -4 -10 -6 -14 -2 -5 -4 -10
-5 -11 -2 -3 -7 -13 -8 -15 0 -1 0 -3 -1 -4 0 -1 0 -5 0 -8 0 -11 8 -18 20
-16 4 1 14 6 19 11 2 2 8 7 13 10 15 12 24 23 38 48 10 17 18 37 20 48 1 1 1
4 2 5 1 9 2 35 1 44 -5 31 -22 53 -48 63 -2 1 -5 2 -6 3 -1 0 -3 0 -4 1 -1 0
-4 0 -5 1 -1 0 -4 0 -5 1 -3 0 -23 1 -23 1z"/>
<path d="M302 931 c0 -1 -6 -1 -12 -1 -6 -1 -13 -1 -14 -1 -1 -1 -4 -1 -6 -2
-3 0 -5 0 -6 -1 -1 0 -3 0 -5 -1 -2 0 -5 -1 -7 -1 -3 -1 -4 -1 -4 -1 0 0 -2 0
-3 -1 -2 -1 -5 -1 -6 -2 -4 0 -19 -6 -28 -11 -18 -9 -30 -19 -35 -28 -2 -6 -4
-15 -3 -20 1 -3 5 -7 9 -7 1 -1 4 -1 5 -2 3 0 15 -1 18 0 1 0 5 2 10 3 4 2 9
3 11 3 3 1 4 1 19 5 10 3 16 4 26 6 2 0 12 0 22 1 20 0 22 0 35 -8 8 -5 9 -6
9 -12 0 -16 -11 -40 -29 -65 -12 -16 -16 -27 -16 -40 1 -8 3 -12 7 -17 10 -11
27 -11 37 -2 2 2 3 3 4 2 0 0 0 0 0 1 -1 0 1 2 2 4 11 12 22 31 33 58 5 10 10
27 12 33 1 6 1 8 2 10 0 1 0 6 1 11 2 30 -3 45 -21 63 -7 7 -18 14 -27 17 -1
0 -1 0 -1 0 -1 0 -1 0 -2 1 -1 0 -1 0 -1 0 -1 0 -3 1 -11 3 -1 0 -7 0 -12 1
-5 0 -10 0 -11 0 -1 1 -2 1 -2 1z"/>
</g>
</svg>
