<?xml version="1.0" standalone="no"?>
<!DOCTYPE svg PUBLIC "-//W3C//DTD SVG 20010904//EN"
 "http://www.w3.org/TR/2001/REC-SVG-20010904/DTD/svg10.dtd">
<svg version="1.0" xmlns="http://www.w3.org/2000/svg"
 width="1000.000000pt" height="1000.000000pt" viewBox="0 0 1000.000000 1000.000000"
 preserveAspectRatio="xMidYMid meet">
<metadata>
Created by potrace 1.16, written by Peter Selinger 2001-2019
</metadata>
<g transform="translate(0.000000,1000.000000) scale(1.000000,-1.000000)"
fill="#000000" stroke="none">
<path d="M645 962 c0 -1 -4 -1 -8 -1 -5 0 -10 -1 -13 -1 -2 -1 -6 -1 -7 -2
-18 -3 -44 -13 -61 -25 -11 -7 -14 -10 -26 -21 -25 -25 -32 -50 -16 -58 3 -2
10 -2 13 -1 0 0 4 2 9 4 5 2 17 7 27 13 11 5 24 11 28 13 10 5 23 9 23 8 0 0
1 0 2 1 4 2 22 3 31 2 12 -2 16 -5 23 -16 5 -6 5 -12 3 -24 -1 -1 -1 -3 -1 -4
-1 -1 -1 -3 -1 -4 -1 -1 -1 -3 -1 -5 -1 -2 -1 -5 -1 -5 -1 0 -1 -3 -2 -5 0 -6
-1 -7 -1 -13 -2 -8 -2 -8 -3 -15 -1 -4 -4 -14 -7 -22 -3 -8 -5 -16 -5 -17 -1
-1 -2 -7 -3 -12 -4 -15 -3 -27 4 -33 10 -8 25 -3 37 12 2 3 6 9 9 12 7 8 17
23 22 33 2 3 4 6 4 7 5 6 18 35 20 43 0 1 0 2 0 2 0 0 0 0 0 1 1 1 1 4 2 7 7
22 6 48 -3 67 -2 5 -10 18 -12 22 -11 13 -31 26 -50 31 -11 3 -13 4 -24 5 -5
0 -10 0 -11 1 0 0 -1 0 -1 0z"/>
<path d="M344 945 c0 0 -3 0 -6 0 -3 -1 -7 -1 -8 -2 -1 0 -4 0 -6 -1 -13 -2
-45 -15 -63 -26 -15 -10 -27 -22 -29 -30 0 -1 0 -5 0 -9 0 -13 11 -24 25 -24
9 0 14 1 37 12 15 7 34 14 43 15 3 0 9 0 13 0 7 0 9 0 16 -3 4 -3 8 -5 9 -7 4
-5 6 -19 6 -35 0 -16 -1 -25 -6 -41 -2 -4 -3 -8 -3 -8 0 0 0 -1 -1 -1 0 -1 -2
-6 -4 -12 -2 -7 -5 -15 -7 -19 -3 -8 -3 -9 -3 -17 0 -10 2 -15 8 -22 6 -6 13
-9 23 -9 6 0 9 0 15 4 9 5 22 22 33 45 17 33 21 50 21 77 0 18 -1 29 -6 43 -5
14 -20 36 -32 46 -12 10 -29 19 -46 22 -6 2 -28 3 -29 2z"/>
</g>
</svg>
