<?xml version="1.0" standalone="no"?>
<!DOCTYPE svg PUBLIC "-//W3C//DTD SVG 20010904//EN"
 "http://www.w3.org/TR/2001/REC-SVG-20010904/DTD/svg10.dtd">
<svg version="1.0" xmlns="http://www.w3.org/2000/svg"
 width="1000.000000pt" height="1000.000000pt" viewBox="0 0 1000.000000 1000.000000"
 preserveAspectRatio="xMidYMid meet">
<metadata>
Created by potrace 1.16, written by Peter Selinger 2001-2019
</metadata>
<g transform="translate(0.000000,1000.000000) scale(1.000000,-1.000000)"
fill="#000000" stroke="none">
<path d="M651 786 c0 -1 -3 -1 -6 -1 -3 -1 -7 -1 -8 -2 -1 0 -4 0 -5 0 -1 -1
-4 -1 -5 -2 -1 0 -4 0 -5 -1 -1 0 -3 0 -3 -1 -1 0 -2 0 -4 -1 -6 -1 -33 -12
-47 -19 -45 -24 -68 -47 -68 -69 0 -8 3 -15 9 -21 2 -2 4 -4 4 -3 0 0 0 0 1
-1 2 -4 20 -5 31 -2 4 1 8 2 9 2 2 1 9 5 21 11 23 14 48 26 64 30 19 5 37 5
48 -2 5 -4 14 -19 17 -30 3 -14 3 -37 -1 -53 -2 -12 -8 -28 -17 -46 -14 -30
-17 -35 -29 -50 -19 -24 -23 -33 -23 -45 1 -9 1 -9 4 -15 9 -19 34 -23 55 -9
7 5 25 23 32 32 8 10 16 24 24 42 7 13 20 43 21 46 0 1 0 1 0 2 0 0 0 0 1 1 0
1 0 1 0 2 0 0 0 0 1 1 0 1 0 1 0 2 0 0 0 0 1 1 0 1 0 1 0 1 0 0 0 1 1 2 0 1 1
6 2 11 2 5 3 11 3 14 1 2 1 5 1 6 3 12 3 47 1 59 -1 1 -1 3 -1 6 -1 2 -1 4 -1
5 -1 0 -1 2 -1 5 -1 2 -2 4 -2 5 0 0 -1 1 -1 2 0 3 -8 21 -12 28 -8 14 -20 27
-31 36 -4 3 -21 12 -25 13 -3 1 -4 2 -4 2 0 0 -1 0 -2 0 -1 1 -4 1 -6 2 -2 1
-6 1 -7 2 -1 0 -3 0 -5 1 -3 0 -32 1 -32 1z"/>
<path d="M328 776 c0 -1 -3 -1 -6 -1 -4 -1 -8 -1 -9 -2 -1 0 -4 0 -6 -1 -13
-2 -32 -9 -52 -20 -22 -11 -38 -24 -56 -44 -10 -11 -15 -21 -15 -34 -1 -11 3
-18 11 -22 5 -2 7 -2 15 -2 5 0 11 0 12 0 5 1 22 9 34 16 7 4 12 7 12 6 0 0 0
0 1 1 1 1 23 13 32 17 7 4 13 6 17 7 1 0 3 0 6 1 6 2 26 2 33 1 18 -5 38 -18
41 -29 3 -7 -1 -27 -9 -46 -9 -27 -28 -67 -37 -80 -4 -7 -13 -18 -15 -20 -2
-2 -10 -15 -10 -17 0 0 -1 -1 -1 -2 -1 0 -1 -3 -2 -5 -4 -25 14 -46 39 -45 8
1 10 1 15 4 2 1 4 2 5 1 0 0 0 0 0 1 -1 0 -1 1 0 1 2 0 23 25 33 40 10 15 28
53 40 83 5 12 11 28 11 31 1 1 2 4 3 8 0 4 1 7 2 9 0 1 0 3 1 4 2 10 3 32 2
39 -1 1 -1 4 -1 6 -3 16 -12 34 -25 48 -17 17 -35 30 -55 37 -4 1 -8 2 -9 3
-1 0 -2 0 -2 1 -2 0 -14 3 -17 4 -4 0 -37 1 -38 1z"/>
</g>
</svg>
