<?xml version="1.0" standalone="no"?>
<!DOCTYPE svg PUBLIC "-//W3C//DTD SVG 20010904//EN"
 "http://www.w3.org/TR/2001/REC-SVG-20010904/DTD/svg10.dtd">
<svg version="1.0" xmlns="http://www.w3.org/2000/svg"
 width="1000.000000pt" height="1000.000000pt" viewBox="0 0 1000.000000 1000.000000"
 preserveAspectRatio="xMidYMid meet">
<metadata>
Created by potrace 1.16, written by Peter Selinger 2001-2019
</metadata>
<g transform="translate(0.000000,1000.000000) scale(1.000000,-1.000000)"
fill="#000000" stroke="none">
<path d="M237 654 c0 -1 -3 -1 -6 -1 -16 -2 -34 -8 -54 -18 -32 -16 -48 -29
-54 -45 -7 -16 4 -32 21 -33 7 0 13 2 28 10 19 10 40 18 51 20 1 1 4 1 5 1 17
4 36 2 43 -4 6 -6 15 -24 16 -31 1 -2 1 -3 1 -4 2 -3 3 -30 2 -45 -2 -14 -2
-19 -2 -21 -1 -1 -1 -5 -2 -8 0 -3 0 -6 -1 -7 0 -2 0 -4 0 -5 -2 -6 -2 -8 -5
-15 -1 -4 -1 -7 -2 -7 0 -1 0 0 -5 -14 -3 -6 -8 -18 -13 -28 -20 -40 -25 -58
-22 -74 4 -18 17 -31 34 -32 4 0 9 1 12 2 2 0 5 1 6 1 0 0 1 1 1 1 0 1 1 1 2
1 3 1 10 9 13 15 2 3 5 10 7 17 2 8 8 21 15 34 10 21 18 39 21 50 1 3 3 6 3 7
0 0 1 1 1 2 0 0 1 4 2 8 2 8 5 21 6 30 2 10 2 14 4 26 1 17 2 46 1 60 -3 28
-14 55 -31 71 -3 4 -11 10 -13 11 -1 1 -2 2 -2 2 -1 2 -15 10 -21 13 -6 4 -15
7 -20 8 -2 0 -4 0 -6 1 -3 0 -36 1 -36 1z"/>
<path d="M496 639 c0 0 -3 0 -6 0 -8 -1 -11 -2 -18 -4 -3 0 -7 -1 -8 -2 -5 -1
-31 -11 -42 -17 -23 -12 -39 -24 -43 -35 -5 -8 -3 -18 2 -24 7 -8 18 -9 35 -4
5 2 10 3 11 4 1 0 8 2 15 4 13 4 15 4 23 6 2 0 4 0 5 1 5 1 28 1 32 0 5 -1 11
-4 13 -6 4 -4 7 -15 11 -38 3 -16 3 -24 3 -40 0 -19 0 -26 -5 -44 -1 -5 -2 -9
-3 -10 0 -4 -10 -31 -14 -42 -9 -23 -20 -40 -39 -67 -12 -15 -14 -21 -14 -31
0 -13 7 -26 18 -33 8 -4 19 -6 27 -4 1 0 3 0 4 0 2 1 10 5 13 8 5 4 26 32 36
48 9 15 17 29 23 45 3 6 5 11 5 11 0 1 1 2 1 4 1 1 1 3 1 3 1 0 3 8 6 17 3 8
6 16 6 17 0 0 2 8 4 16 2 9 4 18 5 21 0 2 0 5 1 6 2 14 2 58 0 72 -1 1 -1 4
-1 7 -1 3 -1 6 -2 7 0 1 0 4 -1 6 0 3 -1 8 -2 12 0 3 -1 7 -2 8 -2 14 -10 32
-16 42 -6 8 -15 17 -23 23 -6 4 -14 8 -17 9 -6 1 -14 3 -17 4 -4 0 -27 1 -27
0z"/>
</g>
</svg>
