<?xml version="1.0" standalone="no"?>
<!DOCTYPE svg PUBLIC "-//W3C//DTD SVG 20010904//EN"
 "http://www.w3.org/TR/2001/REC-SVG-20010904/DTD/svg10.dtd">
<svg version="1.0" xmlns="http://www.w3.org/2000/svg"
 width="1000.000000pt" height="1000.000000pt" viewBox="0 0 1000.000000 1000.000000"
 preserveAspectRatio="xMidYMid meet">
<metadata>
Created by potrace 1.16, written by Peter Selinger 2001-2019
</metadata>
<g transform="translate(0.000000,1000.000000) scale(1.000000,-1.000000)"
fill="#000000" stroke="none">
<path d="M534 753 c0 0 -4 0 -8 0 -5 -1 -10 -1 -11 -1 -1 -1 -4 -1 -6 -2 -16
-2 -32 -7 -49 -16 -25 -12 -37 -21 -49 -37 -7 -9 -10 -17 -10 -24 0 -13 8 -21
20 -20 7 0 13 2 24 9 10 6 30 16 34 16 5 1 7 2 9 2 1 1 3 1 5 1 1 1 4 1 5 1 6
2 19 2 28 2 l3 0 0 -24 c-1 -14 -1 -27 -1 -29 -1 -8 -3 -20 -4 -25 0 -2 0 -5
-1 -6 0 -2 0 -5 0 -6 -1 -1 -1 -4 -1 -5 -3 -17 -8 -33 -14 -44 -10 -19 -31
-51 -43 -66 -6 -7 -12 -16 -14 -20 -3 -6 -4 -8 -4 -15 0 -15 6 -27 19 -34 6
-3 9 -4 17 -4 21 -1 37 14 70 66 18 28 25 42 32 58 3 8 8 27 9 35 1 1 1 4 2 5
0 1 0 4 1 6 0 2 0 4 1 5 0 2 0 4 1 6 0 2 0 5 1 6 0 1 0 4 0 6 1 2 1 5 2 8 3
26 4 79 1 93 0 1 0 4 -1 5 -3 20 -20 39 -39 45 -5 2 -8 2 -15 3 -4 0 -9 0 -11
0 -1 1 -3 1 -3 0z"/>
<path d="M278 743 c0 0 -3 0 -6 0 -31 -3 -63 -20 -93 -47 -14 -13 -21 -20 -26
-30 -3 -7 -3 -17 -1 -23 4 -7 10 -13 18 -15 8 -2 23 2 37 10 21 11 49 24 61
27 8 2 9 2 17 2 12 0 16 -3 20 -15 4 -11 5 -17 4 -37 0 -15 0 -21 -1 -29 -2
-6 -2 -7 -2 -9 -1 -1 -1 -3 -1 -4 -2 -10 -6 -22 -13 -43 -7 -23 -8 -28 -5 -39
1 -4 1 -10 1 -14 1 -8 3 -14 8 -18 9 -10 24 -10 35 0 6 6 13 10 14 9 0 0 0 0
0 0 -1 1 1 3 3 4 5 5 10 13 14 26 4 11 13 39 14 43 0 2 2 9 3 18 5 19 5 18 7
36 1 10 0 39 -1 49 -1 1 -1 5 -2 7 0 2 -1 6 -1 9 -1 2 -1 5 -2 6 0 1 -1 3 -1
4 -1 2 -1 3 -1 3 0 0 -1 3 -2 8 -9 22 -21 38 -38 48 -7 5 -23 11 -30 12 -8 2
-29 3 -30 2z"/>
</g>
</svg>
