<?xml version="1.0" standalone="no"?>
<!DOCTYPE svg PUBLIC "-//W3C//DTD SVG 20010904//EN"
 "http://www.w3.org/TR/2001/REC-SVG-20010904/DTD/svg10.dtd">
<svg version="1.0" xmlns="http://www.w3.org/2000/svg"
 width="1000.000000pt" height="1000.000000pt" viewBox="0 0 1000.000000 1000.000000"
 preserveAspectRatio="xMidYMid meet">
<metadata>
Created by potrace 1.16, written by Peter Selinger 2001-2019
</metadata>
<g transform="translate(0.000000,1000.000000) scale(1.000000,-1.000000)"
fill="#000000" stroke="none">
<path d="M290 801 c-5 -2 -12 -8 -15 -14 -2 -5 -3 -8 -4 -15 0 -3 0 -6 -1 -7
-1 -11 -2 -134 -1 -154 1 -5 1 -12 2 -14 0 -2 0 -8 0 -13 1 -5 1 -10 1 -12 1
-8 2 -15 2 -17 1 -1 1 -4 2 -6 0 -2 0 -5 1 -6 1 -5 1 -6 1 -8 1 -1 1 -3 1 -4
2 -9 7 -23 12 -35 4 -7 8 -16 9 -20 2 -6 4 -11 7 -14 7 -9 18 -17 25 -19 1 0
1 0 1 0 2 -1 14 -1 20 0 5 1 13 3 21 6 7 2 23 6 29 7 1 1 5 1 7 2 2 0 6 1 8 1
2 1 5 1 6 1 1 1 4 1 6 2 3 0 6 0 7 1 5 0 15 1 24 3 3 0 7 0 8 1 1 0 5 0 7 1 2
0 6 0 7 0 1 1 5 1 9 2 4 0 7 0 8 1 1 0 4 0 7 0 3 1 6 1 7 1 1 1 4 1 7 1 3 1 7
1 8 2 1 0 5 0 7 1 2 0 5 0 7 1 1 0 3 0 4 1 2 0 4 0 6 0 3 1 7 2 10 2 4 1 7 2
11 3 2 0 4 0 5 1 2 0 4 0 6 1 2 0 4 0 5 1 2 0 4 0 6 1 1 0 4 0 5 1 1 0 4 0 5
0 1 1 5 1 8 2 3 0 6 0 7 1 7 1 21 1 38 1 50 -1 48 -1 56 3 8 4 14 11 21 22 3
6 2 16 -1 24 -6 11 -10 16 -20 20 -6 3 -7 4 -14 5 -2 0 -5 0 -6 1 -14 2 -67 2
-80 0 -1 -1 -4 -1 -7 -1 -3 -1 -7 -1 -8 -1 -1 -1 -4 -1 -6 -1 -2 -1 -5 -1 -6
-1 -1 -1 -4 -1 -6 -2 -3 0 -5 0 -6 -1 -1 0 -3 0 -5 0 -2 -1 -5 -1 -6 -2 -4 0
-7 -1 -10 -1 -1 -1 -4 -1 -5 -1 -1 -1 -4 -1 -5 -1 -1 -1 -4 -1 -5 -1 -1 -1 -4
-1 -6 -1 -2 -1 -5 -1 -6 -1 -1 -1 -4 -1 -6 -2 -3 0 -6 0 -7 0 -1 -1 -5 -1 -7
-1 -2 -1 -6 -1 -7 -1 -1 -1 -5 -1 -8 -2 -3 0 -6 0 -7 0 -1 -1 -4 -1 -8 -1 -4
-1 -7 -1 -8 -1 -1 -1 -4 -1 -7 -1 -3 -1 -7 -1 -8 -1 -1 -1 -4 -1 -8 -1 -4 -1
-7 -1 -8 -1 -1 -1 -4 -1 -7 -1 -3 -1 -7 -1 -8 -1 -1 -1 -4 -1 -6 -1 -2 -1 -6
-1 -7 -2 -1 0 -4 0 -6 -1 -2 0 -4 0 -5 -1 -2 0 -4 0 -5 -1 -2 0 -4 0 -5 -1 -2
0 -5 -1 -9 -2 -1 0 -4 -1 -6 -1 -3 -1 -5 -1 -6 -2 -1 0 -3 0 -5 -1 -3 -1 -4
-1 -4 0 -1 1 -2 4 -2 8 -1 4 -3 10 -4 14 -2 9 -5 21 -5 30 -1 4 -1 9 -1 11 -1
4 -1 8 -3 27 0 11 -1 18 -1 21 -1 1 -1 5 -2 8 0 3 0 7 -1 8 0 1 0 5 -1 9 0 3
0 6 -1 7 0 1 0 4 0 7 -1 3 -1 7 -2 8 0 5 -2 19 -4 32 0 3 0 6 -1 7 0 2 0 5 -1
7 0 2 0 5 -1 6 0 1 0 5 -1 8 0 3 0 6 -1 7 0 1 0 4 0 7 -3 22 -6 31 -12 38 -7
7 -17 9 -26 6z"/>
</g>
</svg>
