<?xml version="1.0" standalone="no"?>
<!DOCTYPE svg PUBLIC "-//W3C//DTD SVG 20010904//EN"
 "http://www.w3.org/TR/2001/REC-SVG-20010904/DTD/svg10.dtd">
<svg version="1.0" xmlns="http://www.w3.org/2000/svg"
 width="1000.000000pt" height="1000.000000pt" viewBox="0 0 1000.000000 1000.000000"
 preserveAspectRatio="xMidYMid meet">
<metadata>
Created by potrace 1.16, written by Peter Selinger 2001-2019
</metadata>
<g transform="translate(0.000000,1000.000000) scale(1.000000,-1.000000)"
fill="#000000" stroke="none">
<path d="M209 800 c-9 -4 -15 -16 -18 -34 -3 -16 -3 -16 -5 -26 0 -3 0 -6 -1
-7 0 -1 0 -5 -1 -8 0 -3 0 -7 -1 -9 -2 -24 -3 -41 -3 -63 0 -15 0 -31 1 -40 1
-2 1 -7 1 -11 1 -5 1 -10 1 -11 1 -1 1 -5 1 -7 2 -9 2 -13 3 -16 0 -1 0 -4 0
-7 1 -2 1 -4 1 -6 1 -4 4 -19 4 -22 1 -1 3 -9 5 -17 8 -35 18 -53 35 -63 5 -4
14 -7 19 -8 1 -1 4 -1 5 -1 6 -2 15 -2 28 -2 12 0 20 0 41 2 16 1 38 2 59 3
19 0 36 1 58 3 6 0 16 1 19 1 1 1 4 1 7 2 3 0 6 0 6 1 0 0 3 0 6 1 5 1 5 0 9
1 1 1 3 1 5 1 4 1 24 7 26 8 2 0 3 1 3 1 0 -1 2 0 3 1 2 0 5 1 6 1 5 1 27 10
33 13 24 13 29 42 10 61 -3 3 -10 8 -13 9 -1 0 -3 0 -5 1 -6 1 -19 0 -22 -2
-1 0 -2 -1 -2 -1 -1 0 -6 -2 -12 -4 -7 -2 -12 -4 -13 -5 -1 0 -6 -1 -12 -3 -6
-2 -11 -3 -12 -4 -1 0 -3 0 -4 0 -3 -1 -6 -2 -9 -2 -1 -1 -4 -1 -5 -1 -12 -3
-22 -4 -44 -5 -6 -1 -14 -1 -18 -2 -4 0 -15 0 -24 -1 -10 0 -21 0 -26 0 -22
-2 -32 -2 -35 -3 -13 -1 -39 -2 -42 -1 -1 0 -3 2 -3 5 -2 5 -6 23 -7 29 -1 1
-1 3 -1 5 -1 1 -1 3 -1 5 -1 2 -1 5 -1 6 -1 1 -1 4 -2 6 0 3 0 6 0 7 -1 1 -1
5 -1 8 -1 3 -1 7 -1 8 -1 1 -1 5 -1 9 -1 4 -1 9 -2 11 -1 12 -2 30 -3 45 0 12
-1 26 -1 37 -1 2 -1 9 -1 14 -1 5 -1 12 -2 16 0 4 0 12 -1 20 0 13 0 17 -2 26
-4 22 -22 33 -38 25z"/>
</g>
</svg>
