<?xml version="1.0" standalone="no"?>
<!DOCTYPE svg PUBLIC "-//W3C//DTD SVG 20010904//EN"
 "http://www.w3.org/TR/2001/REC-SVG-20010904/DTD/svg10.dtd">
<svg version="1.0" xmlns="http://www.w3.org/2000/svg"
 width="1000.000000pt" height="1000.000000pt" viewBox="0 0 1000.000000 1000.000000"
 preserveAspectRatio="xMidYMid meet">
<metadata>
Created by potrace 1.16, written by Peter Selinger 2001-2019
</metadata>
<g transform="translate(0.000000,1000.000000) scale(1.000000,-1.000000)"
fill="#000000" stroke="none">
<path d="M184 723 c-10 -3 -18 -15 -20 -29 -1 -9 0 -53 1 -74 1 -4 1 -13 2
-19 0 -7 0 -15 0 -19 1 -4 1 -11 1 -16 1 -5 1 -13 2 -18 0 -5 0 -13 1 -19 0
-17 2 -41 2 -47 1 -2 1 -7 1 -11 1 -5 1 -10 2 -12 0 -5 1 -10 2 -17 0 -3 0 -6
1 -7 0 -2 0 -5 2 -11 1 -7 5 -22 7 -29 8 -22 23 -44 36 -54 4 -3 18 -10 21
-11 1 0 2 0 2 0 0 0 2 -1 8 -2 8 -1 40 0 51 1 1 1 4 1 6 1 2 1 5 1 6 1 1 1 4
1 5 1 5 2 7 2 9 2 1 1 3 1 4 1 1 1 5 1 9 2 3 1 7 2 8 2 3 1 20 6 37 11 8 2 15
4 16 4 2 1 7 2 12 3 4 2 9 3 11 3 2 1 4 2 11 3 3 1 7 2 8 2 1 1 3 1 5 1 7 2
11 3 15 3 2 1 5 1 6 2 1 0 5 0 7 1 2 0 5 0 6 1 1 0 5 0 9 1 10 1 11 1 15 1 6
2 7 2 12 3 2 1 5 1 6 1 4 1 15 6 18 8 19 15 18 43 -2 55 -7 4 -15 6 -28 8 -4
0 -22 0 -26 0 -10 -1 -15 -2 -17 -2 -1 -1 -4 -1 -6 -1 -2 -1 -6 -1 -7 -1 -1
-1 -4 -1 -6 -1 -2 -1 -5 -1 -6 -2 -1 0 -4 0 -5 -1 -2 0 -5 -1 -7 -1 -3 -1 -6
-1 -7 -2 -1 0 -5 -1 -8 -2 -7 -2 -9 -2 -11 -2 -1 -1 -4 -2 -7 -2 -4 -1 -7 -2
-8 -3 -2 0 -6 -1 -9 -2 -4 -1 -9 -2 -10 -3 -1 0 -3 0 -3 -1 -1 0 -2 0 -3 -1
-1 0 -6 -1 -11 -3 -5 -1 -9 -2 -9 -3 -1 0 -4 0 -6 -1 -7 -2 -10 -3 -14 -4 -1
0 -3 0 -4 -1 -2 0 -5 -1 -9 -2 -1 0 -3 0 -4 -1 -1 0 -3 0 -4 -1 -1 0 -3 0 -4
0 -2 -1 -5 -1 -7 -1 -2 -1 -5 -1 -6 -2 -2 0 -7 0 -13 -1 -11 0 -11 0 -16 8 -5
9 -9 27 -12 46 0 3 0 7 -1 8 0 1 0 5 0 9 -1 4 -1 9 -2 12 -1 14 -1 17 -3 48 0
15 -1 31 -2 37 0 4 0 10 0 15 -1 5 -1 10 -1 12 -1 1 -1 5 -2 8 0 3 0 6 0 7 -1
1 -1 4 -1 7 -1 3 -1 7 -2 10 0 4 -3 19 -4 23 0 1 0 4 -1 6 0 5 -2 15 -4 19 0
1 0 4 -1 5 0 1 0 3 -1 5 0 1 0 2 -1 2 0 1 0 1 0 2 0 0 0 0 0 1 -2 8 -7 17 -13
23 -7 8 -18 10 -29 7z"/>
</g>
</svg>
