<?xml version="1.0" standalone="no"?>
<!DOCTYPE svg PUBLIC "-//W3C//DTD SVG 20010904//EN"
 "http://www.w3.org/TR/2001/REC-SVG-20010904/DTD/svg10.dtd">
<svg version="1.0" xmlns="http://www.w3.org/2000/svg"
 width="1000.000000pt" height="1000.000000pt" viewBox="0 0 1000.000000 1000.000000"
 preserveAspectRatio="xMidYMid meet">
<metadata>
Created by potrace 1.16, written by Peter Selinger 2001-2019
</metadata>
<g transform="translate(0.000000,1000.000000) scale(1.000000,-1.000000)"
fill="#000000" stroke="none">
<path d="M332 928 c0 0 -2 0 -4 0 -11 -2 -21 -12 -26 -25 -3 -8 -3 -11 -3 -25
1 -34 0 -58 0 -65 -2 -11 -2 -28 -1 -35 1 -9 6 -20 11 -27 4 -7 16 -18 20 -20
1 -1 2 -2 2 -2 0 -1 0 -1 1 -1 0 0 3 -1 6 -3 2 -1 7 -4 11 -5 6 -3 8 -3 17 -5
7 -1 48 0 65 1 1 1 6 1 10 1 3 1 8 1 10 1 2 1 6 1 8 2 2 0 6 0 8 1 6 0 12 1
15 2 1 0 5 0 8 0 3 1 6 1 8 1 1 1 5 1 9 2 4 0 8 0 9 1 1 0 11 1 17 2 4 0 13 1
16 2 1 0 5 0 8 1 3 0 7 0 8 0 1 1 5 1 9 2 4 0 8 0 9 0 1 1 5 1 9 1 3 1 8 1 10
2 5 0 13 1 18 2 2 0 6 0 9 1 3 0 7 0 9 0 2 1 7 1 11 1 10 1 21 2 25 3 5 0 17
1 24 2 9 0 12 1 17 3 3 0 5 1 6 1 1 0 2 1 1 1 0 0 2 1 4 3 12 7 18 20 17 33 0
5 -3 14 -4 14 -1 0 -1 0 -1 1 2 1 -8 10 -14 14 -9 5 -15 6 -28 5 -7 0 -14 0
-16 0 -2 -1 -7 -1 -11 -1 -4 -1 -9 -1 -11 -1 -2 -1 -8 -1 -12 -1 -5 -1 -11 -1
-13 -2 -12 -1 -17 -1 -19 -2 -3 0 -12 -1 -17 -1 -4 -1 -11 -2 -19 -3 -1 0 -6
0 -9 0 -4 -1 -9 -1 -10 -1 -1 -1 -5 -1 -8 -1 -6 -1 -12 -2 -16 -2 -1 -1 -5 -1
-8 -1 -3 -1 -7 -1 -8 -1 -2 -1 -12 -2 -17 -2 -7 -1 -16 -2 -17 -2 -1 -1 -5 -1
-8 -1 -4 -1 -8 -1 -9 -1 -1 -1 -4 -1 -7 -2 -3 0 -6 0 -7 0 -1 -1 -5 -1 -9 -1
-4 -1 -8 -1 -9 -2 -1 0 -6 0 -10 -1 -5 0 -10 0 -12 -1 -2 0 -11 0 -19 0 -19
-1 -22 0 -21 5 0 1 0 7 1 12 1 11 1 59 0 70 -2 20 -7 31 -17 41 -4 4 -12 8
-16 9 -5 0 -10 1 -10 0z"/>
</g>
</svg>
