<?xml version="1.0" standalone="no"?>
<!DOCTYPE svg PUBLIC "-//W3C//DTD SVG 20010904//EN"
 "http://www.w3.org/TR/2001/REC-SVG-20010904/DTD/svg10.dtd">
<svg version="1.0" xmlns="http://www.w3.org/2000/svg"
 width="1000.000000pt" height="1000.000000pt" viewBox="0 0 1000.000000 1000.000000"
 preserveAspectRatio="xMidYMid meet">
<metadata>
Created by potrace 1.16, written by Peter Selinger 2001-2019
</metadata>
<g transform="translate(0.000000,1000.000000) scale(1.000000,-1.000000)"
fill="#000000" stroke="none">
<path d="M231 941 c-7 -3 -17 -13 -19 -20 0 0 0 -1 0 -2 -1 -1 -2 -6 -3 -11
l-3 -9 0 -52 c1 -28 1 -53 1 -55 1 -3 1 -7 1 -10 3 -23 8 -35 20 -46 9 -9 23
-14 39 -16 10 -2 42 -1 65 2 2 0 7 0 11 1 5 0 9 0 10 0 1 1 5 1 9 2 4 0 9 0
10 1 9 0 21 1 43 3 6 0 13 0 15 1 2 0 12 0 21 0 8 1 19 1 23 2 4 0 11 0 16 1
8 0 13 0 22 1 2 1 7 1 11 2 5 0 8 0 12 1 3 1 11 6 14 9 4 4 10 12 11 14 0 1 0
1 0 1 1 2 2 18 1 23 -3 9 -10 18 -18 22 -9 5 -18 6 -34 5 -19 -2 -35 -3 -64
-5 -9 0 -18 0 -20 0 -2 -1 -10 -1 -17 -2 -7 0 -14 0 -16 -1 -2 0 -8 0 -14 0
-5 -1 -11 -1 -12 -1 -2 -1 -6 -1 -18 -3 -1 0 -6 0 -10 0 -4 -1 -9 -1 -11 -2
-8 0 -27 -1 -35 -1 l-8 0 -1 3 c0 1 0 19 -1 40 0 44 -1 61 -1 64 -5 20 -12 32
-24 37 -7 3 -19 4 -26 1z"/>
</g>
</svg>
