<?xml version="1.0" standalone="no"?>
<!DOCTYPE svg PUBLIC "-//W3C//DTD SVG 20010904//EN"
 "http://www.w3.org/TR/2001/REC-SVG-20010904/DTD/svg10.dtd">
<svg version="1.0" xmlns="http://www.w3.org/2000/svg"
 width="1000.000000pt" height="1000.000000pt" viewBox="0 0 1000.000000 1000.000000"
 preserveAspectRatio="xMidYMid meet">
<metadata>
Created by potrace 1.16, written by Peter Selinger 2001-2019
</metadata>
<g transform="translate(0.000000,1000.000000) scale(1.000000,-1.000000)"
fill="#000000" stroke="none">
<path d="M605 966 c0 -1 -6 -1 -20 -3 -10 0 -21 -1 -24 -1 -2 -1 -7 -1 -11 -1
-4 -1 -9 -1 -11 -2 -3 0 -7 0 -9 0 -3 -1 -8 -1 -10 -1 -2 -1 -7 -1 -10 -1 -12
-2 -22 -3 -27 -3 -1 -1 -5 -1 -8 -1 -3 -1 -7 -1 -8 -2 -1 0 -5 0 -7 0 -2 -1
-6 -1 -7 -2 -2 0 -4 0 -6 0 -1 -1 -4 -1 -7 -1 -2 -1 -5 -1 -6 -2 -1 0 -4 0 -5
-1 -2 0 -4 0 -6 0 -1 -1 -4 -1 -5 -1 -1 -1 -4 -1 -5 -1 -1 -1 -4 -1 -5 -2 -1
0 -4 0 -6 -1 -3 0 -8 -1 -14 -3 -2 0 -4 0 -5 -1 -7 -1 -29 -7 -32 -9 -6 -3
-16 -10 -24 -17 -3 -3 -8 -7 -11 -9 -7 -6 -13 -17 -14 -27 -1 -5 -2 -9 -4 -17
0 -2 -1 -6 -1 -7 -1 -1 -1 -5 -2 -7 0 -2 -1 -6 -1 -8 -1 -2 -1 -4 -1 -6 -1 -1
-1 -4 -2 -7 0 -3 0 -6 -1 -7 -2 -12 -2 -32 0 -42 3 -13 15 -29 28 -35 3 -1 6
-3 6 -3 1 0 1 0 2 0 0 0 0 0 1 0 0 -1 1 -1 3 -1 13 -5 51 -5 94 -1 4 0 12 0
30 2 5 0 11 0 14 0 21 2 33 2 91 3 35 0 65 0 67 0 1 1 4 1 6 1 6 1 10 2 16 3
6 2 32 12 36 13 5 4 13 12 15 16 4 8 2 15 -6 22 -7 6 -16 10 -32 12 -2 1 -7 2
-11 3 -5 1 -10 2 -12 3 -3 0 -6 0 -7 1 -16 2 -138 2 -168 0 -4 -1 -19 -2 -29
-3 -4 0 -11 0 -15 -1 -16 -1 -17 -1 -35 -2 l-18 0 1 4 c0 2 0 6 0 9 1 4 1 13
1 22 1 9 1 16 2 16 0 0 3 1 7 1 3 1 6 1 8 1 1 1 3 1 5 1 4 1 7 2 11 3 3 0 6 1
10 2 4 0 7 1 10 2 3 0 7 1 11 2 1 0 4 0 5 1 1 0 4 0 5 0 1 1 4 1 6 2 2 0 5 0
6 1 1 0 4 0 6 1 2 0 4 0 6 0 1 1 4 1 7 1 3 1 7 1 8 2 1 0 5 0 8 1 3 0 6 0 8 0
1 1 4 1 8 1 4 1 8 1 10 2 2 0 6 0 10 1 4 0 8 0 9 0 1 1 6 1 10 2 4 0 9 0 11 1
2 0 7 0 11 1 4 0 9 0 11 1 2 0 8 0 12 0 5 1 11 1 13 1 2 1 7 1 9 1 9 1 20 3
21 4 0 0 0 0 1 0 0 1 2 1 3 2 1 0 4 2 7 2 6 3 17 11 21 15 15 15 10 34 -11 44
-4 2 -8 4 -9 4 -1 1 -3 1 -3 1 0 1 -8 3 -11 4 -2 0 -25 1 -25 1z"/>
</g>
</svg>
