<?xml version="1.0" standalone="no"?>
<!DOCTYPE svg PUBLIC "-//W3C//DTD SVG 20010904//EN"
 "http://www.w3.org/TR/2001/REC-SVG-20010904/DTD/svg10.dtd">
<svg version="1.0" xmlns="http://www.w3.org/2000/svg"
 width="1000.000000pt" height="1000.000000pt" viewBox="0 0 1000.000000 1000.000000"
 preserveAspectRatio="xMidYMid meet">
<metadata>
Created by potrace 1.16, written by Peter Selinger 2001-2019
</metadata>
<g transform="translate(0.000000,1000.000000) scale(1.000000,-1.000000)"
fill="#000000" stroke="none">
<path d="M468 781 c0 0 -4 0 -7 0 -9 -1 -18 -2 -21 -3 -1 0 -5 0 -8 -1 -3 0
-6 0 -7 0 -1 -1 -4 -1 -7 -1 -3 -1 -6 -1 -7 -2 -1 0 -4 0 -6 -1 -4 0 -21 -3
-25 -5 -5 -1 -7 -1 -8 -2 -2 0 -6 -1 -11 -3 -5 -1 -9 -2 -10 -2 -4 -1 -28 -9
-65 -21 -22 -7 -40 -13 -42 -14 -6 -1 -20 -5 -24 -8 -8 -4 -16 -14 -18 -23 -1
-5 -1 -15 1 -19 0 -2 1 -4 0 -4 0 -1 0 -1 1 -1 0 0 1 -1 1 -1 0 -1 1 -3 3 -5
l2 -4 1 -34 c0 -18 0 -36 0 -39 1 -14 2 -27 2 -33 1 -4 1 -11 2 -16 1 -14 1
-25 3 -49 0 -13 1 -25 1 -28 1 -1 1 -5 2 -8 0 -7 1 -7 3 -15 1 -3 2 -6 1 -6 0
-1 0 -1 1 -1 1 0 1 0 1 -1 -1 0 7 -16 12 -23 8 -11 24 -27 31 -32 5 -3 17 -9
20 -10 1 0 2 0 2 0 0 0 0 0 1 -1 8 -2 10 -2 14 -3 9 -1 49 0 52 1 0 1 3 1 5 1
2 1 6 1 7 2 1 0 4 0 6 1 1 0 3 0 4 0 1 1 4 1 6 2 2 0 5 0 5 0 0 1 3 1 5 1 2 1
5 1 7 1 1 1 4 1 8 1 8 1 14 2 16 3 2 0 4 0 6 1 3 0 6 0 7 1 1 0 5 0 7 1 10 1
14 2 29 5 6 1 12 2 13 2 7 2 35 10 39 11 2 1 4 2 5 2 0 0 2 2 3 3 2 2 4 3 4 2
1 0 1 0 1 0 -1 1 0 3 2 5 6 7 10 17 9 26 0 5 0 8 -1 10 0 0 0 1 0 1 0 1 0 1
-1 1 -1 0 -1 0 -1 1 1 1 -3 7 -7 11 -4 3 -12 8 -15 9 -1 0 -1 0 -1 0 -1 1 -7
1 -13 1 -7 0 -8 0 -20 -3 -10 -3 -11 -3 -14 -4 -1 0 -4 -1 -6 -1 -4 -1 -6 -2
-11 -2 -4 -1 -7 -2 -10 -2 -4 -1 -6 -2 -11 -2 -2 -1 -5 -1 -7 -1 -1 -1 -4 -1
-7 -2 -3 0 -6 0 -7 0 -1 -1 -4 -1 -6 -1 -3 -1 -7 -1 -8 -1 -1 -1 -5 -1 -8 -1
-3 -1 -7 -1 -8 -2 -1 0 -4 0 -6 0 -2 -1 -5 -1 -6 -2 -1 0 -4 0 -6 -1 -2 0 -4
0 -5 -1 -2 0 -4 0 -6 -1 -2 0 -4 0 -5 -1 -1 0 -3 0 -5 -1 -3 0 -5 0 -6 -1 -4
-1 -26 -1 -30 0 -4 1 -17 16 -19 22 -2 7 -2 8 -5 55 0 6 0 13 -1 16 -1 13 -1
21 -2 29 0 4 0 11 0 15 -2 24 -2 32 -2 57 -1 28 -1 29 4 29 1 1 2 1 3 1 4 2
10 4 10 3 0 0 1 0 1 1 1 0 3 1 4 1 1 1 10 3 19 6 9 4 17 6 17 6 0 0 6 2 14 4
8 3 16 5 17 5 1 1 4 2 8 3 3 1 6 2 6 1 0 0 1 0 2 1 1 0 3 1 5 1 4 1 5 1 12 3
2 0 7 1 9 1 2 1 6 1 8 2 1 0 4 0 5 0 3 1 9 2 15 3 2 0 6 0 8 0 2 1 6 1 10 1 8
1 16 2 18 3 1 0 3 0 4 0 1 1 4 2 7 3 14 8 21 20 21 37 -1 4 -1 8 -2 8 -1 1 -1
2 -1 2 2 0 -3 8 -7 13 -8 8 -18 12 -29 12 -4 0 -7 0 -7 -1z"/>
</g>
</svg>
