<?xml version="1.0" standalone="no"?>
<!DOCTYPE svg PUBLIC "-//W3C//DTD SVG 20010904//EN"
 "http://www.w3.org/TR/2001/REC-SVG-20010904/DTD/svg10.dtd">
<svg version="1.0" xmlns="http://www.w3.org/2000/svg"
 width="1000.000000pt" height="1000.000000pt" viewBox="0 0 1000.000000 1000.000000"
 preserveAspectRatio="xMidYMid meet">
<metadata>
Created by potrace 1.16, written by Peter Selinger 2001-2019
</metadata>
<g transform="translate(0.000000,1000.000000) scale(1.000000,-1.000000)"
fill="#000000" stroke="none">
<path d="M470 958 c0 0 -6 0 -13 0 -8 -1 -15 -1 -17 -1 -2 -1 -9 -1 -15 -1
-20 -2 -35 -3 -42 -3 -2 -1 -7 -1 -10 -1 -4 -1 -9 -1 -10 -1 -1 -1 -5 -1 -8
-1 -3 -1 -7 -1 -8 -1 -1 -1 -4 -1 -7 -1 -3 -1 -7 -1 -8 -1 -1 -1 -3 -1 -6 -1
-7 -1 -11 -2 -13 -3 -2 0 -4 0 -6 -1 -2 0 -4 0 -5 -1 -2 0 -4 0 -6 -1 -2 0 -4
0 -5 -1 -2 0 -4 0 -5 -1 -2 0 -6 -1 -8 -1 -7 -2 -8 -2 -12 -3 -2 0 -4 0 -4 -1
0 0 -2 0 -4 0 -2 -1 -4 -1 -5 -2 -2 0 -5 -1 -10 -2 -7 -1 -32 -8 -36 -11 -11
-6 -20 -19 -22 -31 0 -3 -2 -7 -3 -10 -1 -2 -2 -5 -2 -6 -1 -2 -1 -3 -1 -4 -1
0 -1 -3 -1 -5 -1 -2 -1 -6 -1 -7 -1 -4 -2 -33 -2 -62 -1 -20 0 -30 1 -34 0 -4
1 -6 1 -6 -1 0 2 -8 4 -12 3 -7 9 -14 16 -21 2 -1 13 -7 13 -6 0 0 1 0 1 -1 1
-1 10 -3 17 -4 1 -1 4 -1 5 -2 6 -1 21 -1 38 -1 16 0 24 0 40 1 2 1 9 1 16 1
6 1 14 1 17 1 14 1 24 2 36 3 28 1 33 1 40 2 6 0 8 0 22 1 14 2 28 3 35 5 3 0
10 1 15 2 5 0 11 1 14 1 1 1 4 1 6 2 2 0 5 0 7 1 1 0 3 0 4 1 7 1 22 6 29 10
17 10 24 24 19 38 -4 10 -15 18 -32 22 -11 3 -39 3 -53 1 -1 -1 -4 -1 -7 -1
-3 -1 -7 -1 -8 -2 -12 -1 -22 -2 -46 -5 -4 0 -9 0 -11 -1 -3 0 -11 0 -40 -2
-9 0 -21 -1 -35 -2 -3 0 -11 0 -17 -1 -7 0 -14 0 -16 -1 -2 0 -7 0 -12 -1 -5
0 -9 0 -10 -1 -1 0 -4 0 -7 -1 -3 0 -6 0 -7 0 -2 -1 -12 -2 -17 -3 -3 0 -3 1
-3 4 0 6 -2 28 -3 36 0 2 0 6 -1 10 0 4 0 8 -1 10 0 1 0 5 -1 7 0 3 0 6 -1 6
0 1 3 3 5 3 0 0 4 0 9 2 1 0 4 0 5 1 5 1 7 1 9 1 1 1 3 1 5 2 2 0 4 0 4 0 0 1
2 1 4 1 5 1 9 2 17 4 2 0 6 1 8 1 2 1 4 1 6 1 1 1 3 1 5 1 2 1 4 1 6 1 1 1 4
1 6 1 2 1 5 1 7 1 1 1 4 1 7 1 3 1 6 1 7 1 1 1 4 1 7 1 3 1 7 1 8 1 3 1 10 2
31 3 3 1 10 1 16 2 5 0 12 0 15 0 3 1 10 1 15 2 5 0 12 0 16 1 3 0 12 0 19 0
16 1 22 2 26 3 1 1 2 1 2 1 0 -2 15 7 18 11 7 7 9 14 9 24 0 9 0 10 -3 16 -2
5 -9 13 -10 12 -1 0 -1 0 -1 1 0 1 -9 5 -16 7 -4 2 -9 2 -20 2 -8 0 -15 0 -15
-1z"/>
</g>
</svg>
