<?xml version="1.0" standalone="no"?>
<!DOCTYPE svg PUBLIC "-//W3C//DTD SVG 20010904//EN"
 "http://www.w3.org/TR/2001/REC-SVG-20010904/DTD/svg10.dtd">
<svg version="1.0" xmlns="http://www.w3.org/2000/svg"
 width="1000.000000pt" height="1000.000000pt" viewBox="0 0 1000.000000 1000.000000"
 preserveAspectRatio="xMidYMid meet">
<metadata>
Created by potrace 1.16, written by Peter Selinger 2001-2019
</metadata>
<g transform="translate(0.000000,1000.000000) scale(1.000000,-1.000000)"
fill="#000000" stroke="none">
<path d="M634 735 c0 0 -5 0 -11 0 -6 -1 -11 -1 -12 -1 -2 -1 -5 -1 -7 -1 -2
-1 -6 -1 -7 -2 -1 0 -4 0 -6 -1 -2 0 -7 -1 -10 -2 -4 0 -9 -1 -11 -2 -2 0 -6
-1 -8 -1 -7 -2 -9 -2 -16 -4 -2 0 -6 -1 -8 -1 -7 -2 -8 -2 -12 -3 -2 0 -4 0
-4 -1 0 0 -2 0 -4 0 -1 -1 -4 -1 -5 -1 -1 -1 -4 -1 -5 -1 -1 -1 -4 -1 -5 -1
-1 -1 -4 -1 -5 -1 -1 -1 -4 -1 -5 -2 -1 0 -4 0 -6 -1 -2 0 -6 -1 -8 -1 -6 -2
-7 -2 -11 -2 -2 -1 -6 -1 -9 -2 -2 -1 -6 -1 -7 -2 -1 0 -5 -1 -7 -1 -5 -1 -8
-2 -11 -3 -7 -1 -7 -1 -14 -3 -1 0 -4 0 -5 -1 -2 0 -6 -1 -10 -2 -4 0 -7 -1
-8 -2 -2 0 -10 -2 -19 -4 l-17 -4 -6 5 c-3 3 -6 5 -7 5 0 0 -1 1 -1 1 0 1 0 1
-1 1 0 -1 -1 0 -2 0 -4 2 -12 3 -18 2 -9 -2 -18 -9 -23 -17 -1 -2 -3 -5 -3 -5
0 0 0 -2 -1 -3 -1 -2 -1 -8 -1 -15 0 -12 0 -16 2 -26 0 -3 1 -8 1 -10 1 -2 1
-6 1 -7 1 -1 1 -6 2 -9 0 -4 0 -8 1 -9 2 -12 2 -93 -1 -112 -1 -9 -1 -32 -1
-52 0 -20 0 -29 1 -42 1 -2 1 -6 2 -10 0 -4 0 -7 1 -8 1 -7 1 -9 3 -13 5 -18
14 -28 29 -34 9 -3 21 -3 40 0 11 1 15 2 21 3 2 0 5 1 7 1 5 1 6 2 11 3 2 0 5
1 6 1 1 1 4 1 7 2 2 0 5 1 6 1 1 1 4 1 7 2 2 0 5 1 6 1 2 1 4 1 5 1 1 1 3 1 4
1 1 1 3 1 5 1 9 3 15 4 18 4 1 1 4 1 5 2 1 0 4 0 5 1 1 0 4 0 5 1 1 0 4 0 5 1
1 0 4 0 5 0 1 1 4 1 5 2 3 0 6 1 10 1 1 1 4 1 6 2 3 0 6 0 12 2 6 0 9 1 13 2
2 0 6 0 7 1 7 1 17 2 25 3 4 0 8 0 11 1 5 0 11 1 15 2 2 0 6 0 9 1 3 0 7 0 8
0 1 1 5 1 9 2 4 0 8 0 9 0 1 1 6 1 10 2 5 0 9 0 10 0 1 1 6 1 11 1 19 2 37 4
42 5 3 0 11 4 15 7 2 1 4 2 4 2 1 0 1 0 1 1 -1 0 1 2 2 5 6 6 8 12 7 23 0 7 0
9 -2 14 -4 7 -11 15 -18 18 -2 1 -5 3 -5 3 -8 1 -14 2 -25 1 -5 -1 -10 -1 -12
-1 -3 -1 -8 -1 -13 -2 -9 0 -10 0 -21 -1 -4 -1 -10 -1 -12 -2 -2 0 -6 0 -8 -1
-2 0 -6 0 -9 -1 -3 0 -7 0 -9 0 -5 -1 -11 -2 -17 -3 -3 0 -7 0 -8 -1 -1 0 -5
0 -8 0 -13 -2 -24 -3 -27 -4 -1 0 -4 0 -7 0 -5 -1 -7 -1 -14 -2 -1 -1 -4 -1
-7 -1 -2 -1 -5 -1 -6 -2 -1 0 -4 0 -5 0 -1 -1 -4 -1 -5 -1 -2 -1 -5 -1 -6 -1
-1 -1 -4 -1 -5 -1 -1 -1 -4 -1 -5 -2 -1 0 -4 0 -6 -1 -2 0 -6 -1 -8 -1 -6 -1
-8 -2 -11 -3 -5 0 -8 -1 -10 -2 -1 0 -4 0 -5 -1 -1 0 -3 0 -4 -1 -1 0 -3 0 -5
-1 -1 0 -4 -1 -6 -1 -5 -1 -7 -2 -11 -3 -1 0 -3 0 -4 -1 -1 0 -3 0 -5 -1 -1 0
-4 -1 -6 -1 -3 -1 -5 -1 -6 -2 -1 0 -6 -1 -12 -2 -15 -3 -15 -3 -15 -1 -2 7
-2 59 0 75 3 20 3 93 0 123 l0 7 4 1 c10 3 28 7 31 7 2 1 4 1 4 1 0 1 2 1 4 1
2 1 5 1 7 2 2 0 3 1 4 1 0 0 2 0 5 1 6 1 9 2 13 3 3 0 5 1 11 2 2 0 6 1 7 1 2
1 4 1 5 1 1 1 3 1 5 1 2 1 5 1 6 1 1 1 4 1 5 2 1 0 4 0 5 1 1 0 4 0 6 1 1 0 3
0 4 1 1 0 3 0 5 0 1 1 4 1 5 2 1 0 4 0 5 1 1 0 4 0 5 1 1 0 4 0 5 1 5 1 7 1 9
1 1 1 3 1 5 1 1 1 3 1 5 1 7 2 16 4 19 4 1 1 4 1 5 2 1 0 4 0 5 1 1 0 4 0 5 0
2 1 6 2 11 3 1 0 3 0 4 0 1 1 3 1 5 1 2 1 5 1 6 1 9 2 8 2 31 3 9 1 11 1 18 5
8 4 15 11 19 19 2 5 2 7 2 14 0 6 0 9 -1 12 0 0 0 1 0 1 0 1 0 1 -1 1 -1 0 -1
0 0 1 0 1 0 1 -1 1 -1 0 -1 0 0 1 0 1 0 1 -1 1 -1 0 -1 0 -1 1 0 2 -6 8 -11
11 -5 4 -12 7 -17 8 -6 0 -13 1 -13 0z"/>
</g>
</svg>
