<?xml version="1.0" standalone="no"?>
<!DOCTYPE svg PUBLIC "-//W3C//DTD SVG 20010904//EN"
 "http://www.w3.org/TR/2001/REC-SVG-20010904/DTD/svg10.dtd">
<svg version="1.0" xmlns="http://www.w3.org/2000/svg"
 width="1000.000000pt" height="1000.000000pt" viewBox="0 0 1000.000000 1000.000000"
 preserveAspectRatio="xMidYMid meet">
<metadata>
Created by potrace 1.16, written by Peter Selinger 2001-2019
</metadata>
<g transform="translate(0.000000,1000.000000) scale(1.000000,-1.000000)"
fill="#000000" stroke="none">
<path d="M461 889 c0 0 -3 0 -6 0 -4 -1 -7 -1 -8 -1 -2 -1 -5 -1 -7 -1 -3 -1
-7 -1 -8 -2 -2 0 -4 0 -6 0 -1 -1 -5 -1 -7 -2 -3 0 -6 0 -7 -1 -2 0 -4 0 -6
-1 -5 0 -8 -1 -12 -1 -1 -1 -4 -1 -6 -2 -3 0 -5 0 -6 -1 -1 0 -3 0 -4 0 -2 -1
-5 -1 -6 -1 -1 -1 -4 -1 -5 -2 -2 0 -5 -1 -7 -1 -5 -1 -7 -2 -11 -3 -1 0 -3 0
-4 -1 -1 0 -3 0 -4 -1 -1 0 -3 0 -4 0 -1 -1 -3 -1 -4 -1 -2 -1 -4 -2 -9 -3 -1
0 -5 -1 -8 -2 -7 -2 -9 -2 -12 -3 -1 0 -3 -1 -4 -1 -1 -1 -2 -1 -2 -1 0 1 -3
0 -8 -2 -4 -1 -9 -2 -10 -3 -4 0 -42 -14 -57 -20 -21 -8 -31 -12 -34 -13 -23
-4 -38 -19 -37 -39 0 -4 0 -8 -1 -9 -4 -13 -5 -38 -2 -68 1 -4 2 -20 3 -36 0
-9 0 -18 2 -32 0 -4 0 -10 0 -14 1 -4 1 -11 2 -16 0 -5 0 -11 0 -14 1 -10 2
-22 4 -41 1 -17 2 -24 4 -35 3 -12 2 -11 7 -22 7 -18 23 -32 44 -38 11 -3 19
-4 34 -4 11 0 18 0 29 2 4 1 19 5 27 8 5 1 9 2 10 2 0 1 3 1 5 2 2 1 5 1 6 2
1 0 6 1 11 2 5 2 10 3 10 3 0 0 1 0 3 0 1 1 3 1 5 1 1 1 4 1 6 2 2 0 6 1 8 1
1 1 4 1 5 1 1 1 4 1 6 2 3 0 6 0 7 1 8 1 19 2 37 3 16 2 19 2 21 2 1 1 4 1 7
1 2 1 5 1 6 2 1 0 4 0 5 1 9 1 35 12 36 14 1 1 2 1 2 0 1 0 1 0 1 0 -1 1 1 3
3 5 6 6 9 14 9 20 0 8 -2 12 -9 19 -8 8 -15 11 -29 12 -2 1 -7 1 -11 2 -8 1
-24 1 -34 0 -4 -1 -10 -1 -12 -2 -19 -1 -23 -2 -30 -3 -3 0 -7 0 -8 -1 -1 0
-5 0 -7 0 -7 -1 -13 -2 -18 -3 -1 -1 -4 -1 -5 -1 -1 -1 -4 -1 -5 -1 -1 -1 -4
-1 -5 -2 -2 0 -5 -1 -7 -1 -3 -1 -6 -1 -7 -2 -1 0 -6 -1 -10 -2 -11 -3 -11 -3
-14 -4 -1 0 -3 -1 -4 -1 -1 -1 -2 -1 -2 -1 0 1 -2 0 -3 0 -2 -1 -4 -2 -4 -1 0
0 -2 -1 -4 -2 -3 0 -5 -1 -6 -2 -1 0 -6 -1 -12 -3 -10 -2 -16 -3 -26 -2 -2 0
-3 0 -3 3 -1 2 -1 5 -1 6 -1 1 -1 5 -2 8 0 4 0 9 -1 11 0 2 0 8 0 12 -1 13 -2
23 -2 28 -1 5 -2 18 -3 31 0 4 0 10 -1 14 0 9 -1 18 -1 33 -1 17 -2 28 -4 47
-1 12 -1 18 -1 20 -1 1 -1 3 -1 6 l-1 4 19 7 c20 8 51 19 53 20 1 0 2 0 2 0 0
0 0 0 1 0 0 1 5 2 9 3 5 2 10 3 10 3 1 1 4 1 6 2 2 1 5 1 6 2 3 0 3 0 9 2 2 0
5 1 6 1 2 1 4 1 9 3 1 0 3 0 4 1 1 0 3 0 4 0 1 1 3 1 6 2 2 0 5 1 6 1 1 1 4 1
7 2 2 0 5 1 7 1 1 1 3 1 5 1 1 1 3 1 5 1 2 1 4 1 6 1 1 1 3 1 5 1 2 1 4 1 6 1
1 1 4 1 6 1 2 1 5 1 7 1 1 1 4 1 7 1 5 1 10 2 13 3 1 0 5 0 8 1 3 0 6 0 7 1 1
0 5 0 9 1 11 1 14 1 20 5 18 9 26 32 16 50 -7 14 -19 21 -36 21 -4 0 -8 0 -8
-1z"/>
</g>
</svg>
