<?xml version="1.0" standalone="no"?>
<!DOCTYPE svg PUBLIC "-//W3C//DTD SVG 20010904//EN"
 "http://www.w3.org/TR/2001/REC-SVG-20010904/DTD/svg10.dtd">
<svg version="1.0" xmlns="http://www.w3.org/2000/svg"
 width="1000.000000pt" height="1000.000000pt" viewBox="0 0 1000.000000 1000.000000"
 preserveAspectRatio="xMidYMid meet">
<metadata>
Created by potrace 1.16, written by Peter Selinger 2001-2019
</metadata>
<g transform="translate(0.000000,1000.000000) scale(1.000000,-1.000000)"
fill="#000000" stroke="none">
<path d="M656 881 c0 0 -7 0 -14 0 -21 -1 -42 -3 -46 -4 -1 0 -5 0 -8 0 -14
-2 -27 -3 -29 -4 -1 0 -4 0 -7 0 -3 -1 -7 -1 -8 -2 -1 0 -4 0 -7 0 -2 -1 -5
-1 -6 -2 -1 0 -5 0 -7 -1 -2 0 -5 0 -6 -1 -2 0 -4 0 -6 0 -2 -1 -5 -1 -6 -2
-1 0 -4 0 -6 -1 -2 0 -4 0 -5 -1 -1 0 -3 0 -5 -1 -3 0 -5 0 -6 -1 -1 0 -3 0
-4 0 -2 -1 -5 -1 -6 -1 -1 -1 -4 -1 -5 -1 -1 -1 -4 -1 -5 -1 -1 -1 -4 -1 -5
-2 -3 0 -8 -1 -14 -3 -2 0 -4 0 -5 -1 -1 0 -3 0 -4 -1 -1 0 -3 0 -4 -1 -2 0
-9 -1 -15 -3 -6 -2 -11 -3 -12 -3 -1 -1 -4 -2 -7 -2 -2 -1 -5 -2 -5 -2 -3 0
-19 -7 -23 -9 -2 -1 -10 -6 -16 -10 -6 -5 -14 -10 -17 -12 -3 -3 -6 -5 -5 -5
0 -1 0 -1 -1 -1 -1 1 -4 -3 -9 -10 -4 -6 -6 -15 -7 -30 -1 -3 -1 -22 -2 -43 0
-40 0 -45 -2 -71 -1 -31 0 -74 1 -85 1 -2 2 -7 3 -13 1 -7 6 -28 10 -39 7 -25
19 -42 36 -54 4 -3 19 -11 19 -10 0 0 1 0 1 -1 2 -1 11 -4 18 -5 6 -1 28 -1
42 0 6 1 12 1 15 2 6 0 17 1 20 1 1 1 5 1 9 1 4 1 7 1 9 1 1 1 4 1 8 1 6 1 6
1 20 3 8 2 10 2 19 4 5 1 10 2 11 3 1 0 3 0 4 0 1 1 3 1 4 1 4 1 6 2 11 3 2 0
5 1 6 1 2 1 4 1 5 1 1 1 3 1 4 1 1 1 8 2 14 3 6 2 13 3 14 4 1 0 4 0 5 0 14 3
18 4 21 4 2 1 5 1 6 2 3 0 12 1 18 2 15 3 19 3 37 3 39 2 51 5 61 14 11 12 13
29 3 43 -8 9 -22 16 -41 19 -10 1 -49 0 -58 -1 -1 -1 -4 -1 -6 -1 -8 -1 -12
-2 -15 -2 -1 -1 -4 -1 -6 -1 -2 -1 -5 -1 -6 -1 -1 -1 -4 -1 -6 -1 -2 -1 -5 -1
-6 -2 -1 0 -4 0 -5 0 -1 -1 -4 -1 -5 -1 -1 -1 -4 -1 -5 -1 -1 -1 -4 -1 -5 -1
-1 -1 -4 -1 -5 -2 -2 0 -4 0 -5 -1 -2 0 -5 -1 -9 -2 -2 0 -5 -1 -7 -1 -3 -1
-6 -1 -7 -2 -1 0 -3 0 -4 -1 -2 0 -5 -1 -9 -2 -1 0 -4 -1 -6 -1 -3 -1 -6 -1
-7 -2 -1 0 -3 0 -4 -1 -2 0 -3 0 -13 -2 -8 -2 -20 -4 -29 -5 -2 -1 -6 -1 -7
-2 -1 0 -5 0 -9 0 -4 -1 -8 -1 -9 -1 -1 -1 -6 -1 -10 -1 -4 -1 -10 -1 -12 -2
-34 -3 -42 -2 -46 3 -3 3 -7 16 -10 25 0 1 0 3 0 4 -1 1 -1 3 -2 4 0 1 0 3 -1
4 0 1 0 4 -1 6 0 2 0 5 -1 6 -2 12 -2 41 -1 71 1 9 1 21 2 26 0 4 0 25 0 46 1
37 2 48 3 49 0 1 2 1 5 1 2 1 8 2 14 3 6 2 12 3 13 3 1 1 7 2 13 3 5 2 11 3
12 3 1 1 4 1 7 2 2 0 5 1 7 1 1 1 3 1 5 1 7 2 16 4 19 4 1 1 3 1 5 1 1 1 3 1
5 1 2 1 4 1 6 1 1 1 3 1 5 1 2 1 5 1 6 1 1 1 4 1 5 1 3 1 6 2 13 2 2 1 5 1 6
2 1 0 4 0 6 1 3 0 6 0 7 1 1 0 5 0 7 1 2 0 6 0 7 0 1 1 5 1 8 1 3 1 7 1 9 2 2
0 6 0 10 1 4 0 8 0 10 0 8 2 21 2 44 4 14 0 24 1 27 2 6 1 7 1 10 2 2 1 3 2 3
1 0 0 0 0 1 1 0 0 2 2 4 3 2 1 4 3 5 4 1 1 3 2 3 1 1 0 1 0 1 0 -1 1 1 3 3 5
12 15 11 32 -3 44 -11 10 -21 14 -35 14 -5 0 -9 0 -9 -1z"/>
</g>
</svg>
