<?xml version="1.0" standalone="no"?>
<!DOCTYPE svg PUBLIC "-//W3C//DTD SVG 20010904//EN"
 "http://www.w3.org/TR/2001/REC-SVG-20010904/DTD/svg10.dtd">
<svg version="1.0" xmlns="http://www.w3.org/2000/svg"
 width="1000.000000pt" height="1000.000000pt" viewBox="0 0 1000.000000 1000.000000"
 preserveAspectRatio="xMidYMid meet">
<metadata>
Created by potrace 1.16, written by Peter Selinger 2001-2019
</metadata>
<g transform="translate(0.000000,1000.000000) scale(1.000000,-1.000000)"
fill="#000000" stroke="none">
<path d="M278 839 c-1 -1 -7 -2 -14 -3 -2 0 -6 0 -8 0 -2 -1 -6 -1 -8 -2 -3 0
-6 0 -7 -1 -2 0 -5 0 -7 -1 -2 0 -5 0 -5 -1 0 0 -2 0 -4 -1 -20 -3 -53 -16
-67 -25 -7 -5 -16 -14 -19 -21 -1 -2 -4 -7 -6 -9 -6 -8 -12 -23 -13 -31 -1 -2
-1 -5 -1 -6 -2 -6 -2 -8 -3 -12 0 -2 0 -6 0 -7 -1 -7 -3 -19 -4 -31 0 -5 0
-11 0 -13 -2 -19 -2 -29 -2 -42 0 -15 1 -37 1 -43 1 -7 2 -11 4 -20 1 -5 2
-10 3 -11 0 -1 1 -7 3 -12 11 -33 27 -52 49 -61 15 -5 32 -6 72 -3 7 1 31 2
43 2 7 1 16 1 21 1 5 1 11 1 14 1 7 1 17 2 21 3 1 0 3 0 4 1 1 0 3 0 5 0 3 1
11 3 17 5 4 1 7 2 7 2 1 0 1 0 1 1 0 1 0 1 1 1 1 -1 1 -1 1 0 0 0 1 1 2 1 1 1
3 3 5 4 2 2 4 4 5 3 0 0 0 0 0 1 -1 0 0 2 2 3 2 3 2 3 6 2 2 -1 5 -1 6 -2 19
-4 24 -5 69 -4 35 0 48 0 52 2 1 0 3 0 4 0 5 1 14 6 20 10 9 7 14 17 15 28 0
11 -4 21 -10 27 -4 4 -8 7 -8 6 0 0 -1 1 -2 1 -7 4 -20 5 -32 2 -4 -1 -71 -1
-77 0 -14 2 -21 4 -22 7 -1 3 -2 6 -2 6 0 0 0 2 -1 4 -1 1 -1 3 -2 4 0 1 -2 9
-4 18 -2 8 -4 17 -4 19 -1 2 -1 5 -1 6 -1 3 -2 8 -2 15 -1 2 -1 7 -2 10 0 5
-1 60 0 68 0 6 0 6 6 8 1 0 5 1 10 2 4 1 8 2 9 3 1 0 3 0 4 0 1 1 3 1 5 1 4 1
8 2 11 2 1 1 5 1 8 2 3 0 6 0 8 1 2 0 16 1 31 1 7 1 14 1 15 1 15 4 27 14 30
27 1 4 0 15 -1 17 -1 1 -1 2 0 2 0 0 0 1 -1 2 -1 1 -1 1 -1 1 0 1 -3 7 -3 7
-1 0 -1 1 -1 1 0 2 -9 10 -13 12 -4 2 -12 5 -18 6 -4 0 -29 0 -35 0 -2 -1 -7
-1 -10 -2 -4 0 -7 0 -8 -1 -1 0 -4 0 -7 0 -3 -1 -6 -1 -7 -2 -2 0 -4 0 -6 -1
-2 0 -4 0 -5 -1 -2 0 -4 0 -5 -1 -8 -1 -43 -10 -47 -12 -4 -2 -11 -6 -16 -11
-2 -2 -5 -4 -7 -5 -6 -3 -16 -14 -17 -19 0 -1 0 -2 0 -2 0 0 0 0 0 -1 -1 -1
-1 -1 -1 -1 -1 -2 -2 -10 -4 -24 -1 -11 -1 -75 0 -85 2 -20 3 -29 5 -39 1 -1
1 -4 1 -5 1 -5 9 -36 11 -43 1 -4 2 -8 2 -9 1 0 1 -1 1 -2 1 -1 1 -4 0 -4 0 0
-1 0 -2 -1 -7 -1 -12 -2 -20 -3 -4 0 -11 0 -16 -1 -5 0 -15 0 -21 -1 -11 0
-32 -1 -42 -2 -19 -1 -33 -1 -37 -1 -2 0 -5 7 -7 17 -3 8 -3 10 -5 17 0 2 0 4
-1 5 -2 11 -2 53 1 74 0 2 0 7 0 12 1 8 2 20 3 22 0 4 1 20 1 28 0 5 1 9 1 9
0 1 2 1 3 1 1 1 7 2 13 4 5 1 15 4 22 6 6 2 14 4 16 4 2 1 6 1 7 1 1 1 5 1 8
1 2 1 6 1 8 2 1 0 5 0 8 0 7 1 10 2 17 4 3 0 6 1 7 1 1 0 2 1 1 1 0 1 7 4 9 4
0 0 0 0 0 0 0 1 1 3 4 6 12 11 15 27 7 42 -6 12 -19 20 -36 20 -5 0 -9 0 -9 0z"/>
</g>
</svg>
