<?xml version="1.0" standalone="no"?>
<!DOCTYPE svg PUBLIC "-//W3C//DTD SVG 20010904//EN"
 "http://www.w3.org/TR/2001/REC-SVG-20010904/DTD/svg10.dtd">
<svg version="1.0" xmlns="http://www.w3.org/2000/svg"
 width="1000.000000pt" height="1000.000000pt" viewBox="0 0 1000.000000 1000.000000"
 preserveAspectRatio="xMidYMid meet">
<metadata>
Created by potrace 1.16, written by Peter Selinger 2001-2019
</metadata>
<g transform="translate(0.000000,1000.000000) scale(1.000000,-1.000000)"
fill="#000000" stroke="none">
<path d="M626 749 c0 0 -4 0 -8 0 -4 -1 -8 -1 -9 -1 -2 -1 -5 -1 -7 -1 -3 -1
-6 -1 -7 -1 -1 -1 -3 -1 -5 -1 -2 -1 -5 -1 -6 -2 -1 0 -4 0 -5 -1 -1 0 -10 -3
-19 -6 -19 -6 -20 -6 -21 -5 -1 2 -7 5 -10 6 -9 3 -19 1 -26 -4 l-4 -3 -5 4
c-9 5 -20 7 -34 6 -12 -2 -13 -2 -24 -2 -21 -2 -25 -2 -41 -3 -13 -2 -19 -2
-26 -3 -1 -1 -4 -1 -7 -1 -2 -1 -5 -1 -6 -1 -1 -1 -4 -1 -6 -2 -3 0 -5 0 -6
-1 -2 0 -5 -1 -9 -2 -2 0 -8 -1 -13 -3 -5 -1 -10 -2 -11 -2 -39 -10 -73 -30
-78 -48 -2 -8 -1 -18 5 -25 2 -4 3 -5 2 -7 0 -1 -1 -2 -1 -2 0 -1 0 -3 -1 -5
-2 -6 -2 -11 -3 -34 0 -30 -1 -37 -2 -52 -1 -25 -1 -49 2 -60 1 -6 5 -19 8
-24 6 -11 27 -29 44 -38 5 -3 21 -10 25 -10 1 -1 4 -1 7 -2 6 -2 12 -2 22 -3
12 -2 45 -1 56 2 2 0 4 0 6 1 2 0 5 0 6 1 1 0 4 0 5 1 2 0 4 0 6 0 1 1 4 1 5
1 17 4 20 4 27 6 2 0 4 0 5 1 2 0 4 0 6 1 2 0 4 0 5 1 2 0 5 0 7 1 2 0 5 0 6
1 8 1 13 1 14 0 11 -10 24 -20 36 -26 9 -5 27 -11 33 -12 1 -1 4 -1 5 -1 11
-3 47 -3 61 -1 1 1 4 1 7 2 2 0 5 0 5 1 0 0 3 0 5 0 5 1 7 2 10 3 1 0 3 0 4 1
1 0 3 0 4 1 1 0 3 0 4 0 1 1 5 2 10 3 4 1 8 2 9 3 1 0 5 1 10 2 4 1 8 2 9 3 1
0 3 0 4 0 1 1 3 1 5 1 1 1 3 1 5 1 2 1 10 2 16 2 12 2 16 2 22 4 4 1 8 2 9 2
1 0 2 1 2 1 -1 0 1 2 4 4 3 2 7 5 8 6 3 4 8 12 9 16 1 6 0 16 -2 19 -1 0 -1 1
-1 1 2 0 -4 9 -8 12 -5 5 -14 9 -23 10 -7 2 -29 2 -35 1 -1 -1 -4 -1 -6 -1 -8
-1 -13 -2 -19 -4 -4 0 -7 -1 -8 -1 -1 -1 -5 -2 -9 -3 -5 -1 -9 -2 -10 -3 -1 0
-3 0 -4 0 -1 -1 -4 -2 -7 -2 -7 -2 -9 -3 -12 -3 -1 -1 -3 -1 -4 -2 -2 0 -3 0
-9 -2 -5 -1 -12 -2 -18 -3 -7 0 -27 -1 -31 0 -7 1 -8 2 -14 4 -10 5 -15 9 -18
15 -2 3 -5 8 -7 10 -6 6 -6 7 -8 21 -1 11 0 43 1 51 1 1 1 4 2 8 0 4 0 7 1 8
0 1 0 4 0 7 1 3 1 6 2 7 0 2 0 5 1 7 0 2 0 5 1 7 0 1 0 4 1 6 0 2 0 5 1 6 0 2
0 4 1 6 0 2 0 5 1 6 0 1 0 4 1 6 0 2 0 4 1 5 0 1 0 3 1 6 0 2 0 5 1 6 0 1 0 6
1 12 0 5 1 10 1 10 1 2 77 0 91 -1 3 -1 8 -1 11 -2 7 0 18 -2 22 -3 13 -2 28
-2 39 0 7 2 16 7 21 12 6 6 8 13 8 23 0 4 0 8 0 10 -1 1 -1 2 -1 2 -2 5 -11
15 -17 17 -1 1 -3 2 -3 2 0 0 -1 1 -1 1 -1 0 -5 1 -9 3 -4 1 -8 2 -9 3 -1 0
-3 0 -4 1 -2 0 -4 0 -12 2 -2 0 -4 0 -5 1 -1 0 -5 0 -8 1 -3 0 -6 0 -7 1 -2 0
-46 1 -46 0z m-148 -88 c0 -3 -1 -6 -1 -8 -1 -2 -1 -5 -1 -6 -1 -1 -1 -4 -1
-5 -1 -1 -1 -4 -1 -5 -1 -2 -1 -5 -1 -6 -1 -3 -2 -7 -2 -12 -1 -2 -1 -4 -1 -6
-1 -1 -1 -4 -1 -6 -1 -2 -1 -5 -1 -6 -1 -2 -1 -5 -1 -8 -1 -3 -1 -7 -1 -8 -1
-1 -1 -4 -2 -8 0 -4 0 -8 -1 -9 -1 -15 -2 -54 -1 -63 1 -2 0 -4 0 -4 0 0 -1 0
-2 0 -1 -1 -3 -1 -5 -1 -2 -1 -4 -1 -6 -1 -1 -1 -3 -1 -5 -1 -2 -1 -4 -1 -6
-1 -1 -1 -3 -1 -5 -1 -2 -1 -5 -1 -6 -1 -1 -1 -4 -1 -5 -1 -1 -1 -4 -1 -5 -2
-1 0 -4 0 -6 -1 -2 0 -4 0 -5 -1 -1 0 -3 0 -5 0 -2 -1 -5 -1 -6 -2 -6 -1 -8
-1 -13 -2 -8 -1 -35 -1 -40 0 -9 2 -11 2 -16 5 -4 2 -8 4 -9 5 -2 2 -5 4 -6 5
-2 2 -2 2 -2 15 0 7 0 18 0 24 2 17 2 44 2 66 0 19 0 24 -2 32 0 2 1 2 6 3 1
1 3 1 4 2 2 0 3 1 3 0 0 0 1 0 2 1 1 0 3 1 4 1 1 1 7 2 12 3 5 2 11 3 13 3 1
1 4 1 5 2 4 0 7 1 11 2 3 0 5 0 6 1 2 0 5 0 7 1 2 0 6 0 8 0 1 1 6 1 10 2 3 0
9 0 11 1 2 0 8 0 13 0 29 2 27 2 40 4 8 0 12 1 13 2 1 1 2 -2 1 -5z"/>
</g>
</svg>
