<?xml version="1.0" standalone="no"?>
<!DOCTYPE svg PUBLIC "-//W3C//DTD SVG 20010904//EN"
 "http://www.w3.org/TR/2001/REC-SVG-20010904/DTD/svg10.dtd">
<svg version="1.0" xmlns="http://www.w3.org/2000/svg"
 width="1000.000000pt" height="1000.000000pt" viewBox="0 0 1000.000000 1000.000000"
 preserveAspectRatio="xMidYMid meet">
<metadata>
Created by potrace 1.16, written by Peter Selinger 2001-2019
</metadata>
<g transform="translate(0.000000,1000.000000) scale(1.000000,-1.000000)"
fill="#000000" stroke="none">
<path d="M426 940 c0 0 -5 0 -11 0 -6 -1 -12 -1 -14 -1 -2 -1 -7 -1 -11 -1 -5
-1 -11 -1 -13 -1 -2 -1 -9 -1 -14 -2 -6 0 -12 0 -13 -1 -6 -1 -8 -1 -9 -2 -1
0 -2 -1 -3 -1 -1 0 -4 -1 -7 -3 -6 -4 -13 -12 -16 -18 -1 -3 -3 -4 -5 -5 -2
-1 -4 -2 -4 -2 0 -2 -3 -2 -3 0 0 6 -3 13 -7 17 -5 5 -19 14 -25 16 -7 3 -22
3 -36 1 -1 -1 -3 -1 -5 -1 -2 -1 -5 -1 -6 -1 -1 -1 -4 -1 -6 -2 -2 0 -4 0 -4
-1 0 0 -2 0 -4 -1 -2 0 -5 -1 -7 -1 -5 -2 -6 -2 -9 -2 -1 -1 -1 -1 -1 -1 0 0
-2 0 -3 -1 -4 0 -26 -10 -32 -14 -6 -4 -20 -19 -24 -25 -1 -3 -2 -7 -2 -10 -1
-3 -2 -6 -4 -10 -7 -11 -10 -24 -12 -43 -1 -18 -1 -24 -1 -37 0 -22 2 -35 8
-49 9 -20 29 -35 52 -38 10 -1 37 0 61 2 5 0 38 1 63 1 10 1 19 1 21 1 4 1 13
5 14 6 0 1 1 1 1 0 1 0 1 0 1 0 -1 2 4 6 7 5 4 0 14 -1 16 -2 1 0 4 0 8 0 4
-1 7 -1 8 -2 2 0 4 0 6 -1 7 0 10 -1 12 -1 1 -1 3 -1 6 -1 3 -1 6 -1 11 -2 1
-1 4 -1 6 -1 1 -1 4 -1 5 -1 1 -1 4 -1 6 -1 2 -1 5 -1 6 -2 1 0 5 0 7 -1 2 0
5 0 6 -1 5 0 16 -1 24 -1 22 0 33 4 46 18 9 9 10 12 10 21 0 12 -4 18 -19 26
-12 8 -17 9 -37 10 -4 1 -9 1 -10 1 -1 1 -4 1 -7 1 -3 1 -6 1 -7 2 -1 0 -4 0
-6 1 -2 0 -5 0 -6 1 -1 0 -3 0 -4 0 -2 1 -5 1 -6 1 -1 1 -4 1 -6 2 -2 0 -5 0
-6 1 -7 1 -14 2 -31 5 -4 0 -10 1 -16 2 -7 0 -11 1 -12 2 -1 1 0 66 1 68 0 0
8 1 17 1 8 0 19 0 22 0 4 1 10 1 14 2 3 0 9 0 12 1 3 0 9 0 14 1 11 0 16 1 19
1 1 1 3 1 4 1 6 2 17 8 21 12 7 7 10 15 10 25 0 6 0 11 -1 12 0 0 0 0 0 1 -1
0 -1 2 -2 4 -3 5 -9 11 -15 14 -9 5 -15 6 -29 6 -8 0 -14 0 -14 -1z m-138 -64
c-1 -2 -8 -23 -8 -28 -1 -2 -1 -5 -1 -6 -2 -8 -3 -48 -2 -57 0 -2 0 -4 0 -5 0
0 -4 -1 -8 -1 -9 0 -31 -1 -39 -1 -3 -1 -12 -1 -19 -2 -8 0 -16 0 -17 0 -4 -1
-4 -1 -6 24 0 9 -1 18 -2 21 0 1 0 5 0 8 -1 3 -1 6 -1 8 -1 1 -1 4 -1 7 -1 4
-1 5 1 5 1 0 2 0 3 0 1 1 4 1 7 1 6 1 9 2 13 2 2 1 3 1 11 3 3 1 7 2 8 2 1 1
6 2 10 2 6 2 9 2 18 3 2 1 6 1 7 2 6 1 14 4 20 8 5 5 8 6 6 4z"/>
</g>
</svg>
