<?xml version="1.0" standalone="no"?>
<!DOCTYPE svg PUBLIC "-//W3C//DTD SVG 20010904//EN"
 "http://www.w3.org/TR/2001/REC-SVG-20010904/DTD/svg10.dtd">
<svg version="1.0" xmlns="http://www.w3.org/2000/svg"
 width="1000.000000pt" height="1000.000000pt" viewBox="0 0 1000.000000 1000.000000"
 preserveAspectRatio="xMidYMid meet">
<metadata>
Created by potrace 1.16, written by Peter Selinger 2001-2019
</metadata>
<g transform="translate(0.000000,1000.000000) scale(1.000000,-1.000000)"
fill="#000000" stroke="none">
<path d="M350 722 c0 0 -4 0 -8 0 -14 -2 -21 -2 -27 -3 -1 -1 -3 -1 -5 -1 -2
-1 -5 -1 -6 -1 -1 -1 -4 -1 -5 -1 -1 -1 -4 -1 -5 -2 -1 0 -3 0 -4 -1 -2 0 -6
-1 -9 -2 -4 -1 -9 -2 -10 -3 -10 -2 -52 -17 -68 -25 -13 -6 -22 -15 -26 -26
-4 -9 -4 -52 -1 -78 2 -18 2 -53 0 -78 -1 -18 -1 -43 0 -49 3 -22 14 -36 33
-45 10 -5 32 -13 35 -14 0 0 2 0 3 0 15 -4 41 -4 55 -2 1 1 3 1 5 1 2 1 5 1 6
1 1 1 4 1 5 1 1 1 3 1 4 1 1 1 3 1 4 1 4 1 6 2 13 4 4 0 7 1 8 2 1 0 4 1 7 1
7 2 11 3 20 4 16 1 20 1 24 3 3 1 3 1 7 -3 5 -4 16 -11 21 -13 4 -2 17 -7 18
-7 0 0 0 0 0 0 6 -2 14 -2 29 -2 14 0 26 0 32 2 1 0 4 0 5 1 4 0 7 1 10 2 1 0
4 0 6 1 7 1 10 1 14 2 2 0 5 1 7 1 2 1 4 1 6 1 1 1 4 1 7 1 10 2 14 2 16 3 4
0 11 3 15 6 2 1 5 2 5 2 1 0 1 0 1 0 0 1 1 3 3 5 8 8 11 22 8 33 -5 16 -21 28
-40 28 -5 0 -16 -1 -22 -2 -2 0 -5 0 -6 -1 -3 0 -7 -1 -16 -3 -1 0 -4 0 -6 -1
-2 0 -5 0 -6 -1 -1 0 -4 0 -6 -1 -2 0 -6 -1 -8 -1 -8 -2 -14 -2 -25 -2 -9 0
-11 0 -14 2 -6 3 -10 8 -16 20 l-4 9 0 17 c1 9 1 19 1 21 1 4 1 10 3 28 0 7 0
40 0 46 -1 2 -1 8 -1 12 -2 14 -2 13 2 14 1 1 3 1 5 1 1 1 5 2 9 3 8 2 24 7
29 7 2 1 5 2 10 2 1 1 5 1 7 2 2 0 5 0 7 1 1 0 11 0 22 0 18 0 22 0 26 2 3 1
6 2 6 1 1 0 1 0 1 0 -1 1 1 3 4 5 3 2 7 5 8 6 3 4 8 12 9 16 0 4 0 13 -1 17
-2 7 -8 15 -16 22 -2 1 -11 5 -13 6 -11 2 -49 2 -61 0 -1 -1 -4 -1 -6 -1 -2
-1 -5 -1 -6 -2 -1 0 -4 0 -6 -1 -2 0 -4 0 -5 -1 -1 0 -3 0 -5 -1 -2 0 -4 -1
-5 -1 -1 -1 -2 -1 -2 -1 0 1 -1 0 -3 0 -2 -1 -5 -1 -6 -2 -1 0 -5 -1 -8 -2 -3
-1 -6 -1 -6 -1 0 0 -2 -1 -3 -1 -1 -1 -3 -1 -5 -2 -3 0 -24 -8 -26 -9 -1 -1
-3 1 -2 3 0 1 -1 1 -1 1 -1 0 -1 0 -1 1 1 0 -4 8 -7 11 -5 4 -13 8 -20 10 -3
0 -23 1 -23 0z m25 -73 c-1 -1 -1 -3 -1 -4 -1 -2 -1 -5 -1 -6 -3 -13 -4 -20
-6 -57 0 -11 -1 -22 -2 -32 0 -4 0 -11 -1 -15 0 -5 0 -12 -1 -14 0 -2 0 -12 0
-22 0 -17 0 -17 -2 -17 -2 0 -3 0 -4 0 -1 -1 -4 -1 -6 -1 -4 -1 -6 -1 -14 -3
-2 -1 -7 -2 -12 -3 -6 -2 -11 -3 -12 -4 -21 -4 -28 -5 -36 -5 -8 0 -12 0 -18
3 -7 2 -8 3 -7 8 0 3 0 11 1 19 1 27 1 69 -1 88 -1 3 -1 8 -3 23 0 3 0 8 0 10
-1 3 -1 3 7 6 15 6 44 15 52 17 1 0 3 0 4 0 1 1 3 1 5 1 1 1 4 1 5 1 1 1 4 1
6 2 3 0 6 0 7 0 1 1 6 1 11 1 4 1 9 1 10 1 12 2 13 2 16 4 1 0 3 1 3 1 0 0 0
-1 0 -2z"/>
</g>
</svg>
