<?xml version="1.0" standalone="no"?>
<!DOCTYPE svg PUBLIC "-//W3C//DTD SVG 20010904//EN"
 "http://www.w3.org/TR/2001/REC-SVG-20010904/DTD/svg10.dtd">
<svg version="1.0" xmlns="http://www.w3.org/2000/svg"
 width="1000.000000pt" height="1000.000000pt" viewBox="0 0 1000.000000 1000.000000"
 preserveAspectRatio="xMidYMid meet">
<metadata>
Created by potrace 1.16, written by Peter Selinger 2001-2019
</metadata>
<g transform="translate(0.000000,1000.000000) scale(1.000000,-1.000000)"
fill="#000000" stroke="none">
<path d="M610 947 c0 0 -4 0 -8 0 -15 -2 -23 -3 -26 -4 -1 0 -3 0 -4 0 -1 -1
-4 -1 -6 -2 -2 -1 -5 -1 -5 -1 -1 0 -28 -10 -34 -12 -10 -5 -15 -9 -27 -20
-10 -11 -14 -16 -19 -26 -4 -7 -10 -22 -10 -26 -1 -2 -1 -3 -1 -4 -1 0 -1 -2
-1 -4 -1 -2 -1 -5 -1 -6 -1 -1 -1 -4 -1 -5 -2 -7 -2 -16 -2 -29 l0 -15 -4 2
c-4 1 -5 1 -10 3 -8 1 -15 2 -25 1 -4 -1 -8 -1 -9 -2 -14 -1 -26 -1 -55 -1
l-33 0 -1 26 c0 25 0 27 2 27 1 0 2 0 3 0 1 1 3 1 5 1 5 1 7 2 14 4 4 0 7 1 8
2 2 0 4 0 11 2 3 1 7 2 9 2 1 1 4 1 5 1 1 1 3 1 4 1 1 1 3 1 4 1 1 1 3 1 5 1
1 1 4 1 5 1 6 2 8 2 12 2 15 3 26 10 32 23 3 5 3 8 3 14 0 4 0 8 0 10 -1 1 -1
2 -1 2 -1 2 -5 8 -7 11 -4 5 -14 11 -15 10 -1 0 -1 0 -1 1 0 0 -1 1 -1 1 -1 0
-3 0 -5 1 -7 1 -28 0 -37 -1 -2 -1 -3 -1 -13 -3 -2 0 -4 0 -4 -1 0 0 -2 0 -4
-1 -2 0 -5 -1 -7 -1 -6 -2 -6 -2 -9 -2 -1 -1 -3 -1 -4 -1 -1 -1 -3 -1 -4 -1
-20 -5 -47 -19 -57 -30 -4 -5 -8 -12 -8 -19 0 -2 -1 -6 -2 -7 -1 -3 -4 -16 -5
-22 -1 -2 -1 -5 -1 -6 -1 -1 -1 -4 -2 -5 -1 -5 -1 -7 -1 -9 -1 -1 -1 -3 -1 -6
-1 -2 -1 -5 -1 -6 -1 -1 -1 -4 -2 -7 0 -2 0 -5 -1 -5 0 0 0 -3 -1 -6 0 -3 -1
-7 -2 -8 0 -1 0 -8 -1 -14 0 -21 4 -33 17 -45 5 -4 14 -10 18 -10 1 -1 2 -1 2
-1 0 0 5 -1 11 -2 14 -3 87 -3 110 -1 2 1 7 1 11 1 6 1 8 1 17 2 6 1 11 3 16
6 7 3 16 9 18 11 1 1 2 2 2 1 1 0 1 0 1 0 -1 1 4 8 7 11 0 0 1 -1 2 -2 9 -10
31 -21 46 -23 2 -1 5 -1 6 -1 1 -1 4 -1 6 -2 3 0 6 0 7 -1 6 0 25 -2 53 -2 27
-1 40 -2 50 -4 8 -1 20 -1 24 1 14 3 27 15 30 28 1 9 -1 19 -7 28 -7 12 -17
17 -34 19 -3 0 -7 0 -8 1 -6 0 -23 1 -49 2 -40 2 -50 3 -62 5 -3 1 -5 2 -6 3
-1 2 0 16 2 25 0 2 1 5 2 9 1 6 2 11 3 20 0 3 0 6 1 6 0 0 2 1 5 1 7 0 16 1
25 2 1 1 5 1 9 2 4 0 7 0 9 1 8 1 37 2 47 1 19 -3 32 0 41 9 5 5 9 12 10 17 1
6 0 15 -1 18 -1 0 -1 1 -1 1 1 0 0 3 -2 6 -6 11 -17 20 -28 23 -1 0 -3 0 -4 0
-6 2 -15 2 -31 2 -10 1 -18 1 -18 0z"/>
</g>
</svg>
