<?xml version="1.0" standalone="no"?>
<!DOCTYPE svg PUBLIC "-//W3C//DTD SVG 20010904//EN"
 "http://www.w3.org/TR/2001/REC-SVG-20010904/DTD/svg10.dtd">
<svg version="1.0" xmlns="http://www.w3.org/2000/svg"
 width="1000.000000pt" height="1000.000000pt" viewBox="0 0 1000.000000 1000.000000"
 preserveAspectRatio="xMidYMid meet">
<metadata>
Created by potrace 1.16, written by Peter Selinger 2001-2019
</metadata>
<g transform="translate(0.000000,1000.000000) scale(1.000000,-1.000000)"
fill="#000000" stroke="none">
<path d="M402 688 c0 0 -4 0 -9 0 -5 -1 -10 -1 -11 -1 -1 -1 -4 -1 -7 -1 -3
-1 -7 -1 -8 -2 -1 0 -4 0 -5 -1 -6 -1 -23 -5 -27 -7 -2 0 -3 -1 -3 0 0 0 -30
-10 -43 -15 -19 -8 -28 -14 -34 -24 -4 -5 -5 -11 -6 -18 0 -6 0 -9 -2 -12 -3
-6 -5 -11 -5 -15 -1 -2 -1 -4 -1 -6 -4 -17 -5 -118 -1 -138 0 -1 0 -3 0 -4 2
-9 7 -23 11 -31 8 -14 21 -29 30 -36 5 -4 15 -8 22 -10 1 0 3 0 4 0 12 -3 58
-3 71 -1 1 1 10 2 17 3 3 0 13 1 16 2 1 0 5 0 8 1 3 0 6 0 7 0 1 1 4 1 7 1 5
1 7 1 14 2 1 1 4 1 7 1 2 1 5 1 6 2 1 0 4 0 6 1 2 0 5 0 6 1 1 0 4 0 5 1 2 0
4 0 6 0 4 1 7 2 15 4 8 1 8 1 9 0 8 -11 15 -17 26 -25 13 -8 26 -14 39 -17 7
-1 41 0 46 1 1 1 3 1 4 1 4 1 6 2 11 3 2 1 5 1 6 1 2 1 10 3 19 6 10 3 23 6
32 8 2 0 5 0 6 1 1 0 4 0 7 0 3 1 7 1 8 2 1 0 4 0 7 0 18 3 36 17 39 32 5 18
-6 34 -28 41 -9 3 -23 3 -39 1 -1 -1 -5 -1 -7 -1 -2 -1 -5 -1 -7 -1 -1 -1 -3
-1 -5 -1 -2 -1 -5 -1 -6 -1 -1 -1 -4 -1 -5 -2 -4 0 -16 -3 -28 -7 -5 -2 -10
-3 -11 -3 -1 -1 -4 -2 -8 -2 -4 -1 -7 -2 -8 -3 -4 0 -19 -1 -20 0 -1 0 -2 0
-2 1 -2 0 -9 4 -11 6 -2 3 -3 5 -4 14 -1 9 -1 54 0 81 2 32 2 33 0 56 -1 9 -2
16 -3 18 0 3 0 3 2 3 2 0 3 0 4 0 0 1 2 1 4 1 2 1 5 1 6 2 1 0 4 0 5 1 1 0 4
0 5 0 1 1 4 1 6 1 2 1 5 1 6 2 1 0 14 0 28 1 14 0 27 0 29 0 1 1 4 1 5 1 4 1
17 8 21 12 16 14 18 37 4 51 -4 4 -13 9 -17 10 -1 0 -3 0 -5 1 -5 1 -63 1 -70
0 -3 -1 -7 -1 -8 -1 -1 -1 -4 -1 -6 -1 -7 -1 -18 -4 -21 -5 -1 0 -3 0 -4 -1
-7 -1 -25 -7 -30 -10 -8 -5 -18 -14 -21 -21 -2 -6 -3 -8 -2 -24 0 -5 0 -5 -3
-17 -1 -5 -2 -10 -2 -11 -1 -1 -1 -4 -1 -5 -2 -6 -4 -18 -6 -26 -1 -9 -2 -39
-3 -71 0 -13 0 -25 0 -26 0 -1 -7 -3 -17 -5 -2 0 -4 0 -5 -1 -2 0 -4 0 -5 -1
-2 0 -4 0 -6 0 -1 -1 -4 -1 -5 -1 -1 -1 -4 -1 -6 -2 -3 0 -6 0 -7 -1 -2 0 -4
0 -6 0 -1 -1 -5 -1 -7 -1 -2 -1 -6 -1 -7 -1 -1 -1 -5 -1 -8 -2 -3 0 -6 0 -7
-1 -1 0 -5 0 -8 -1 -3 0 -7 0 -8 -1 -1 0 -5 0 -9 -1 -4 0 -7 0 -8 -1 -8 -1
-40 -2 -46 -1 -2 0 -4 2 -6 5 -6 10 -7 16 -6 60 0 36 0 56 2 74 1 1 1 4 1 6 0
4 0 4 6 6 21 8 48 16 58 18 6 0 6 0 28 3 15 1 26 6 33 15 4 5 8 12 9 16 1 4 0
12 -1 17 -1 5 -7 13 -11 17 -8 7 -16 10 -30 10 -4 1 -7 1 -7 0z"/>
</g>
</svg>
