<?xml version="1.0" standalone="no"?>
<!DOCTYPE svg PUBLIC "-//W3C//DTD SVG 20010904//EN"
 "http://www.w3.org/TR/2001/REC-SVG-20010904/DTD/svg10.dtd">
<svg version="1.0" xmlns="http://www.w3.org/2000/svg"
 width="1000.000000pt" height="1000.000000pt" viewBox="0 0 1000.000000 1000.000000"
 preserveAspectRatio="xMidYMid meet">
<metadata>
Created by potrace 1.16, written by Peter Selinger 2001-2019
</metadata>
<g transform="translate(0.000000,1000.000000) scale(1.000000,-1.000000)"
fill="#000000" stroke="none">
<path d="M606 975 c0 0 -5 0 -11 0 -5 -1 -11 -1 -12 -1 -1 -1 -4 -1 -7 -1 -4
-1 -8 -1 -9 -1 -1 -1 -5 -1 -7 -1 -4 -1 -6 -1 -12 -2 -2 -1 -6 -1 -8 -1 -2 -1
-6 -1 -7 -1 -1 -1 -4 -1 -7 -1 -2 -1 -5 -1 -6 -1 -1 -1 -4 -1 -6 -1 -2 -1 -5
-1 -6 -2 -1 0 -5 0 -7 -1 -2 0 -5 0 -5 -1 0 0 -3 0 -5 0 -4 -1 -26 -5 -30 -7
-5 -1 -7 -1 -9 -2 -1 0 -9 -2 -16 -4 -7 -2 -15 -3 -16 -4 -1 0 -3 -1 -5 -1 -1
-1 -3 -1 -4 -2 -4 0 -22 -8 -35 -15 -12 -6 -15 -8 -22 -14 -8 -9 -11 -14 -12
-22 0 -7 2 -11 6 -16 7 -8 18 -11 40 -11 7 1 14 1 16 1 1 1 4 1 7 1 3 1 7 1 8
1 1 1 3 1 5 1 5 1 6 1 30 7 12 3 23 6 25 6 1 1 3 1 5 1 10 3 16 4 20 5 2 0 5
0 5 0 0 1 3 1 5 1 2 1 6 1 7 1 1 1 4 1 6 2 2 0 4 0 6 0 1 1 7 2 13 3 1 0 5 0
8 1 2 0 5 0 6 1 1 0 4 0 7 0 3 1 6 1 7 1 7 2 30 4 39 4 3 0 3 0 3 -1 0 -3 0
-5 -1 -6 0 -1 -2 -4 -2 -7 -1 -3 -2 -5 -3 -5 -3 0 -27 -1 -30 -1 -3 -1 -10 -1
-17 -1 -14 -1 -20 -2 -27 -3 -2 0 -6 0 -7 0 -3 -1 -10 -2 -13 -2 -1 -1 -4 -1
-6 -1 -2 -1 -5 -1 -6 -2 -1 0 -4 0 -6 -1 -2 0 -4 -1 -6 -1 -1 -1 -2 -1 -2 -1
0 1 -1 0 -3 0 -2 -1 -5 -1 -6 -2 -3 0 -6 -1 -9 -1 -1 -1 -3 -1 -4 -1 -1 -1 -3
-1 -4 -1 -1 -1 -3 -1 -4 -1 -5 -2 -7 -2 -9 -3 -1 0 -4 -1 -6 -1 -3 -1 -5 -1
-5 -2 -1 0 -4 0 -6 -1 -5 -1 -7 -2 -11 -3 -2 0 -4 -1 -5 -1 -1 -1 -2 -1 -2 -1
0 2 -19 -7 -28 -13 -11 -7 -20 -19 -21 -25 -1 -2 -3 -5 -5 -8 -4 -3 -7 -7 -10
-15 -3 -6 -6 -13 -6 -14 -1 -1 -1 -3 -1 -4 -1 -1 -1 -3 -1 -4 -1 -1 -1 -4 -1
-5 -3 -14 -4 -23 -3 -31 1 -6 1 -7 2 -9 1 0 1 -1 1 -1 -1 0 5 -12 7 -15 7 -8
20 -16 29 -17 2 -1 5 -1 6 -1 11 -3 73 -3 85 -1 1 1 5 1 8 1 3 1 6 1 8 1 1 1
3 1 6 1 7 2 9 2 11 2 1 1 4 1 6 2 2 0 5 0 5 0 0 1 3 1 6 1 3 1 6 1 7 2 2 0 5
0 7 1 2 0 5 0 6 1 1 0 5 0 8 1 3 0 6 0 7 1 12 2 44 4 87 6 13 0 18 0 24 1 7 2
9 2 15 2 11 2 15 2 22 4 2 1 5 1 6 1 1 1 8 4 10 6 7 7 8 18 3 28 -2 6 -12 14
-19 18 -9 4 -36 13 -43 13 -13 2 -21 2 -29 2 -13 0 -51 -2 -66 -4 -2 0 -6 0
-8 0 -5 -1 -13 -2 -17 -3 -1 0 -5 0 -7 0 -2 -1 -6 -1 -7 -1 -1 -1 -5 -1 -7 -1
-5 -1 -8 -2 -12 -2 -1 -1 -4 -1 -6 -1 -2 -1 -5 -1 -6 -2 -1 0 -4 0 -5 -1 -2 0
-5 0 -6 -1 -1 0 -3 0 -5 0 -4 -1 -14 -3 -26 -4 -9 0 -41 0 -42 0 0 1 -3 12 -3
14 0 0 3 1 10 1 9 0 14 0 21 2 1 0 4 0 5 1 5 1 7 1 9 1 1 1 3 1 4 1 1 1 9 2
17 4 7 2 15 4 16 4 1 1 4 1 7 2 2 0 5 1 7 1 2 1 4 1 4 1 0 1 2 1 4 1 2 1 5 1
6 1 1 1 4 1 6 2 3 0 5 0 5 0 0 1 3 1 6 1 3 1 7 1 8 1 2 1 13 2 25 3 43 2 50 3
60 10 3 2 6 2 12 2 9 1 11 1 17 5 11 5 19 17 26 37 2 6 4 12 5 13 0 1 0 2 1 2
0 1 0 1 0 1 0 0 0 1 0 2 1 1 2 6 3 12 6 22 1 48 -13 66 -6 7 -16 15 -18 15 -1
0 -1 1 -1 1 0 1 0 1 -1 1 0 -1 -1 -1 -1 0 -2 1 -9 3 -14 4 -2 1 -4 1 -6 2 -2
0 -32 1 -32 0z"/>
</g>
</svg>
