<?xml version="1.0" standalone="no"?>
<!DOCTYPE svg PUBLIC "-//W3C//DTD SVG 20010904//EN"
 "http://www.w3.org/TR/2001/REC-SVG-20010904/DTD/svg10.dtd">
<svg version="1.0" xmlns="http://www.w3.org/2000/svg"
 width="1000.000000pt" height="1000.000000pt" viewBox="0 0 1000.000000 1000.000000"
 preserveAspectRatio="xMidYMid meet">
<metadata>
Created by potrace 1.16, written by Peter Selinger 2001-2019
</metadata>
<g transform="translate(0.000000,1000.000000) scale(1.000000,-1.000000)"
fill="#000000" stroke="none">
<path d="M416 837 c0 0 -5 0 -9 0 -5 -1 -11 -1 -12 -1 -1 -1 -5 -1 -7 -2 -2 0
-9 -2 -15 -3 -7 -2 -13 -3 -14 -4 -1 0 -11 -3 -21 -7 -42 -14 -107 -44 -128
-58 -10 -7 -35 -30 -39 -36 -3 -6 -4 -13 -1 -20 5 -10 14 -14 34 -13 11 0 21
1 29 3 2 0 5 1 6 1 6 2 24 9 48 20 25 11 46 20 59 25 10 4 38 14 39 14 0 0 2
0 5 1 2 0 5 1 7 1 1 1 4 1 5 1 1 1 5 1 8 2 l5 0 -6 -11 c-3 -6 -5 -12 -5 -12
-1 -1 -1 -2 -1 -3 -1 -2 -15 -48 -15 -49 -1 -1 -1 -4 -2 -7 -1 -4 -2 -7 -2 -8
-1 -2 -2 -3 -12 -3 -10 -1 -11 -1 -21 -3 -3 -1 -5 -1 -5 -1 0 0 -13 -3 -21 -6
-1 0 -3 0 -4 0 -1 -1 -4 -2 -7 -2 -4 -1 -8 -2 -9 -3 -9 -1 -33 -10 -44 -16
-24 -12 -29 -16 -42 -35 -3 -5 -7 -10 -9 -12 -2 -1 -4 -4 -5 -7 -3 -5 -3 -7
-5 -15 0 -2 0 -5 -1 -6 -1 -8 -1 -16 -1 -28 0 -16 1 -33 1 -37 1 -1 1 -4 1 -5
1 -1 1 -4 2 -6 0 -4 1 -6 1 -9 1 -2 4 -14 4 -18 1 -1 1 -4 2 -6 0 -2 1 -3 1
-4 0 0 0 0 0 0 0 0 0 -1 0 -2 2 -6 10 -24 11 -25 1 0 1 -1 1 -1 0 -2 11 -13
14 -16 1 0 4 -2 7 -3 10 -5 13 -5 26 -5 18 -1 29 2 56 15 53 25 78 34 96 38 2
0 4 0 4 0 0 1 3 1 5 1 2 1 6 1 7 1 1 1 5 1 8 2 3 0 7 0 9 1 4 0 14 1 24 2 8 0
10 0 16 1 3 1 15 6 18 9 3 1 5 2 5 2 1 0 1 0 1 1 -1 0 1 2 2 4 3 3 8 10 9 14
0 1 0 5 0 10 0 6 0 8 -2 13 -5 9 -12 14 -25 19 -6 2 -9 2 -19 2 -10 0 -24 0
-34 -1 -2 -1 -6 -1 -9 -1 -7 -1 -15 -2 -17 -3 -2 0 -4 0 -6 -1 -2 0 -4 0 -5
-1 -2 0 -4 0 -5 -1 -2 0 -7 -1 -11 -2 -4 -1 -9 -2 -10 -3 -1 0 -3 -1 -4 -1 -1
-1 -2 -1 -2 -1 0 1 -22 -7 -38 -14 -9 -3 -25 -11 -37 -17 -13 -5 -23 -10 -23
-9 -1 0 -5 20 -7 33 -1 2 -1 4 -2 6 0 1 0 3 0 4 0 0 -1 1 -1 2 -1 0 -1 1 -1 1
1 0 0 2 0 4 -1 1 -2 3 -2 4 0 0 0 0 0 1 0 0 0 0 0 1 -1 1 -1 1 -1 1 0 0 0 1
-1 2 0 1 -1 6 -5 18 0 2 0 3 0 4 1 0 1 0 1 0 0 -1 12 3 30 10 14 6 28 11 34
12 1 1 6 2 11 3 4 1 8 2 9 2 0 1 2 1 5 2 2 0 5 1 7 1 4 1 20 6 22 7 2 1 3 0 7
-4 6 -6 10 -8 17 -8 7 0 7 0 14 4 13 6 19 12 25 25 3 5 9 24 11 29 0 1 0 3 1
4 0 1 0 3 1 5 0 1 1 5 3 10 1 5 2 9 2 10 0 0 1 1 1 2 1 0 1 1 1 1 -1 0 0 3 1
6 1 3 2 6 3 7 0 1 2 8 4 15 2 7 4 15 5 16 1 6 1 8 2 14 0 3 0 7 0 8 1 1 1 5 2
9 0 4 1 7 1 8 0 1 1 2 1 2 0 0 0 3 1 10 1 1 1 4 2 6 0 3 1 6 1 9 4 21 -10 43
-31 50 -5 1 -5 1 -9 2 -6 2 -30 3 -31 2z"/>
</g>
</svg>
