<?xml version="1.0" standalone="no"?>
<!DOCTYPE svg PUBLIC "-//W3C//DTD SVG 20010904//EN"
 "http://www.w3.org/TR/2001/REC-SVG-20010904/DTD/svg10.dtd">
<svg version="1.0" xmlns="http://www.w3.org/2000/svg"
 width="1000.000000pt" height="1000.000000pt" viewBox="0 0 1000.000000 1000.000000"
 preserveAspectRatio="xMidYMid meet">
<metadata>
Created by potrace 1.16, written by Peter Selinger 2001-2019
</metadata>
<g transform="translate(0.000000,1000.000000) scale(1.000000,-1.000000)"
fill="#000000" stroke="none">
<path d="M556 707 c0 0 -5 0 -11 0 -6 -1 -12 -1 -14 -1 -14 -2 -16 -2 -17 -2
-2 -1 -5 -1 -8 -1 -3 -1 -7 -1 -8 -1 -1 -1 -3 -1 -6 -1 -2 -1 -5 -1 -7 -2 -2
0 -4 0 -5 -1 -2 0 -4 0 -6 -1 -2 0 -4 0 -5 -1 -1 0 -3 0 -5 -1 -1 0 -3 0 -4
-1 -2 0 -4 -1 -9 -2 -1 0 -10 -2 -18 -4 -9 -2 -17 -4 -18 -5 -1 0 -3 0 -4 0
-1 -1 -5 -2 -9 -3 -5 -1 -9 -2 -10 -2 -32 -8 -45 -15 -53 -27 -2 -3 -4 -6 -4
-6 0 0 0 -1 -1 -2 0 -2 0 -6 0 -10 0 -9 2 -15 6 -19 0 0 2 -2 2 -3 3 -3 14
-10 18 -11 1 0 1 0 1 0 3 -1 9 -1 18 -1 9 0 14 0 23 2 12 4 11 3 22 6 4 1 8 2
9 3 1 0 10 2 20 4 9 3 19 5 21 5 2 1 4 1 4 1 0 1 2 1 4 1 2 1 5 1 6 1 1 1 4 1
5 1 1 1 4 1 6 1 2 1 4 1 6 1 1 1 5 1 8 2 2 0 5 0 6 1 2 0 9 1 17 2 19 1 47 2
61 1 18 -2 27 -7 33 -20 6 -11 5 -13 -14 -55 -1 -2 -2 -3 -4 -3 -2 0 -26 -1
-41 -1 -26 -2 -34 -2 -38 -2 -2 -1 -8 -1 -13 -1 -11 -1 -22 -2 -26 -3 -3 0 -7
0 -10 -1 -12 -1 -21 -2 -24 -3 -1 0 -4 0 -6 0 -2 -1 -5 -1 -6 -1 -1 -1 -4 -1
-6 -1 -2 -1 -5 -1 -6 -2 -1 0 -4 0 -6 -1 -3 0 -8 -1 -14 -3 -2 0 -4 0 -5 -1
-1 0 -4 -1 -6 -1 -3 -1 -6 -1 -7 -2 -2 0 -4 -1 -5 -1 -1 -1 -2 -1 -2 -1 0 1
-3 0 -7 -2 -8 -3 -16 -8 -15 -9 0 -1 0 -1 -1 -1 -4 3 -16 -23 -21 -44 -3 -10
-3 -12 -5 -20 0 -2 0 -4 -1 -5 0 -3 -2 -13 -2 -16 -2 -9 -2 -18 -2 -41 0 -15
0 -28 0 -30 1 -11 2 -20 3 -22 0 -1 0 -4 0 -6 4 -22 11 -40 22 -49 11 -11 23
-14 43 -14 8 0 23 1 28 1 1 1 5 1 7 1 2 1 6 1 7 2 1 0 4 0 6 1 2 0 4 0 5 1 2
0 4 0 5 1 2 0 4 0 6 0 3 1 5 1 11 3 2 0 6 1 8 1 2 1 5 1 6 1 1 1 4 1 5 2 1 0
3 0 5 0 1 1 3 1 5 1 2 1 5 1 6 1 1 1 4 1 6 2 2 0 5 0 6 1 8 1 21 2 40 4 5 0
11 0 15 0 4 1 12 1 18 1 6 1 13 1 16 1 2 1 9 1 15 1 6 1 13 1 15 1 6 1 16 2
17 2 1 1 4 1 8 1 9 1 14 2 22 3 1 1 5 2 8 3 4 1 7 2 7 1 1 0 1 0 1 1 -1 0 -1
1 0 1 1 0 4 2 7 4 3 2 5 4 5 3 1 0 1 0 1 1 -1 0 0 2 2 4 3 3 7 10 8 14 1 5 0
13 -2 18 -2 6 -11 16 -17 20 -9 4 -15 5 -30 5 -8 -1 -15 -1 -16 -1 -2 -1 -5
-1 -8 -1 -10 -2 -15 -2 -18 -2 -2 -1 -8 -1 -14 -1 -7 -1 -14 -1 -16 -2 -2 0
-10 0 -16 -1 -6 0 -14 0 -18 -1 -4 0 -11 0 -16 -1 -18 -1 -33 -2 -41 -3 -1 -1
-4 -1 -7 -2 -3 0 -6 0 -6 -1 0 0 -2 0 -5 0 -2 -1 -5 -1 -6 -2 -1 0 -4 0 -6 -1
-2 0 -7 -1 -10 -2 -4 0 -8 -1 -10 -1 -2 -1 -6 -2 -10 -3 -4 0 -9 -1 -11 -2 -2
0 -4 0 -5 -1 -1 0 -3 0 -5 -1 -3 0 -5 0 -6 -1 -1 0 -4 0 -6 -1 -3 0 -7 0 -8
-1 -2 0 -3 0 -3 1 -2 4 -2 13 -3 43 0 32 0 41 -1 47 -1 1 -1 5 -2 9 0 4 0 8
-1 8 0 1 3 3 7 3 1 1 3 1 5 1 10 3 19 5 22 5 2 1 5 1 6 1 1 1 4 1 6 2 2 0 5 0
6 1 1 0 4 0 6 1 3 0 6 0 7 1 2 0 4 0 6 0 1 1 6 1 10 2 3 0 8 0 10 1 4 0 16 1
26 2 4 0 10 0 12 0 5 1 18 2 37 2 6 1 16 1 24 2 7 0 16 0 20 1 3 0 11 0 16 1
13 0 17 1 30 10 20 13 24 18 24 28 -1 3 -1 7 -2 8 0 2 0 4 1 5 1 2 2 3 2 3 -1
0 1 3 3 7 8 17 14 34 16 47 1 9 0 33 -2 36 0 1 0 2 -1 3 0 2 -1 4 -2 7 -1 2
-1 4 -1 4 -1 2 -6 12 -9 17 -12 18 -26 31 -42 40 -7 3 -20 8 -24 9 -1 0 -3 0
-4 1 -3 0 -6 1 -12 2 -3 0 -7 0 -9 1 -4 0 -47 1 -47 0z"/>
</g>
</svg>
