<?xml version="1.0" standalone="no"?>
<!DOCTYPE svg PUBLIC "-//W3C//DTD SVG 20010904//EN"
 "http://www.w3.org/TR/2001/REC-SVG-20010904/DTD/svg10.dtd">
<svg version="1.0" xmlns="http://www.w3.org/2000/svg"
 width="1000.000000pt" height="1000.000000pt" viewBox="0 0 1000.000000 1000.000000"
 preserveAspectRatio="xMidYMid meet">
<metadata>
Created by potrace 1.16, written by Peter Selinger 2001-2019
</metadata>
<g transform="translate(0.000000,1000.000000) scale(1.000000,-1.000000)"
fill="#000000" stroke="none">
<path d="M409 970 c0 0 -7 0 -14 0 -8 -1 -15 -1 -16 -1 -2 -1 -5 -1 -7 -1 -2
-1 -5 -1 -7 -1 -1 -1 -3 -1 -5 -1 -2 -1 -5 -1 -6 -1 -1 -1 -4 -1 -5 -2 -2 0
-4 0 -5 -1 -2 -1 -3 -1 -3 -1 0 1 -2 0 -5 -1 -3 0 -6 -1 -8 -2 -4 -1 -31 -9
-41 -13 -22 -9 -52 -25 -61 -33 -15 -13 -12 -33 6 -39 4 -2 19 -2 23 -1 1 1 3
1 4 1 6 2 8 2 22 6 7 2 14 4 15 4 0 1 3 1 6 2 3 1 7 2 8 3 1 0 5 1 9 2 3 1 8
2 9 2 1 1 3 1 4 1 1 1 3 1 4 1 1 1 3 1 5 1 8 2 11 3 16 4 2 0 5 0 7 1 9 1 34
2 54 0 6 0 14 0 17 0 7 0 7 -1 3 -7 l-3 -4 -9 0 c-5 0 -12 0 -14 0 -2 -1 -9
-1 -15 -1 -6 -1 -12 -1 -13 -1 -7 -1 -17 -2 -19 -3 -1 0 -5 0 -8 -1 -3 0 -6 0
-7 -1 -3 0 -7 -1 -11 -1 -5 -1 -11 -2 -15 -4 -1 0 -4 0 -5 -1 -2 0 -4 -1 -5
-1 -1 -1 -2 -1 -2 -1 0 1 -13 -4 -24 -9 -6 -3 -14 -8 -17 -11 -12 -9 -19 -13
-29 -18 -5 -2 -11 -7 -14 -13 -3 -4 -6 -13 -7 -19 -1 -1 -1 -3 -1 -4 -1 -1 -1
-4 -2 -6 0 -2 0 -5 0 -5 -1 0 -1 -3 -1 -6 -1 -3 -1 -7 -1 -8 -1 -1 -1 -6 -3
-18 -1 -17 -2 -36 -1 -44 2 -12 7 -23 15 -30 5 -6 13 -10 19 -11 1 -1 4 -1 6
-2 5 -1 20 0 24 1 1 1 3 1 4 1 1 1 6 2 10 3 3 1 7 2 8 3 1 0 2 0 2 0 0 0 0 0
1 1 1 0 1 0 1 0 0 0 1 0 2 1 1 0 5 1 10 2 4 2 9 3 11 3 2 1 4 1 5 1 1 1 3 1 5
1 2 1 5 1 6 1 3 1 8 2 15 3 3 0 27 0 53 0 25 1 48 1 50 1 17 5 26 8 34 15 4 5
11 14 12 16 0 1 0 1 0 1 1 1 1 5 1 11 0 6 -2 13 -7 18 -5 6 -17 12 -25 14 -10
1 -124 0 -134 -1 -1 -1 -4 -1 -6 -1 -2 -1 -6 -1 -7 -2 -1 0 -4 0 -5 0 -1 -1
-4 -1 -5 -1 -1 -1 -4 -1 -5 -2 -2 0 -4 0 -5 -1 -1 0 -3 0 -4 -1 -1 0 -3 0 -4
0 -1 -1 -3 -1 -4 -1 -1 -1 -3 -1 -4 -2 -2 0 -2 0 -2 1 1 1 1 34 1 39 0 2 0 2
6 3 7 0 24 1 27 1 1 1 3 1 5 1 2 1 5 1 7 2 2 0 3 1 3 0 0 0 1 0 2 1 2 0 4 1 6
1 2 1 5 1 6 1 1 1 4 1 6 1 2 1 4 1 6 1 1 1 4 1 8 2 4 0 7 0 8 1 1 0 6 0 10 1
5 0 10 0 12 0 2 1 8 1 14 1 21 2 28 3 36 8 2 1 4 2 4 2 1 0 1 0 1 1 -1 1 -1 1
0 1 2 0 8 10 10 16 1 3 3 7 5 9 5 6 10 18 12 25 0 2 1 7 2 10 1 4 3 11 4 15 1
7 1 9 3 14 1 5 0 15 -2 20 -4 14 -17 25 -39 33 -1 1 -3 1 -3 1 0 0 -2 1 -3 1
-1 1 -4 1 -5 2 -3 0 -32 1 -32 0z"/>
</g>
</svg>
