<?xml version="1.0" standalone="no"?>
<!DOCTYPE svg PUBLIC "-//W3C//DTD SVG 20010904//EN"
 "http://www.w3.org/TR/2001/REC-SVG-20010904/DTD/svg10.dtd">
<svg version="1.0" xmlns="http://www.w3.org/2000/svg"
 width="1000.000000pt" height="1000.000000pt" viewBox="0 0 1000.000000 1000.000000"
 preserveAspectRatio="xMidYMid meet">
<metadata>
Created by potrace 1.16, written by Peter Selinger 2001-2019
</metadata>
<g transform="translate(0.000000,1000.000000) scale(1.000000,-1.000000)"
fill="#000000" stroke="none">
<path d="M426 798 c0 0 -4 0 -9 0 -5 -1 -9 -1 -10 -1 -2 -1 -5 -1 -7 -1 -2 -1
-6 -1 -7 -2 -1 0 -4 0 -5 0 -1 -1 -4 -1 -5 -1 -1 -1 -4 -1 -5 -2 -2 0 -9 -1
-15 -3 -6 -2 -13 -3 -14 -4 -1 0 -3 -1 -4 -1 -1 -1 -2 -1 -2 -1 0 1 -4 0 -8
-2 -5 -1 -9 -2 -10 -3 -2 0 -8 -2 -14 -4 -6 -1 -12 -3 -14 -4 -10 -2 -71 -25
-84 -32 -19 -9 -28 -21 -29 -36 0 -16 10 -28 27 -33 5 -1 21 -1 26 0 14 4 15
4 50 17 17 7 32 12 36 12 1 1 8 3 15 5 7 2 14 4 15 4 2 1 6 2 10 3 8 2 28 8
33 8 1 1 4 1 5 1 1 1 4 1 6 2 2 0 5 0 6 1 1 0 6 0 10 1 7 0 7 0 6 -2 -3 -2
-16 -17 -20 -21 -8 -9 -14 -19 -19 -28 -5 -10 -13 -27 -13 -29 0 -1 -1 -2 -1
-2 0 -1 -1 -3 -2 -4 0 -2 0 -4 -1 -4 -1 -5 -3 -12 -3 -16 -1 -2 -1 -4 -1 -5 0
0 -3 0 -7 0 -8 -1 -16 -2 -18 -3 -1 0 -4 0 -6 0 -2 -1 -5 -1 -6 -2 -1 0 -4 0
-5 -1 -2 0 -5 0 -6 -1 -2 0 -3 0 -4 0 0 0 -5 -1 -9 -3 -5 -1 -11 -2 -12 -3 -4
0 -44 -14 -50 -17 -9 -4 -16 -9 -24 -19 -3 -3 -5 -6 -6 -7 -9 -11 -10 -16 -10
-62 0 -13 0 -27 0 -31 -1 -4 -1 -14 -1 -21 -1 -7 -1 -16 -2 -19 -1 -15 0 -41
2 -49 4 -21 15 -38 31 -49 6 -4 19 -10 25 -11 1 -1 4 -1 5 -1 1 -1 5 -1 7 -2
2 0 6 0 8 -1 4 0 36 0 42 0 11 2 19 3 26 5 1 0 3 0 5 0 1 1 3 1 6 2 2 0 5 1 6
1 1 1 5 1 7 2 2 1 5 1 6 2 1 0 9 2 19 5 16 5 30 8 35 9 5 1 22 6 26 8 12 5 22
16 25 27 1 5 0 14 -1 17 -1 0 -1 1 -1 1 2 0 -5 11 -8 14 -12 11 -29 14 -54 8
-1 0 -3 0 -5 -1 -1 0 -5 -1 -8 -2 -3 0 -7 -1 -8 -2 -1 0 -9 -2 -16 -4 -7 -2
-15 -4 -16 -5 -1 0 -3 0 -3 -1 -1 0 -2 0 -3 0 -1 -1 -4 -1 -6 -2 -5 -1 -7 -2
-11 -3 -1 0 -3 0 -4 -1 -1 0 -3 0 -4 -1 -1 0 -4 0 -5 0 -8 -2 -14 -2 -31 -2
-16 0 -19 0 -20 1 -1 1 -1 29 0 48 2 26 3 75 2 77 -1 0 0 1 0 2 1 1 28 9 33
11 1 0 5 1 9 2 4 1 9 2 11 2 1 1 4 1 5 2 8 1 18 3 27 3 11 1 16 2 24 4 11 1
19 6 28 15 10 10 13 15 13 25 0 3 1 6 4 11 2 4 6 12 9 19 3 7 8 20 12 28 9 16
11 23 15 37 3 14 3 15 4 29 l0 12 7 14 c4 7 7 15 8 17 2 4 2 14 1 19 -5 20
-20 31 -43 34 -7 0 -23 1 -23 0z"/>
</g>
</svg>
