<?xml version="1.0" standalone="no"?>
<!DOCTYPE svg PUBLIC "-//W3C//DTD SVG 20010904//EN"
 "http://www.w3.org/TR/2001/REC-SVG-20010904/DTD/svg10.dtd">
<svg version="1.0" xmlns="http://www.w3.org/2000/svg"
 width="1000.000000pt" height="1000.000000pt" viewBox="0 0 1000.000000 1000.000000"
 preserveAspectRatio="xMidYMid meet">
<metadata>
Created by potrace 1.16, written by Peter Selinger 2001-2019
</metadata>
<g transform="translate(0.000000,1000.000000) scale(1.000000,-1.000000)"
fill="#000000" stroke="none">
<path d="M597 849 c0 -1 -5 -1 -10 -1 -5 -1 -10 -1 -11 -1 -1 -1 -5 -1 -8 -1
-4 -1 -8 -1 -9 -2 -9 -1 -15 -2 -17 -3 -1 0 -4 0 -5 -1 -2 0 -4 0 -5 -1 -2 0
-3 0 -8 -2 -2 0 -6 -1 -9 -2 -4 -1 -9 -2 -10 -3 -2 0 -23 -7 -47 -16 -7 -3
-24 -9 -38 -14 -37 -14 -40 -15 -59 -23 -23 -10 -25 -11 -29 -15 -6 -8 -8 -17
-4 -25 3 -5 10 -11 15 -13 1 0 1 0 1 0 2 -1 19 -2 26 -1 9 2 10 2 15 4 1 0 3
0 4 0 1 1 3 1 4 1 1 1 3 1 4 1 1 1 8 2 15 4 7 2 13 3 14 4 1 0 7 2 14 3 6 2
12 4 14 4 1 1 4 2 7 3 3 1 6 2 6 1 0 0 1 0 2 1 1 0 3 1 4 1 1 1 5 2 9 3 3 1 6
2 6 1 0 0 1 0 2 1 1 0 3 1 5 1 2 1 5 1 6 1 1 1 4 1 5 1 1 1 4 1 6 1 1 1 4 1 5
1 1 1 5 1 8 2 2 1 6 1 8 1 1 1 4 1 6 1 1 1 4 1 7 1 2 1 5 1 6 2 1 0 4 0 6 1 2
0 4 0 5 1 1 0 4 0 6 1 5 0 8 1 12 1 1 1 4 1 6 2 2 0 5 0 6 0 2 1 12 2 16 3 1
0 6 0 10 0 3 1 8 1 9 2 1 0 7 0 13 1 6 0 12 0 14 0 3 1 3 1 2 -1 0 -1 -1 -5
-3 -9 -5 -13 -8 -19 -19 -42 -6 -12 -11 -22 -10 -22 0 0 -1 -1 -1 -2 -1 -1 -4
-8 -7 -15 -2 -7 -6 -17 -8 -21 -3 -5 -5 -11 -6 -12 l-1 -2 -31 -1 c-27 0 -56
0 -66 -1 -2 -1 -7 -1 -12 -1 -4 -1 -9 -1 -10 -1 -1 -1 -4 -1 -7 -1 -6 -1 -10
-2 -16 -3 -1 0 -5 0 -7 -1 -3 0 -6 0 -7 -1 -2 0 -4 0 -6 0 -2 -1 -5 -1 -6 -1
-1 -1 -4 -1 -6 -1 -2 -1 -5 -1 -6 -2 -1 0 -5 0 -7 -1 -2 0 -5 0 -6 -1 -2 0 -4
0 -6 -1 -2 0 -4 0 -5 -1 -1 0 -4 0 -6 -1 -3 0 -6 0 -7 0 -1 -1 -4 -1 -7 -1 -9
-2 -19 -7 -26 -14 -6 -7 -9 -13 -10 -22 0 -2 -2 -8 -4 -13 -4 -9 -7 -17 -8
-24 -2 -11 -3 -15 -4 -19 0 -2 0 -6 0 -7 -1 -1 -1 -5 -1 -8 -1 -3 -1 -7 -2 -8
0 -1 0 -6 -1 -9 0 -4 0 -9 -1 -10 0 -5 0 -23 1 -28 3 -25 18 -44 42 -52 5 -2
11 -3 14 -4 2 0 5 0 7 -1 11 -2 62 -2 82 0 1 1 5 1 8 1 4 1 8 1 9 2 5 0 8 1
13 1 3 1 5 1 11 2 1 1 4 1 7 1 2 1 5 1 6 2 1 0 4 0 6 1 2 0 4 0 5 1 2 0 4 0 5
0 1 1 4 1 6 1 1 1 4 1 5 1 1 1 4 1 6 2 2 0 5 0 6 1 4 0 9 1 16 2 3 0 7 0 9 1
1 0 15 0 30 1 37 0 42 1 55 3 1 1 3 1 4 2 2 1 6 1 10 2 6 0 16 3 18 6 1 0 2 1
2 0 1 0 1 0 1 0 -1 1 0 2 2 4 5 6 6 16 2 25 -3 6 -8 10 -16 14 -3 2 -9 5 -12
7 -8 5 -18 8 -29 10 -14 3 -58 3 -82 1 -8 -1 -15 -2 -17 -3 -1 0 -4 0 -6 0 -2
-1 -5 -1 -6 -1 -1 -1 -4 -1 -6 -1 -2 -1 -5 -1 -6 -2 -1 0 -4 0 -6 -1 -2 0 -4
0 -5 -1 -2 0 -4 0 -6 -1 -2 0 -4 0 -5 -1 -1 0 -4 0 -6 0 -2 -1 -4 -1 -6 -1 -1
-1 -4 -1 -6 -1 -2 -1 -5 -1 -6 -2 -2 0 -5 0 -7 -1 -2 0 -6 0 -7 -1 -1 0 -5 0
-8 0 -3 -1 -7 -1 -9 -2 -4 0 -43 0 -50 0 -4 1 -5 2 -5 5 1 2 1 6 2 10 0 3 0 7
1 9 0 1 0 4 0 6 1 6 2 15 3 17 0 1 0 6 1 10 0 5 0 10 1 11 0 1 0 2 0 2 0 0 1
1 1 1 1 0 3 0 5 0 2 1 5 1 6 2 1 0 3 0 5 0 1 1 4 1 6 1 2 1 6 1 7 1 1 1 4 1 6
2 2 0 5 0 6 1 1 0 4 0 6 1 2 0 5 0 6 0 1 1 4 1 7 1 3 1 6 1 7 1 1 1 4 1 8 2 4
0 7 0 8 1 2 0 15 1 22 2 16 1 42 1 78 1 23 1 43 1 44 1 7 2 10 4 13 6 10 6 16
16 18 28 0 3 1 6 4 9 6 6 12 17 19 37 3 8 11 26 18 40 16 33 21 44 26 67 0 2
0 13 0 16 -1 1 -1 4 -2 6 -1 8 -13 28 -22 36 -8 8 -29 17 -45 21 -1 0 -4 0 -5
0 -1 1 -6 1 -10 2 -4 0 -9 0 -10 1 -3 0 -40 1 -40 1z"/>
</g>
</svg>
