<?xml version="1.0" standalone="no"?>
<!DOCTYPE svg PUBLIC "-//W3C//DTD SVG 20010904//EN"
 "http://www.w3.org/TR/2001/REC-SVG-20010904/DTD/svg10.dtd">
<svg version="1.0" xmlns="http://www.w3.org/2000/svg"
 width="1000.000000pt" height="1000.000000pt" viewBox="0 0 1000.000000 1000.000000"
 preserveAspectRatio="xMidYMid meet">
<metadata>
Created by potrace 1.16, written by Peter Selinger 2001-2019
</metadata>
<g transform="translate(0.000000,1000.000000) scale(1.000000,-1.000000)"
fill="#000000" stroke="none">
<path d="M563 724 c0 0 -4 0 -9 0 -5 -1 -9 -1 -10 -1 -2 -1 -5 -1 -7 -1 -4 -1
-7 -1 -12 -3 -1 0 -4 0 -6 -1 -2 0 -4 0 -4 -1 0 0 -2 0 -5 -1 -9 -1 -45 -14
-58 -21 -20 -9 -49 -31 -68 -50 -4 -3 -7 -6 -7 -6 -1 0 -1 3 -1 7 -2 11 -2 16
-3 19 0 1 0 5 -1 7 0 6 -5 19 -7 23 -5 7 -14 15 -21 17 -4 1 -15 1 -18 0 -13
-4 -24 -17 -26 -32 -3 -12 -3 -19 0 -39 0 -1 0 -5 0 -9 1 -4 1 -8 2 -10 0 -2
0 -6 1 -10 0 -4 0 -8 0 -9 1 -1 1 -5 1 -8 1 -8 3 -19 3 -24 1 -1 1 -5 2 -8 0
-3 0 -6 0 -7 1 -1 1 -4 1 -7 1 -3 1 -7 2 -8 0 -1 0 -5 0 -7 1 -2 1 -6 1 -7 1
-1 1 -5 2 -8 0 -3 0 -6 1 -7 0 -2 0 -5 1 -7 0 -2 0 -5 0 -6 1 -1 1 -4 2 -7 0
-3 0 -6 1 -7 0 -2 0 -4 1 -6 0 -2 0 -5 1 -6 0 -1 0 -4 1 -6 0 -2 0 -5 1 -6 0
-1 0 -4 1 -5 0 -3 1 -6 1 -9 1 -1 1 -4 1 -5 1 -1 2 -9 4 -17 5 -22 5 -22 5
-33 1 -7 3 -15 6 -20 3 -4 3 -4 6 -8 2 -2 15 -13 19 -15 6 -4 20 -7 29 -7 3 0
21 1 23 2 1 0 5 0 9 1 10 1 11 1 23 3 1 0 4 0 7 0 2 1 5 1 6 2 4 0 7 1 12 1 2
1 5 1 6 2 1 0 4 0 6 1 3 0 5 0 11 1 1 1 5 1 7 2 2 0 5 0 5 0 0 1 3 1 5 1 2 1
5 1 7 1 1 1 4 1 7 1 3 1 6 1 7 2 1 0 5 0 8 1 3 0 6 0 7 1 5 0 24 1 39 1 23 0
32 0 52 -4 1 -1 7 -2 14 -4 21 -5 32 -6 45 -1 16 5 25 18 25 32 0 6 0 11 -1
12 0 0 0 0 0 1 -1 3 -5 8 -9 12 -5 5 -13 10 -24 13 -4 1 -7 3 -7 3 0 1 1 3 3
6 5 9 14 25 17 32 1 4 3 8 3 9 1 1 1 3 1 3 1 0 2 5 4 11 2 5 3 10 4 11 0 1 0
3 0 4 1 2 1 3 4 13 1 7 2 11 3 18 0 2 0 5 1 6 0 1 0 5 0 8 1 4 1 8 2 11 0 2 0
13 0 26 1 20 0 29 -3 40 0 1 0 3 0 4 0 0 -1 1 -1 2 -1 0 -1 1 -1 1 1 0 -3 11
-6 18 -8 15 -26 37 -38 44 -2 2 -5 4 -5 4 -1 1 -8 5 -15 9 -11 5 -26 10 -41
12 -7 2 -9 2 -15 3 -7 0 -40 1 -40 0z m33 -76 c12 -2 21 -4 30 -8 8 -4 19 -14
22 -21 4 -9 5 -15 4 -33 0 -10 0 -19 0 -20 -1 -2 -1 -6 -1 -9 -1 -4 -1 -8 -2
-9 -1 -10 -2 -14 -3 -17 0 -1 0 -4 -1 -5 0 -1 -2 -7 -4 -14 -4 -12 -6 -17 -16
-36 -7 -12 -12 -25 -14 -31 l-1 -3 -21 -1 c-18 0 -30 0 -41 -1 -7 -1 -16 -2
-18 -2 -1 -1 -5 -1 -7 -1 -5 -1 -7 -2 -13 -3 -2 0 -5 0 -6 0 -1 -1 -4 -1 -6
-1 -2 -1 -4 -1 -6 -2 -5 0 -8 -1 -10 -1 -2 -1 -5 -1 -7 -1 -2 -1 -6 -1 -7 -1
-1 -1 -4 -1 -6 -1 -2 -1 -4 -1 -6 -1 -1 -1 -4 -1 -6 -1 -2 -1 -5 -1 -6 -2 -1
0 -4 0 -7 -1 -3 0 -6 0 -7 -1 -2 0 -5 0 -8 -1 -4 0 -8 0 -9 -1 -2 0 -3 0 -3 0
0 1 -1 5 -2 10 -3 11 -3 13 -3 16 -1 1 -2 7 -3 13 -1 5 -2 11 -3 12 0 1 0 4
-1 5 0 1 0 4 -1 6 0 4 -1 8 -1 11 -1 1 -1 4 -2 6 0 3 0 6 0 7 -1 1 -1 5 -1 7
-1 2 -1 5 -1 7 -1 1 -1 4 -1 7 -1 3 -1 6 -2 7 0 1 0 4 -1 7 0 3 0 6 0 7 -1 1
-1 4 -1 7 -1 3 -1 7 -1 8 -1 1 -1 5 -2 8 0 3 0 6 -1 7 0 1 0 4 -1 7 0 3 0 6
-1 6 0 1 1 2 5 2 5 1 9 3 17 7 10 6 66 30 73 32 1 0 3 0 4 1 1 1 14 4 19 6 1
0 3 0 4 1 1 0 3 0 4 0 1 1 3 1 4 1 1 1 3 1 5 1 1 1 4 1 5 2 6 1 12 2 19 3 9 1
11 1 21 2 4 0 9 0 9 0 0 1 20 0 26 0z"/>
</g>
</svg>
