<?xml version="1.0" standalone="no"?>
<!DOCTYPE svg PUBLIC "-//W3C//DTD SVG 20010904//EN"
 "http://www.w3.org/TR/2001/REC-SVG-20010904/DTD/svg10.dtd">
<svg version="1.0" xmlns="http://www.w3.org/2000/svg"
 width="1000.000000pt" height="1000.000000pt" viewBox="0 0 1000.000000 1000.000000"
 preserveAspectRatio="xMidYMid meet">
<metadata>
Created by potrace 1.16, written by Peter Selinger 2001-2019
</metadata>
<g transform="translate(0.000000,1000.000000) scale(1.000000,-1.000000)"
fill="#000000" stroke="none">
<path d="M317 814 c-7 -4 -14 -11 -17 -19 0 0 0 -1 0 -2 -2 -4 -2 -6 -3 -11
-1 -8 -1 -42 0 -52 1 -5 1 -11 2 -16 0 -4 0 -10 1 -12 0 -2 0 -9 1 -14 0 -6 0
-12 1 -14 0 -2 0 -7 0 -11 1 -5 1 -10 2 -11 0 -1 0 -6 1 -9 0 -4 0 -9 1 -10 0
-1 0 -5 1 -9 0 -4 0 -7 1 -8 0 -1 0 -4 0 -8 1 -6 1 -9 2 -15 1 -1 1 -4 1 -6 1
-3 1 -6 1 -7 1 -1 1 -4 1 -6 1 -5 6 -33 7 -37 0 -1 0 -4 1 -6 0 -2 0 -4 1 -5
0 -2 0 -4 1 -6 0 -2 0 -4 1 -5 0 -2 0 -4 1 -6 0 -3 0 -6 0 -7 1 -1 1 -4 2 -7
1 -4 1 -4 -2 -8 -6 -7 -8 -13 -7 -23 0 -5 0 -9 0 -10 3 -9 11 -19 19 -23 11
-6 22 -6 43 -1 3 1 7 2 8 2 1 1 5 1 7 2 2 0 6 1 8 1 5 1 7 2 9 2 1 1 3 1 5 1
1 1 4 1 5 1 1 1 4 1 6 2 2 0 5 0 6 1 1 0 4 0 6 1 3 0 6 0 7 1 1 0 5 0 9 0 5 1
8 1 18 3 2 0 8 0 14 1 5 0 11 0 13 1 17 1 124 2 141 1 11 -1 19 -2 24 -4 7 -1
9 -1 15 -1 3 0 7 0 9 0 1 1 3 1 4 1 1 0 2 1 1 1 0 1 6 4 8 3 0 0 0 0 0 0 -1 1
3 5 4 4 1 0 1 0 1 1 -1 0 0 2 2 3 5 6 9 18 8 25 -1 20 -13 33 -35 38 -7 1 -8
2 -7 3 1 1 1 2 1 2 0 1 3 10 4 12 0 0 1 1 1 1 -1 3 10 29 24 57 12 23 17 33
18 37 0 0 1 4 2 7 3 8 10 29 10 34 3 13 3 31 2 40 -1 2 -1 8 -2 13 0 6 0 11
-1 16 0 0 -1 1 -1 2 -1 0 -1 1 -1 1 1 0 -1 7 -4 12 -3 8 -13 20 -21 26 -5 4
-9 7 -13 9 -5 3 -18 8 -22 9 -1 0 -3 0 -3 1 0 0 -2 0 -4 0 -1 1 -4 1 -5 1 -1
1 -5 1 -7 2 -2 0 -6 0 -7 1 -13 2 -71 2 -89 0 -2 -1 -7 -1 -10 -1 -4 -1 -9 -1
-10 -2 -6 0 -9 -1 -13 -2 -4 0 -8 -1 -15 -3 -2 0 -4 0 -5 -1 -1 0 -5 -1 -8 -2
-3 0 -7 -1 -8 -2 -1 0 -3 -1 -4 -1 -1 -1 -2 -1 -2 -1 0 2 -38 -12 -50 -18 -19
-8 -53 -27 -58 -31 -1 -1 -2 -1 -2 0 0 0 0 1 -1 3 0 1 0 4 -1 7 0 4 -1 9 -3
19 -2 11 -6 22 -10 29 -5 6 -9 10 -15 13 -9 4 -18 4 -26 0z m309 -82 c7 -1 14
-1 15 -1 1 -1 4 -1 6 -1 6 -1 27 -8 28 -9 1 -1 -1 -7 -5 -17 -4 -8 -8 -19 -10
-24 -5 -15 -12 -31 -21 -49 -12 -23 -19 -38 -25 -55 -3 -7 -5 -14 -5 -14 -1
-1 -1 -2 -1 -3 -2 -5 -7 -20 -8 -23 0 -7 -1 -8 -1 -8 0 -1 -18 -1 -39 -1 -21
-1 -41 -1 -45 -1 -19 -1 -33 -2 -45 -4 -3 0 -8 0 -11 -1 -3 0 -7 0 -9 0 -2 -1
-6 -1 -9 -2 -4 0 -7 0 -8 -1 -2 0 -4 0 -6 0 -2 -1 -5 -1 -6 -1 -1 -1 -4 -1 -6
-1 -2 -1 -5 -1 -6 -2 -7 -1 -8 -1 -8 0 0 0 0 1 0 2 -1 1 -1 4 -1 6 -1 4 -1 6
-3 12 0 1 0 4 -1 6 -1 6 -2 14 -2 16 -1 1 -1 4 -1 6 -1 2 -1 5 -1 6 -1 1 -1 4
-1 6 -1 2 -1 5 -2 6 0 1 0 5 -1 7 0 2 0 5 -1 7 0 1 0 4 -1 6 0 2 0 5 -1 6 0 1
0 5 -1 8 0 3 0 7 -1 8 0 1 0 5 -1 9 0 3 0 7 -1 8 0 1 0 6 -1 10 0 3 0 8 0 9
-1 3 -2 18 -2 21 0 3 0 4 6 5 4 1 7 2 9 2 2 1 13 5 36 13 23 8 69 22 81 24 1
1 4 1 5 1 1 1 4 1 5 2 1 0 4 0 5 0 1 1 4 1 6 2 3 0 6 0 7 1 3 0 13 1 21 2 2 0
15 0 28 1 12 0 23 0 23 1 0 0 1 0 1 0 1 -1 7 -1 15 -1z"/>
</g>
</svg>
