<?xml version="1.0" standalone="no"?>
<!DOCTYPE svg PUBLIC "-//W3C//DTD SVG 20010904//EN"
 "http://www.w3.org/TR/2001/REC-SVG-20010904/DTD/svg10.dtd">
<svg version="1.0" xmlns="http://www.w3.org/2000/svg"
 width="1000.000000pt" height="1000.000000pt" viewBox="0 0 1000.000000 1000.000000"
 preserveAspectRatio="xMidYMid meet">
<metadata>
Created by potrace 1.16, written by Peter Selinger 2001-2019
</metadata>
<g transform="translate(0.000000,1000.000000) scale(1.000000,-1.000000)"
fill="#000000" stroke="none">
<path d="M442 745 c0 0 -5 0 -11 0 -6 -1 -12 -1 -13 -1 -2 -1 -7 -1 -10 -1 -4
-1 -8 -1 -9 -2 -1 0 -4 0 -6 0 -2 -1 -5 -1 -6 -2 -1 0 -4 0 -5 -1 -2 0 -5 0
-6 -1 -2 0 -3 0 -3 0 -1 0 -4 -1 -8 -2 -4 -1 -8 -2 -10 -3 -13 -2 -43 -16 -70
-31 -8 -4 -15 -8 -15 -8 -1 0 -2 3 -3 6 -1 4 -1 6 -1 6 0 0 0 1 -1 2 0 5 -6
14 -10 19 -7 8 -18 11 -28 7 -6 -2 -13 -9 -17 -16 -3 -6 -3 -8 -5 -19 -1 -6
-2 -9 -3 -11 -1 -4 -1 -13 -1 -22 0 -10 1 -35 1 -43 1 -2 1 -9 2 -15 0 -6 0
-13 1 -15 0 -2 0 -8 0 -14 1 -6 1 -12 2 -14 0 -2 0 -8 0 -14 1 -7 1 -14 1 -17
1 -3 1 -10 1 -16 1 -6 1 -13 2 -16 0 -11 1 -32 2 -55 0 -12 0 -24 1 -25 2 -12
6 -20 15 -29 5 -5 13 -10 19 -10 1 0 5 -2 7 -3 7 -5 11 -7 18 -9 1 0 3 0 5 -1
1 0 3 0 4 -1 3 0 23 0 28 0 1 1 6 1 10 1 5 1 9 1 10 1 1 1 4 1 8 1 3 1 7 1 8
1 1 1 4 1 7 1 3 1 6 1 11 2 1 1 4 1 6 1 2 1 6 2 10 2 4 1 8 2 10 2 3 1 5 1 11
3 2 0 6 1 8 1 2 1 4 1 6 1 1 1 3 1 5 1 2 1 5 1 6 1 1 1 4 1 5 1 1 1 4 1 6 2 2
0 4 0 5 0 2 1 5 1 14 3 2 0 5 0 6 1 1 0 5 0 8 1 11 1 13 1 18 3 15 6 25 21 24
36 0 13 -7 24 -17 31 l-2 2 2 8 c2 4 7 17 12 28 5 11 11 23 12 27 1 3 2 6 3 7
0 1 0 2 1 3 0 1 0 3 1 5 1 1 1 3 2 4 0 0 1 5 3 11 2 6 3 12 4 13 0 1 1 5 2 8
0 3 1 7 2 8 0 1 1 5 2 9 2 8 2 9 3 14 1 8 0 18 -1 27 -1 1 -1 7 -1 12 0 11 -1
17 -4 26 -1 3 -2 7 -2 9 -1 1 -1 4 -2 6 -2 14 -11 28 -24 37 -8 6 -23 13 -31
14 -5 1 -34 3 -35 2z m37 -80 c0 -12 -1 -15 -6 -25 -3 -6 -5 -12 -5 -13 -1 -1
-2 -6 -3 -10 -1 -4 -2 -9 -2 -10 -1 -3 -2 -6 -3 -13 -5 -19 -12 -38 -22 -60
-10 -22 -14 -31 -13 -31 0 0 0 -1 -1 -1 -1 -1 -5 -14 -6 -19 0 -1 0 -3 0 -4
-1 -1 -1 -3 -1 -5 -2 -9 -2 -11 -3 -11 -1 -1 -1 -1 -1 -1 0 1 -2 0 -4 0 -2 -1
-6 -1 -8 -2 -3 0 -23 -4 -29 -6 -2 0 -4 0 -5 -1 -1 0 -4 0 -5 0 -1 -1 -4 -1
-5 -1 -1 -1 -4 -1 -5 -1 -2 -1 -4 -1 -6 -1 -1 -1 -4 -1 -7 -2 -3 0 -6 0 -7 0
-1 -1 -4 -1 -8 -1 -4 -1 -7 -1 -8 -2 -2 0 -7 0 -13 -1 -7 0 -12 0 -13 -1 0 0
-1 1 -1 2 0 1 0 6 0 11 -1 21 -2 47 -2 50 -1 2 -1 9 -1 16 -1 6 -1 14 -2 17 0
2 0 9 -1 15 0 6 0 13 -1 15 0 2 0 9 0 14 -1 5 -1 12 -2 14 -1 18 -1 23 1 24 1
0 8 3 17 7 8 4 16 7 16 6 1 0 1 0 1 0 -1 2 21 12 44 20 13 5 26 8 33 9 2 1 4
1 5 1 1 1 3 1 6 1 2 1 5 1 6 1 1 1 5 1 9 2 3 0 7 0 7 1 0 0 12 0 27 0 l28 -1
-1 -3z"/>
</g>
</svg>
