<?xml version="1.0" standalone="no"?>
<!DOCTYPE svg PUBLIC "-//W3C//DTD SVG 20010904//EN"
 "http://www.w3.org/TR/2001/REC-SVG-20010904/DTD/svg10.dtd">
<svg version="1.0" xmlns="http://www.w3.org/2000/svg"
 width="1000.000000pt" height="1000.000000pt" viewBox="0 0 1000.000000 1000.000000"
 preserveAspectRatio="xMidYMid meet">
<metadata>
Created by potrace 1.16, written by Peter Selinger 2001-2019
</metadata>
<g transform="translate(0.000000,1000.000000) scale(1.000000,-1.000000)"
fill="#000000" stroke="none">
<path d="M443 817 c0 0 -4 0 -9 0 -15 -2 -26 -3 -31 -5 -1 0 -3 0 -5 -1 -1 0
-3 0 -4 -1 -1 0 -3 0 -4 0 -1 -1 -4 -2 -7 -2 -4 -1 -8 -2 -9 -3 -2 0 -25 -8
-42 -15 -14 -5 -30 -12 -43 -18 l-10 -5 -2 7 c-3 9 -11 22 -17 29 -12 11 -26
11 -37 1 -6 -5 -10 -13 -13 -25 0 -1 0 -3 -1 -4 -1 -6 -1 -10 -1 -21 0 -12 1
-29 1 -33 1 -2 1 -6 2 -10 0 -4 0 -8 1 -9 0 -1 0 -5 1 -9 0 -4 0 -8 1 -9 0 -1
0 -5 0 -9 1 -4 1 -8 1 -9 1 -1 1 -5 1 -9 1 -5 1 -9 1 -10 1 -1 1 -5 1 -9 1 -5
1 -9 1 -10 1 -1 1 -5 1 -8 1 -4 1 -8 1 -9 1 -1 1 -5 1 -9 1 -5 1 -9 1 -10 1
-1 1 -5 1 -9 1 -4 1 -9 2 -10 0 -1 0 -5 0 -9 1 -4 1 -9 2 -11 0 -9 1 -26 2
-46 0 -11 0 -22 0 -23 1 -1 1 -3 1 -3 1 -5 6 -11 9 -15 5 -5 11 -9 12 -8 1 0
1 0 1 -1 0 -1 0 -1 1 -1 0 0 1 0 1 0 4 -1 17 -2 23 -1 2 1 4 0 7 -1 9 -5 28
-9 37 -9 4 0 14 1 16 1 1 1 3 1 5 1 2 1 5 1 6 1 1 1 4 1 6 2 1 0 3 0 4 0 1 1
3 1 5 1 2 1 5 1 6 1 1 1 4 1 6 2 1 0 3 0 4 0 1 1 4 1 6 2 2 0 5 0 5 0 0 1 3 1
5 1 2 1 6 1 7 1 11 3 27 4 46 5 8 0 15 0 17 0 1 1 2 1 3 1 1 0 4 2 7 3 2 2 5
3 6 2 0 0 0 0 0 1 -1 0 -1 1 0 1 0 0 3 2 5 5 5 4 10 12 10 17 2 7 1 16 -2 21
-2 5 -1 20 2 33 0 1 0 4 1 5 0 3 6 21 7 24 0 1 0 2 1 3 0 0 1 5 3 11 5 12 5
11 5 12 0 1 1 3 2 6 1 2 2 4 2 5 0 0 1 4 2 8 3 6 17 58 18 62 1 1 2 4 3 8 3
12 4 22 4 36 0 8 -1 13 -3 21 -1 4 -2 10 -2 15 -1 11 -1 13 -5 21 -5 9 -6 10
-14 17 -4 3 -16 9 -20 11 -17 4 -27 5 -46 5 -7 0 -12 0 -12 0z m21 -76 c11 -1
13 -1 12 -4 0 -1 -1 -6 -4 -12 -3 -8 -14 -47 -17 -56 0 -4 -10 -34 -14 -43 -2
-6 -3 -11 -3 -11 0 -1 -1 -2 -1 -2 -2 -3 -12 -37 -13 -43 -1 -1 -1 -4 -1 -5
-2 -6 -3 -12 -4 -17 0 -7 -1 -10 -1 -11 0 0 -3 0 -6 0 -4 -1 -8 -1 -9 -1 -1
-1 -4 -1 -7 -1 -2 -1 -5 -1 -6 -1 -1 -1 -4 -1 -6 -1 -2 -1 -5 -1 -6 -2 -1 0
-4 0 -5 -1 -2 0 -5 0 -6 -1 -1 0 -4 0 -5 -1 -1 0 -4 0 -6 -1 -2 0 -4 0 -5 -1
-1 0 -3 0 -5 -1 -1 0 -3 0 -4 -1 -1 0 -3 0 -5 -1 -1 0 -3 0 -4 -1 -1 0 -3 0
-4 -1 -1 0 -3 0 -4 0 -5 -2 -7 -2 -9 -3 -1 0 -4 -1 -6 -2 -2 0 -4 -1 -4 0 0 0
-1 3 -1 6 0 7 -1 31 -1 36 -1 2 -1 7 -1 11 -1 4 -1 9 -2 10 0 1 0 5 0 9 -1 4
-1 8 -1 9 -1 1 -1 5 -1 9 -1 4 -1 8 -2 10 0 2 0 6 0 9 -1 3 -1 7 -1 9 -1 2 -1
6 -1 9 -1 3 -1 7 -1 9 -1 2 -1 6 -2 10 0 4 0 8 -1 9 -1 13 -1 17 -2 18 0 1 0
5 -1 10 0 4 0 8 -1 8 0 1 2 2 7 3 2 0 4 0 4 0 0 1 2 1 3 1 1 1 8 3 15 5 6 2
12 3 13 3 0 1 6 3 13 5 12 4 21 6 29 7 13 3 16 3 24 4 2 1 5 1 6 1 4 1 9 2 16
3 3 0 8 0 10 1 2 0 8 0 14 1 5 0 10 0 10 0 0 1 1 1 2 0 1 0 6 0 11 0z"/>
</g>
</svg>
