<?xml version="1.0" standalone="no"?>
<!DOCTYPE svg PUBLIC "-//W3C//DTD SVG 20010904//EN"
 "http://www.w3.org/TR/2001/REC-SVG-20010904/DTD/svg10.dtd">
<svg version="1.0" xmlns="http://www.w3.org/2000/svg"
 width="1000.000000pt" height="1000.000000pt" viewBox="0 0 1000.000000 1000.000000"
 preserveAspectRatio="xMidYMid meet">
<metadata>
Created by potrace 1.16, written by Peter Selinger 2001-2019
</metadata>
<g transform="translate(0.000000,1000.000000) scale(1.000000,-1.000000)"
fill="#000000" stroke="none">
<path d="M371 932 c0 0 -6 0 -12 0 -6 -1 -12 -1 -13 -1 -1 -1 -5 -1 -7 -1 -2
-1 -5 -1 -7 -1 -1 -1 -3 -1 -6 -1 -2 -1 -5 -1 -6 -2 -2 0 -12 -2 -22 -5 -10
-3 -19 -5 -20 -5 -16 -4 -51 -19 -66 -28 -5 -3 -9 -5 -10 -5 0 0 -1 2 -2 5
-10 23 -17 32 -27 30 -8 -1 -15 -8 -20 -19 -5 -10 -8 -19 -10 -33 -2 -9 -1
-38 0 -57 1 -2 1 -7 1 -11 2 -26 5 -38 9 -52 2 -5 3 -10 3 -10 0 -1 1 -1 1 -2
1 0 1 -1 1 -2 0 -2 6 -13 9 -17 4 -3 11 -8 14 -9 1 0 2 0 2 0 0 0 5 -1 9 -1 4
0 8 0 12 2 2 0 3 0 4 0 1 -1 13 -4 19 -5 11 -3 54 -3 66 -2 3 1 7 1 8 2 1 0 6
0 11 1 4 0 9 0 11 0 2 1 7 1 11 2 4 0 9 0 11 0 4 1 20 2 36 3 10 0 15 1 20 2
3 0 3 0 9 2 2 1 5 1 7 0 3 0 11 -1 15 0 4 1 11 5 16 9 2 2 4 3 4 3 1 0 1 0 1
1 -1 0 0 2 1 3 3 2 10 14 10 14 0 0 0 2 1 5 0 2 1 6 1 8 1 2 1 6 2 7 0 1 0 4
0 7 1 2 1 5 1 6 1 1 1 3 1 5 1 2 2 9 4 16 2 11 2 13 4 17 0 1 0 4 1 5 0 1 1 4
1 6 1 2 1 5 2 8 0 2 0 5 1 6 1 10 2 25 1 34 -2 10 -2 12 -4 17 -5 14 -15 25
-29 32 -5 3 -9 5 -9 4 0 0 -1 0 -1 1 -1 1 -2 1 -2 1 0 -1 -1 -1 -1 0 -1 1 -2
1 -2 1 0 -1 -1 0 -3 0 -2 1 -5 1 -7 1 -2 1 -5 1 -6 1 -6 2 -18 2 -33 2 -9 0
-16 0 -16 0z m39 -74 c0 -1 -1 -6 -3 -12 -2 -6 -3 -13 -3 -14 -1 -1 -1 -3 -1
-4 -2 -6 -3 -12 -3 -14 -1 -1 -1 -5 -2 -9 -1 -4 -2 -8 -2 -11 -1 -6 -2 -8 -3
-9 0 0 -7 -1 -16 -1 -22 -1 -35 -2 -48 -3 -2 -1 -7 -1 -10 -1 -14 -2 -19 -2
-21 -3 -2 0 -5 0 -7 -1 -7 0 -15 -1 -20 -2 -1 -1 -3 -1 -4 -1 -1 -1 -4 -2 -7
-2 -4 -1 -7 -2 -8 -2 -6 -2 -17 -6 -22 -8 l-5 -2 0 2 c0 5 -1 13 -3 19 0 1 0
4 -1 6 0 2 0 4 -1 5 0 2 0 4 -1 6 0 1 0 4 -1 5 0 1 0 4 -1 5 0 1 0 4 -1 6 0 2
0 5 -1 6 -1 8 -1 9 0 9 1 0 2 0 3 0 1 1 4 1 6 1 5 1 7 1 15 3 3 1 6 2 8 2 1 1
4 1 6 2 2 1 5 1 6 2 3 0 5 1 15 3 4 2 10 3 11 3 1 1 5 1 7 2 2 0 6 1 8 1 1 1
4 1 5 2 1 0 4 0 6 1 2 0 4 0 5 1 1 0 5 0 8 1 3 0 6 0 7 1 4 0 16 2 28 3 4 0 9
0 11 1 2 0 9 0 17 1 7 0 13 0 13 0 0 1 9 0 10 0z"/>
</g>
</svg>
