<?xml version="1.0" standalone="no"?>
<!DOCTYPE svg PUBLIC "-//W3C//DTD SVG 20010904//EN"
 "http://www.w3.org/TR/2001/REC-SVG-20010904/DTD/svg10.dtd">
<svg version="1.0" xmlns="http://www.w3.org/2000/svg"
 width="1000.000000pt" height="1000.000000pt" viewBox="0 0 1000.000000 1000.000000"
 preserveAspectRatio="xMidYMid meet">
<metadata>
Created by potrace 1.16, written by Peter Selinger 2001-2019
</metadata>
<g transform="translate(0.000000,1000.000000) scale(1.000000,-1.000000)"
fill="#000000" stroke="none">
<path d="M586 959 c0 -1 -6 -1 -13 -1 -7 -1 -14 -1 -15 -1 -2 -1 -7 -1 -10 -1
-4 -1 -9 -1 -10 -2 -2 0 -6 0 -10 0 -4 -1 -8 -1 -9 -1 -1 -1 -5 -1 -7 -1 -6
-1 -13 -2 -16 -2 -1 -1 -4 -1 -7 -1 -2 -1 -5 -1 -6 -2 -1 0 -4 0 -6 -1 -2 0
-4 0 -5 -1 -2 0 -4 0 -6 -1 -2 0 -6 -1 -8 -1 -6 -2 -7 -2 -11 -2 -3 -1 -6 -1
-11 -3 -1 0 -4 0 -5 0 -1 -1 -4 -1 -5 -1 -1 -1 -4 -1 -5 -1 -1 -1 -4 -1 -5 -1
-1 -1 -4 -1 -5 -2 -2 0 -4 0 -5 -1 -1 0 -3 0 -4 -1 -1 0 -3 0 -4 0 -1 -1 -5
-2 -8 -3 -3 -1 -6 -1 -6 -2 -4 0 -27 -8 -34 -11 -5 -2 -9 -3 -9 -3 -1 0 -2 4
-4 8 -5 9 -10 16 -17 19 -6 3 -7 3 -16 3 -13 0 -24 -8 -30 -23 -3 -9 -4 -14
-4 -23 0 -7 1 -19 1 -24 1 -1 1 -4 2 -7 0 -3 0 -6 1 -7 0 -1 0 -4 0 -7 1 -3 1
-7 2 -8 0 -5 2 -16 3 -24 0 -3 0 -7 0 -8 1 -1 1 -5 2 -8 0 -3 0 -7 1 -8 0 -4
1 -10 1 -14 1 -3 1 -6 1 -7 1 -1 1 -5 1 -7 1 -2 1 -5 1 -6 4 -16 6 -23 14 -30
3 -3 6 -7 8 -10 5 -11 18 -20 31 -23 6 -1 20 0 41 1 8 1 31 2 57 3 38 0 54 1
125 4 18 0 25 1 47 3 10 0 17 2 25 3 15 4 33 12 35 16 0 1 1 1 1 0 1 0 1 0 1
0 -1 1 0 3 1 4 3 3 5 8 6 12 1 5 0 15 -3 20 -2 4 -10 11 -14 13 -5 2 -5 3 -4
6 1 2 1 5 2 7 0 1 0 3 1 4 0 2 1 4 2 9 1 6 9 39 11 44 0 3 1 6 1 6 0 0 2 7 5
15 3 8 5 16 6 18 1 4 1 22 0 26 -1 5 -2 7 -2 8 0 0 0 0 0 1 -1 4 -6 11 -11 16
-7 7 -16 12 -27 16 -6 2 -7 2 -14 4 -2 0 -4 0 -5 1 -3 0 -40 1 -40 1z m17 -77
c0 -1 -1 -6 -3 -12 -3 -9 -11 -42 -12 -49 -1 -5 -2 -7 -2 -9 -1 -1 -1 -3 -1
-4 -1 -2 -1 -4 -1 -5 -1 -1 -1 -3 -1 -4 -1 -1 -1 -5 -2 -7 -1 -2 -1 -5 -2 -6
0 -4 2 -3 -23 -4 -9 -1 -21 -1 -26 -2 -26 -1 -62 -2 -102 -3 -17 0 -34 0 -38
0 -10 -1 -23 -2 -26 -2 -3 -1 -3 1 -4 12 -1 2 -1 6 -1 7 -1 1 -1 4 -1 7 -1 3
-1 7 -1 8 -1 1 -1 5 -1 8 -1 3 -1 7 -1 8 -1 3 -2 9 -3 17 0 6 0 6 2 6 1 0 2 0
3 0 0 1 3 1 6 1 3 1 6 1 8 2 1 0 3 0 6 0 2 1 4 1 6 1 1 1 4 1 7 1 3 1 6 1 7 1
1 1 4 1 6 1 3 1 7 1 10 2 5 0 7 1 11 2 3 0 6 1 10 2 1 0 4 0 5 0 14 3 23 5 26
5 1 1 4 1 5 2 1 0 4 0 5 1 1 0 3 0 5 0 1 1 3 1 5 1 2 1 5 1 6 1 1 1 4 1 6 2 2
0 4 0 6 0 1 1 4 1 7 1 2 1 6 1 8 2 1 0 4 0 6 0 2 1 6 1 9 1 3 1 7 1 9 1 2 1 7
1 11 1 3 1 8 1 9 2 1 0 8 0 15 1 7 0 13 0 13 0 0 0 3 1 6 1 5 0 7 -1 7 -1z"/>
</g>
</svg>
