<?xml version="1.0" standalone="no"?>
<!DOCTYPE svg PUBLIC "-//W3C//DTD SVG 20010904//EN"
 "http://www.w3.org/TR/2001/REC-SVG-20010904/DTD/svg10.dtd">
<svg version="1.0" xmlns="http://www.w3.org/2000/svg"
 width="1000.000000pt" height="1000.000000pt" viewBox="0 0 1000.000000 1000.000000"
 preserveAspectRatio="xMidYMid meet">
<metadata>
Created by potrace 1.16, written by Peter Selinger 2001-2019
</metadata>
<g transform="translate(0.000000,1000.000000) scale(1.000000,-1.000000)"
fill="#000000" stroke="none">
<path d="M195 747 c-3 -2 -7 -5 -10 -8 -5 -5 -11 -17 -12 -21 -1 -2 -1 -4 -2
-6 0 -4 0 -13 0 -21 1 -4 1 -9 2 -11 0 -3 0 -7 1 -9 0 -6 1 -11 1 -20 2 -17 2
-20 3 -22 0 -6 1 -20 3 -32 0 -4 0 -8 0 -9 1 -1 1 -6 2 -11 0 -5 0 -10 1 -11
0 -2 0 -7 0 -11 1 -4 1 -9 1 -10 1 -1 1 -6 2 -11 0 -5 0 -10 0 -12 1 -2 1 -7
1 -11 1 -4 1 -9 1 -10 1 -1 1 -4 1 -6 2 -14 2 -16 4 -25 2 -10 2 -10 3 -15 0
-2 1 -6 1 -7 1 -5 2 -7 2 -9 1 -1 1 -3 1 -4 1 -1 3 -10 6 -20 3 -10 5 -19 5
-20 1 -1 1 -4 1 -5 1 -1 1 -4 1 -6 2 -11 2 -14 3 -16 0 -4 0 -5 -1 -8 0 -4 0
-14 0 -17 1 -1 1 -3 1 -4 0 0 1 -1 1 -1 1 0 1 0 1 -1 -1 -1 3 -7 7 -11 7 -7
16 -11 27 -11 7 0 8 0 24 5 7 2 14 4 15 4 1 1 3 1 6 2 2 0 5 1 7 1 1 1 4 1 5
2 1 0 4 0 5 1 1 0 4 0 5 0 1 1 5 1 7 2 2 0 5 0 7 1 4 0 11 1 24 3 4 0 8 0 10
1 7 0 24 1 38 2 8 0 16 0 17 0 2 1 5 0 9 -1 11 -5 25 -3 34 6 2 2 4 3 4 2 1 0
1 0 1 1 0 0 1 3 3 5 3 4 7 10 7 12 0 0 0 2 1 3 0 2 1 5 1 7 1 3 1 6 2 7 0 2 0
5 1 9 0 3 0 8 0 10 1 2 1 7 2 11 0 7 1 15 2 20 0 2 0 6 1 9 0 3 0 7 1 9 0 2 0
6 0 8 1 2 1 6 2 9 0 3 0 7 1 10 0 2 0 5 1 7 0 6 1 17 2 19 0 1 0 5 1 9 0 4 0
8 1 9 0 1 0 5 1 9 0 3 0 7 1 9 0 1 0 4 1 8 0 4 0 8 1 9 0 1 0 5 0 8 1 5 1 9 3
21 0 5 1 17 1 21 1 2 1 9 2 15 1 17 0 65 -1 76 -1 1 -1 4 -1 7 -2 14 -8 27
-16 36 -7 8 -17 10 -26 8 -9 -3 -22 -22 -24 -37 -1 -2 -1 -5 -1 -6 -1 -1 -1
-5 -1 -8 -1 -3 -1 -7 -1 -9 -1 -5 -2 -20 -2 -26 -1 -5 -2 -18 -2 -24 -1 -2 -1
-8 -2 -13 0 -6 0 -12 -1 -13 0 -2 0 -5 0 -6 0 -2 0 -2 -6 -1 -3 0 -6 0 -6 1
-2 1 -23 1 -44 1 -22 0 -36 0 -43 -1 -1 -1 -4 -1 -6 -1 -2 -1 -6 -1 -7 -2 -3
0 -7 -1 -10 -2 -8 -1 -28 -8 -45 -16 -3 -1 -5 -2 -6 -2 -1 1 -1 1 -1 10 -1 3
-1 8 -1 10 -1 2 -1 7 -1 11 -1 4 -1 9 -1 11 -1 7 -2 18 -3 21 0 1 0 6 0 10 -1
4 -1 9 -2 11 0 2 0 6 0 10 -1 4 -1 8 -1 10 -1 2 -1 6 -2 10 0 7 -1 9 -2 14 0
1 0 3 -1 5 -2 11 -14 27 -25 32 -7 4 -16 4 -24 0z m211 -217 c1 -1 4 -1 7 -1
2 -1 4 -1 6 -1 1 -1 2 -1 3 -1 1 0 2 -1 1 -2 0 -1 0 -5 -1 -8 0 -4 0 -8 0 -9
-1 -1 -1 -5 -1 -8 -1 -4 -1 -9 -2 -11 0 -2 0 -7 -1 -10 0 -8 -2 -19 -2 -24 -1
-2 -1 -8 -3 -18 0 -2 0 -7 -1 -11 0 -3 0 -8 0 -9 -1 -1 -1 -2 -1 -2 0 0 -5 -1
-11 -1 -10 0 -29 -1 -37 -1 -2 -1 -6 -1 -10 -1 -14 -2 -24 -3 -27 -3 -1 -1 -4
-1 -6 -1 -2 -1 -5 -1 -7 -1 -1 -1 -3 -1 -6 -1 -4 -1 -7 -2 -11 -2 -7 -2 -8 -2
-8 -1 0 1 0 3 0 4 -1 2 -1 4 -2 6 0 1 -3 11 -5 22 -8 26 -12 46 -15 66 0 3 -1
7 -1 10 0 2 0 4 0 4 1 1 3 1 16 3 2 1 5 1 6 1 1 1 4 1 6 2 2 0 5 0 6 1 1 0 4
0 6 1 2 0 5 0 6 0 1 1 3 1 6 1 5 1 7 2 16 3 6 2 9 2 16 3 3 0 7 0 7 1 0 0 47
-1 50 -1z"/>
</g>
</svg>
