<?xml version="1.0" standalone="no"?>
<!DOCTYPE svg PUBLIC "-//W3C//DTD SVG 20010904//EN"
 "http://www.w3.org/TR/2001/REC-SVG-20010904/DTD/svg10.dtd">
<svg version="1.0" xmlns="http://www.w3.org/2000/svg"
 width="1000.000000pt" height="1000.000000pt" viewBox="0 0 1000.000000 1000.000000"
 preserveAspectRatio="xMidYMid meet">
<metadata>
Created by potrace 1.16, written by Peter Selinger 2001-2019
</metadata>
<g transform="translate(0.000000,1000.000000) scale(1.000000,-1.000000)"
fill="#000000" stroke="none">
<path d="M203 949 c0 0 -2 0 -3 0 -11 -2 -21 -16 -24 -32 -1 -9 0 -65 1 -83 1
-2 1 -7 1 -12 1 -5 1 -9 2 -10 0 -1 0 -5 0 -9 3 -26 4 -33 8 -56 4 -20 4 -18
4 -19 0 0 0 0 1 -1 0 -1 0 -1 0 -1 0 -1 0 -1 0 -2 1 -3 6 -11 9 -14 6 -6 8 -7
8 -6 0 0 0 0 1 -1 1 -1 9 -4 13 -5 3 0 7 -1 9 -2 10 -5 22 -7 32 -7 6 0 45 1
51 1 3 1 22 2 36 3 3 0 12 0 19 0 7 1 16 1 18 2 5 0 15 3 19 6 1 0 2 1 2 0 1
0 1 0 1 1 -1 0 -1 1 0 1 0 0 3 2 5 5 9 9 11 11 12 10 1 0 1 0 1 0 0 1 1 3 3 4
4 5 15 27 17 34 1 5 1 7 2 10 0 3 1 7 1 11 1 7 2 12 3 13 0 1 0 4 0 8 1 4 1 8
2 9 0 1 0 6 1 10 0 4 0 9 1 11 0 7 1 30 1 39 0 10 -1 36 -2 41 -2 14 -9 27
-19 31 -13 6 -30 -4 -38 -20 -2 -5 -8 -26 -11 -40 -1 -3 -1 -3 -11 -2 -12 3
-49 3 -61 1 -2 -1 -5 -1 -7 -1 -6 -1 -10 -2 -12 -3 -1 0 -3 0 -5 0 -2 -1 -4
-1 -5 -2 -2 0 -5 -1 -9 -2 -1 0 -6 -1 -10 -2 -4 -1 -9 -2 -10 -3 -1 0 -5 -1
-8 -2 -3 -1 -5 -2 -5 -2 -1 0 -1 3 -1 6 -1 6 -2 13 -3 18 -1 1 -1 4 -1 5 -9
42 -18 57 -36 59 -2 1 -3 1 -3 0z m176 -146 c0 -2 0 -6 -1 -15 -1 -2 -1 -6 -2
-10 0 -4 -1 -7 -1 -7 0 -1 -8 -1 -29 -3 -10 0 -28 -1 -35 -2 -3 0 -14 0 -24
-1 -11 0 -21 0 -23 0 -4 -1 -4 -1 -4 9 -1 3 -1 6 -1 8 -1 1 -2 9 -2 13 0 2 1
2 15 2 8 1 16 1 18 1 2 1 7 1 12 2 9 0 13 1 22 2 3 0 7 0 9 1 1 0 8 0 16 0 13
1 24 2 25 2 0 1 1 1 3 1 2 0 2 -1 2 -3z"/>
</g>
</svg>
