<?xml version="1.0" standalone="no"?>
<!DOCTYPE svg PUBLIC "-//W3C//DTD SVG 20010904//EN"
 "http://www.w3.org/TR/2001/REC-SVG-20010904/DTD/svg10.dtd">
<svg version="1.0" xmlns="http://www.w3.org/2000/svg"
 width="1000.000000pt" height="1000.000000pt" viewBox="0 0 1000.000000 1000.000000"
 preserveAspectRatio="xMidYMid meet">
<metadata>
Created by potrace 1.16, written by Peter Selinger 2001-2019
</metadata>
<g transform="translate(0.000000,1000.000000) scale(1.000000,-1.000000)"
fill="#000000" stroke="none">
<path d="M651 735 c-5 -3 -10 -8 -14 -16 -3 -6 -8 -23 -10 -29 -1 -6 -1 -8 -1
-11 -1 -1 -1 -4 -1 -6 -1 -3 -1 -7 -2 -10 0 -3 -1 -7 -1 -9 -1 -3 -1 -5 -2 -6
0 -2 0 -4 0 -5 -1 -2 -1 -6 -2 -9 -1 -6 -2 -10 -3 -15 0 -3 0 -5 -1 -6 0 -2 0
-6 -1 -9 0 -4 0 -8 0 -8 -1 0 -15 0 -32 0 -17 -1 -32 -1 -34 -1 -2 -1 -7 -1
-11 -1 -4 -1 -9 -1 -11 -2 -2 0 -7 0 -11 -1 -5 0 -10 0 -11 0 -2 -1 -7 -1 -10
-2 -4 0 -9 0 -10 -1 -1 0 -5 0 -9 0 -18 -2 -24 -3 -26 -4 -1 0 -4 0 -7 -1 -3
0 -6 0 -7 -1 -2 0 -5 0 -7 -1 -2 0 -5 0 -6 -1 -2 0 -4 0 -6 -1 -3 0 -5 0 -6
-1 -1 0 -3 0 -4 -1 -1 0 -3 0 -4 0 -5 -2 -7 -2 -9 -3 -1 0 -4 -1 -6 -1 -1 -1
-3 -2 -3 -1 0 0 -1 0 -1 -1 -2 -2 -2 -2 -2 16 1 31 0 83 0 89 -1 4 -1 10 -2
14 0 8 -1 17 -2 18 0 0 0 0 0 1 -1 3 -4 8 -8 12 -8 10 -21 11 -32 5 -6 -4 -12
-10 -15 -16 -2 -4 -6 -20 -9 -30 0 -1 0 -3 0 -4 -1 -1 -1 -3 -1 -4 -1 -1 -1
-3 -1 -4 -1 -3 -2 -9 -4 -24 0 -4 0 -8 -1 -9 -2 -21 -2 -112 1 -136 0 -3 0 -7
1 -11 0 -4 0 -7 1 -8 0 -2 0 -5 0 -7 1 -6 2 -9 4 -17 0 -3 1 -7 1 -8 2 -10 12
-34 18 -44 7 -13 13 -25 13 -25 -1 -1 -2 -5 -3 -11 -1 -5 1 -14 4 -19 4 -8 15
-16 26 -19 5 -1 20 0 27 2 1 0 4 0 6 1 2 0 5 0 5 0 0 1 3 1 5 1 2 1 5 1 7 1 1
1 4 1 7 1 3 1 6 1 7 1 4 1 14 2 27 4 12 1 29 1 91 1 31 1 59 1 60 1 2 1 4 1 5
1 2 1 5 2 7 3 3 1 7 2 9 2 4 1 15 6 16 8 1 0 2 1 2 0 1 0 1 0 1 1 0 0 1 2 2 4
3 2 10 16 9 16 0 0 0 1 1 3 1 1 1 3 1 5 1 1 1 4 1 5 1 1 1 4 1 6 1 2 1 5 1 6
1 1 1 4 2 6 0 2 0 4 0 6 1 1 1 4 1 6 1 3 1 6 2 7 0 2 0 5 1 7 0 2 0 5 1 6 0 1
0 5 1 8 0 3 0 6 1 7 0 1 0 4 0 8 1 4 1 8 2 9 0 1 0 5 1 9 0 4 0 9 0 11 1 6 2
18 3 24 0 2 0 8 1 13 0 5 0 11 0 14 1 4 1 12 3 29 1 20 1 31 1 72 0 42 0 52
-1 60 -3 12 -5 19 -10 24 -3 3 -9 8 -9 6 0 0 -1 0 -1 1 -3 2 -11 1 -17 -1z
m-45 -223 c0 -5 0 -10 0 -12 -1 -2 -1 -7 -1 -10 -1 -4 -1 -9 -1 -10 -2 -13 -2
-17 -3 -18 0 -1 0 -5 -1 -8 0 -3 0 -6 -1 -7 0 -2 0 -4 -1 -6 0 -2 0 -5 0 -6
-1 -1 -1 -4 -2 -7 -1 -6 -1 -8 -1 -9 0 0 -25 0 -56 0 -67 -1 -72 -1 -92 -3
-10 -1 -17 -2 -19 -2 -1 -1 -4 -1 -7 -1 -3 -1 -6 -1 -7 -2 -1 0 -3 3 -7 10 -2
6 -7 15 -10 22 -6 11 -11 24 -13 37 0 2 0 4 0 6 -1 1 -1 5 -2 8 l0 7 7 0 c4 0
9 0 10 0 1 1 6 1 11 2 4 0 9 0 10 1 4 0 13 1 15 2 1 0 4 0 6 1 3 0 6 0 7 1 1
0 5 0 7 1 2 0 6 0 7 1 1 0 5 0 9 1 4 0 8 0 9 0 1 1 5 1 9 1 3 1 7 1 9 2 4 0
13 1 20 1 10 1 19 2 23 3 2 0 8 0 13 1 5 0 10 0 10 0 0 0 10 1 21 1 l22 0 -1
-8z"/>
</g>
</svg>
