<?xml version="1.0" standalone="no"?>
<!DOCTYPE svg PUBLIC "-//W3C//DTD SVG 20010904//EN"
 "http://www.w3.org/TR/2001/REC-SVG-20010904/DTD/svg10.dtd">
<svg version="1.0" xmlns="http://www.w3.org/2000/svg"
 width="1000.000000pt" height="1000.000000pt" viewBox="0 0 1000.000000 1000.000000"
 preserveAspectRatio="xMidYMid meet">
<metadata>
Created by potrace 1.16, written by Peter Selinger 2001-2019
</metadata>
<g transform="translate(0.000000,1000.000000) scale(1.000000,-1.000000)"
fill="#000000" stroke="none">
<path d="M295 960 c-11 -2 -19 -10 -24 -22 -2 -5 -2 -6 -4 -14 -1 -9 -1 -46 1
-58 1 -1 1 -4 1 -6 1 -4 3 -16 4 -24 1 -3 2 -8 3 -12 0 -2 0 -5 1 -7 1 -11 3
-21 4 -25 1 -1 1 -3 1 -4 2 -6 11 -38 12 -42 1 -1 1 -2 1 -3 1 -2 1 -3 1 -4 1
-1 2 -4 3 -6 2 -9 9 -17 16 -20 5 -2 5 -2 13 -2 3 -1 8 -1 11 -2 7 -1 29 -1
41 0 15 2 18 2 38 2 44 2 61 2 67 2 3 1 12 1 19 1 22 2 27 2 48 3 24 0 62 1
72 0 8 -1 15 1 22 4 2 1 4 2 4 2 0 0 0 0 0 0 0 1 4 3 6 3 0 0 0 0 0 1 -1 0 0
2 1 3 6 6 10 18 9 26 0 4 -1 8 -1 9 0 0 0 0 0 1 -1 3 -4 8 -4 8 -1 0 -1 0 -1
1 0 1 -2 3 -4 6 -3 2 -4 5 -4 5 0 0 0 3 0 5 1 2 1 6 2 8 1 6 1 8 1 12 1 2 1 5
1 6 1 1 1 4 2 6 0 3 1 7 1 10 1 3 1 7 2 9 0 1 0 3 0 5 1 1 1 3 2 6 0 2 0 4 1
5 0 1 0 3 1 6 0 2 0 4 1 5 0 3 1 7 3 15 0 1 0 5 0 8 1 3 1 8 2 11 1 11 0 27
-2 32 0 1 0 2 -1 3 0 3 -4 9 -8 13 -15 16 -38 11 -52 -10 -2 -4 -7 -14 -8 -18
0 -1 -2 -8 -4 -16 l-3 -15 -7 1 c-4 0 -8 0 -9 1 -12 2 -73 2 -100 0 -2 -1 -7
-1 -12 -1 -5 -1 -10 -1 -11 -2 -1 0 -5 0 -9 -1 -4 0 -9 0 -10 -1 -1 0 -5 0 -9
-1 -3 0 -7 0 -8 0 -1 -1 -6 -1 -9 -2 -4 0 -9 0 -10 -1 -2 0 -7 0 -11 -1 -9 0
-12 -1 -21 -3 -1 0 -4 0 -5 -1 -4 0 -12 -3 -15 -5 -3 -1 -3 -1 -3 1 0 1 0 2 0
3 -1 0 -1 3 -1 6 -1 3 -1 6 -2 7 0 2 -1 5 -2 10 0 2 0 4 -1 5 0 0 0 2 0 5 -1
2 -1 4 -2 5 0 1 0 3 -1 5 -1 10 -7 22 -12 29 -7 7 -19 11 -28 9z m264 -141
c10 -1 18 -2 19 -3 1 0 1 -6 -1 -11 0 -2 0 -4 0 -6 -1 -3 -1 -5 -2 -5 0 0 -3
0 -6 -1 -45 -1 -54 -2 -71 -3 -23 -1 -25 -1 -50 -1 -13 -1 -31 -1 -39 -2 -16
0 -21 0 -45 -3 l-7 0 0 4 c0 2 0 4 0 5 -1 1 -1 5 -1 10 l-1 8 3 0 c6 -2 8 -2
12 -3 7 -1 26 0 34 1 1 1 5 1 10 2 10 1 12 1 19 2 3 0 7 0 8 1 1 0 6 0 10 1 3
0 8 0 9 1 1 0 5 0 9 0 9 1 14 2 33 3 9 0 17 0 17 0 0 1 32 0 40 0z"/>
</g>
</svg>
