<?xml version="1.0" standalone="no"?>
<!DOCTYPE svg PUBLIC "-//W3C//DTD SVG 20010904//EN"
 "http://www.w3.org/TR/2001/REC-SVG-20010904/DTD/svg10.dtd">
<svg version="1.0" xmlns="http://www.w3.org/2000/svg"
 width="1000.000000pt" height="1000.000000pt" viewBox="0 0 1000.000000 1000.000000"
 preserveAspectRatio="xMidYMid meet">
<metadata>
Created by potrace 1.16, written by Peter Selinger 2001-2019
</metadata>
<g transform="translate(0.000000,1000.000000) scale(1.000000,-1.000000)"
fill="#000000" stroke="none">
<path d="M481 840 c-11 -2 -18 -9 -25 -23 -2 -5 -4 -10 -5 -11 0 -1 0 -2 0 -2
0 0 0 0 0 -1 -1 0 -1 -1 -1 -2 -1 -2 -1 -4 -1 -5 -1 -1 -1 -3 -1 -4 -2 -6 -4
-17 -4 -21 -1 -4 -1 -6 -2 -12 -1 -2 -1 -6 -1 -8 -1 -2 -1 -6 -1 -7 -1 -1 -1
-4 -1 -7 -1 -2 -1 -5 -1 -6 -1 -1 -1 -4 -1 -7 -1 -3 -1 -7 -2 -8 0 -4 -1 -10
-2 -16 0 -3 0 -7 -1 -8 0 -2 -1 -13 -1 -18 -1 -3 -1 -3 -6 -2 -4 2 -4 2 -9 3
-3 0 -5 0 -6 1 -11 2 -48 2 -67 0 -2 -1 -7 -1 -10 -1 -4 -1 -9 -1 -10 -1 -1
-1 -5 -1 -7 -1 -2 -1 -5 -1 -7 -1 -1 -1 -4 -1 -7 -2 -3 0 -6 0 -7 -1 -2 0 -5
0 -7 -1 -2 0 -5 0 -6 -1 -2 0 -5 0 -7 -1 -2 0 -5 0 -6 -1 -8 -1 -10 -1 -10 0
0 1 0 2 0 3 -1 1 -1 5 -2 9 0 4 0 8 0 9 -1 1 -1 5 -1 9 -1 4 -1 8 -2 9 0 1 0
4 0 8 -1 4 -1 7 -1 8 -1 1 -1 5 -1 8 -1 4 -1 8 -2 9 0 1 0 5 -1 8 0 5 0 7 -1
14 -1 1 -1 4 -1 6 -1 4 -3 12 -3 12 0 0 0 0 0 1 -1 1 -4 11 -10 26 -9 22 -32
29 -48 13 -7 -6 -9 -13 -10 -26 -1 -4 -1 -9 -2 -12 -1 -7 -1 -27 0 -39 2 -18
3 -26 3 -33 1 -1 1 -5 1 -9 1 -4 1 -8 1 -9 1 -1 1 -5 2 -9 0 -4 0 -7 0 -8 1
-1 1 -5 1 -9 1 -4 1 -8 1 -9 1 -1 1 -5 1 -8 1 -4 1 -8 1 -9 1 -1 1 -4 1 -7 1
-3 1 -7 1 -8 1 -1 1 -4 1 -7 1 -3 1 -7 1 -8 1 -1 1 -4 1 -6 1 -3 1 -7 2 -10 0
-2 0 -5 1 -6 0 -1 0 -4 0 -7 1 -3 1 -7 2 -8 0 -1 0 -6 1 -9 0 -4 0 -8 1 -9 0
-1 0 -5 0 -10 1 -4 1 -9 2 -10 0 -1 0 -5 0 -9 1 -4 1 -8 2 -9 0 -1 0 -5 1 -8
1 -17 3 -25 8 -32 0 -2 1 -4 2 -6 1 -8 1 -10 3 -13 3 -5 3 -6 7 -10 2 -1 4 -3
5 -4 0 0 1 -1 1 0 1 0 1 0 1 -1 0 0 4 -2 9 -4 7 -2 10 -2 20 -2 6 0 13 0 15 0
3 1 7 1 10 2 2 0 6 0 8 0 24 4 35 4 66 4 22 0 41 0 48 -1 1 -1 5 -1 9 -1 3 -1
8 -1 9 -1 16 -3 30 -3 38 -1 15 3 28 15 32 29 0 1 0 3 0 3 1 0 1 3 1 5 1 2 1
5 2 6 0 5 1 24 2 50 1 15 2 34 3 49 0 5 0 15 0 22 1 20 2 35 4 47 0 2 0 7 0
12 1 4 1 9 1 10 1 1 1 5 2 9 0 4 0 7 1 8 0 1 0 5 1 9 0 3 0 7 1 8 0 1 0 4 0 7
1 3 1 6 1 7 1 1 1 4 1 7 1 3 1 6 2 7 0 1 0 4 1 7 0 3 0 6 1 7 0 2 0 5 1 7 0 2
0 5 1 6 2 11 3 36 2 42 -1 1 -1 4 -1 5 -1 2 -3 8 -4 11 0 1 0 2 0 2 -3 7 -8
14 -14 17 -7 5 -14 6 -21 5z m-77 -240 c5 -2 16 -2 19 -1 l2 1 -1 -16 c-1 -25
-1 -30 -2 -50 0 -10 0 -19 0 -20 0 0 -1 -1 -2 0 -2 0 -6 0 -9 0 -4 1 -10 1
-12 2 -17 1 -50 2 -69 1 -12 -1 -26 -2 -28 -2 -1 -1 -5 -1 -9 -1 -8 -1 -13 -2
-14 -3 -1 0 -2 3 -4 19 0 3 0 7 -1 8 0 1 0 5 0 9 -1 7 -2 14 -3 20 0 4 0 7 -2
17 0 5 0 5 2 5 1 0 3 0 5 1 1 0 4 0 6 1 3 0 6 0 7 0 1 1 4 1 6 1 2 1 5 1 7 1
3 1 8 2 14 3 2 0 5 0 6 1 1 0 5 0 8 1 3 0 6 0 7 1 1 0 6 0 11 1 4 0 9 0 9 1 1
0 44 -1 47 -1z"/>
</g>
</svg>
