<?xml version="1.0" standalone="no"?>
<!DOCTYPE svg PUBLIC "-//W3C//DTD SVG 20010904//EN"
 "http://www.w3.org/TR/2001/REC-SVG-20010904/DTD/svg10.dtd">
<svg version="1.0" xmlns="http://www.w3.org/2000/svg"
 width="1000.000000pt" height="1000.000000pt" viewBox="0 0 1000.000000 1000.000000"
 preserveAspectRatio="xMidYMid meet">
<metadata>
Created by potrace 1.16, written by Peter Selinger 2001-2019
</metadata>
<g transform="translate(0.000000,1000.000000) scale(1.000000,-1.000000)"
fill="#000000" stroke="none">
<path d="M663 850 c-12 -4 -20 -14 -27 -34 -1 -4 -2 -8 -2 -9 -1 -2 -2 -5 -2
-7 -1 -3 -2 -7 -2 -8 -1 -1 -1 -4 -1 -5 -1 -3 -2 -5 -2 -11 -2 -10 -3 -14 -3
-19 -1 -2 -1 -6 -1 -7 -1 -3 -2 -8 -2 -14 -1 -2 -1 -5 -1 -7 -1 -3 -1 -7 -2
-10 0 -3 0 -6 -1 -7 0 -2 -1 -15 -1 -17 0 -1 -2 -1 -9 1 -1 0 -5 0 -8 1 -3 0
-7 0 -8 1 -1 0 -6 0 -10 1 -4 0 -9 0 -11 1 -24 2 -63 2 -88 1 -13 -1 -14 -1
-24 -2 -4 -1 -8 -1 -10 -2 -9 0 -14 -1 -16 -1 -1 -1 -4 -1 -6 -1 -2 -1 -6 -1
-7 -1 -1 -1 -4 -1 -6 -2 -3 0 -7 -1 -9 -1 -2 -1 -5 -1 -6 -2 -2 0 -4 0 -5 -1
-1 0 -3 0 -4 -1 -2 0 -6 -1 -10 -2 -4 -2 -7 -3 -8 -3 0 0 0 4 -1 7 0 4 0 8 0
11 -1 2 -1 6 -2 10 0 4 0 8 0 9 -1 1 -1 5 -2 8 0 3 0 6 -1 7 0 1 0 5 -1 8 0 3
0 6 -1 7 0 1 0 3 -1 6 0 2 0 4 -1 5 0 1 0 3 -1 5 0 4 -6 27 -7 29 0 0 -1 1 -1
1 0 2 -3 9 -6 13 -4 6 -12 13 -18 16 -7 3 -17 4 -25 1 -10 -4 -21 -17 -23 -28
-1 -8 0 -22 2 -30 1 -5 2 -10 2 -11 1 -1 1 -4 1 -5 1 -1 1 -4 1 -5 1 -1 1 -4
1 -5 1 -1 1 -4 2 -6 0 -3 0 -6 0 -7 2 -10 2 -14 4 -24 0 -3 0 -7 1 -9 0 -2 0
-7 1 -11 0 -4 0 -9 0 -11 3 -23 3 -26 5 -61 0 -7 0 -16 1 -19 0 -4 0 -11 0
-15 1 -14 2 -24 2 -26 1 -1 1 -5 1 -9 3 -25 5 -35 11 -43 3 -4 4 -5 9 -10 5
-3 14 -6 21 -6 5 0 7 -1 11 -4 8 -5 15 -6 29 -6 6 0 15 0 20 0 12 1 16 2 29 3
6 0 13 0 15 1 4 0 26 1 44 2 14 0 85 1 106 1 17 0 30 0 33 -1 1 -1 3 -1 5 -1
2 -1 5 -1 6 -2 3 0 14 0 17 0 1 1 4 2 7 3 16 7 24 23 21 40 -1 4 -4 10 -5 11
-1 1 -1 1 -1 1 1 0 -2 4 -7 8 -3 4 -3 5 -1 14 0 1 0 5 1 7 0 2 0 5 1 6 0 1 0
4 1 7 0 3 0 6 0 7 1 1 1 4 1 7 1 3 1 6 2 7 0 1 0 4 1 6 0 3 0 6 0 7 1 1 1 5 2
8 0 3 0 6 1 7 0 1 0 5 1 8 0 3 0 6 1 7 0 1 0 4 0 7 1 3 1 7 2 10 0 2 0 5 1 7
0 1 0 5 0 9 1 4 1 8 1 9 1 1 1 5 2 9 0 4 0 8 1 9 0 1 0 5 1 8 0 3 0 7 1 8 0 1
0 5 1 8 0 3 0 7 1 8 0 1 0 5 1 7 0 2 0 6 1 7 0 2 0 4 0 6 1 1 1 4 1 7 1 2 1 5
1 6 1 2 1 6 2 14 2 11 3 40 2 45 -2 6 -2 8 -4 11 -3 6 -11 14 -16 16 -7 3 -16
3 -22 1z m-111 -225 c2 -1 8 -1 12 -1 11 -1 17 -2 21 -2 2 -1 6 -1 9 -1 2 -1
5 -1 7 -1 1 -1 2 -1 3 -1 2 0 2 -1 1 -10 -1 -1 -1 -4 -1 -7 -1 -3 -1 -6 -1 -7
-1 -1 -1 -4 -1 -7 -1 -3 -1 -7 -1 -8 -1 -1 -1 -4 -2 -7 0 -2 0 -5 -1 -6 0 -2
0 -4 -1 -5 0 -2 0 -4 -1 -4 0 0 -7 0 -16 -1 -39 0 -86 -1 -93 -1 -4 -1 -14 -1
-23 -1 -18 -1 -18 -1 -52 -4 -13 0 -24 -2 -29 -3 -1 0 -2 0 -2 1 -1 1 -3 17
-3 33 -2 31 -2 29 0 29 12 1 22 1 27 2 1 1 3 1 5 1 2 1 5 1 6 1 1 1 4 1 5 2 1
0 3 0 5 0 1 1 6 2 13 3 1 0 4 0 6 0 1 1 5 1 8 1 3 1 8 1 11 2 2 0 6 0 8 0 2 1
9 1 16 2 6 0 12 0 12 0 0 1 48 0 52 0z"/>
</g>
</svg>
