<?xml version="1.0" standalone="no"?>
<!DOCTYPE svg PUBLIC "-//W3C//DTD SVG 20010904//EN"
 "http://www.w3.org/TR/2001/REC-SVG-20010904/DTD/svg10.dtd">
<svg version="1.0" xmlns="http://www.w3.org/2000/svg"
 width="1000.000000pt" height="1000.000000pt" viewBox="0 0 1000.000000 1000.000000"
 preserveAspectRatio="xMidYMid meet">
<metadata>
Created by potrace 1.16, written by Peter Selinger 2001-2019
</metadata>
<g transform="translate(0.000000,1000.000000) scale(1.000000,-1.000000)"
fill="#000000" stroke="none">
<path d="M159 829 c-16 -4 -26 -16 -30 -36 -1 -7 0 -34 1 -57 1 -2 1 -7 1 -12
1 -5 1 -10 1 -11 1 -1 1 -5 1 -8 2 -12 4 -31 5 -35 0 -1 0 -4 1 -8 0 -3 0 -6
1 -7 0 -1 0 -4 0 -7 1 -3 1 -6 2 -7 0 -2 0 -5 1 -7 0 -4 1 -6 1 -11 1 -1 1 -4
2 -6 0 -3 4 -25 5 -31 1 -1 2 -5 3 -9 1 -5 2 -10 2 -11 1 -1 1 -3 1 -4 1 -1 1
-3 1 -4 1 -1 2 -9 4 -17 2 -7 4 -15 4 -16 1 -1 1 -4 1 -5 1 -1 1 -4 2 -5 0 -1
0 -4 0 -5 1 -2 2 -9 3 -18 0 -4 0 -7 1 -8 0 -2 0 -6 0 -11 0 -10 2 -16 6 -23
6 -8 14 -13 25 -16 5 -1 20 -1 25 0 1 1 5 1 9 2 10 2 11 2 14 2 1 1 3 1 5 1 2
1 4 1 6 1 1 1 3 1 5 1 2 1 6 1 8 2 2 0 4 0 5 1 2 0 5 0 7 1 2 0 5 0 6 1 2 0
11 1 17 2 24 2 95 2 110 0 1 -1 5 -1 9 -1 3 -1 7 -1 9 -2 10 -1 13 -1 18 -1 9
0 17 2 24 7 1 2 3 3 3 2 1 0 1 0 1 1 -1 0 1 2 3 4 5 7 7 14 7 24 0 6 0 9 -1
10 -1 1 -1 2 -1 2 1 0 1 1 0 2 -1 1 -1 3 -1 3 0 1 0 1 -1 1 -1 0 -1 1 -1 1 0
2 -6 9 -10 11 l-2 2 2 6 c2 5 2 6 3 11 3 10 3 11 4 17 0 3 0 6 0 7 1 1 1 4 1
8 1 4 1 8 1 9 1 1 1 6 2 11 0 5 0 10 1 12 0 1 0 7 0 12 1 4 1 10 1 12 1 2 1 8
1 13 1 4 1 10 1 12 1 2 1 6 2 10 0 4 0 8 1 9 0 1 0 6 0 9 1 4 1 8 1 9 1 1 1 4
1 7 1 3 1 7 2 8 0 1 0 5 1 7 0 2 0 6 1 7 0 1 0 4 0 7 1 2 1 5 1 6 1 1 1 4 1 6
1 2 1 5 2 6 0 1 0 5 1 7 0 2 0 5 1 6 0 2 0 4 0 6 1 2 1 5 2 6 1 9 2 34 1 41
-4 16 -17 28 -31 29 -7 0 -17 -2 -17 -3 0 -1 0 -1 -1 -1 -1 1 -9 -5 -12 -9 -3
-4 -8 -13 -8 -15 0 -1 -1 -2 -1 -2 -1 -2 -5 -16 -5 -21 -1 -2 -1 -5 -2 -6 0
-1 0 -4 -1 -6 0 -3 0 -5 0 -6 -1 -1 -1 -4 -1 -6 -1 -2 -1 -6 -1 -7 -1 -1 -1
-4 -2 -6 0 -2 0 -5 -1 -6 0 -1 0 -4 -1 -6 0 -2 0 -4 0 -6 -1 -1 -1 -4 -1 -7
-1 -3 -1 -7 -1 -8 -1 -1 -1 -5 -2 -8 0 -3 0 -6 -1 -7 0 -1 0 -4 0 -7 -1 -8 -2
-13 -2 -14 0 0 -7 0 -15 0 -26 -2 -36 -2 -51 -4 l-6 0 -1 35 c0 55 -1 81 -6
96 -3 7 -8 14 -14 18 -4 2 -5 2 -11 2 -11 0 -20 -6 -25 -18 -3 -5 -8 -25 -10
-33 0 -2 0 -5 -1 -6 0 -1 0 -4 -1 -5 0 -2 0 -4 0 -5 -1 -1 -1 -5 -2 -14 -1 -2
-1 -5 -1 -7 -1 -3 -1 -8 -2 -12 0 -4 0 -9 -1 -10 0 -5 -1 -32 -1 -41 -1 -9 0
-8 -8 -10 -6 0 -11 -1 -13 -2 -1 0 -4 0 -6 0 -2 -1 -5 -1 -6 -2 -1 0 -4 0 -6
-1 -2 0 -4 0 -5 -1 -2 0 -4 0 -6 -1 -2 0 -4 0 -5 -1 -1 0 -2 0 -2 1 0 0 0 1 0
2 -1 1 -1 4 -1 7 -1 3 -1 7 -1 8 -1 1 -1 4 -1 7 -1 3 -1 7 -2 8 0 4 -1 10 -1
16 -1 3 -1 7 -1 9 -1 3 -2 10 -3 20 0 1 0 7 -1 12 0 5 0 11 -1 14 0 2 0 10 0
18 -1 18 -2 23 -4 31 -7 19 -24 30 -42 25z m256 -233 c1 0 1 0 1 -1 -1 0 -1
-4 -2 -7 0 -9 -1 -14 -2 -19 -2 -16 -2 -18 -4 -24 -1 -5 -2 -13 -2 -18 0 -2 0
-2 -26 -1 -15 0 -27 0 -27 0 0 0 0 4 -1 8 0 4 0 8 -1 10 0 3 -1 25 -1 37 0 10
0 11 1 12 2 0 15 1 24 2 2 0 10 0 18 1 7 0 13 0 13 0 0 1 8 0 9 0z m-142 -26
c1 -7 1 -16 2 -20 0 -9 0 -11 2 -23 l0 -7 -4 -1 c-3 0 -5 0 -6 -1 -1 0 -3 0
-5 0 -2 -1 -6 -1 -8 -2 -6 -1 -8 -1 -9 1 0 3 -1 9 -1 11 -1 5 -2 10 -3 11 0 0
0 2 -1 4 0 1 -1 6 -2 11 -3 9 -3 11 -4 14 0 2 -1 4 -1 6 -1 2 -1 3 5 3 2 1 4
1 5 1 1 1 3 1 5 1 2 1 4 1 6 1 2 1 4 1 13 3 2 0 4 0 4 1 1 1 2 -3 2 -14z"/>
</g>
</svg>
