<?xml version="1.0" standalone="no"?>
<!DOCTYPE svg PUBLIC "-//W3C//DTD SVG 20010904//EN"
 "http://www.w3.org/TR/2001/REC-SVG-20010904/DTD/svg10.dtd">
<svg version="1.0" xmlns="http://www.w3.org/2000/svg"
 width="1000.000000pt" height="1000.000000pt" viewBox="0 0 1000.000000 1000.000000"
 preserveAspectRatio="xMidYMid meet">
<metadata>
Created by potrace 1.16, written by Peter Selinger 2001-2019
</metadata>
<g transform="translate(0.000000,1000.000000) scale(1.000000,-1.000000)"
fill="#000000" stroke="none">
<path d="M640 961 c-12 -4 -23 -15 -25 -26 -2 -7 -2 -8 -2 -16 -1 -5 -1 -12
-2 -16 0 -5 0 -9 0 -10 0 -1 2 -1 -21 -1 -29 -1 -74 -3 -75 -4 -1 0 -1 0 -1 1
0 0 0 1 0 2 -1 1 -1 5 -1 9 -1 4 -1 8 -1 10 -1 1 -1 3 -1 5 -4 23 -12 37 -25
44 -7 3 -18 4 -25 0 -8 -3 -15 -11 -18 -21 -4 -10 -5 -20 -5 -41 l0 -14 -4 -1
c-3 0 -8 0 -11 0 -4 -1 -10 -1 -13 -2 -15 -1 -18 -1 -24 -3 -1 0 -4 0 -5 -1
-1 0 -3 -1 -5 -1 -6 -3 -7 -2 -7 1 0 2 0 4 0 5 -1 1 -1 5 -3 23 0 3 0 7 -1 9
0 1 0 5 -1 8 -2 15 -11 29 -24 35 -4 2 -7 2 -13 2 -11 0 -18 -3 -25 -11 -11
-12 -14 -23 -12 -50 1 -4 1 -10 2 -12 0 -3 0 -7 0 -9 1 -2 1 -6 2 -9 0 -3 0
-7 1 -9 0 -2 0 -6 1 -9 0 -3 0 -7 1 -9 0 -2 0 -6 1 -9 0 -3 0 -7 0 -9 1 -2 1
-6 2 -10 0 -4 0 -7 1 -8 0 -1 0 -5 1 -9 0 -3 0 -7 1 -8 0 -1 0 -4 0 -8 2 -11
3 -17 4 -20 1 -2 1 -3 0 -3 0 0 0 -1 1 -1 0 -1 1 -2 1 -2 0 0 1 -3 2 -5 1 -3
2 -8 2 -11 1 -11 4 -19 11 -26 11 -12 28 -15 52 -11 1 1 4 1 6 1 2 1 5 1 7 1
1 1 4 1 6 1 2 1 6 1 7 2 6 1 12 2 19 3 2 0 5 0 6 1 1 0 5 0 9 1 4 0 9 0 11 1
22 2 70 2 100 -1 2 0 8 0 12 0 10 -1 18 -2 21 -3 9 -1 41 -2 49 -1 6 1 6 1 12
4 6 3 13 10 16 17 3 5 7 21 9 31 0 1 0 4 1 5 0 1 0 4 1 5 0 1 0 4 1 5 0 1 0 4
1 6 0 1 1 7 2 13 1 6 2 11 3 13 0 3 2 13 2 17 1 1 1 3 1 5 1 1 1 4 2 7 0 3 0
6 0 7 1 1 1 4 1 6 1 2 1 5 1 7 1 1 1 5 2 9 0 3 0 7 1 8 0 2 1 11 2 17 1 16 2
44 1 47 0 1 -1 2 -1 3 -1 2 -5 9 -8 13 -10 10 -25 14 -39 10z m-41 -148 c0 -1
-1 -2 -1 -3 0 -2 -1 -4 -1 -6 -1 -3 -1 -5 -1 -7 -1 -1 -1 -3 -1 -6 -1 -2 -1
-4 -2 -5 0 -1 0 -2 0 -2 0 -1 -3 -1 -7 0 -4 0 -9 0 -10 1 -2 0 -8 0 -12 1 -5
0 -11 0 -13 1 -8 0 -23 1 -30 1 -10 1 -9 -1 -7 13 0 4 0 8 0 9 0 1 0 2 1 2 8
1 20 2 48 3 12 0 23 0 23 0 0 0 3 0 6 0 6 0 7 0 7 -2z m-162 -9 c0 -1 0 -5 -1
-7 0 -7 -1 -10 -1 -11 -1 0 -3 0 -6 -1 -2 0 -6 0 -9 0 -5 -1 -10 -2 -14 -2 -1
-1 -4 -1 -6 -1 -2 -1 -5 -1 -6 -1 -1 -1 -4 -1 -6 -1 -2 -1 -5 -1 -6 -1 -2 -1
-2 0 -2 2 0 1 0 3 -1 4 0 2 0 5 -1 8 0 4 0 7 -1 8 0 1 2 2 10 2 6 0 13 0 17 0
9 1 13 2 23 3 5 0 9 0 9 1 1 1 2 -1 1 -3z"/>
</g>
</svg>
