<?xml version="1.0" standalone="no"?>
<!DOCTYPE svg PUBLIC "-//W3C//DTD SVG 20010904//EN"
 "http://www.w3.org/TR/2001/REC-SVG-20010904/DTD/svg10.dtd">
<svg version="1.0" xmlns="http://www.w3.org/2000/svg"
 width="1000.000000pt" height="1000.000000pt" viewBox="0 0 1000.000000 1000.000000"
 preserveAspectRatio="xMidYMid meet">
<metadata>
Created by potrace 1.16, written by Peter Selinger 2001-2019
</metadata>
<g transform="translate(0.000000,1000.000000) scale(1.000000,-1.000000)"
fill="#000000" stroke="none">
<path d="M651 735 c-5 -3 -10 -8 -14 -16 -3 -6 -8 -23 -10 -29 -1 -6 -1 -8 -1
-11 -1 -1 -1 -4 -1 -6 -1 -3 -1 -7 -2 -10 0 -3 -1 -7 -1 -9 -1 -3 -1 -5 -2 -6
0 -2 0 -4 0 -5 -1 -2 -1 -6 -2 -9 0 -3 -1 -7 -1 -9 -1 -4 -2 -8 -2 -12 -1 -4
-2 -12 -3 -21 0 -13 0 -13 -7 -13 -3 0 -11 0 -17 0 -6 -1 -23 -1 -37 -2 l-26
0 0 16 c1 9 1 21 1 27 1 5 1 16 1 23 1 8 1 20 2 28 0 17 0 23 0 27 -1 5 -3 10
-4 12 -1 0 -1 1 -1 1 2 0 -5 9 -8 12 -6 6 -18 10 -25 9 -17 -1 -29 -11 -35
-29 -2 -7 -3 -15 -4 -53 -1 -9 -1 -21 -2 -26 -1 -31 -1 -40 -1 -41 0 -2 -1 -2
-3 -2 -14 0 -43 -3 -57 -6 -1 0 -4 0 -6 0 l-4 -1 1 8 c1 16 0 88 0 94 -1 4 -1
10 -2 14 0 8 -1 17 -2 18 0 0 0 0 0 1 -1 3 -4 8 -8 12 -8 10 -21 11 -32 5 -6
-4 -12 -10 -15 -16 -2 -4 -6 -20 -9 -30 0 -1 0 -3 0 -4 -1 -1 -1 -3 -1 -4 -1
-1 -1 -3 -1 -4 -1 -3 -2 -9 -4 -24 0 -4 0 -8 -1 -9 -2 -21 -2 -112 1 -136 0
-3 0 -7 1 -11 0 -4 0 -7 1 -8 0 -2 0 -5 0 -7 1 -6 2 -9 4 -17 0 -3 1 -7 1 -8
2 -10 12 -34 18 -44 2 -4 5 -10 8 -15 6 -12 9 -16 14 -21 2 -3 5 -7 6 -8 3 -7
16 -16 22 -17 1 -1 3 -1 3 -1 0 -2 20 -1 31 0 2 1 7 1 12 2 4 0 9 0 11 1 24 2
65 2 79 0 1 -1 5 -1 8 -1 3 -1 6 -1 8 -1 13 -2 31 -3 48 -3 16 0 23 1 40 6 5
2 7 2 14 4 3 0 14 5 15 7 1 0 2 1 2 0 1 0 1 0 1 1 0 0 1 2 2 4 3 2 10 16 9 16
0 0 0 1 1 3 1 1 1 3 1 5 1 1 1 4 1 5 1 1 1 4 1 6 1 2 1 5 1 6 1 1 1 4 2 6 0 2
0 4 0 6 1 1 1 4 1 6 1 3 1 6 2 7 0 2 0 5 1 7 0 2 0 5 1 6 0 1 0 5 1 8 0 3 0 6
1 7 0 1 0 4 0 8 1 4 1 8 2 9 0 1 0 5 1 9 0 4 0 9 0 11 1 6 2 18 3 24 0 2 0 8
1 13 0 5 0 11 0 14 1 4 1 12 3 29 1 20 1 31 1 72 0 42 0 52 -1 60 -3 12 -5 19
-10 24 -3 3 -9 8 -9 6 0 0 -1 0 -1 1 -3 2 -11 1 -17 -1z m-204 -231 c0 0 0
-19 0 -42 1 -40 1 -41 -1 -41 -4 0 -31 -2 -35 -2 -2 -1 -8 9 -16 27 -3 7 -8
21 -10 28 0 1 0 3 0 5 -1 2 -2 11 -3 16 0 3 0 3 3 3 1 0 3 0 4 0 1 1 4 1 7 1
2 1 5 1 7 1 1 1 4 1 7 1 3 1 7 1 8 1 1 1 7 1 12 2 6 0 11 0 11 0 0 1 6 1 6 0z
m159 -5 c-1 -2 -1 -7 -2 -10 0 -4 0 -9 0 -10 -1 -1 -1 -5 -1 -8 -1 -4 -1 -8
-1 -9 -1 -1 -1 -5 -1 -7 -1 -2 -1 -6 -1 -7 -1 -1 -1 -4 -1 -7 -1 -2 -1 -5 -2
-6 0 -1 0 -4 -1 -6 0 -5 -1 -10 -2 -12 0 -1 0 -2 0 -2 0 -1 -1 -1 -2 0 -1 0
-8 0 -14 1 -19 0 -33 1 -38 3 -1 0 -5 0 -9 1 -3 0 -7 0 -7 1 -1 1 -1 80 0 80
1 0 2 0 2 0 4 -1 60 1 61 1 0 0 4 1 9 1 l10 0 0 -4z"/>
</g>
</svg>
