<?xml version="1.0" standalone="no"?>
<!DOCTYPE svg PUBLIC "-//W3C//DTD SVG 20010904//EN"
 "http://www.w3.org/TR/2001/REC-SVG-20010904/DTD/svg10.dtd">
<svg version="1.0" xmlns="http://www.w3.org/2000/svg"
 width="1000.000000pt" height="1000.000000pt" viewBox="0 0 1000.000000 1000.000000"
 preserveAspectRatio="xMidYMid meet">
<metadata>
Created by potrace 1.16, written by Peter Selinger 2001-2019
</metadata>
<g transform="translate(0.000000,1000.000000) scale(1.000000,-1.000000)"
fill="#000000" stroke="none">
<path d="M681 844 c-17 -6 -26 -22 -35 -59 0 -1 0 -3 0 -4 -1 -4 -5 -21 -5
-23 -1 -2 -1 -5 -1 -6 -1 -1 -1 -4 -1 -5 -1 -1 -1 -4 -1 -5 -1 -1 -1 -4 -1 -6
-1 -2 -1 -5 -2 -6 0 -1 0 -4 -1 -5 0 -2 0 -4 0 -5 -1 -1 -1 -4 -1 -6 -1 -2 -1
-5 -1 -7 -1 -1 -1 -4 -2 -7 0 -3 0 -6 -1 -7 0 -2 -1 -11 -2 -18 0 -4 0 -7 -1
-7 0 0 -1 0 -2 1 -3 3 -12 7 -17 7 -2 1 -7 1 -10 2 -4 0 -10 1 -13 2 -14 2
-15 3 -41 3 -14 0 -26 0 -26 0 0 0 0 19 -1 41 0 54 -1 68 -3 78 -1 5 -1 6 -1
6 0 0 0 0 0 1 -1 4 -8 17 -12 21 -6 6 -16 9 -25 7 -4 -1 -11 -5 -13 -8 -5 -5
-12 -21 -13 -30 -1 -1 -1 -4 -1 -5 -2 -6 -2 -8 -2 -11 -1 -5 -2 -11 -3 -21 0
-4 0 -9 -1 -11 0 -9 -1 -31 -1 -50 -1 -11 -1 -21 -1 -21 0 -1 -4 -1 -8 -1 -4
-1 -9 -1 -10 -1 -1 -1 -4 -1 -7 -1 -2 -1 -5 -1 -6 -2 -1 0 -4 0 -5 -1 -2 0 -5
0 -6 -1 -5 -1 -8 -1 -10 -1 -1 -1 -7 -2 -12 -4 -6 -1 -10 -3 -10 -3 0 1 -1 4
-1 9 -1 3 -1 7 -2 8 0 1 0 5 -1 7 0 2 0 5 -1 6 0 1 0 5 -1 8 0 3 0 6 -1 7 0 1
0 4 -1 7 0 3 0 6 -1 7 0 1 0 5 -1 9 0 3 0 7 -1 8 0 1 0 4 0 7 -1 3 -1 7 -1 8
-1 1 -1 5 -1 8 -1 3 -1 7 -1 8 -1 1 -1 5 -2 8 -1 8 -9 37 -12 43 -3 7 -9 13
-16 16 -7 3 -17 3 -24 0 -10 -5 -17 -16 -20 -30 0 -3 0 -5 0 -5 -1 0 -1 -3 -1
-6 -1 -3 -1 -6 -2 -7 0 -3 0 -21 0 -23 1 -2 1 -5 1 -9 1 -4 1 -8 2 -9 0 -1 0
-5 1 -8 0 -3 0 -6 0 -7 1 -1 1 -4 1 -8 1 -4 1 -8 1 -9 2 -8 2 -11 3 -15 0 -2
0 -6 0 -7 1 -4 2 -10 2 -15 1 -2 1 -5 1 -6 1 -1 1 -4 1 -7 1 -3 1 -6 1 -7 1
-1 1 -4 1 -7 1 -3 1 -6 1 -7 1 -1 1 -4 1 -7 1 -3 1 -7 1 -8 1 -1 1 -4 1 -7 1
-3 1 -7 1 -8 1 -1 1 -4 1 -7 1 -9 2 -15 3 -18 0 -1 0 -6 1 -9 0 -4 0 -8 1 -9
0 -1 0 -5 1 -9 0 -3 0 -7 1 -8 0 -1 0 -4 1 -8 0 -4 0 -7 1 -8 0 -2 0 -4 1 -6
0 -3 1 -9 2 -14 3 -13 3 -13 3 -14 0 0 0 0 0 -1 1 -4 5 -13 10 -22 3 -6 5 -11
5 -13 -1 -6 3 -15 9 -22 13 -13 37 -17 80 -12 2 0 14 0 27 0 61 2 68 2 87 3 5
1 12 1 14 1 2 1 9 1 14 2 4 0 10 0 12 1 7 0 22 1 26 2 2 0 9 0 14 0 32 2 32 2
44 7 5 2 10 4 10 3 1 0 1 0 1 1 -1 0 0 1 2 2 4 2 10 8 13 13 2 4 2 5 2 13 1 3
2 9 3 14 1 4 2 9 2 10 1 5 2 9 2 11 1 1 1 4 2 6 0 3 0 6 1 7 1 8 2 17 3 32 1
4 1 9 2 11 0 2 0 7 1 11 0 4 0 9 1 12 0 2 0 7 1 12 0 5 0 10 0 12 1 2 1 8 1
13 1 4 1 10 1 12 1 3 2 13 2 22 1 2 1 6 1 10 1 3 1 10 2 15 0 5 0 13 0 17 1 3
1 11 2 16 0 8 0 12 1 19 1 1 1 5 2 8 0 3 0 6 1 7 0 2 0 5 1 7 0 2 0 5 1 6 0 2
0 4 1 6 0 3 1 7 1 10 2 12 2 15 2 23 0 10 -2 18 -8 23 -3 4 -8 7 -11 8 -5 1
-14 1 -18 -1z m-58 -228 c-1 -2 -1 -7 -2 -12 0 -5 0 -10 0 -12 -1 -2 -1 -7 -1
-11 -1 -10 -2 -16 -3 -20 0 -3 0 -6 -1 -8 0 -3 0 -6 0 -7 -1 -1 -1 -4 -1 -7
-1 -2 -1 -5 -2 -6 0 -1 0 -4 -1 -5 0 -5 -1 -5 -8 -5 -3 -1 -10 -1 -14 -2 -5 0
-11 0 -13 -1 -10 0 -23 -1 -26 -2 -5 0 -25 -1 -30 -1 l-5 0 0 5 c0 3 0 10 1
15 0 9 0 16 0 48 0 11 0 20 0 21 1 0 11 0 24 1 23 0 30 0 37 2 7 2 14 3 23 3
9 1 11 2 17 4 2 2 5 3 5 3 0 0 0 -1 0 -3z m-182 -29 c0 -17 1 -42 1 -46 1 -1
1 -3 1 -5 1 -1 1 -3 1 -5 1 -2 1 -4 1 -5 1 -2 1 -5 1 -7 l1 -5 -5 0 c-17 0
-50 -3 -52 -4 -1 0 -2 2 -3 5 0 0 -1 5 -2 10 -3 11 -3 12 -3 17 -1 2 -1 5 -1
6 -1 1 -1 4 -1 7 -1 3 -1 6 -1 7 -1 1 -1 5 -1 9 -1 4 -1 8 -1 9 -1 1 -1 5 -1
9 -1 3 -1 8 -2 9 l0 3 17 0 c17 0 42 1 43 1 0 1 1 1 3 1 l3 0 1 -16z"/>
</g>
</svg>
