<?xml version="1.0" standalone="no"?>
<!DOCTYPE svg PUBLIC "-//W3C//DTD SVG 20010904//EN"
 "http://www.w3.org/TR/2001/REC-SVG-20010904/DTD/svg10.dtd">
<svg version="1.0" xmlns="http://www.w3.org/2000/svg"
 width="1000.000000pt" height="1000.000000pt" viewBox="0 0 1000.000000 1000.000000"
 preserveAspectRatio="xMidYMid meet">
<metadata>
Created by potrace 1.16, written by Peter Selinger 2001-2019
</metadata>
<g transform="translate(0.000000,1000.000000) scale(1.000000,-1.000000)"
fill="#000000" stroke="none">
<path d="M177 969 c-7 -2 -16 -7 -20 -11 -4 -5 -8 -15 -10 -21 -1 -6 0 -25 2
-36 0 -1 0 -7 1 -13 0 -7 0 -13 1 -15 0 -12 2 -37 3 -57 0 -7 0 -15 1 -17 0
-3 0 -8 0 -12 2 -22 4 -32 7 -39 0 -2 1 -3 1 -4 0 0 4 -6 7 -9 1 -1 4 -4 7 -5
2 -2 4 -4 4 -4 0 -3 6 -14 10 -17 4 -4 15 -11 15 -9 0 0 1 0 2 -1 2 -2 19 -2
31 0 1 1 11 2 16 2 15 2 14 2 42 4 3 0 12 0 19 1 14 0 79 1 104 0 12 0 14 0
19 1 3 2 6 2 6 2 1 0 1 0 1 1 0 0 1 1 2 1 1 1 3 2 5 4 1 2 3 3 3 2 1 0 1 0 1
1 0 0 1 2 2 5 2 2 3 5 4 7 2 5 2 17 0 23 l-1 4 5 7 c4 6 10 18 10 19 0 1 1 2
1 4 1 1 1 3 2 3 0 1 0 1 0 2 0 0 0 0 1 1 0 1 0 1 0 2 0 0 0 0 0 1 1 0 1 3 2 5
2 7 3 9 4 14 0 2 0 4 0 6 1 1 1 4 1 5 1 1 1 4 1 6 1 2 1 5 1 6 1 1 1 4 2 7 0
3 0 6 1 7 0 3 1 8 2 15 0 3 0 7 1 8 1 11 1 15 1 25 0 6 0 13 0 14 -4 16 -13
26 -25 29 -16 4 -31 -2 -41 -17 -2 -4 -7 -15 -7 -19 -1 -1 -1 -4 -1 -5 -1 -4
-2 -7 -3 -13 0 -4 0 -7 -1 -7 0 -1 -2 -1 -5 -1 -2 1 -7 1 -9 2 -5 0 -57 0 -65
0 l-4 -1 0 5 c0 3 0 7 0 9 -1 2 -1 8 -2 13 0 5 0 10 -1 11 0 1 0 3 0 4 -3 10
-9 20 -16 23 -5 4 -14 4 -21 1 -12 -6 -21 -20 -24 -40 -1 -2 -1 -5 -1 -6 -1
-5 -3 -15 -3 -20 0 -6 -1 -6 -16 -8 -5 0 -11 -1 -14 -2 -6 -1 -11 -1 -11 0 0
1 -1 7 -1 20 -1 6 -1 12 -2 14 0 2 0 6 0 10 -2 20 -3 24 -8 33 -4 9 -16 18
-25 20 -7 1 -10 1 -14 0z m215 -162 c16 -1 17 -1 16 -4 0 -1 0 -6 0 -11 -1 -5
-1 -9 -1 -9 0 -1 0 -1 -1 -1 -1 1 -66 1 -67 0 -1 0 -2 1 -1 15 1 4 1 8 1 9 1
0 9 1 18 1 10 0 18 0 18 0 0 1 1 1 2 0 1 0 8 0 15 0z m-127 -11 c0 -1 0 -6 1
-10 l0 -7 -3 0 c-1 0 -4 0 -5 0 -26 -3 -25 -3 -25 -1 0 1 0 2 -1 4 0 1 0 4 0
8 -1 6 -1 6 2 6 1 0 4 0 5 0 1 1 6 1 10 1 4 1 8 1 8 1 0 0 2 1 4 1 4 0 4 0 4
-3z"/>
</g>
</svg>
