<?xml version="1.0" standalone="no"?>
<!DOCTYPE svg PUBLIC "-//W3C//DTD SVG 20010904//EN"
 "http://www.w3.org/TR/2001/REC-SVG-20010904/DTD/svg10.dtd">
<svg version="1.0" xmlns="http://www.w3.org/2000/svg"
 width="1000.000000pt" height="1000.000000pt" viewBox="0 0 1000.000000 1000.000000"
 preserveAspectRatio="xMidYMid meet">
<metadata>
Created by potrace 1.16, written by Peter Selinger 2001-2019
</metadata>
<g transform="translate(0.000000,1000.000000) scale(1.000000,-1.000000)"
fill="#000000" stroke="none">
<path d="M462 737 c-9 -4 -14 -10 -21 -24 -3 -8 -7 -18 -8 -26 -1 -1 -1 -4 -1
-5 -2 -7 -4 -14 -4 -24 -1 -2 -1 -6 -2 -8 0 -5 -1 -10 -1 -16 -1 -2 -1 -5 -1
-7 -1 -1 -1 -5 -1 -9 -1 -4 -1 -7 -1 -8 -1 -2 -1 -7 -3 -20 0 -2 0 -7 0 -11
-1 -5 -1 -10 -1 -12 -1 -2 -1 -7 -2 -11 0 -5 0 -10 -1 -11 0 -1 0 -3 0 -4 0
-2 -2 -2 -7 0 -3 0 -7 1 -13 2 -2 1 -5 1 -6 2 -1 0 -5 0 -7 1 -2 0 -6 0 -7 1
-1 0 -6 0 -10 1 -4 0 -8 0 -8 0 0 1 0 8 -1 53 -1 9 -1 22 -1 27 -1 4 -1 14 -2
21 0 21 -1 27 -2 32 -1 2 -1 5 -2 6 0 4 -5 13 -7 15 -4 4 -10 7 -16 7 -12 1
-22 -7 -27 -24 -1 -2 -2 -4 -1 -4 0 0 0 -1 -1 -2 0 -1 -1 -4 -1 -6 -1 -3 -1
-7 -1 -8 -1 -5 -2 -16 -3 -35 -1 -9 -2 -53 -2 -70 0 -13 -1 -14 -2 -15 -2 0
-3 0 -3 0 0 0 -4 -1 -10 -3 -5 -1 -10 -2 -12 -3 -6 -1 -29 -11 -30 -12 -1 -1
-1 -1 -1 -1 0 1 -2 0 -4 -1 l-4 -3 0 2 c0 1 0 3 -1 5 0 1 0 4 0 7 -1 3 -1 7
-1 9 -1 2 -1 6 -2 9 0 3 0 7 0 8 -1 1 -1 5 -1 8 -1 3 -1 7 -1 8 -1 1 -1 5 -1
8 -1 7 -2 11 -4 18 0 1 0 4 -1 6 0 3 -4 21 -5 23 0 3 -1 6 -2 9 0 1 0 3 0 5
-1 1 -1 3 -1 5 -1 6 -2 8 -6 25 -1 6 -5 20 -8 25 -2 6 -8 12 -12 15 -4 2 -5 2
-12 3 -12 0 -23 -9 -27 -23 -2 -9 -3 -34 -2 -52 1 -13 2 -20 2 -41 1 -11 1
-21 1 -22 1 -3 1 -7 3 -18 0 -2 0 -6 0 -8 1 -2 1 -6 1 -8 1 -2 1 -6 1 -8 1 -2
1 -6 2 -9 0 -3 0 -7 1 -9 0 -2 0 -6 1 -9 0 -3 0 -7 1 -9 0 -2 0 -6 1 -9 0 -3
0 -7 0 -8 1 -1 1 -5 1 -8 1 -3 1 -7 2 -9 0 -2 0 -6 1 -9 0 -3 0 -7 1 -9 0 -2
0 -6 1 -9 0 -3 0 -7 0 -8 1 -1 1 -5 2 -9 0 -4 0 -7 0 -8 1 -1 1 -4 1 -7 1 -3
1 -7 1 -8 1 -1 1 -4 1 -7 1 -3 1 -7 2 -8 0 -1 0 -4 1 -7 2 -16 9 -34 16 -41 2
-2 2 -2 1 -7 -4 -14 2 -27 16 -34 5 -2 6 -2 24 -2 23 0 22 -1 43 6 8 3 15 5
16 5 2 1 3 1 4 1 1 1 3 1 4 1 1 1 4 1 5 1 1 1 3 1 4 1 1 1 3 1 4 1 1 1 3 1 5
2 2 0 4 0 4 0 0 1 2 1 4 1 2 1 4 1 6 1 1 1 3 1 5 1 2 1 5 1 6 1 1 1 4 1 6 2 7
0 11 1 13 2 1 0 5 0 8 1 3 0 6 0 7 1 13 2 56 2 73 -1 18 -2 30 1 41 12 13 13
14 30 4 46 -2 3 -6 7 -9 9 -3 2 -5 4 -5 5 0 0 1 3 2 5 0 2 1 5 1 6 1 1 2 7 3
13 2 6 3 13 3 15 1 1 1 4 1 6 2 7 2 9 3 14 0 2 0 5 1 6 0 1 0 5 1 8 0 3 0 6 1
7 0 1 0 5 0 8 1 4 1 8 2 10 0 2 0 6 1 10 0 4 0 9 0 11 1 7 2 19 3 25 0 2 0 7
0 11 2 13 2 16 2 23 1 3 1 9 2 12 0 2 0 6 1 8 0 3 1 11 2 18 0 4 1 12 1 19 1
2 1 6 2 9 0 3 0 7 1 8 0 4 1 16 2 20 0 5 0 28 -1 31 0 1 0 4 -1 5 -3 14 -11
27 -20 31 -6 3 -15 4 -21 2z m-86 -268 c5 0 17 -3 24 -5 6 -2 7 -2 6 -4 0 -1
0 -4 0 -6 -1 -2 -1 -5 -1 -6 -1 -1 -1 -4 -1 -5 -1 -1 -1 -4 -1 -5 -1 -1 -1 -3
-1 -4 -1 -1 -1 -3 -1 -4 -2 -5 -3 -15 -3 -22 l0 -5 -9 -1 c-7 0 -26 -1 -29 -1
-2 -1 -2 5 -1 21 1 10 1 38 1 45 -1 2 -1 4 0 4 0 1 6 0 16 -2z m-87 -23 c0
-36 0 -58 -1 -58 0 1 -1 0 -3 0 -1 -1 -3 -1 -4 -1 -1 -1 -4 -1 -5 -2 -1 0 -4
0 -5 -1 -2 0 -6 -1 -10 -2 -3 -1 -8 -2 -9 -3 -1 0 -3 -1 -5 -1 -5 -2 -6 -2 -6
1 0 4 0 6 -1 15 -1 6 -2 11 -3 15 0 1 0 5 -1 8 0 3 0 6 -1 7 0 1 0 5 -1 8 0 3
0 7 -1 8 0 5 -1 16 -1 20 l0 3 12 0 c7 1 13 1 15 1 1 1 3 1 6 1 2 1 5 1 7 2 1
0 4 0 7 1 2 0 5 1 7 1 l4 0 -1 -23z"/>
</g>
</svg>
