<?xml version="1.0" standalone="no"?>
<!DOCTYPE svg PUBLIC "-//W3C//DTD SVG 20010904//EN"
 "http://www.w3.org/TR/2001/REC-SVG-20010904/DTD/svg10.dtd">
<svg version="1.0" xmlns="http://www.w3.org/2000/svg"
 width="1000.000000pt" height="1000.000000pt" viewBox="0 0 1000.000000 1000.000000"
 preserveAspectRatio="xMidYMid meet">
<metadata>
Created by potrace 1.16, written by Peter Selinger 2001-2019
</metadata>
<g transform="translate(0.000000,1000.000000) scale(1.000000,-1.000000)"
fill="#000000" stroke="none">
<path d="M518 747 c0 0 -2 0 -4 -1 -6 -1 -16 -6 -23 -12 -9 -10 -26 -36 -49
-80 -9 -17 -25 -48 -31 -62 -2 -3 -7 -15 -13 -26 -5 -11 -13 -29 -17 -39 -5
-9 -12 -26 -17 -37 -10 -22 -21 -49 -20 -49 0 0 0 -1 -1 -1 -1 -1 -5 -13 -6
-16 0 -1 0 -1 0 -1 0 -1 0 -1 0 -2 -1 0 -1 -1 -1 -2 -1 -1 -3 -7 -5 -14 -2 -7
-8 -22 -12 -33 -10 -24 -9 -22 -9 -31 0 -10 0 -11 3 -17 2 -5 11 -15 13 -15 0
0 1 0 1 -1 0 -1 0 -1 1 -1 1 1 1 1 1 0 0 -1 12 -4 17 -4 4 0 9 0 13 1 0 0 2 2
5 3 2 1 4 2 4 2 0 0 0 0 0 0 0 1 4 4 5 3 1 0 1 0 1 1 -1 0 0 2 1 3 1 1 3 4 5
6 3 6 18 41 20 49 1 2 2 4 2 5 0 0 1 1 1 2 0 1 3 10 4 13 0 1 0 2 1 3 0 1 0 2
1 3 0 1 0 2 1 3 0 1 0 2 1 3 0 1 0 2 0 2 2 8 14 36 25 61 3 4 8 17 13 28 9 21
16 36 16 35 1 0 2 -3 4 -7 1 -4 5 -10 7 -15 3 -5 5 -8 5 -9 0 -2 42 -61 48
-68 1 0 2 -2 3 -3 1 -1 2 -3 3 -3 1 -2 21 -31 42 -62 16 -24 23 -34 25 -37 1
-2 4 -5 6 -7 2 -2 4 -5 4 -5 1 -1 2 -3 3 -4 3 -3 9 -10 13 -13 2 -1 4 -3 4 -4
24 -20 54 -3 54 31 1 14 -4 26 -15 39 -9 9 -14 17 -32 44 -2 3 -6 9 -9 13 -3
4 -10 15 -17 25 -10 15 -18 26 -21 30 0 0 -5 7 -11 14 -5 7 -10 14 -11 15 0 0
-6 7 -12 16 -6 9 -11 16 -11 16 -1 0 -1 1 -1 2 0 0 0 1 -1 1 -1 0 -15 20 -22
30 -2 3 -9 10 -15 17 l-11 11 8 14 c8 17 26 48 33 59 10 16 13 21 14 25 8 19
4 36 -9 47 -2 2 -7 4 -11 6 -2 0 -14 1 -14 0z"/>
</g>
</svg>
