<?xml version="1.0" standalone="no"?>
<!DOCTYPE svg PUBLIC "-//W3C//DTD SVG 20010904//EN"
 "http://www.w3.org/TR/2001/REC-SVG-20010904/DTD/svg10.dtd">
<svg version="1.0" xmlns="http://www.w3.org/2000/svg"
 width="1000.000000pt" height="1000.000000pt" viewBox="0 0 1000.000000 1000.000000"
 preserveAspectRatio="xMidYMid meet">
<metadata>
Created by potrace 1.16, written by Peter Selinger 2001-2019
</metadata>
<g transform="translate(0.000000,1000.000000) scale(1.000000,-1.000000)"
fill="#000000" stroke="none">
<path d="M340 967 c-11 -3 -17 -8 -38 -29 -40 -39 -78 -77 -86 -85 -4 -5 -10
-12 -14 -16 -7 -7 -12 -13 -22 -25 -8 -9 -13 -15 -24 -27 -5 -5 -10 -11 -12
-14 -4 -6 -7 -13 -6 -13 0 0 0 -1 -1 -2 -2 -4 -2 -22 1 -28 0 -1 0 -2 0 -2 0
-1 0 -1 1 -1 1 0 1 -1 1 -1 0 -2 5 -8 10 -11 11 -7 25 -6 42 4 8 4 27 23 46
46 23 27 60 66 62 64 2 -3 32 -24 80 -56 8 -5 18 -12 22 -16 5 -4 10 -8 11 -9
5 -4 7 -6 14 -12 7 -6 9 -8 14 -12 5 -4 17 -12 24 -14 5 -3 8 -3 15 -3 7 0 9
0 15 2 3 2 6 3 7 3 0 0 0 0 0 1 -1 0 0 1 2 3 2 1 4 5 6 9 3 6 3 7 3 15 0 12
-2 16 -19 36 -4 5 -16 17 -22 22 -3 2 -6 5 -6 6 -16 14 -28 22 -52 39 -16 10
-58 39 -61 40 0 1 5 5 10 11 12 12 18 21 21 29 5 17 -2 34 -18 43 -3 1 -6 3
-7 3 -4 1 -15 1 -19 0z"/>
</g>
</svg>
