<?xml version="1.0" standalone="no"?>
<!DOCTYPE svg PUBLIC "-//W3C//DTD SVG 20010904//EN"
 "http://www.w3.org/TR/2001/REC-SVG-20010904/DTD/svg10.dtd">
<svg version="1.0" xmlns="http://www.w3.org/2000/svg"
 width="1000.000000pt" height="1000.000000pt" viewBox="0 0 1000.000000 1000.000000"
 preserveAspectRatio="xMidYMid meet">
<metadata>
Created by potrace 1.16, written by Peter Selinger 2001-2019
</metadata>
<g transform="translate(0.000000,1000.000000) scale(1.000000,-1.000000)"
fill="#000000" stroke="none">
<path d="M360 775 c0 0 -2 0 -4 0 -10 -2 -19 -7 -27 -16 -10 -11 -17 -22 -28
-46 -7 -15 -8 -17 -17 -37 -9 -19 -29 -69 -30 -74 -1 -1 -1 -2 -1 -3 -3 -6
-23 -63 -24 -65 0 -1 0 -1 0 -1 0 -1 0 -1 0 -2 -1 0 -1 -1 -1 -2 -1 -2 -3 -9
-4 -10 0 0 -1 -5 -3 -10 -3 -10 -13 -45 -13 -49 -1 -1 -1 -3 -2 -4 -1 -2 -1
-4 -1 -4 0 0 -1 -4 -2 -7 -1 -4 -2 -8 -3 -9 0 -2 -15 -52 -17 -60 -5 -15 0
-34 10 -44 20 -18 50 -9 62 19 2 5 23 78 25 85 0 1 0 3 1 3 0 1 0 2 1 3 0 1 1
7 3 13 2 6 3 11 3 12 1 1 1 4 2 6 1 2 1 5 2 5 0 1 0 1 0 1 0 0 0 1 0 2 1 2 3
9 4 11 0 1 0 2 1 3 0 1 0 3 1 5 1 1 1 3 2 4 0 1 0 2 1 3 0 1 0 2 1 3 0 1 0 2
1 3 0 1 0 2 0 2 1 2 5 15 6 15 0 1 1 0 1 -1 1 -1 5 -8 9 -15 5 -7 17 -27 27
-44 11 -17 22 -34 24 -38 2 -4 8 -13 13 -22 10 -19 20 -35 27 -45 2 -4 6 -11
8 -14 5 -8 5 -9 10 -14 4 -4 14 -11 14 -9 0 0 1 0 1 -1 1 -1 10 -2 14 -2 15 0
29 13 33 30 2 8 1 21 -1 24 -1 0 -1 1 -1 1 2 0 -12 23 -19 33 -3 4 -7 11 -19
34 -5 7 -10 17 -13 22 -3 5 -13 20 -22 35 -14 23 -29 46 -37 56 -1 1 -2 3 -3
4 -9 12 -25 31 -32 38 -3 3 -5 6 -5 6 0 1 9 23 12 31 8 15 15 31 17 36 2 4 6
12 17 34 2 3 4 9 6 14 7 23 -2 48 -20 51 -3 1 -10 2 -10 1z"/>
</g>
</svg>
