<?xml version="1.0" standalone="no"?>
<!DOCTYPE svg PUBLIC "-//W3C//DTD SVG 20010904//EN"
 "http://www.w3.org/TR/2001/REC-SVG-20010904/DTD/svg10.dtd">
<svg version="1.0" xmlns="http://www.w3.org/2000/svg"
 width="1000.000000pt" height="1000.000000pt" viewBox="0 0 1000.000000 1000.000000"
 preserveAspectRatio="xMidYMid meet">
<metadata>
Created by potrace 1.16, written by Peter Selinger 2001-2019
</metadata>
<g transform="translate(0.000000,1000.000000) scale(1.000000,-1.000000)"
fill="#000000" stroke="none">
<path d="M547 857 c0 0 -2 0 -3 0 -6 -1 -15 -6 -21 -13 -4 -4 -12 -15 -19 -24
-7 -10 -17 -25 -23 -33 -6 -8 -16 -23 -24 -34 -7 -10 -19 -26 -25 -35 -7 -8
-16 -20 -20 -26 -4 -6 -13 -17 -20 -26 -7 -9 -15 -18 -17 -20 -9 -11 -19 -23
-27 -30 0 -1 -5 -7 -10 -13 -5 -6 -10 -12 -10 -13 -2 -2 -22 -25 -31 -37 -5
-6 -12 -14 -16 -19 -10 -11 -14 -16 -17 -23 -9 -20 -4 -41 12 -49 5 -3 5 -3
11 -4 13 -3 31 5 45 19 8 8 20 23 31 37 5 6 13 16 17 21 5 5 12 14 16 19 4 4
9 10 11 13 16 17 48 56 61 72 4 6 7 10 7 10 2 0 28 -14 36 -19 14 -8 44 -30
53 -38 2 -1 4 -3 5 -4 4 -4 15 -13 19 -17 3 -2 8 -8 13 -12 5 -4 9 -8 9 -9 1
0 9 -6 18 -14 8 -7 16 -13 17 -13 3 -4 7 -7 24 -18 19 -13 22 -15 30 -19 5 -3
14 -7 18 -8 1 0 3 0 4 -1 3 0 13 0 20 0 8 1 15 5 18 12 2 3 2 4 4 11 1 5 0 19
-1 21 0 0 0 0 0 1 -1 3 -4 10 -5 10 -1 0 -1 0 -1 1 1 2 -14 15 -28 25 -9 5
-16 10 -17 10 0 0 -1 1 -1 1 0 1 0 1 -1 1 -1 0 -2 0 -2 1 -1 1 -5 3 -8 6 -4 3
-8 6 -8 6 0 0 -6 5 -13 11 -7 5 -13 10 -14 10 0 1 -4 4 -8 8 -3 3 -9 8 -11 11
-5 4 -8 7 -21 18 -2 1 -5 4 -7 6 -2 2 -5 4 -6 5 0 0 -2 2 -4 3 -2 1 -4 3 -4 4
-3 2 -25 18 -35 25 -12 8 -29 18 -39 23 l-8 4 6 9 c4 5 10 15 15 22 9 12 29
41 39 55 7 10 10 21 7 32 -2 12 -15 25 -27 28 -4 0 -14 1 -14 0z"/>
</g>
</svg>
