<?xml version="1.0" standalone="no"?>
<!DOCTYPE svg PUBLIC "-//W3C//DTD SVG 20010904//EN"
 "http://www.w3.org/TR/2001/REC-SVG-20010904/DTD/svg10.dtd">
<svg version="1.0" xmlns="http://www.w3.org/2000/svg"
 width="1000.000000pt" height="1000.000000pt" viewBox="0 0 1000.000000 1000.000000"
 preserveAspectRatio="xMidYMid meet">
<metadata>
Created by potrace 1.16, written by Peter Selinger 2001-2019
</metadata>
<g transform="translate(0.000000,1000.000000) scale(1.000000,-1.000000)"
fill="#000000" stroke="none">
<path d="M346 841 c0 0 -2 0 -4 0 -18 -3 -29 -14 -49 -47 -14 -23 -25 -45 -38
-73 -7 -13 -15 -31 -18 -38 -12 -24 -15 -31 -22 -48 -4 -9 -9 -22 -12 -28 -13
-29 -23 -54 -25 -60 0 -1 0 -2 0 -2 0 0 0 0 0 -1 -1 -1 -1 -1 -1 -1 0 -1 0 -1
0 -2 -1 -1 -1 -1 -1 -1 0 0 0 -1 -1 -2 -2 -10 -7 -27 -9 -31 -4 -8 -4 -10 -4
-19 0 -11 5 -22 15 -30 2 -1 9 -4 10 -4 1 0 2 -1 3 -1 0 -1 5 -1 10 -1 11 1
18 4 27 12 7 8 13 20 16 32 0 1 1 5 2 9 2 7 2 7 3 12 1 1 2 3 2 4 0 0 1 1 1 2
0 1 0 2 1 3 0 1 0 2 1 3 0 2 9 24 12 31 8 17 14 30 20 45 4 9 9 21 12 26 l4
10 2 -2 c1 -1 3 -3 4 -5 1 -1 2 -3 4 -5 1 -1 2 -3 3 -3 2 -3 28 -40 29 -43 0
0 7 -11 14 -23 7 -12 19 -33 25 -45 13 -26 16 -31 22 -41 4 -6 16 -21 19 -25
1 0 3 -2 4 -4 11 -12 30 -17 43 -12 3 1 5 2 5 1 0 -1 12 10 14 13 5 9 6 22 4
31 -1 2 -1 4 -1 5 0 0 -1 1 -1 1 -1 0 -1 0 -1 1 1 1 -3 7 -12 18 -11 14 -14
18 -26 42 -6 12 -12 23 -13 25 -1 2 -3 6 -4 8 -2 3 -6 10 -22 37 -12 21 -33
49 -49 70 -1 1 -4 5 -7 9 -4 4 -9 10 -11 13 -3 4 -6 7 -7 8 -2 2 -2 3 2 10 2
4 6 10 8 14 2 3 5 9 7 13 2 4 5 9 7 12 5 8 10 20 13 28 3 8 3 21 2 29 -3 12
-13 20 -25 20 -4 1 -7 1 -7 0z"/>
</g>
</svg>
