<?xml version="1.0" standalone="no"?>
<!DOCTYPE svg PUBLIC "-//W3C//DTD SVG 20010904//EN"
 "http://www.w3.org/TR/2001/REC-SVG-20010904/DTD/svg10.dtd">
<svg version="1.0" xmlns="http://www.w3.org/2000/svg"
 width="1000.000000pt" height="1000.000000pt" viewBox="0 0 1000.000000 1000.000000"
 preserveAspectRatio="xMidYMid meet">
<metadata>
Created by potrace 1.16, written by Peter Selinger 2001-2019
</metadata>
<g transform="translate(0.000000,1000.000000) scale(1.000000,-1.000000)"
fill="#000000" stroke="none">
<path d="M537 971 c0 0 -2 0 -4 0 -3 -1 -8 -3 -12 -5 -7 -3 -10 -6 -30 -25
-20 -21 -46 -48 -60 -63 -7 -8 -31 -32 -41 -42 -8 -7 -10 -9 -30 -26 -7 -5
-13 -10 -14 -11 -2 -2 -9 -8 -16 -13 -27 -24 -37 -45 -30 -66 6 -18 24 -28 43
-24 8 2 17 9 25 20 3 3 7 8 10 10 3 3 11 9 18 15 6 6 18 16 25 22 20 16 52 47
64 61 l4 5 3 -2 c2 -1 3 -2 3 -2 0 -1 1 -1 2 -1 0 0 1 0 1 -1 0 -1 0 -1 1 -1
0 0 12 -7 26 -15 36 -22 50 -29 70 -37 9 -4 39 -15 42 -15 1 -1 2 -1 3 -1 1
-1 10 -4 21 -7 20 -7 27 -10 39 -17 10 -7 22 -11 33 -10 12 0 22 7 27 18 2 5
2 7 2 15 0 8 0 13 -2 16 0 1 0 2 0 2 -1 3 -6 10 -9 14 -5 5 -7 7 -17 13 -13 8
-23 13 -46 20 -11 4 -20 7 -21 7 0 1 -1 1 -1 1 0 -1 -37 11 -46 15 -13 6 -29
15 -54 30 l-23 14 12 12 c16 16 20 23 21 36 0 11 -4 21 -10 27 -4 4 -8 7 -9 7
0 0 -2 1 -3 2 -4 1 -16 3 -17 2z"/>
</g>
</svg>
