<?xml version="1.0" standalone="no"?>
<!DOCTYPE svg PUBLIC "-//W3C//DTD SVG 20010904//EN"
 "http://www.w3.org/TR/2001/REC-SVG-20010904/DTD/svg10.dtd">
<svg version="1.0" xmlns="http://www.w3.org/2000/svg"
 width="1000.000000pt" height="1000.000000pt" viewBox="0 0 1000.000000 1000.000000"
 preserveAspectRatio="xMidYMid meet">
<metadata>
Created by potrace 1.16, written by Peter Selinger 2001-2019
</metadata>
<g transform="translate(0.000000,1000.000000) scale(1.000000,-1.000000)"
fill="#000000" stroke="none">
<path d="M700 310 c-10 -5 -15 -16 -17 -31 0 -4 0 -10 0 -14 -1 -4 -1 -11 -2
-16 0 -5 0 -10 0 -11 -1 -3 -1 -3 -14 -3 -15 -1 -19 -2 -35 -5 -2 0 -5 0 -6
-1 -2 0 -4 0 -5 -1 -1 0 -3 0 -4 -1 -5 -1 -6 -1 -10 -2 -6 -2 -6 -2 -9 -2 -5
-2 -14 -4 -21 -7 -4 -2 -7 -3 -8 -3 0 1 -1 3 -1 10 -1 2 -1 6 -2 7 0 2 0 4 0
6 -1 1 -1 4 -1 6 -4 20 -10 42 -14 48 -6 8 -13 12 -22 12 -15 -1 -25 -13 -25
-30 0 -4 0 -7 0 -8 1 -2 1 -5 2 -9 0 -4 0 -7 1 -8 0 -1 0 -5 1 -8 0 -4 0 -8 1
-9 0 -1 0 -5 0 -9 1 -3 1 -8 2 -10 0 -2 0 -7 1 -11 0 -4 0 -9 1 -10 0 -1 0 -6
1 -10 0 -4 0 -9 1 -10 0 -2 0 -10 0 -18 1 -8 1 -20 2 -26 1 -28 1 -28 2 -34 1
-4 3 -8 6 -12 2 -4 2 -6 3 -12 0 -16 12 -29 30 -32 8 -2 32 -2 44 1 5 0 7 1 9
1 1 1 3 1 4 1 1 1 4 1 7 2 2 0 5 1 7 1 1 1 4 1 6 2 2 0 3 1 3 0 0 0 1 0 2 1 2
0 5 1 7 1 2 1 4 1 6 1 2 1 10 2 16 3 2 0 9 0 15 0 6 1 12 1 15 1 7 2 17 5 22
8 2 1 5 2 6 2 0 0 0 0 0 0 0 1 0 2 2 4 5 5 7 13 7 22 0 7 1 8 6 19 6 12 7 13
8 23 1 12 1 53 1 64 -1 2 -1 9 -1 15 -1 6 -1 13 -2 15 0 2 0 7 0 11 -1 4 -1 9
-2 11 0 1 0 4 0 5 -1 1 -1 5 -2 9 -1 4 -1 7 -1 9 -1 1 -1 3 -1 5 -4 20 -10 32
-20 38 -2 1 -6 1 -10 2 -6 0 -8 -1 -12 -3z m-21 -155 c0 -3 0 -10 0 -16 l1
-12 -4 -1 c-6 0 -20 -1 -23 -1 -1 -1 -5 -1 -7 -1 -2 -1 -5 -1 -7 -1 -1 -1 -3
-1 -5 -1 -2 -1 -5 -1 -6 -2 -1 0 -4 0 -5 -1 -1 0 -3 0 -4 -1 -2 0 -5 -1 -9 -2
-1 0 -4 -1 -6 -1 -3 -1 -6 -1 -7 -2 -1 0 -3 0 -4 -1 -1 0 -3 0 -4 -1 -2 0 -5
-1 -6 -1 0 0 0 0 0 0 -1 0 -1 0 -2 -1 -1 -1 -2 -1 -2 0 -1 0 -1 8 -1 17 l0 16
5 0 c2 0 5 0 6 0 1 1 3 1 6 1 2 1 5 1 7 2 2 0 3 1 4 1 0 0 2 1 4 1 3 1 5 1 6
2 1 0 5 1 10 2 4 1 8 2 9 3 1 0 3 0 4 0 1 1 3 1 6 1 2 1 4 1 6 1 1 1 4 1 8 1
4 1 7 1 7 1 0 0 3 1 6 1 l7 0 0 -4z"/>
<path d="M350 312 c0 -1 -2 -1 -4 -1 -4 -1 -7 -2 -11 -3 -2 0 -3 0 -4 0 0 0
-7 -2 -14 -5 -43 -15 -63 -27 -76 -44 -11 -15 -10 -25 2 -28 6 -1 28 -1 33 0
2 1 4 1 5 1 1 1 14 5 37 14 5 2 10 3 11 3 0 1 1 1 2 1 8 4 23 6 24 5 1 -2 3
-21 2 -23 0 -1 -2 -1 -3 -2 -1 0 -3 0 -4 0 -5 -2 -15 -5 -16 -6 0 -1 -1 -1 -1
0 -1 0 -1 0 -1 -1 0 -1 0 -1 -1 -1 0 1 -16 -7 -17 -8 -1 -1 -1 -1 -1 -1 0 1
-1 1 -1 0 -1 0 -11 -6 -23 -12 -22 -12 -45 -26 -51 -33 -7 -6 -9 -11 -10 -21
-1 -3 -2 -8 -2 -11 -3 -15 -4 -21 -4 -39 0 -13 0 -21 1 -27 1 -2 4 -12 5 -12
0 -1 1 -2 1 -2 0 -3 6 -14 9 -18 2 -2 15 -15 17 -17 2 -1 14 -7 17 -7 1 -1 4
-1 7 -2 4 -1 23 -1 28 0 1 1 4 1 5 1 4 1 20 7 31 11 5 2 21 8 34 14 14 5 26
10 26 9 1 0 1 0 0 1 0 1 0 1 2 1 1 -1 1 -1 1 0 -1 0 6 4 15 9 31 17 39 23 42
30 2 4 2 14 1 15 -1 0 -1 1 -1 1 1 0 0 3 -2 5 -4 5 -11 9 -19 10 -7 1 -59 1
-62 0 -2 -1 -5 -1 -6 -1 -5 -2 -18 -6 -52 -20 -17 -7 -17 -7 -18 -8 -1 0 -1 0
-1 0 0 0 -2 0 -3 -1 -2 0 -3 1 -7 9 -5 10 -6 13 -7 20 -1 4 -3 11 -4 13 -1 6
-1 6 2 7 2 1 5 1 6 1 1 1 4 2 7 3 3 1 6 2 6 2 0 0 4 1 9 2 4 2 9 3 10 3 3 1 4
1 15 4 4 1 8 2 9 3 1 0 5 1 10 2 4 2 8 3 8 2 0 0 1 0 2 1 1 0 3 1 4 1 2 1 6 2
10 4 17 7 26 21 25 35 0 7 0 11 0 14 2 8 4 31 4 44 0 26 -7 40 -24 48 -3 2 -6
3 -6 3 0 -1 -2 0 -5 1 -5 1 -23 1 -24 1z"/>
</g>
</svg>
