<?xml version="1.0" standalone="no"?>
<!DOCTYPE svg PUBLIC "-//W3C//DTD SVG 20010904//EN"
 "http://www.w3.org/TR/2001/REC-SVG-20010904/DTD/svg10.dtd">
<svg version="1.0" xmlns="http://www.w3.org/2000/svg"
 width="1000.000000pt" height="1000.000000pt" viewBox="0 0 1000.000000 1000.000000"
 preserveAspectRatio="xMidYMid meet">
<metadata>
Created by potrace 1.16, written by Peter Selinger 2001-2019
</metadata>
<g transform="translate(0.000000,1000.000000) scale(1.000000,-1.000000)"
fill="#000000" stroke="none">
<path d="M350 312 c0 -1 -2 -1 -4 -1 -4 -1 -7 -2 -11 -3 -2 0 -3 0 -4 0 0 0
-7 -2 -14 -5 -43 -15 -63 -27 -76 -44 -11 -15 -10 -25 2 -28 6 -1 28 -1 33 0
2 1 4 1 5 1 1 1 14 5 37 14 5 2 10 3 11 3 0 1 1 1 2 1 8 4 23 6 24 5 1 -2 3
-21 2 -23 0 -1 -2 -1 -3 -2 -1 0 -3 0 -4 0 -5 -2 -15 -5 -16 -6 0 -1 -1 -1 -1
0 -1 0 -1 0 -1 -1 0 -1 0 -1 -1 -1 0 1 -16 -7 -17 -8 -1 -1 -1 -1 -1 -1 0 1
-1 1 -1 0 -1 0 -11 -6 -23 -12 -22 -12 -45 -26 -51 -33 -7 -6 -9 -11 -10 -21
-1 -3 -2 -8 -2 -11 -3 -15 -4 -21 -4 -39 0 -13 0 -21 1 -27 1 -2 4 -12 5 -12
0 -1 1 -2 1 -2 0 -3 6 -14 9 -18 2 -2 15 -15 17 -17 2 -1 14 -7 17 -7 1 -1 4
-1 7 -2 4 -1 23 -1 28 0 1 1 4 1 5 1 4 1 20 7 31 11 5 2 21 8 34 14 14 5 26
10 26 9 1 0 1 0 0 1 0 1 0 1 2 1 1 -1 1 -1 1 0 -1 0 6 4 15 9 31 17 39 23 42
30 2 4 2 14 1 15 -1 0 -1 1 -1 1 1 0 0 3 -2 5 -4 5 -11 9 -19 10 -7 1 -59 1
-62 0 -2 -1 -5 -1 -6 -1 -5 -2 -18 -6 -52 -20 -17 -7 -17 -7 -18 -8 -1 0 -1 0
-1 0 0 0 -2 0 -3 -1 -2 0 -3 1 -7 9 -5 10 -6 13 -7 20 -1 4 -3 11 -4 13 -1 6
-1 6 2 7 2 1 5 1 6 1 1 1 4 2 7 3 3 1 6 2 6 2 0 0 4 1 9 2 4 2 9 3 10 3 3 1 4
1 15 4 4 1 8 2 9 3 1 0 5 1 10 2 4 2 8 3 8 2 0 0 1 0 2 1 1 0 3 1 4 1 2 1 6 2
10 4 17 7 26 21 25 35 0 7 0 11 0 14 2 8 4 31 4 44 0 26 -7 40 -24 48 -3 2 -6
3 -6 3 0 -1 -2 0 -5 1 -5 1 -23 1 -24 1z"/>
<path d="M602 302 c-12 -3 -22 -14 -33 -37 -5 -12 -14 -35 -15 -41 -1 -1 -1
-2 -1 -3 -1 -2 -8 -21 -8 -22 -1 -1 -1 -3 -2 -4 -1 -2 -3 -8 -4 -12 0 -1 0 -1
0 -1 0 -1 0 -1 0 -2 0 0 -1 -1 -1 -1 0 -1 -2 -5 -4 -10 -4 -13 -18 -48 -27
-65 -4 -9 -8 -18 -8 -20 -3 -13 0 -26 9 -35 3 -4 15 -11 15 -9 0 0 1 0 2 -1 1
-1 14 -2 19 -1 6 1 15 7 19 12 7 8 20 34 34 69 3 8 6 15 6 17 1 1 1 2 2 3 0 0
1 3 2 6 l2 5 8 -11 c8 -10 15 -17 25 -26 3 -2 6 -5 7 -5 3 -3 4 -4 11 -8 8 -6
22 -12 32 -16 12 -4 27 -3 36 3 1 1 3 2 3 1 1 0 1 0 1 1 -1 0 0 1 1 2 2 1 8
11 9 14 0 2 0 6 0 11 0 6 0 8 -2 13 -4 7 -9 13 -19 20 -6 4 -19 14 -26 19 -3
2 -5 4 -10 8 -3 3 -12 10 -19 16 -2 2 -5 4 -6 5 -1 1 -4 3 -6 5 -2 2 -5 4 -5
5 -2 1 -7 5 -11 8 -2 1 -4 3 -5 4 0 0 -1 1 -1 1 -1 0 -2 1 -3 2 -1 1 -1 3 1
10 0 1 1 6 2 10 0 2 0 5 1 6 1 9 2 30 1 35 -2 8 -10 17 -17 19 -7 2 -9 2 -15
0z"/>
</g>
</svg>
