<?xml version="1.0" standalone="no"?>
<!DOCTYPE svg PUBLIC "-//W3C//DTD SVG 20010904//EN"
 "http://www.w3.org/TR/2001/REC-SVG-20010904/DTD/svg10.dtd">
<svg version="1.0" xmlns="http://www.w3.org/2000/svg"
 width="1000.000000pt" height="1000.000000pt" viewBox="0 0 1000.000000 1000.000000"
 preserveAspectRatio="xMidYMid meet">
<metadata>
Created by potrace 1.16, written by Peter Selinger 2001-2019
</metadata>
<g transform="translate(0.000000,1000.000000) scale(1.000000,-1.000000)"
fill="#000000" stroke="none">
<path d="M350 312 c0 -1 -2 -1 -4 -1 -4 -1 -7 -2 -11 -3 -2 0 -3 0 -4 0 0 0
-7 -2 -14 -5 -43 -15 -63 -27 -76 -44 -11 -15 -10 -25 2 -28 6 -1 28 -1 33 0
2 1 4 1 5 1 1 1 14 5 37 14 5 2 10 3 11 3 0 1 1 1 2 1 8 4 23 6 24 5 1 -2 3
-21 2 -23 0 -1 -2 -1 -3 -2 -1 0 -3 0 -4 0 -5 -2 -15 -5 -16 -6 0 -1 -1 -1 -1
0 -1 0 -1 0 -1 -1 0 -1 0 -1 -1 -1 0 1 -16 -7 -17 -8 -1 -1 -1 -1 -1 -1 0 1
-1 1 -1 0 -1 0 -11 -6 -23 -12 -22 -12 -45 -26 -51 -33 -7 -6 -9 -11 -10 -21
-1 -3 -2 -8 -2 -11 -3 -15 -4 -21 -4 -39 0 -13 0 -21 1 -27 1 -2 4 -12 5 -12
0 -1 1 -2 1 -2 0 -3 6 -14 9 -18 2 -2 15 -15 17 -17 2 -1 14 -7 17 -7 1 -1 4
-1 7 -2 4 -1 23 -1 28 0 1 1 4 1 5 1 4 1 20 7 31 11 5 2 21 8 34 14 14 5 26
10 26 9 1 0 1 0 0 1 0 1 0 1 2 1 1 -1 1 -1 1 0 -1 0 6 4 15 9 31 17 39 23 42
30 2 4 2 14 1 15 -1 0 -1 1 -1 1 1 0 0 3 -2 5 -4 5 -11 9 -19 10 -7 1 -59 1
-62 0 -2 -1 -5 -1 -6 -1 -5 -2 -18 -6 -52 -20 -17 -7 -17 -7 -18 -8 -1 0 -1 0
-1 0 0 0 -2 0 -3 -1 -2 0 -3 1 -7 9 -5 10 -6 13 -7 20 -1 4 -3 11 -4 13 -1 6
-1 6 2 7 2 1 5 1 6 1 1 1 4 2 7 3 3 1 6 2 6 2 0 0 4 1 9 2 4 2 9 3 10 3 3 1 4
1 15 4 4 1 8 2 9 3 1 0 5 1 10 2 4 2 8 3 8 2 0 0 1 0 2 1 1 0 3 1 4 1 2 1 6 2
10 4 17 7 26 21 25 35 0 7 0 11 0 14 2 8 4 31 4 44 0 26 -7 40 -24 48 -3 2 -6
3 -6 3 0 -1 -2 0 -5 1 -5 1 -23 1 -24 1z"/>
<path d="M688 305 c0 -1 -4 -1 -8 -1 -4 -1 -8 -1 -9 -1 -1 -1 -4 -1 -6 -1 -2
-1 -6 -1 -7 -2 -1 0 -4 0 -6 -1 -2 0 -4 0 -5 -1 -2 0 -4 0 -6 -1 -2 0 -4 0 -4
-1 0 0 -2 0 -4 0 -2 -1 -4 -1 -5 -2 -1 0 -3 0 -4 -1 -1 0 -3 0 -4 0 -1 -1 -3
-1 -4 -1 -1 -1 -3 -1 -4 -1 -1 -1 -3 -1 -4 -1 -5 -2 -7 -2 -9 -3 -1 0 -3 0 -3
-1 -1 0 -2 0 -3 0 -2 -1 -15 -5 -35 -11 -29 -9 -37 -14 -44 -28 -3 -8 -4 -19
-1 -27 1 -3 3 -6 3 -6 1 0 1 -1 1 -1 0 -3 9 -11 15 -13 8 -4 15 -5 27 -4 3 1
5 1 5 0 -1 0 -1 -2 -1 -3 -1 -1 -1 -4 -1 -5 -1 -1 -1 -3 -2 -4 0 -1 0 -4 -1
-5 0 -1 0 -3 -1 -4 -1 -2 -1 -3 0 -3 0 0 0 -1 -1 -2 0 -2 -1 -5 -1 -7 -1 -2
-1 -5 -1 -7 -1 -1 -1 -4 -2 -7 0 -3 0 -6 -1 -7 -1 -8 -2 -27 -1 -32 l1 -4 -5
-1 c-8 -2 -20 -9 -24 -13 -14 -13 -18 -29 -12 -42 8 -16 30 -24 50 -19 3 0 7
1 8 1 1 1 5 1 7 2 2 0 6 1 8 1 2 1 4 1 4 1 0 1 3 1 5 1 2 1 6 1 7 1 1 1 4 1 6
2 2 0 4 0 6 0 1 1 4 1 7 1 3 1 7 1 8 1 3 1 10 2 18 3 3 0 8 0 10 1 18 2 28 2
71 2 37 0 38 0 45 2 7 3 13 6 17 10 1 1 2 2 2 1 1 0 1 0 1 1 0 0 1 2 2 5 5 7
5 10 5 20 0 5 0 9 -1 11 0 0 0 1 0 1 0 1 -1 1 -1 1 -1 0 -1 0 -1 1 1 1 -4 8
-9 12 -3 3 -12 8 -15 9 -1 0 -3 0 -6 1 -2 0 -11 1 -20 1 -8 0 -20 0 -25 0
l-10 1 0 5 c0 3 0 19 0 35 1 29 0 37 -3 48 0 1 0 3 0 4 0 0 -1 1 -1 2 -1 0 -1
1 -1 1 1 0 0 2 -1 4 l-2 5 12 -1 c17 0 27 4 35 13 16 17 12 45 -8 57 -8 5 -15
6 -35 7 -10 0 -18 0 -18 0z m-51 -91 c-2 -7 -2 -18 -3 -47 0 -29 -1 -46 -2
-47 0 0 -2 0 -4 -1 l-4 0 0 27 c0 15 -1 31 -1 35 -1 4 -1 10 -2 13 0 7 -2 12
-4 16 -1 3 -1 3 5 5 1 0 3 0 4 1 1 0 3 0 4 0 1 1 3 1 3 1 0 1 1 1 2 1 2 0 2
-1 2 -4z"/>
</g>
</svg>
