<?xml version="1.0" standalone="no"?>
<!DOCTYPE svg PUBLIC "-//W3C//DTD SVG 20010904//EN"
 "http://www.w3.org/TR/2001/REC-SVG-20010904/DTD/svg10.dtd">
<svg version="1.0" xmlns="http://www.w3.org/2000/svg"
 width="1000.000000pt" height="1000.000000pt" viewBox="0 0 1000.000000 1000.000000"
 preserveAspectRatio="xMidYMid meet">
<metadata>
Created by potrace 1.16, written by Peter Selinger 2001-2019
</metadata>
<g transform="translate(0.000000,1000.000000) scale(1.000000,-1.000000)"
fill="#000000" stroke="none">
<path d="M350 312 c0 -1 -2 -1 -4 -1 -4 -1 -7 -2 -11 -3 -2 0 -3 0 -4 0 0 0
-7 -2 -14 -5 -43 -15 -63 -27 -76 -44 -11 -15 -10 -25 2 -28 6 -1 28 -1 33 0
2 1 4 1 5 1 1 1 14 5 37 14 5 2 10 3 11 3 0 1 1 1 2 1 8 4 23 6 24 5 1 -2 3
-21 2 -23 0 -1 -2 -1 -3 -2 -1 0 -3 0 -4 0 -5 -2 -15 -5 -16 -6 0 -1 -1 -1 -1
0 -1 0 -1 0 -1 -1 0 -1 0 -1 -1 -1 0 1 -16 -7 -17 -8 -1 -1 -1 -1 -1 -1 0 1
-1 1 -1 0 -1 0 -11 -6 -23 -12 -22 -12 -45 -26 -51 -33 -7 -6 -9 -11 -10 -21
-1 -3 -2 -8 -2 -11 -3 -15 -4 -21 -4 -39 0 -13 0 -21 1 -27 1 -2 4 -12 5 -12
0 -1 1 -2 1 -2 0 -3 6 -14 9 -18 2 -2 15 -15 17 -17 2 -1 14 -7 17 -7 1 -1 4
-1 7 -2 4 -1 23 -1 28 0 1 1 4 1 5 1 4 1 20 7 31 11 5 2 21 8 34 14 14 5 26
10 26 9 1 0 1 0 0 1 0 1 0 1 2 1 1 -1 1 -1 1 0 -1 0 6 4 15 9 31 17 39 23 42
30 2 4 2 14 1 15 -1 0 -1 1 -1 1 1 0 0 3 -2 5 -4 5 -11 9 -19 10 -7 1 -59 1
-62 0 -2 -1 -5 -1 -6 -1 -5 -2 -18 -6 -52 -20 -17 -7 -17 -7 -18 -8 -1 0 -1 0
-1 0 0 0 -2 0 -3 -1 -2 0 -3 1 -7 9 -5 10 -6 13 -7 20 -1 4 -3 11 -4 13 -1 6
-1 6 2 7 2 1 5 1 6 1 1 1 4 2 7 3 3 1 6 2 6 2 0 0 4 1 9 2 4 2 9 3 10 3 3 1 4
1 15 4 4 1 8 2 9 3 1 0 5 1 10 2 4 2 8 3 8 2 0 0 1 0 2 1 1 0 3 1 4 1 2 1 6 2
10 4 17 7 26 21 25 35 0 7 0 11 0 14 2 8 4 31 4 44 0 26 -7 40 -24 48 -3 2 -6
3 -6 3 0 -1 -2 0 -5 1 -5 1 -23 1 -24 1z"/>
<path d="M591 310 c0 0 -3 0 -5 0 -3 -1 -8 -2 -10 -2 -2 -1 -6 -1 -7 -2 -1 0
-4 -1 -6 -1 -3 -1 -6 -1 -7 -2 -15 -2 -22 -5 -27 -12 -7 -8 -8 -18 -4 -26 5
-9 12 -13 24 -14 4 0 8 1 10 1 1 0 4 1 6 1 2 1 5 1 7 1 1 1 4 1 7 2 2 0 5 0 5
1 4 0 12 2 14 2 1 1 6 3 12 5 6 2 11 4 12 4 1 1 3 1 4 1 3 1 9 2 11 2 1 0 2 1
1 1 0 0 1 1 3 2 7 4 9 16 4 23 -4 5 -8 7 -18 10 -9 1 -35 4 -36 3z"/>
<path d="M661 268 c0 0 -4 0 -8 0 -4 -1 -9 -1 -10 -1 -1 -1 -4 -1 -5 -2 -2 0
-4 0 -5 -1 -1 0 -3 0 -4 -1 -4 -1 -6 -1 -9 -2 -1 0 -4 0 -5 -1 -2 0 -4 -1 -5
-1 -1 -1 -2 -1 -2 -1 0 1 -1 0 -3 0 -1 -1 -4 -1 -5 -2 -8 -1 -53 -18 -66 -25
-18 -9 -30 -19 -33 -27 -4 -11 2 -25 13 -30 5 -3 16 -3 26 -2 13 2 17 3 24 5
2 0 5 1 6 1 1 1 4 1 5 1 1 1 4 1 6 2 1 0 3 0 4 0 1 1 3 1 6 1 2 1 5 1 6 2 1 0
4 0 6 1 2 0 5 0 6 1 3 0 8 1 15 2 2 0 6 0 7 1 3 0 9 1 15 1 5 1 18 2 27 2 5 1
10 1 13 1 3 1 4 1 10 2 3 1 12 6 16 9 3 3 9 11 10 13 0 1 0 1 0 1 1 2 2 13 1
17 -2 6 -5 12 -11 18 -11 11 -22 15 -40 15 -6 1 -11 1 -11 0z"/>
<path d="M609 184 c-3 -1 -5 -2 -5 -2 0 -1 0 -1 -1 -1 0 1 -3 -1 -5 -4 -3 -2
-6 -5 -8 -5 -2 -1 -7 -3 -10 -5 -13 -7 -27 -25 -33 -42 -3 -13 -3 -31 1 -47 1
-2 1 -5 1 -5 0 0 9 -17 11 -19 12 -15 28 -22 49 -22 9 0 19 1 26 3 1 0 3 0 5
0 1 0 2 1 1 1 0 1 5 2 6 2 1 0 1 0 1 1 0 1 0 1 1 1 1 -1 1 -1 1 0 0 0 1 1 2 1
1 1 5 3 10 6 4 3 8 5 9 5 0 0 0 0 0 1 -1 0 0 1 1 2 6 5 16 24 21 40 7 20 3 34
-17 58 -12 15 -19 21 -29 26 -5 2 -7 3 -13 5 -3 1 -21 1 -25 0z m7 -35 c15 -1
25 -7 32 -19 l3 -6 -2 -3 c-1 -1 -5 -3 -9 -5 -7 -2 -12 -5 -20 -11 -1 -1 -5
-2 -7 -2 -3 -1 -5 0 -7 2 -8 6 -11 21 -8 32 3 7 7 13 9 13 1 -1 5 -1 9 -1z"/>
</g>
</svg>
