<?xml version="1.0" standalone="no"?>
<!DOCTYPE svg PUBLIC "-//W3C//DTD SVG 20010904//EN"
 "http://www.w3.org/TR/2001/REC-SVG-20010904/DTD/svg10.dtd">
<svg version="1.0" xmlns="http://www.w3.org/2000/svg"
 width="1000.000000pt" height="1000.000000pt" viewBox="0 0 1000.000000 1000.000000"
 preserveAspectRatio="xMidYMid meet">
<metadata>
Created by potrace 1.16, written by Peter Selinger 2001-2019
</metadata>
<g transform="translate(0.000000,1000.000000) scale(1.000000,-1.000000)"
fill="#000000" stroke="none">
<path d="M490 306 c0 -1 -6 -1 -12 -1 -6 -1 -13 -1 -14 -1 -1 -1 -5 -1 -8 -1
-3 -1 -7 -1 -8 -2 -1 0 -4 0 -7 0 -2 -1 -5 -1 -6 -2 -1 0 -5 0 -7 -1 -2 0 -5
0 -5 -1 0 0 -2 0 -4 0 -1 -1 -4 -1 -5 -1 -1 -1 -4 -1 -5 -2 -2 0 -4 0 -5 -1
-1 0 -3 0 -4 -1 -1 0 -3 0 -4 -1 -1 0 -4 0 -5 -1 -1 0 -3 0 -3 -1 0 0 -2 0 -4
-1 -2 0 -9 -2 -17 -4 l-13 -5 -4 4 c-10 9 -24 8 -33 -2 -4 -5 -6 -8 -8 -19 -1
-5 -1 -22 0 -31 1 -4 1 -11 2 -15 0 -10 1 -19 1 -22 1 -1 1 -6 2 -9 0 -4 0 -9
0 -10 1 -7 2 -15 3 -18 1 -14 2 -20 2 -28 1 -4 1 -10 1 -14 1 -4 1 -11 1 -14
1 -9 3 -19 5 -23 0 -2 1 -3 0 -3 0 0 0 0 1 -1 0 0 1 -2 2 -3 3 -6 16 -17 17
-15 1 0 1 0 1 -1 0 -1 0 -1 1 -1 0 1 1 1 2 0 0 -1 1 -1 1 0 1 0 7 -5 9 -7 0
-1 3 -2 6 -3 5 -3 11 -4 20 -4 6 0 29 1 32 1 8 2 18 3 62 5 7 0 16 0 20 1 3 0
11 0 18 1 6 0 14 0 16 1 10 0 65 1 67 1 1 -1 3 -2 5 -3 2 -2 10 -6 10 -5 0 0
1 0 2 -1 2 -2 15 -2 22 0 6 2 13 6 17 10 5 6 12 21 13 29 1 4 6 17 9 26 1 1 1
3 1 3 1 0 2 5 4 11 2 5 3 11 4 12 0 1 0 3 1 4 1 3 2 9 3 17 0 2 0 5 1 6 2 12
2 60 0 72 -2 8 -2 9 -2 9 0 0 0 1 -1 3 -1 7 -8 19 -16 27 -10 10 -18 15 -37
21 -15 4 -20 6 -28 7 -10 3 -11 3 -17 3 -3 1 -7 1 -8 2 -1 0 -6 0 -9 1 -4 0
-9 0 -10 1 -4 0 -75 1 -75 1z m48 -55 c14 -1 17 -1 33 -4 9 -1 11 -1 13 -1 1
-1 4 -1 5 -1 10 -2 24 -7 26 -9 3 -3 5 -7 5 -10 1 -4 1 -12 1 -16 -1 -3 -2
-10 -2 -20 -1 -12 -2 -22 -3 -25 0 -1 0 -4 -1 -6 0 -6 -4 -20 -7 -27 l-3 -5
-17 -1 c-14 0 -44 -1 -59 -1 -7 -1 -25 -2 -34 -3 -4 0 -13 0 -20 0 -41 -2 -56
-3 -63 -5 -4 0 -11 -1 -13 -1 -2 0 -2 0 -3 3 0 2 0 8 0 13 -1 6 -1 11 -1 12
-1 1 -1 4 -1 6 -2 13 -2 15 -3 17 0 1 0 4 -1 6 0 2 0 5 -1 7 0 1 0 3 -1 5 0 2
0 4 -1 5 0 2 -1 5 -2 9 0 1 0 3 -1 4 0 1 0 3 -1 4 0 2 -2 9 -4 15 -2 6 -3 12
-3 13 -1 1 0 2 11 3 3 0 8 0 9 0 1 1 5 1 8 2 3 0 6 0 7 1 1 0 4 0 6 1 2 0 5 0
6 1 4 0 7 1 12 1 2 1 5 1 6 2 1 0 4 0 6 1 2 0 4 0 6 0 1 1 4 1 8 2 4 0 7 0 9
1 1 0 5 0 10 1 4 0 8 0 8 0 0 1 37 0 50 0z"/>
</g>
</svg>
