<?xml version="1.0" standalone="no"?>
<!DOCTYPE svg PUBLIC "-//W3C//DTD SVG 20010904//EN"
 "http://www.w3.org/TR/2001/REC-SVG-20010904/DTD/svg10.dtd">
<svg version="1.0" xmlns="http://www.w3.org/2000/svg"
 width="1000.000000pt" height="1000.000000pt" viewBox="0 0 1000.000000 1000.000000"
 preserveAspectRatio="xMidYMid meet">
<metadata>
Created by potrace 1.16, written by Peter Selinger 2001-2019
</metadata>
<g transform="translate(0.000000,1000.000000) scale(1.000000,-1.000000)"
fill="#000000" stroke="none">
<path d="M697 306 c-11 -3 -20 -14 -24 -27 0 -1 -1 -4 -1 -7 -1 -3 -2 -7 -2
-8 -1 -3 -2 -7 -2 -9 -1 -1 -1 -4 -2 -7 -1 -4 -1 -7 -2 -7 0 -1 -2 0 -5 1 -4
1 -6 1 -13 2 -14 3 -61 3 -96 1 -33 -3 -40 -3 -79 -3 -53 -1 -92 -2 -97 -2
-27 -2 -28 -3 -42 -5 -8 -1 -10 -1 -11 1 0 1 -2 9 -5 18 -9 25 -14 33 -23 37
-9 5 -20 3 -27 -4 -10 -10 -12 -24 -7 -57 0 -2 0 -5 1 -6 0 -2 0 -4 1 -6 0 -2
0 -4 0 -6 1 -1 1 -4 1 -6 2 -8 2 -9 3 -12 1 -5 8 -49 9 -55 0 -3 1 -9 2 -13 0
-1 0 -4 1 -6 0 -4 1 -7 1 -11 1 -1 1 -3 1 -4 2 -9 8 -21 12 -27 4 -4 27 -18
27 -16 0 0 1 0 1 -1 1 0 3 -1 6 -2 5 -1 26 -1 33 0 3 1 7 1 8 1 4 1 11 2 20 3
7 0 51 1 128 0 29 0 41 0 59 2 3 0 15 0 26 1 16 0 21 0 26 -2 3 -1 9 -1 14 -1
7 -1 9 -1 15 -4 14 -6 28 -6 39 2 1 1 3 2 3 1 1 0 1 0 1 1 -1 0 0 1 1 2 3 2 8
10 10 15 1 3 2 8 3 12 1 5 2 9 2 10 3 10 5 16 6 21 0 1 1 5 2 9 0 4 1 8 2 9 0
1 1 7 2 12 3 10 3 10 4 16 0 2 0 5 1 6 0 4 1 12 2 18 0 12 0 72 0 79 -1 6 -2
10 -2 10 0 0 0 1 -1 2 -1 8 -8 17 -16 20 -4 2 -12 3 -16 2z m-52 -137 c6 0 6
0 6 -2 -1 -1 -1 -3 -1 -4 -2 -7 -6 -24 -6 -25 -1 0 -2 0 -4 1 -2 1 -5 1 -7 2
-6 1 -51 1 -65 -1 -11 0 -64 -1 -128 0 -28 0 -51 0 -61 -1 -2 -1 -6 -1 -9 -1
-4 -1 -7 -1 -9 -1 -1 -1 -5 -1 -7 -2 -2 0 -5 0 -5 0 -1 0 -7 21 -7 25 0 0 2 1
4 1 2 0 5 0 7 1 4 0 16 1 25 2 7 0 39 1 100 2 34 0 41 0 58 1 4 1 13 1 19 2 6
0 12 0 12 0 0 1 66 1 78 0z"/>
</g>
</svg>
