<?xml version="1.0" standalone="no"?>
<!DOCTYPE svg PUBLIC "-//W3C//DTD SVG 20010904//EN"
 "http://www.w3.org/TR/2001/REC-SVG-20010904/DTD/svg10.dtd">
<svg version="1.0" xmlns="http://www.w3.org/2000/svg"
 width="1000.000000pt" height="1000.000000pt" viewBox="0 0 1000.000000 1000.000000"
 preserveAspectRatio="xMidYMid meet">
<metadata>
Created by potrace 1.16, written by Peter Selinger 2001-2019
</metadata>
<g transform="translate(0.000000,1000.000000) scale(1.000000,-1.000000)"
fill="#000000" stroke="none">
<path d="M636 296 c-3 -1 -7 -3 -9 -5 -10 -7 -30 -30 -53 -60 -5 -6 -10 -12
-10 -12 -1 -1 -31 -44 -48 -70 -8 -11 -20 -39 -23 -51 0 -2 0 -7 0 -11 0 -18
12 -30 29 -30 6 1 8 1 10 2 0 1 2 1 2 0 1 0 1 0 1 0 -1 1 1 2 3 4 6 4 13 11
32 33 6 6 49 69 59 85 l2 3 18 -18 c10 -10 21 -20 23 -22 4 -3 11 -9 14 -11 0
-1 3 -3 6 -6 2 -2 6 -5 8 -6 9 -9 47 -30 55 -32 4 0 10 -1 15 0 4 1 13 5 14 7
1 0 2 1 2 0 1 0 1 0 1 1 -1 0 0 1 0 1 3 1 8 10 10 15 3 10 2 23 -3 31 -4 6
-10 11 -19 15 -7 3 -14 9 -23 17 -5 4 -8 7 -12 10 -2 1 -4 3 -4 4 -3 2 -28 18
-34 21 -4 2 -7 4 -7 4 0 1 -1 1 -1 1 -1 0 -6 3 -13 6 -6 3 -14 7 -16 7 -3 1
-5 3 -5 3 0 0 2 4 4 8 9 15 11 21 12 28 0 9 -2 15 -7 20 -8 9 -21 12 -33 8z"/>
<path d="M377 290 c-7 -2 -15 -10 -18 -19 -2 -6 -3 -11 -3 -36 l-1 -10 -5 -2
c-3 0 -7 -1 -9 -2 -2 0 -4 0 -4 -1 -1 0 -2 0 -3 -1 -1 0 -3 0 -4 0 -6 -2 -25
-9 -33 -13 -12 -5 -14 -5 -14 -4 0 2 -1 9 -1 13 -1 1 -1 4 -1 6 -1 3 -1 6 -2
7 0 2 0 4 -1 6 0 2 0 4 -1 5 0 1 0 3 -1 6 -1 7 -4 20 -6 24 -6 13 -20 16 -29
7 -4 -3 -7 -8 -8 -13 -2 -13 -2 -58 1 -132 2 -34 4 -44 13 -53 4 -3 10 -7 13
-7 1 0 2 0 2 -1 1 -14 13 -24 28 -24 3 0 8 0 10 0 2 1 8 1 13 2 4 0 9 0 11 0
2 1 6 1 10 2 3 0 6 0 8 1 1 0 3 0 5 1 1 0 3 0 4 1 1 0 3 0 5 0 5 1 7 2 15 4 4
1 8 2 9 2 0 1 1 1 3 1 1 1 7 3 14 6 14 6 19 8 32 19 11 8 15 12 17 18 3 8 1
22 -4 27 0 0 -1 1 -1 2 -1 2 -11 8 -15 8 -4 1 -4 1 -3 4 0 2 0 7 1 12 1 10 1
64 0 76 -2 14 -3 22 -5 30 -5 22 -23 34 -42 28z m-24 -138 c0 -21 0 -21 -5
-23 -1 0 -1 0 -1 0 -1 0 -1 0 -2 0 -1 -1 -1 -1 -1 -1 0 0 -1 0 -2 0 -8 -2 -44
-17 -48 -20 -1 -1 -1 -1 -1 0 0 1 0 2 0 3 -1 1 -1 7 -1 14 -1 7 -1 13 -1 14
-1 1 0 2 0 2 1 0 2 0 3 1 1 0 2 0 4 0 1 1 4 2 8 3 4 1 7 2 8 3 2 0 18 6 28 10
5 2 9 4 10 4 1 0 2 -2 1 -10z"/>
</g>
</svg>
