<?xml version="1.0" standalone="no"?>
<!DOCTYPE svg PUBLIC "-//W3C//DTD SVG 20010904//EN"
 "http://www.w3.org/TR/2001/REC-SVG-20010904/DTD/svg10.dtd">
<svg version="1.0" xmlns="http://www.w3.org/2000/svg"
 width="1000.000000pt" height="1000.000000pt" viewBox="0 0 1000.000000 1000.000000"
 preserveAspectRatio="xMidYMid meet">
<metadata>
Created by potrace 1.16, written by Peter Selinger 2001-2019
</metadata>
<g transform="translate(0.000000,1000.000000) scale(1.000000,-1.000000)"
fill="#000000" stroke="none">
<path d="M505 297 c-7 -2 -9 -2 -13 -4 -5 -2 -14 -8 -18 -11 -1 -1 -5 -4 -9
-8 -4 -3 -12 -11 -18 -17 -7 -6 -13 -13 -16 -15 -15 -14 -31 -29 -34 -32 -2
-2 -7 -6 -11 -10 -6 -6 -24 -22 -28 -26 -1 -1 -5 -5 -10 -9 -9 -9 -20 -17 -32
-25 -10 -7 -17 -10 -27 -14 -19 -7 -33 -20 -35 -32 -2 -14 4 -27 16 -34 7 -4
11 -6 11 -5 0 0 1 0 1 -1 2 -1 9 -2 14 -2 11 0 27 4 41 12 20 11 47 30 67 48
3 4 21 20 22 21 1 1 7 7 14 13 7 6 13 12 15 14 l2 2 19 -8 c26 -10 46 -17 79
-27 15 -5 28 -8 29 -9 1 0 2 0 2 0 0 0 0 0 1 0 0 -1 3 -1 5 -2 2 -1 5 -1 6 -2
1 0 2 0 2 0 0 0 0 0 1 0 1 -1 1 -1 1 -1 0 0 1 0 2 -1 1 0 5 -1 9 -2 3 -1 7 -2
8 -2 0 -1 1 -1 2 -1 1 -1 4 -2 8 -3 3 -1 12 -4 20 -7 8 -3 14 -5 14 -4 0 0 1
0 1 -1 1 -1 19 -7 23 -8 0 0 1 0 2 0 2 -1 19 -6 22 -7 1 0 3 0 4 -1 1 0 3 0 4
0 1 -1 3 -1 4 -1 2 -1 5 -2 12 -3 5 -1 18 -1 23 0 7 2 8 2 18 4 11 4 17 7 20
13 7 13 0 28 -22 46 -8 6 -19 11 -36 14 -2 1 -4 1 -5 1 -1 1 -3 1 -4 1 -9 2
-64 21 -77 26 -1 0 -2 0 -3 1 -1 0 -3 1 -4 1 0 1 -1 1 -1 1 0 -1 -3 0 -6 1 -3
1 -7 2 -8 3 -1 0 -3 0 -3 1 -1 0 -2 0 -3 1 -1 0 -5 1 -8 2 -4 1 -8 2 -9 2 -10
3 -68 21 -88 28 l-3 1 6 6 c7 7 12 15 15 23 3 7 3 10 3 20 0 9 -2 15 -8 21 -7
6 -19 10 -29 8z"/>
</g>
</svg>
