<?xml version="1.0" standalone="no"?>
<!DOCTYPE svg PUBLIC "-//W3C//DTD SVG 20010904//EN"
 "http://www.w3.org/TR/2001/REC-SVG-20010904/DTD/svg10.dtd">
<svg version="1.0" xmlns="http://www.w3.org/2000/svg"
 width="1000.000000pt" height="1000.000000pt" viewBox="0 0 1000.000000 1000.000000"
 preserveAspectRatio="xMidYMid meet">
<metadata>
Created by potrace 1.16, written by Peter Selinger 2001-2019
</metadata>
<g transform="translate(0.000000,1000.000000) scale(1.000000,-1.000000)"
fill="#000000" stroke="none">
<path d="M329 292 c-1 -1 -11 -2 -27 -2 -33 -2 -40 -2 -45 -4 -3 0 -6 -1 -7
-1 -5 -1 -17 -7 -21 -10 -10 -8 -15 -19 -15 -31 1 -9 1 -9 4 -16 3 -5 11 -14
13 -14 1 0 1 0 1 -1 0 -1 0 -1 1 0 1 0 1 0 1 -1 0 0 2 -1 5 -2 7 -2 19 -2 29
1 5 1 10 2 25 2 18 0 19 0 34 2 4 0 19 0 32 0 41 0 119 -1 123 -1 2 -1 8 -1
13 -1 4 -1 10 -1 11 -1 1 -1 6 -1 9 -1 4 -1 8 -1 9 -1 1 -1 6 -1 10 -2 5 0 10
0 12 -1 3 0 19 0 37 -1 19 0 36 0 39 0 2 -1 9 -1 15 -1 6 -1 12 -1 14 -1 2 -1
8 -1 13 -1 4 -1 10 -1 12 -2 7 0 24 -1 33 -1 l10 0 -1 -8 c0 -5 0 -20 0 -34
-1 -15 -1 -32 -2 -39 0 -17 0 -42 0 -48 1 -7 6 -16 12 -21 4 -4 10 -8 13 -9 1
0 1 0 1 0 1 -1 5 -1 11 -1 14 -1 28 7 35 20 3 7 3 9 4 24 0 7 0 20 0 29 1 9 1
25 2 35 0 9 0 26 1 36 1 22 1 52 0 55 -3 11 -11 22 -19 28 -4 2 -13 6 -17 7
-1 0 -4 0 -6 1 -2 0 -16 1 -31 1 -14 0 -28 0 -30 0 -2 1 -7 1 -11 1 -4 1 -10
1 -12 2 -6 0 -12 0 -26 2 -14 1 -21 1 -51 1 -29 1 -49 2 -53 2 -1 1 -6 1 -9 1
-4 1 -8 1 -9 2 -2 0 -5 0 -22 2 -5 0 -10 0 -12 1 -13 1 -157 3 -158 2z"/>
</g>
</svg>
