<?xml version="1.0" standalone="no"?>
<!DOCTYPE svg PUBLIC "-//W3C//DTD SVG 20010904//EN"
 "http://www.w3.org/TR/2001/REC-SVG-20010904/DTD/svg10.dtd">
<svg version="1.0" xmlns="http://www.w3.org/2000/svg"
 width="1000.000000pt" height="1000.000000pt" viewBox="0 0 1000.000000 1000.000000"
 preserveAspectRatio="xMidYMid meet">
<metadata>
Created by potrace 1.16, written by Peter Selinger 2001-2019
</metadata>
<g transform="translate(0.000000,1000.000000) scale(1.000000,-1.000000)"
fill="#000000" stroke="none">
<path d="M377 293 c-7 -2 -9 -3 -19 -10 -10 -7 -16 -13 -29 -29 -9 -11 -11
-13 -16 -19 -10 -11 -27 -31 -41 -48 -6 -7 -11 -13 -11 -13 0 0 -3 -3 -5 -6
-3 -4 -6 -7 -6 -7 0 0 -2 -2 -4 -4 -2 -3 -7 -9 -12 -14 -4 -5 -9 -10 -10 -11
-1 -1 -5 -6 -10 -11 -11 -12 -13 -14 -17 -24 -7 -14 -8 -23 -5 -33 4 -11 17
-19 31 -19 5 0 11 1 19 4 8 3 14 7 20 12 2 2 4 3 4 3 1 0 1 0 1 1 0 0 4 5 9
10 4 6 9 11 10 12 1 1 5 5 9 10 4 5 9 10 11 13 2 2 4 4 4 4 0 0 3 3 6 6 2 4 5
7 6 8 0 0 3 3 5 6 2 2 4 5 5 6 0 0 3 3 6 7 4 5 5 6 6 5 2 -1 3 -2 3 -2 0 0 2
-2 4 -3 2 -2 4 -4 5 -4 1 -1 6 -5 12 -10 5 -4 11 -9 12 -10 1 -1 4 -3 6 -5 4
-3 6 -5 11 -9 1 -2 6 -6 11 -9 5 -4 9 -8 10 -8 0 -1 2 -3 4 -4 2 -1 5 -4 7 -5
6 -6 9 -7 21 -16 10 -7 12 -8 11 -10 -1 -2 -1 -13 1 -17 4 -6 8 -10 15 -12 4
-1 14 -1 18 -1 1 1 3 1 4 1 4 1 13 6 19 11 10 8 16 12 18 12 0 0 0 0 0 1 -1 0
3 5 9 10 11 12 24 28 44 56 7 11 17 24 20 29 l7 10 4 -4 c5 -5 15 -13 21 -18
2 -1 4 -3 5 -4 1 -1 3 -2 4 -3 1 -1 3 -2 3 -3 2 -1 20 -14 26 -17 6 -4 27 -14
33 -17 2 0 11 -4 20 -7 24 -9 29 -9 48 1 5 2 10 4 10 4 1 0 1 0 1 1 -1 0 0 1
1 2 5 5 6 13 4 22 -1 3 -1 6 -2 7 -1 8 -5 15 -11 21 -5 5 -11 8 -24 13 -5 2
-9 3 -10 4 -1 0 -2 0 -3 1 -2 0 -22 10 -28 14 -10 6 -36 25 -57 43 l-2 2 4 8
c7 13 8 19 8 29 0 8 -1 12 -6 17 -3 4 -8 7 -10 8 -1 0 -1 0 -1 0 -2 1 -12 1
-16 1 -1 -1 -3 -1 -4 -1 -10 -3 -25 -14 -41 -33 -15 -16 -35 -42 -46 -57 -5
-8 -15 -22 -22 -31 -7 -10 -15 -21 -18 -26 -7 -10 -6 -10 -16 -2 -4 2 -8 5 -9
6 -4 3 -32 26 -35 29 -1 0 -4 3 -7 6 -4 2 -7 5 -8 6 0 0 -3 2 -5 4 -2 2 -5 4
-5 5 -1 0 -5 3 -9 7 -5 4 -9 7 -9 7 -1 1 -6 5 -9 7 l-3 2 4 6 c7 10 10 16 14
26 4 11 4 13 4 23 0 22 -16 34 -37 27z"/>
</g>
</svg>
