<?xml version="1.0" standalone="no"?>
<!DOCTYPE svg PUBLIC "-//W3C//DTD SVG 20010904//EN"
 "http://www.w3.org/TR/2001/REC-SVG-20010904/DTD/svg10.dtd">
<svg version="1.0" xmlns="http://www.w3.org/2000/svg"
 width="1000.000000pt" height="1000.000000pt" viewBox="0 0 1000.000000 1000.000000"
 preserveAspectRatio="xMidYMid meet">
<metadata>
Created by potrace 1.16, written by Peter Selinger 2001-2019
</metadata>
<g transform="translate(0.000000,1000.000000) scale(1.000000,-1.000000)"
fill="#000000" stroke="none">
<path d="M534 288 c-1 0 -33 -1 -42 -1 -22 0 -36 0 -44 0 -18 -2 -24 -3 -29
-3 -1 -1 -3 -1 -6 -1 -7 -2 -9 -2 -17 -4 -5 -1 -10 -2 -11 -3 -1 0 -3 -1 -5
-1 -1 -1 -3 -1 -4 -2 -7 -1 -26 -8 -37 -13 -24 -12 -47 -30 -61 -48 -7 -11
-16 -30 -19 -41 -1 -5 -1 -7 -2 -9 -1 -4 -1 -26 0 -33 2 -14 8 -27 18 -37 9
-9 23 -17 41 -21 9 -3 12 -3 22 -5 2 0 5 0 6 -1 15 -2 110 -2 169 0 40 2 49 3
58 3 2 1 7 1 11 2 4 0 8 0 9 0 1 1 5 1 8 1 9 1 19 3 24 3 1 1 5 1 8 2 3 0 6 0
7 1 1 0 4 0 6 1 4 0 6 0 11 1 1 1 4 1 6 1 3 1 5 1 11 3 2 0 6 1 8 1 2 1 4 1 4
1 0 1 2 1 3 1 1 1 9 3 17 5 8 2 15 4 17 4 7 2 29 11 37 16 19 12 28 34 21 53
0 0 0 1 0 1 0 1 -6 11 -8 15 -2 2 -9 9 -15 16 -28 28 -31 31 -47 41 -10 7 -31
17 -46 24 -6 2 -12 5 -14 5 -1 1 -3 1 -3 1 0 1 -5 2 -11 4 -10 3 -17 6 -22 7
-1 0 -3 0 -4 1 -4 0 -6 1 -15 3 -5 0 -9 1 -10 2 -3 0 -9 1 -14 2 -4 0 -7 0 -8
1 -1 0 -7 0 -12 1 -6 0 -12 0 -13 0 -2 1 -3 1 -3 0z m-79 -65 c2 -1 7 -1 11
-1 7 -1 15 -2 18 -3 1 0 4 0 6 -1 3 0 6 0 7 -1 1 0 4 0 6 0 1 -1 5 -1 9 -2 4
0 7 0 8 -1 1 0 4 0 7 0 3 -1 7 -1 9 -2 2 0 7 0 12 -1 4 0 8 0 9 -1 1 0 4 0 7
-1 5 0 7 0 12 -1 1 -1 4 -1 6 -1 3 -1 5 -2 9 -2 1 -1 3 -1 4 -1 1 -1 3 -1 4
-2 25 -6 67 -25 79 -36 l2 -2 -3 -1 c-1 -1 -4 -1 -5 -2 -1 0 -3 0 -3 -1 -1 0
-2 0 -3 -1 -1 0 -3 0 -4 -1 -1 0 -4 0 -5 -1 -2 0 -5 -1 -7 -1 -3 0 -6 -1 -7
-1 -2 -1 -5 -1 -6 -1 -1 -1 -4 -1 -6 -2 -3 0 -6 0 -7 0 -1 -1 -5 -1 -7 -1 -2
-1 -6 -1 -7 -1 -3 -1 -13 -2 -16 -2 -1 -1 -5 -1 -8 -1 -17 -2 -29 -3 -54 -5
-74 -3 -166 -3 -182 -1 -1 1 -4 1 -6 1 -3 1 -6 1 -9 2 -3 1 -3 3 0 12 4 12 15
23 34 34 5 2 11 6 15 8 7 5 18 10 25 13 13 5 36 13 38 12 1 0 5 0 8 0z"/>
</g>
</svg>
