<?xml version="1.0" standalone="no"?>
<!DOCTYPE svg PUBLIC "-//W3C//DTD SVG 20010904//EN"
 "http://www.w3.org/TR/2001/REC-SVG-20010904/DTD/svg10.dtd">
<svg version="1.0" xmlns="http://www.w3.org/2000/svg"
 width="1000.000000pt" height="1000.000000pt" viewBox="0 0 1000.000000 1000.000000"
 preserveAspectRatio="xMidYMid meet">
<metadata>
Created by potrace 1.16, written by Peter Selinger 2001-2019
</metadata>
<g transform="translate(0.000000,1000.000000) scale(1.000000,-1.000000)"
fill="#000000" stroke="none">
<path d="M537 311 c0 -1 -5 -1 -10 -2 -4 0 -9 0 -10 -1 -1 0 -5 0 -9 -1 -3 0
-7 0 -8 -1 -2 0 -4 0 -6 0 -2 -1 -5 -1 -6 -1 -1 -1 -4 -1 -6 -2 -3 0 -7 -1 -9
-1 -6 -1 -8 -2 -11 -2 -1 -1 -4 -1 -5 -1 -1 -1 -4 -1 -5 -2 -2 0 -6 -1 -8 -1
-6 -2 -8 -2 -11 -3 -2 0 -6 -1 -8 -1 -2 -1 -6 -1 -7 -2 -1 0 -4 0 -5 -1 -1 0
-4 0 -5 -1 -2 0 -5 0 -6 -1 -6 -1 -7 -1 -22 -3 -2 0 -11 0 -20 0 -20 -1 -31
-2 -35 -2 -1 -1 -4 -1 -6 -2 -12 -1 -26 -8 -32 -16 -5 -6 -6 -10 -7 -18 0 -6
1 -8 3 -13 4 -10 15 -18 28 -22 4 -1 6 -1 17 -3 9 -1 54 0 67 1 1 1 5 1 8 1 6
1 12 2 18 3 1 1 3 1 5 1 4 1 7 2 11 3 1 0 4 0 5 0 1 1 3 1 4 1 1 1 3 1 5 1 5
1 9 2 16 4 2 0 6 1 8 1 1 1 4 1 5 2 1 0 4 0 5 1 1 0 4 0 5 1 1 0 4 0 5 1 7 1
10 1 14 3 3 0 3 0 9 2 2 0 5 1 6 1 2 1 4 1 5 2 1 0 2 0 2 0 0 -1 -22 -15 -34
-23 -7 -3 -12 -7 -12 -7 -1 -1 -1 -1 -1 -1 0 1 -2 0 -5 -2 -13 -8 -47 -24 -67
-32 -7 -3 -20 -9 -29 -13 -10 -5 -23 -10 -29 -12 -17 -6 -42 -16 -64 -25 -11
-4 -27 -11 -37 -14 -23 -8 -29 -12 -31 -21 -1 -11 6 -19 20 -21 9 -1 32 0 41
1 1 1 4 1 7 1 2 1 6 1 7 1 1 1 5 1 7 1 2 1 5 1 7 1 1 1 4 1 6 1 2 1 5 1 7 1 1
1 3 1 5 1 2 1 4 1 6 1 1 1 3 1 6 1 7 2 12 3 15 3 1 1 3 1 4 1 1 1 5 1 9 2 3 1
7 2 8 2 1 1 5 2 9 2 3 1 7 2 9 2 1 1 4 1 6 2 2 0 3 1 3 0 0 0 2 1 4 2 2 0 4 1
5 1 0 0 2 1 5 1 2 1 4 1 5 1 4 1 41 16 55 23 6 3 12 6 12 5 0 0 0 0 1 1 1 1 8
4 9 4 1 0 1 0 1 1 0 2 4 1 6 -1 1 -1 4 -3 7 -5 7 -4 26 -14 26 -13 0 0 1 0 1
-1 1 -1 22 -8 26 -9 0 -1 1 -1 2 -1 3 -1 12 -4 14 -5 1 0 2 0 2 0 0 0 0 0 1
-1 1 0 6 -1 11 -2 4 -2 9 -3 11 -3 1 -1 3 -1 4 -1 1 -1 3 -1 4 -1 1 -1 3 -1 4
-1 1 -1 5 -1 7 -2 2 0 7 -1 9 -2 2 0 5 0 5 0 0 -1 3 -1 7 -2 4 0 7 0 8 -1 1 0
4 0 7 -1 3 0 6 0 7 0 1 -1 4 -1 7 -1 3 -1 7 -1 8 -1 1 -1 4 -1 7 -2 3 0 6 0 7
-1 2 0 5 0 7 -1 2 0 5 0 7 -1 1 0 3 0 5 -1 1 0 4 0 5 -1 1 0 4 0 5 0 12 -3 39
-3 51 -1 1 1 3 1 5 1 14 3 21 11 20 22 0 11 -12 28 -25 36 -10 7 -23 13 -29
15 -5 1 -7 1 -9 2 -1 0 -3 0 -5 0 -1 1 -3 1 -5 1 -2 1 -5 1 -6 1 -1 1 -4 1 -6
2 -3 0 -6 0 -7 1 -4 0 -8 1 -13 2 -3 0 -7 0 -8 1 -1 0 -5 0 -7 1 -2 0 -6 0 -7
1 -1 0 -5 0 -8 1 -4 0 -7 0 -8 1 -2 0 -4 0 -6 1 -2 0 -5 0 -6 1 -1 0 -4 0 -5
0 -1 1 -4 1 -5 2 -1 0 -4 0 -5 1 -1 0 -6 1 -10 2 -4 1 -9 2 -10 3 -1 0 -3 0
-4 1 -1 0 -2 1 -2 1 -1 0 -1 0 -1 0 0 0 -1 0 -2 0 -2 1 -9 3 -11 4 -1 0 -2 0
-2 1 -1 0 -4 1 -7 2 l-6 2 5 3 c2 2 12 9 22 16 24 19 35 31 42 49 1 1 1 3 2 3
0 1 0 1 0 1 1 1 1 7 1 15 0 10 -2 16 -7 23 -8 10 -23 18 -39 20 -2 1 -5 1 -7
1 -2 1 -6 1 -9 2 -2 0 -7 0 -9 1 -5 0 -43 1 -43 1z"/>
</g>
</svg>
