<?xml version="1.0" standalone="no"?>
<!DOCTYPE svg PUBLIC "-//W3C//DTD SVG 20010904//EN"
 "http://www.w3.org/TR/2001/REC-SVG-20010904/DTD/svg10.dtd">
<svg version="1.0" xmlns="http://www.w3.org/2000/svg"
 width="1000.000000pt" height="1000.000000pt" viewBox="0 0 1000.000000 1000.000000"
 preserveAspectRatio="xMidYMid meet">
<metadata>
Created by potrace 1.16, written by Peter Selinger 2001-2019
</metadata>
<g transform="translate(0.000000,1000.000000) scale(1.000000,-1.000000)"
fill="#000000" stroke="none">
<path d="M416 304 c0 -1 -3 -1 -7 -1 -4 -1 -8 -1 -9 -2 -6 -1 -9 -1 -22 -2 -3
-1 -7 -1 -8 -2 -1 0 -4 0 -5 -1 -8 -1 -16 -7 -18 -14 -7 -15 4 -31 25 -37 5
-2 26 -8 29 -9 2 0 3 0 5 -1 1 0 3 0 5 -1 2 -1 2 -1 0 -1 -3 0 -3 0 -5 -1 0
-1 -1 -1 -1 -1 0 1 -2 0 -4 -1 -3 0 -6 -1 -7 -2 -1 0 -7 -2 -14 -4 -14 -6 -26
-10 -31 -10 -7 -2 -10 -2 -13 -3 -2 -1 -4 -1 -4 -1 0 0 -2 -1 -5 -3 -10 -5
-15 -12 -15 -22 -1 -14 8 -25 24 -29 5 -2 21 -2 27 -1 1 1 3 1 5 1 2 1 4 1 6
1 1 1 3 1 6 1 2 1 5 1 6 1 1 1 5 1 8 1 3 1 6 1 8 1 1 1 4 1 7 2 3 0 6 0 6 1 0
0 3 0 6 0 3 1 6 1 7 1 1 1 4 1 7 1 3 1 7 1 8 2 1 0 5 0 9 0 4 1 8 1 9 2 1 0 5
0 9 1 l6 0 -7 -3 c-4 -1 -9 -4 -11 -5 -3 -1 -6 -2 -6 -2 -1 0 -1 -1 -1 -1 0
-1 0 -1 -1 -1 0 1 -5 -1 -10 -4 -14 -7 -18 -8 -19 -8 -1 0 -1 0 -1 -1 0 0 -1
-1 -1 -1 -1 0 -9 -3 -18 -7 -9 -4 -25 -10 -36 -15 -35 -14 -44 -18 -66 -34 -9
-6 -11 -8 -12 -14 -4 -12 3 -22 18 -26 4 -2 9 -3 11 -3 1 -1 4 -1 6 -2 3 -1
29 -1 36 0 7 1 7 1 18 4 5 1 9 2 10 3 5 1 49 18 75 30 6 2 19 8 29 13 10 4 23
11 30 14 l12 6 3 -2 c3 -3 6 -5 9 -8 5 -4 18 -12 27 -17 7 -3 55 -21 60 -21 0
0 1 -1 2 -1 1 -1 27 -9 29 -10 1 0 2 0 2 0 0 0 0 0 1 0 0 -1 3 -1 5 -2 2 -1 5
-1 6 -2 1 0 6 -1 12 -3 5 -1 10 -2 11 -3 1 0 2 0 2 0 0 0 0 0 1 -1 1 0 5 -1 9
-2 9 -3 12 -3 23 -4 11 0 15 1 22 5 2 1 5 2 6 2 0 0 0 0 0 1 -1 0 0 1 1 2 13
13 13 35 1 48 -7 6 -22 15 -32 19 -5 2 -31 9 -42 11 -1 1 -1 1 -1 1 0 0 -1 0
-2 0 -2 1 -11 4 -14 5 -1 0 -2 0 -3 1 -2 0 -17 5 -18 6 -1 0 -2 0 -2 1 0 0 -4
1 -7 2 -4 1 -8 2 -8 2 -1 0 -1 1 -1 1 0 1 0 1 -1 1 0 -1 -2 0 -4 1 -3 0 -5 1
-6 2 -1 0 -1 0 -1 0 0 0 -1 0 -2 0 -3 1 -12 4 -12 4 0 1 1 2 3 4 1 1 3 5 5 8
2 2 6 7 9 10 8 9 9 14 9 25 0 8 0 10 -2 16 -3 5 -10 13 -14 16 -2 1 -2 1 0 6
5 10 2 20 -8 31 -15 14 -25 19 -42 22 -7 0 -16 2 -20 3 -1 0 -4 0 -7 0 -3 1
-7 1 -8 2 -2 0 -4 0 -14 2 -2 0 -5 0 -6 1 -1 0 -6 0 -9 1 -4 0 -8 0 -9 1 -1 0
-6 0 -11 1 -4 0 -11 0 -13 1 -5 0 -55 1 -55 1z"/>
</g>
</svg>
