<?xml version="1.0" standalone="no"?>
<!DOCTYPE svg PUBLIC "-//W3C//DTD SVG 20010904//EN"
 "http://www.w3.org/TR/2001/REC-SVG-20010904/DTD/svg10.dtd">
<svg version="1.0" xmlns="http://www.w3.org/2000/svg"
 width="1000.000000pt" height="1000.000000pt" viewBox="0 0 1000.000000 1000.000000"
 preserveAspectRatio="xMidYMid meet">
<metadata>
Created by potrace 1.16, written by Peter Selinger 2001-2019
</metadata>
<g transform="translate(0.000000,1000.000000) scale(1.000000,-1.000000)"
fill="#000000" stroke="none">
<path d="M485 294 c0 0 -9 0 -19 0 -10 -1 -20 -1 -22 -1 -2 -1 -7 -1 -11 -2
-4 0 -9 0 -10 0 -1 -1 -5 -1 -9 -2 -4 0 -7 0 -8 -1 -1 0 -5 0 -8 -1 -3 0 -6 0
-7 -1 -2 0 -4 0 -6 0 -2 -1 -5 -1 -6 -1 -1 -1 -4 -1 -6 -1 -2 -1 -5 -1 -6 -2
-1 0 -4 0 -6 -1 -2 0 -6 -1 -8 -1 -6 -1 -8 -2 -11 -2 -3 -1 -6 -2 -9 -3 -1 0
-4 0 -5 -1 -1 0 -3 -1 -4 -1 -1 -1 -2 -1 -2 -1 0 1 -35 -11 -41 -14 -14 -7
-25 -16 -29 -25 -3 -6 -3 -8 -3 -15 0 -11 7 -20 20 -23 7 -1 31 0 42 2 2 0 5
1 8 1 2 1 5 1 6 2 1 0 4 0 6 1 2 0 5 0 6 0 1 1 4 1 7 2 2 0 5 0 5 1 0 0 3 0 5
0 2 1 5 1 6 2 2 0 4 0 6 1 2 0 5 0 6 1 1 0 5 0 7 1 2 0 5 0 6 1 1 0 5 0 8 1 3
0 7 0 8 1 1 0 5 0 8 1 2 0 6 0 7 1 1 0 5 0 8 0 3 1 7 1 10 2 24 2 91 2 122 -1
2 0 9 0 14 0 5 -1 11 -1 12 -1 2 -1 7 -1 10 -2 4 0 8 0 9 0 1 -1 4 -1 7 -1 2
-1 5 -1 7 -1 1 -1 2 -1 2 -1 1 0 1 -1 1 -2 -1 -3 -6 -17 -9 -25 -3 -7 -4 -7
-10 -6 -3 1 -6 1 -12 3 -1 0 -4 0 -5 1 -1 0 -4 0 -5 1 -3 0 -17 1 -48 2 -12 0
-24 0 -28 1 -10 0 -27 1 -44 2 -9 0 -20 0 -26 1 -15 0 -49 0 -52 0 -1 -1 -3
-1 -5 -1 -8 -2 -10 -2 -20 -5 -34 -9 -53 -29 -45 -48 4 -10 15 -15 43 -18 2
-1 6 -1 9 -2 2 0 5 0 7 -1 4 0 17 -1 46 -2 16 0 33 0 38 0 10 -1 38 -2 46 -3
35 -1 69 -2 79 -1 5 1 6 1 6 -1 -1 -1 -3 -9 -6 -19 -8 -27 -8 -26 -8 -39 1
-10 1 -12 3 -17 6 -12 16 -19 29 -20 5 0 9 1 12 2 3 1 5 2 5 1 0 0 1 0 1 1 1
1 4 3 7 6 8 6 14 14 18 25 2 5 3 9 4 10 0 1 1 5 2 8 0 3 1 6 1 6 0 0 1 2 2 4
0 3 1 6 2 7 0 1 0 3 1 3 0 1 0 2 0 3 1 1 3 7 5 14 2 6 3 12 4 13 0 3 10 29 14
40 9 21 13 35 15 46 1 9 0 26 -2 30 -1 1 -1 2 -1 2 1 0 -4 14 -7 20 -4 6 -9
13 -14 17 -2 1 -5 3 -5 4 -4 2 -17 8 -23 10 -1 0 -3 0 -4 1 -3 0 -5 1 -10 2
-2 0 -5 0 -6 1 -2 0 -9 1 -16 2 -2 0 -6 0 -7 0 -2 1 -8 1 -12 2 -5 0 -11 0
-13 1 -2 0 -8 0 -14 1 -7 0 -14 0 -16 1 -6 0 -59 2 -59 1z"/>
</g>
</svg>
