<?xml version="1.0" standalone="no"?>
<!DOCTYPE svg PUBLIC "-//W3C//DTD SVG 20010904//EN"
 "http://www.w3.org/TR/2001/REC-SVG-20010904/DTD/svg10.dtd">
<svg version="1.0" xmlns="http://www.w3.org/2000/svg"
 width="1000.000000pt" height="1000.000000pt" viewBox="0 0 1000.000000 1000.000000"
 preserveAspectRatio="xMidYMid meet">
<metadata>
Created by potrace 1.16, written by Peter Selinger 2001-2019
</metadata>
<g transform="translate(0.000000,1000.000000) scale(1.000000,-1.000000)"
fill="#000000" stroke="none">
<path d="M376 299 c0 -1 -7 -1 -14 -1 -7 -1 -15 -1 -17 -2 -2 0 -6 0 -9 0 -4
-1 -8 -1 -9 -1 -1 -1 -4 -1 -6 -2 -3 0 -6 0 -7 0 -1 -1 -5 -1 -7 -1 -5 -1 -9
-2 -12 -3 -1 0 -4 0 -5 -1 -5 -1 -17 -7 -22 -11 -10 -10 -14 -25 -9 -37 1 -3
1 -6 -1 -13 0 -3 -1 -8 -2 -15 0 -3 0 -7 0 -8 -1 -2 -2 -11 -3 -18 0 -1 0 -8
0 -15 -1 -7 -1 -14 -2 -16 0 -5 -1 -30 -1 -46 -1 -18 1 -24 9 -33 2 -2 4 -5 4
-5 0 -1 10 -11 14 -14 5 -4 15 -8 21 -10 3 -1 9 -1 14 -2 8 0 20 -1 23 -1 3
-1 14 -2 20 -3 10 0 25 -1 31 -1 3 -1 15 -1 28 -2 12 0 24 0 27 -1 6 0 67 0
76 0 3 1 14 1 23 1 39 2 51 2 54 3 2 0 10 0 19 1 23 0 22 0 45 6 7 2 14 3 16
3 6 1 7 2 15 5 3 1 7 2 8 2 0 0 1 1 1 1 0 0 1 1 3 2 7 5 9 16 3 23 -4 5 -21
15 -29 18 -1 0 -1 0 -1 0 0 0 -1 0 -2 0 -1 1 -10 4 -15 6 -1 0 -2 0 -2 1 -1 0
-4 0 -6 1 -6 2 -6 2 -9 2 -11 3 -58 4 -101 2 -49 -1 -117 0 -162 3 -20 1 -32
1 -47 -2 -5 0 -15 0 -16 0 0 1 0 15 0 16 0 0 7 0 15 0 7 1 14 1 16 1 1 1 4 1
8 1 5 1 8 1 15 2 5 1 25 2 51 4 30 1 105 0 126 -1 2 -1 9 -1 15 -2 6 0 14 0
16 -1 12 0 35 0 44 1 4 1 35 11 39 13 10 6 14 19 9 29 -4 5 -7 8 -22 17 -12 7
-15 8 -16 8 -1 0 -1 0 -1 1 0 1 0 1 -1 1 0 0 -1 0 -1 0 -1 0 -1 0 -2 1 -1 0
-1 0 -1 0 -1 0 -8 2 -13 3 -2 0 -6 0 -7 1 -4 0 -10 1 -21 1 -5 1 -13 1 -18 2
-14 1 -17 1 -32 1 -9 1 -18 1 -22 2 -8 0 -71 0 -79 0 -3 -1 -12 -1 -21 -1 -9
-1 -18 -1 -21 -1 -4 -1 -11 -1 -15 -2 -5 0 -11 0 -12 0 -7 -2 -14 -2 -33 -4
-2 -1 -6 -1 -7 -1 -1 -1 -4 -1 -5 -2 -1 0 -3 0 -4 0 -4 -1 -6 -2 -6 -2 0 0 0
3 -1 6 0 5 0 6 1 6 4 0 16 2 19 2 1 1 4 1 7 1 2 1 6 1 8 2 20 3 96 3 166 2 18
-1 56 -1 86 -2 29 0 62 0 73 0 11 0 22 0 23 0 7 2 16 7 23 14 8 7 9 9 10 14 0
3 -1 9 -3 10 0 0 -1 2 -2 5 -5 10 -12 17 -21 22 -6 3 -17 7 -23 8 -2 0 -4 0
-5 1 -1 0 -5 0 -8 1 -3 0 -6 0 -7 1 -5 1 -277 4 -278 3z"/>
</g>
</svg>
