<?xml version="1.0" standalone="no"?>
<!DOCTYPE svg PUBLIC "-//W3C//DTD SVG 20010904//EN"
 "http://www.w3.org/TR/2001/REC-SVG-20010904/DTD/svg10.dtd">
<svg version="1.0" xmlns="http://www.w3.org/2000/svg"
 width="1000.000000pt" height="1000.000000pt" viewBox="0 0 1000.000000 1000.000000"
 preserveAspectRatio="xMidYMid meet">
<metadata>
Created by potrace 1.16, written by Peter Selinger 2001-2019
</metadata>
<g transform="translate(0.000000,1000.000000) scale(1.000000,-1.000000)"
fill="#000000" stroke="none">
<path d="M447 298 c0 -1 -5 -1 -11 -1 -6 -1 -12 -1 -13 -1 -4 -1 -16 -2 -23
-3 -7 0 -15 -1 -18 -1 -1 -1 -5 -1 -8 -2 -3 0 -6 0 -7 -1 -1 0 -5 0 -8 -1 -3
0 -6 0 -7 -1 -1 0 -4 0 -7 -1 -3 0 -6 0 -7 -1 -1 0 -4 0 -6 0 -2 -1 -5 -1 -6
-1 -1 -1 -4 -1 -6 -2 -3 0 -5 0 -5 -1 0 0 -3 0 -6 -1 -2 0 -5 0 -6 -1 -1 0 -5
0 -9 -1 -13 -1 -16 -1 -22 -4 -13 -5 -22 -21 -21 -35 0 -8 0 -9 3 -15 4 -9 15
-18 25 -21 4 -1 22 -1 30 0 l6 1 0 -4 c0 -3 0 -5 0 -6 1 -1 1 -4 1 -7 1 -3 1
-7 1 -8 1 -3 2 -8 3 -16 0 -3 0 -7 0 -8 1 -1 1 -6 2 -10 0 -5 0 -10 1 -11 0
-2 0 -9 1 -16 l0 -12 -36 0 c-35 0 -36 -1 -41 -3 -8 -3 -17 -11 -21 -20 -3 -6
-3 -7 -3 -14 0 -5 0 -9 0 -10 1 -4 6 -13 10 -17 4 -4 11 -9 12 -8 1 0 1 0 1
-1 0 0 0 -1 1 -1 0 0 1 0 1 0 1 0 4 -1 8 -2 2 0 30 0 63 0 52 0 70 0 88 1 2 1
9 1 15 1 5 1 12 1 15 1 39 3 56 4 114 4 50 0 71 0 88 -1 16 -2 24 -2 28 -2 2
-1 7 -1 12 -2 4 0 9 0 10 -1 10 -1 34 -2 42 -1 5 1 13 4 18 8 2 1 4 2 4 2 1 0
1 0 1 1 0 0 1 2 2 4 5 6 6 11 6 19 0 9 -2 17 -9 24 -5 6 -17 13 -25 15 -2 0
-4 0 -5 1 -2 0 -4 0 -4 1 0 0 -3 0 -7 0 -4 1 -7 1 -8 2 -2 0 -6 0 -10 1 -4 0
-9 0 -10 0 -2 1 -8 1 -12 2 -5 0 -11 0 -13 1 -5 0 -27 1 -31 1 l-4 0 1 7 c0 4
0 9 1 13 0 3 0 8 1 12 0 7 1 10 1 21 1 4 1 9 2 11 0 2 0 6 0 8 1 5 2 19 3 23
0 1 0 4 0 6 l0 3 14 -1 c26 -1 34 0 40 2 2 1 4 2 4 1 1 0 1 0 1 1 0 1 0 1 1 1
0 -1 1 0 2 1 7 6 10 9 13 15 3 6 3 7 3 15 0 5 0 9 0 11 -1 1 -1 2 -2 3 0 2 -5
9 -9 13 -4 4 -15 10 -18 11 -1 0 -3 0 -4 0 -3 1 -14 2 -32 3 -9 0 -18 0 -20 1
-5 0 -26 1 -46 2 -20 0 -38 1 -45 2 -6 0 -88 1 -88 1z m86 -77 c4 -1 9 -1 11
-1 2 -1 7 -1 12 -1 l9 0 -1 -3 c0 -2 0 -5 0 -6 -1 -5 -2 -8 -2 -10 -1 -2 -1
-5 -1 -6 -1 -1 -1 -4 -1 -5 -1 -1 -1 -3 -1 -4 -1 -2 -1 -5 -1 -7 -1 -2 -1 -6
-2 -7 0 -1 0 -4 -1 -5 0 -2 0 -4 0 -6 -1 -2 -1 -5 -2 -10 -1 -1 -1 -4 -2 -6 0
-2 0 -4 0 -5 -1 -1 -1 -4 -1 -6 -1 -3 -1 -7 -1 -8 -1 -1 -1 -4 -1 -6 -1 -3 -1
-5 -2 -5 0 0 -8 -1 -17 -1 -17 0 -56 -1 -66 -1 -2 -1 -10 -1 -16 -2 -6 0 -13
0 -15 0 -2 -1 -9 -1 -15 -1 -6 -1 -13 -1 -14 -1 -2 0 -2 0 -3 2 0 1 0 7 0 14
-1 6 -1 13 -1 15 -1 2 -1 7 -1 11 -1 11 -3 24 -4 27 0 2 0 5 -1 7 -1 16 -2 20
-4 27 -1 5 -1 5 0 5 1 0 4 0 7 0 5 1 8 1 21 3 4 0 8 0 11 1 2 0 8 0 14 1 5 0
10 0 10 1 0 0 73 -1 81 -1z"/>
</g>
</svg>
