<?xml version="1.0" standalone="no"?>
<!DOCTYPE svg PUBLIC "-//W3C//DTD SVG 20010904//EN"
 "http://www.w3.org/TR/2001/REC-SVG-20010904/DTD/svg10.dtd">
<svg version="1.0" xmlns="http://www.w3.org/2000/svg"
 width="1000.000000pt" height="1000.000000pt" viewBox="0 0 1000.000000 1000.000000"
 preserveAspectRatio="xMidYMid meet">
<metadata>
Created by potrace 1.16, written by Peter Selinger 2001-2019
</metadata>
<g transform="translate(0.000000,1000.000000) scale(1.000000,-1.000000)"
fill="#000000" stroke="none">
<path d="M480 313 c0 0 -6 0 -13 0 -18 -1 -22 -2 -29 -3 -3 0 -7 0 -8 0 -4 -1
-13 -2 -15 -2 -1 -1 -4 -1 -6 -1 -3 -1 -6 -1 -8 -2 -1 -1 -2 -1 -2 -1 0 1 -1
0 -3 0 -2 -1 -5 -1 -6 -2 -2 0 -4 0 -5 -1 -2 0 -5 -1 -9 -2 -3 0 -14 -5 -16
-7 -9 -8 -10 -21 -2 -29 3 -4 12 -9 16 -9 1 -1 2 -1 2 -1 0 0 5 -2 10 -2 1 -1
3 -1 5 -1 1 -1 4 -1 7 -2 3 0 6 0 7 0 3 -1 14 -2 22 -3 5 0 12 0 16 0 4 -1 14
-1 22 -2 24 0 53 -3 63 -5 1 0 4 0 7 -1 2 -1 6 -1 7 -1 1 -1 3 -1 4 -1 2 -1 8
-2 15 -3 8 0 11 -2 5 -2 -3 0 -7 0 -9 0 -7 -1 -30 -2 -59 -3 -10 -1 -21 -1
-26 -1 -18 -1 -30 -2 -33 -3 -2 0 -7 0 -11 0 -4 -1 -9 -1 -11 -2 -2 0 -6 0 -9
-1 -7 0 -16 -1 -18 -1 -1 -1 -4 -1 -7 -1 -3 -1 -7 -1 -8 -2 -1 0 -5 0 -7 -1
-2 0 -5 0 -6 -1 -1 0 -3 0 -4 0 -2 -1 -5 -1 -6 -2 -1 0 -4 0 -5 -1 -2 0 -4 0
-5 -1 -2 0 -5 -1 -9 -2 -1 0 -3 0 -4 -1 -2 0 -3 0 -3 -1 -1 0 -5 -1 -9 -2 -8
-2 -10 -2 -15 -4 -6 -1 -15 -4 -18 -7 -6 -4 -8 -13 -5 -20 2 -5 11 -11 19 -12
2 -1 5 -1 7 -2 3 0 25 0 38 0 6 1 10 1 10 0 0 0 -1 -1 -2 -3 -6 -6 -17 -21
-16 -22 0 0 -1 -1 -2 -3 0 -2 -1 -5 -1 -7 -1 -1 -1 -4 -1 -5 -1 -4 -1 -18 0
-22 1 -8 5 -19 9 -25 4 -6 14 -16 20 -20 9 -6 19 -10 37 -14 9 -3 12 -3 19 -5
2 0 4 0 5 -1 22 -4 89 -5 125 -2 9 1 17 2 19 2 1 1 5 1 8 1 9 1 14 2 17 3 1 0
3 0 4 1 1 0 4 0 5 0 5 2 22 7 31 11 15 6 28 15 34 25 3 5 7 13 8 17 0 1 0 3 1
4 1 5 1 20 -1 26 -3 16 -11 31 -22 43 -3 3 -5 5 -4 5 0 0 1 0 3 1 1 0 4 0 7 0
7 1 12 2 20 4 3 0 7 1 9 1 1 1 3 1 6 2 5 1 8 2 20 4 5 0 9 1 15 2 2 1 5 1 7 1
3 1 10 4 10 5 1 5 -1 9 -7 14 -5 5 -11 8 -20 12 -2 1 -5 2 -6 2 -2 1 -3 1 -3
2 -1 0 -5 1 -10 2 -11 4 -20 6 -24 6 -9 2 -11 2 -20 3 -6 0 -13 0 -15 1 -6 0
-31 1 -34 1 -1 0 -2 0 -2 1 0 0 2 1 4 2 18 11 22 34 8 51 -4 5 -10 9 -15 11
-5 1 -5 1 -10 2 -5 1 -11 3 -12 3 0 0 0 0 -1 0 0 1 -3 1 -5 2 -7 2 -9 3 -15 4
-2 0 -5 0 -6 1 -1 0 -4 0 -6 1 -3 0 -6 0 -7 1 -1 0 -4 0 -5 1 -1 0 -5 0 -7 1
-2 0 -5 0 -6 1 -3 0 -39 1 -39 0z m64 -157 c2 -1 5 -2 7 -3 2 0 4 0 4 0 0 -1
3 -1 5 -1 2 -1 5 -1 7 -1 1 -1 3 -1 5 -1 13 -3 25 -7 31 -12 5 -4 8 -17 5 -17
-1 0 -2 0 -2 -1 0 -1 0 -1 -1 -1 0 0 -5 -1 -9 -3 -5 -2 -10 -3 -11 -4 -8 -1
-10 -2 -18 -3 -3 0 -7 0 -8 -1 -2 0 -6 0 -9 -1 -4 0 -9 0 -10 -1 -15 -2 -79
-2 -99 1 -7 0 -20 3 -27 5 l-7 2 -1 4 c-1 10 15 24 37 31 14 5 17 6 42 6 22 1
43 2 44 2 0 0 2 1 6 1 4 0 6 -1 9 -2z"/>
</g>
</svg>
