<?xml version="1.0" standalone="no"?>
<!DOCTYPE svg PUBLIC "-//W3C//DTD SVG 20010904//EN"
 "http://www.w3.org/TR/2001/REC-SVG-20010904/DTD/svg10.dtd">
<svg version="1.0" xmlns="http://www.w3.org/2000/svg"
 width="1000.000000pt" height="1000.000000pt" viewBox="0 0 1000.000000 1000.000000"
 preserveAspectRatio="xMidYMid meet">
<metadata>
Created by potrace 1.16, written by Peter Selinger 2001-2019
</metadata>
<g transform="translate(0.000000,1000.000000) scale(1.000000,-1.000000)"
fill="#000000" stroke="none">
<path d="M602 293 c0 0 -5 0 -9 0 -5 -1 -10 -1 -12 -1 -1 -1 -3 -1 -6 -1 -5
-1 -18 -5 -26 -7 -20 -7 -34 -21 -34 -33 0 -12 9 -19 24 -19 4 0 8 0 10 0 13
3 57 5 71 4 7 -1 7 -1 19 -4 18 -4 25 -8 38 -21 14 -14 20 -28 19 -49 0 -7 -1
-15 -1 -18 -1 -5 -3 -11 -5 -13 -1 -2 -16 -22 -18 -24 0 0 -2 -3 -4 -5 -4 -5
-12 -13 -28 -28 -9 -10 -11 -12 -11 -20 -1 -9 3 -15 11 -19 4 -2 6 -2 10 -2 6
1 10 2 19 8 3 3 6 4 7 4 0 0 0 0 0 1 -1 0 0 1 2 3 5 4 30 34 36 43 12 18 25
49 29 69 4 21 4 37 2 51 -1 1 -1 2 -1 2 0 0 0 0 0 1 -1 1 -1 3 -2 5 -1 1 -1 3
-1 3 -1 3 -10 18 -11 19 -1 0 -1 1 -1 1 0 1 0 2 -7 9 -9 10 -31 25 -47 31 -1
1 -3 1 -3 1 0 1 -4 2 -8 3 -9 3 -19 5 -27 6 -7 0 -35 1 -35 0z"/>
<path d="M351 291 c0 0 -4 0 -8 0 -4 -1 -8 -1 -9 -2 -1 0 -5 0 -7 -1 -5 0 -19
-4 -23 -6 -2 -1 -4 -1 -5 -2 0 0 -6 -2 -11 -4 -24 -11 -42 -24 -56 -42 -9 -11
-12 -19 -10 -28 1 -5 9 -14 11 -13 0 1 1 1 1 0 1 -1 10 -1 13 1 2 1 6 3 9 4 9
5 51 23 58 24 5 1 7 2 9 2 1 1 3 1 5 2 3 0 5 0 6 1 9 1 31 2 39 1 5 -1 15 -5
19 -7 6 -4 8 -13 4 -29 0 -1 0 -4 0 -6 -1 -3 -2 -7 -2 -9 -1 -1 -2 -6 -4 -11
-2 -5 -3 -11 -3 -12 -1 -2 -1 -4 -2 -9 -1 -1 -1 -3 -1 -4 -1 -1 -1 -3 -1 -4
-1 -1 -2 -6 -4 -11 -3 -10 -4 -21 -4 -36 0 -15 14 -26 28 -21 6 1 23 12 27 17
6 5 12 17 18 35 3 8 5 16 6 17 0 1 0 3 0 4 1 2 1 3 4 13 0 4 1 7 2 11 0 3 0 6
1 8 0 1 0 4 1 6 0 5 0 23 0 29 -1 7 -2 13 -3 16 0 1 0 3 0 4 0 0 -1 1 -1 2 -1
0 -1 1 -1 1 1 0 -3 10 -6 16 -4 10 -12 19 -21 25 -6 4 -21 11 -21 10 -1 0 -1
0 -1 1 0 1 0 1 -1 1 0 -1 -2 0 -3 0 -2 1 -3 2 -3 1 0 0 -1 1 -3 1 -3 1 -3 1
-12 3 -6 1 -34 2 -35 1z"/>
</g>
</svg>
