<?xml version="1.0" standalone="no"?>
<!DOCTYPE svg PUBLIC "-//W3C//DTD SVG 20010904//EN"
 "http://www.w3.org/TR/2001/REC-SVG-20010904/DTD/svg10.dtd">
<svg version="1.0" xmlns="http://www.w3.org/2000/svg"
 width="1000.000000pt" height="1000.000000pt" viewBox="0 0 1000.000000 1000.000000"
 preserveAspectRatio="xMidYMid meet">
<metadata>
Created by potrace 1.16, written by Peter Selinger 2001-2019
</metadata>
<g transform="translate(0.000000,1000.000000) scale(1.000000,-1.000000)"
fill="#000000" stroke="none">
<path d="M343 296 c0 -1 -3 -1 -5 -1 -3 -1 -7 -1 -8 -1 -1 -1 -4 -1 -6 -2 -2
0 -6 -1 -9 -2 -3 0 -6 -1 -8 -2 -4 0 -19 -6 -27 -10 -32 -15 -56 -38 -57 -55
-1 -10 6 -18 16 -18 2 1 8 3 15 6 30 15 62 26 83 29 11 1 29 1 37 -2 20 -6 36
-23 46 -49 4 -12 4 -13 5 -24 1 -4 1 -9 2 -12 1 -7 1 -28 0 -34 -1 -3 -2 -8
-3 -11 -1 -4 -1 -7 -2 -8 -1 -5 -1 -20 0 -24 1 -2 3 -5 4 -6 3 -3 4 -3 9 -3 5
1 7 1 11 4 10 7 14 12 22 28 10 19 12 27 15 41 0 2 0 4 1 5 1 7 2 14 2 25 0
26 -4 41 -18 64 -10 17 -24 32 -37 41 -9 5 -26 14 -33 16 -1 0 -4 0 -7 1 -4 1
-8 2 -9 3 -4 0 -38 1 -39 1z"/>
<path d="M628 283 c-4 -3 -9 -7 -14 -14 -6 -8 -24 -48 -52 -113 -14 -32 -25
-56 -29 -63 -9 -14 -9 -27 0 -37 5 -7 15 -10 24 -8 4 1 11 5 13 7 1 1 2 2 2 1
1 0 1 0 1 1 -1 0 0 1 1 2 2 2 16 23 20 30 3 5 7 16 20 48 3 10 6 18 6 18 0 0
2 -1 4 -3 10 -9 8 -8 41 -30 14 -9 33 -22 42 -29 10 -7 21 -15 26 -17 4 -3 10
-8 13 -10 15 -14 36 -15 49 -3 12 12 13 36 0 49 0 0 -3 4 -6 7 -13 15 -19 20
-33 27 -5 3 -12 7 -17 10 -8 5 -25 13 -45 23 -5 2 -17 7 -27 11 -10 4 -18 7
-19 8 -2 0 -3 0 -3 0 0 1 -2 1 -3 1 l-3 1 5 12 c8 19 7 16 11 30 5 19 5 28 -1
36 -6 6 -17 9 -26 5z"/>
</g>
</svg>
