<?xml version="1.0" standalone="no"?>
<!DOCTYPE svg PUBLIC "-//W3C//DTD SVG 20010904//EN"
 "http://www.w3.org/TR/2001/REC-SVG-20010904/DTD/svg10.dtd">
<svg version="1.0" xmlns="http://www.w3.org/2000/svg"
 width="1000.000000pt" height="1000.000000pt" viewBox="0 0 1000.000000 1000.000000"
 preserveAspectRatio="xMidYMid meet">
<metadata>
Created by potrace 1.16, written by Peter Selinger 2001-2019
</metadata>
<g transform="translate(0.000000,1000.000000) scale(1.000000,-1.000000)"
fill="#000000" stroke="none">
<path d="M304 318 c-14 -3 -22 -16 -25 -39 -1 -2 -1 -6 -1 -7 -1 -1 -1 -5 -1
-7 -1 -3 -1 -6 -1 -8 -1 -1 -1 -4 -1 -7 -2 -10 -3 -18 -4 -25 0 -2 0 -6 0 -8
-1 -3 -1 -7 -1 -8 -1 -1 -1 -5 -1 -7 -1 -3 -1 -6 -1 -7 -1 -1 -1 -4 -1 -6 -1
-2 -1 -5 -1 -7 -1 -1 -1 -3 -1 -6 -1 -3 -2 -8 -3 -12 0 -2 0 -5 -1 -7 0 -2 0
-5 -1 -6 -1 -6 -1 -17 -1 -27 0 -11 0 -16 3 -26 3 -9 13 -23 24 -31 5 -4 21
-12 25 -12 0 0 0 0 0 0 1 0 9 -2 13 -3 8 -1 30 0 44 2 1 1 4 1 7 1 2 1 5 1 6
2 1 0 5 0 7 1 2 0 5 0 6 1 2 0 4 0 6 1 2 0 5 0 6 1 1 0 4 0 6 1 2 0 4 0 5 1 2
0 4 0 5 0 1 1 4 1 6 1 1 1 4 1 5 1 1 1 4 1 6 2 2 0 5 0 6 0 1 1 4 1 6 2 3 0 5
0 5 0 0 1 3 1 5 1 2 1 5 1 7 1 1 1 3 1 6 1 4 1 7 2 11 2 1 1 4 1 5 1 1 1 4 1
5 1 1 1 4 1 6 2 6 1 14 2 17 2 7 2 9 2 13 3 2 0 6 0 7 1 1 0 5 0 7 1 2 0 6 0
7 0 3 1 11 2 17 3 2 0 7 0 9 0 2 1 7 1 11 2 4 0 8 0 10 1 1 0 6 0 10 1 4 0 9
0 11 0 3 1 18 2 27 3 9 0 22 1 32 3 6 0 8 1 12 2 1 0 3 0 5 0 4 1 18 7 23 10
10 7 15 16 16 28 0 16 -10 29 -25 33 -10 3 -26 4 -38 3 -3 -1 -7 -1 -8 -2 -5
0 -18 -1 -22 -1 -15 -2 -24 -2 -27 -3 -2 0 -7 0 -11 0 -8 -1 -12 -2 -21 -2 -3
-1 -8 -1 -10 -1 -10 -1 -17 -2 -19 -3 -1 0 -5 0 -8 0 -3 -1 -7 -1 -8 -2 -1 0
-5 0 -7 0 -2 -1 -6 -1 -7 -2 -7 -1 -9 -1 -13 -1 -2 -1 -5 -1 -6 -1 -1 -1 -4
-1 -6 -1 -2 -1 -5 -1 -6 -1 -1 -1 -4 -1 -6 -2 -3 0 -7 -1 -9 -1 -2 -1 -6 -1
-7 -2 -1 0 -4 0 -5 -1 -5 -1 -8 -1 -11 -1 -2 -1 -5 -1 -6 -1 -1 -1 -3 -1 -5
-1 -2 -1 -5 -1 -6 -1 -1 -1 -4 -1 -6 -1 -2 -1 -5 -1 -6 -1 -1 -1 -4 -1 -6 -1
-2 -1 -5 -1 -6 -2 -1 0 -4 0 -6 -1 -2 0 -4 0 -5 -1 -2 0 -4 0 -5 -1 -2 0 -5 0
-6 -1 -1 0 -4 0 -5 0 -1 -1 -4 -1 -6 -2 -3 0 -6 0 -7 -1 -17 -2 -21 -3 -32 -4
-7 0 -8 0 -8 1 1 1 1 4 1 7 1 6 1 8 4 22 0 4 1 10 2 11 0 3 0 5 1 12 1 1 1 5
2 8 0 2 0 5 1 6 0 1 0 5 1 8 0 3 0 7 1 8 2 14 2 47 0 58 -1 4 -3 10 -3 13 -1
0 -1 2 -1 4 -2 6 -8 17 -13 22 -4 5 -11 9 -15 10 -7 1 -8 1 -11 0z"/>
</g>
</svg>
