<?xml version="1.0" standalone="no"?>
<!DOCTYPE svg PUBLIC "-//W3C//DTD SVG 20010904//EN"
 "http://www.w3.org/TR/2001/REC-SVG-20010904/DTD/svg10.dtd">
<svg version="1.0" xmlns="http://www.w3.org/2000/svg"
 width="1000.000000pt" height="1000.000000pt" viewBox="0 0 1000.000000 1000.000000"
 preserveAspectRatio="xMidYMid meet">
<metadata>
Created by potrace 1.16, written by Peter Selinger 2001-2019
</metadata>
<g transform="translate(0.000000,1000.000000) scale(1.000000,-1.000000)"
fill="#000000" stroke="none">
<path d="M641 304 c-14 -3 -28 -10 -46 -21 -14 -9 -27 -20 -41 -33 -15 -16
-20 -25 -20 -34 1 -11 9 -18 21 -18 8 0 18 4 40 15 21 11 27 13 38 15 2 0 5 0
6 1 2 0 2 0 2 -4 -1 -3 -2 -6 -2 -9 -1 -2 -2 -4 -2 -5 0 -1 -1 -4 -4 -11 -4
-11 -8 -18 -22 -41 -17 -29 -41 -77 -44 -86 -1 -5 -2 -14 -1 -18 4 -15 14 -26
28 -29 5 -2 14 -2 19 0 1 0 3 0 4 0 1 0 2 1 1 1 0 0 1 1 2 1 1 1 2 1 2 1 1 0
2 1 4 3 2 2 4 3 4 2 1 0 1 0 1 0 -1 1 0 3 2 4 1 2 8 14 14 26 11 23 21 41 26
48 l2 4 6 -4 c12 -6 18 -11 51 -44 11 -11 19 -16 27 -17 3 -1 12 -1 15 -1 4 1
14 7 18 10 1 1 3 3 4 2 0 0 0 0 0 1 -1 0 0 1 0 2 1 1 3 4 5 7 4 10 4 22 -1 33
-1 2 -2 3 -2 3 -1 0 -1 0 -1 1 0 1 -6 8 -19 21 -16 16 -21 20 -27 26 -4 2 -8
6 -9 7 -6 5 -20 15 -27 18 -7 3 -7 2 -3 16 5 14 6 22 5 40 0 17 -1 23 -7 36
-5 11 -15 20 -25 25 -4 2 -9 4 -10 5 -2 0 -4 1 -5 1 -3 1 -26 1 -29 0z"/>
<path d="M249 293 c-7 -1 -10 -3 -16 -8 -5 -6 -9 -13 -10 -21 -2 -7 -2 -21 -1
-29 2 -9 2 -11 2 -16 1 -4 1 -10 2 -14 0 -5 0 -11 0 -13 1 -3 1 -11 1 -18 2
-39 2 -42 5 -56 0 -3 1 -5 2 -9 0 -1 0 -3 0 -4 1 -1 1 -3 2 -6 0 -2 1 -5 1 -6
3 -11 8 -22 14 -28 6 -5 17 -12 24 -13 8 -1 24 0 32 2 1 1 3 1 4 1 1 1 4 1 7
2 2 0 5 1 7 1 2 1 4 1 4 1 0 1 2 1 3 1 1 1 5 2 8 3 3 1 6 2 6 1 0 0 1 0 2 1 0
1 1 1 1 1 0 -1 1 0 3 0 3 2 42 14 46 15 1 0 6 1 11 2 4 2 9 3 11 3 1 1 7 3 15
4 7 2 13 4 15 4 1 1 3 1 4 2 1 0 3 1 3 1 0 0 3 0 6 1 27 9 40 33 28 56 -3 6
-14 16 -17 15 -1 0 -1 0 -1 1 0 1 0 1 -1 1 0 0 -1 0 -1 0 -4 1 -23 2 -28 1 -1
-1 -3 -1 -4 -1 -1 -1 -7 -2 -13 -4 -6 -2 -12 -3 -13 -3 -1 -1 -4 -1 -6 -2 -6
-2 -6 -2 -9 -2 -1 -1 -4 -1 -6 -2 -2 -1 -5 -1 -6 -2 0 0 -3 -1 -6 -1 -3 -1 -6
-2 -6 -2 -1 0 -3 -1 -5 -2 -3 0 -5 -1 -6 -2 -1 0 -7 -1 -12 -3 -6 -2 -10 -3
-11 -3 0 0 -4 -2 -9 -3 -5 -2 -10 -3 -11 -4 -1 0 -3 -1 -5 -1 -1 -1 -4 -1 -6
-2 -3 0 -3 0 -3 2 0 1 0 4 -1 6 0 1 0 8 0 16 -1 16 -2 33 -3 39 0 2 0 9 0 14
-1 9 -2 20 -3 24 0 1 0 5 -1 8 0 3 0 6 -1 7 0 2 0 4 -1 6 -1 5 -2 10 -3 12 -1
0 -1 1 -1 1 1 0 0 2 -2 5 -9 16 -26 24 -41 20z"/>
</g>
</svg>
