<?xml version="1.0" standalone="no"?>
<!DOCTYPE svg PUBLIC "-//W3C//DTD SVG 20010904//EN"
 "http://www.w3.org/TR/2001/REC-SVG-20010904/DTD/svg10.dtd">
<svg version="1.0" xmlns="http://www.w3.org/2000/svg"
 width="1000.000000pt" height="1000.000000pt" viewBox="0 0 1000.000000 1000.000000"
 preserveAspectRatio="xMidYMid meet">
<metadata>
Created by potrace 1.16, written by Peter Selinger 2001-2019
</metadata>
<g transform="translate(0.000000,1000.000000) scale(1.000000,-1.000000)"
fill="#000000" stroke="none">
<path d="M638 307 c-1 0 -6 0 -12 0 -11 -1 -16 -1 -22 -3 -2 -1 -4 -1 -4 -1
-2 0 -19 -6 -25 -9 -14 -6 -23 -15 -23 -22 0 -2 1 -4 2 -5 2 -2 16 -7 23 -7 2
-1 7 -1 10 -2 12 -1 31 0 41 2 2 1 6 1 10 2 14 1 16 1 19 2 2 1 4 2 4 1 1 0 1
0 1 1 0 1 14 8 18 8 5 1 8 5 8 9 0 6 -3 9 -22 19 -7 4 -14 6 -21 6 -4 0 -7 -1
-7 -1z"/>
<path d="M258 265 c-7 -2 -13 -9 -16 -18 -1 -4 -1 -11 0 -35 0 -17 0 -32 0
-34 0 -7 -1 -45 -1 -47 -2 -10 -3 -41 -2 -53 2 -16 7 -25 20 -32 4 -3 16 -9
16 -8 0 1 1 1 2 0 4 -1 16 -2 28 -2 10 0 13 0 22 2 3 0 6 1 8 1 2 1 4 1 4 1 0
1 2 1 4 1 2 1 7 2 11 2 3 1 8 2 11 2 2 1 5 1 6 2 1 0 4 0 6 1 2 0 4 0 6 0 1 1
4 1 7 1 5 1 10 2 14 3 1 0 5 0 8 1 5 0 7 1 11 2 4 0 20 3 26 4 1 1 5 1 7 2 2
1 5 1 6 2 1 0 2 0 2 0 0 0 0 0 1 0 2 1 5 2 12 6 13 6 24 21 24 34 0 14 -9 23
-27 28 -6 1 -17 1 -31 0 -3 -1 -11 -1 -20 -1 -9 -1 -16 -1 -17 -1 -2 -1 -5 -1
-8 -1 -3 -1 -7 -1 -8 -1 -1 -1 -4 -1 -6 -1 -2 -1 -5 -1 -6 -1 -2 -1 -5 -1 -7
-1 -2 -1 -6 -1 -7 -1 -1 -1 -4 -1 -6 -1 -2 -1 -5 -1 -6 -1 -1 -1 -3 -1 -5 -1
-2 -1 -5 -1 -6 -1 -1 -1 -4 -1 -5 -2 -1 0 -4 0 -5 -1 -1 0 -4 0 -5 -1 -2 0 -4
0 -5 -1 -2 0 -4 0 -9 -2 -1 0 -4 0 -5 -1 -1 0 -4 0 -5 -1 -1 0 -3 -1 -4 -1 -2
-1 -3 0 -2 4 0 3 0 8 2 23 1 14 0 36 -1 54 -1 2 -1 6 -1 9 -1 3 -1 6 -1 8 -1
1 -1 3 -1 6 -2 8 -2 10 -4 18 -3 11 -9 24 -13 28 -6 5 -13 7 -19 6z"/>
<path d="M709 258 c0 0 -6 0 -12 0 -7 -1 -15 -1 -17 -2 -2 0 -9 0 -14 0 -5 -1
-12 -1 -14 -1 -2 -1 -7 -1 -10 -1 -6 -1 -9 -1 -14 -2 -1 -1 -4 -1 -5 -1 -1 -1
-4 -1 -5 -2 -1 0 -4 0 -5 -1 -1 0 -3 0 -4 -1 -2 0 -4 -1 -9 -2 -1 0 -3 0 -3
-1 -1 0 -2 0 -3 0 -12 -3 -47 -15 -57 -20 -6 -3 -11 -8 -13 -12 -5 -10 0 -22
11 -25 4 -1 45 0 52 1 1 1 4 1 7 1 3 1 7 1 8 2 1 0 5 0 7 1 7 0 10 1 12 1 1 1
3 1 6 1 3 1 6 1 11 2 1 1 4 1 6 1 4 1 7 2 9 2 1 1 3 1 5 1 1 1 4 1 5 2 1 0 4
0 5 1 1 0 4 0 5 1 1 0 4 0 5 1 1 0 3 0 5 0 1 1 3 1 6 1 2 1 5 1 6 2 1 0 7 0
12 0 9 1 18 3 20 5 0 1 1 1 1 0 1 0 1 0 1 0 -1 1 0 2 1 3 4 3 7 11 7 16 1 9
-4 18 -11 22 -2 2 -4 3 -4 3 -1 0 -1 0 -1 0 -1 1 -12 2 -12 1z"/>
<path d="M657 185 c-2 -1 -5 -2 -6 -3 -5 0 -16 -4 -16 -5 0 -1 0 -1 -1 -1 0 0
-5 -2 -11 -6 -12 -8 -40 -35 -45 -44 -3 -6 -7 -17 -8 -22 -1 -1 -1 -4 -1 -5
-3 -9 -3 -22 -2 -28 5 -19 16 -36 29 -45 12 -8 22 -11 36 -11 5 1 10 1 11 1 1
0 3 1 6 2 2 1 7 3 11 4 5 2 8 4 8 3 1 0 1 0 1 1 0 0 1 1 2 1 3 2 12 8 17 14
19 19 37 38 41 42 8 11 12 20 12 31 0 7 -1 9 -10 25 -2 4 -6 11 -8 15 -9 16
-27 28 -48 30 -2 1 -5 1 -6 2 -5 1 -9 1 -12 -1z m34 -36 c4 -4 6 -9 8 -16 2
-11 2 -11 -1 -13 -2 -2 -4 -4 -5 -4 -1 -1 -2 -1 -2 -1 0 0 -6 -3 -13 -6 -7 -4
-17 -8 -22 -9 -5 -2 -12 -5 -16 -6 -7 -3 -7 -3 -10 -2 -6 4 -7 9 -2 17 2 5 15
18 21 22 3 2 9 5 14 8 5 3 9 6 9 5 1 0 1 0 1 1 -1 0 0 1 2 3 2 1 4 4 5 6 l2 3
3 -2 c1 -1 4 -4 6 -6z"/>
</g>
</svg>
