<?xml version="1.0" standalone="no"?>
<!DOCTYPE svg PUBLIC "-//W3C//DTD SVG 20010904//EN"
 "http://www.w3.org/TR/2001/REC-SVG-20010904/DTD/svg10.dtd">
<svg version="1.0" xmlns="http://www.w3.org/2000/svg"
 width="1000.000000pt" height="1000.000000pt" viewBox="0 0 1000.000000 1000.000000"
 preserveAspectRatio="xMidYMid meet">
<metadata>
Created by potrace 1.16, written by Peter Selinger 2001-2019
</metadata>
<g transform="translate(0.000000,1000.000000) scale(1.000000,-1.000000)"
fill="#000000" stroke="none">
<path d="M485 314 c0 0 -10 0 -22 0 -27 -1 -48 -2 -54 -3 -1 -1 -4 -1 -6 -1
-6 -1 -11 -2 -15 -3 -2 0 -5 0 -6 -1 -7 -1 -15 -2 -22 -4 -9 -2 -11 -3 -14 -4
-2 0 -7 -1 -13 -3 -6 -2 -11 -3 -12 -3 -1 -1 -1 -1 -1 -1 0 0 -1 0 -2 0 -7 -2
-26 -12 -32 -17 -8 -7 -11 -17 -9 -26 1 -3 1 -6 1 -7 -1 -2 -1 -5 -1 -7 -1 -3
-1 -6 -1 -7 -1 -3 -2 -14 -3 -23 -1 -17 -1 -23 -1 -25 -1 -2 -2 -7 -3 -13 0
-2 0 -5 -1 -6 0 -1 0 -9 -1 -16 0 -10 1 -15 2 -19 0 -3 1 -6 1 -7 0 0 1 -1 1
-1 1 0 1 -1 1 -1 0 -2 8 -13 11 -16 4 -3 14 -9 18 -9 2 -1 4 -1 6 -2 4 0 10 0
24 1 25 1 75 1 86 -1 1 -1 5 -1 9 -1 4 -1 8 -1 9 -2 1 0 5 0 9 0 4 -1 8 -1 9
-2 17 -3 146 -1 165 3 1 0 3 0 5 1 1 0 3 0 4 1 1 0 3 0 5 0 1 1 4 1 5 1 1 1 5
1 7 1 5 1 6 1 15 3 2 1 5 1 7 1 1 1 3 2 5 2 3 1 5 2 5 1 1 0 1 0 1 1 -1 0 0 1
1 1 3 1 9 8 11 11 6 13 -2 28 -20 35 -5 2 -9 3 -10 4 -2 0 -5 0 -7 1 -3 1 -7
1 -9 2 -3 0 -7 1 -9 1 -8 2 -8 2 -12 3 -2 0 -4 0 -5 1 -5 1 -32 2 -100 1 -25
0 -52 0 -59 1 -3 1 -12 2 -17 3 -10 1 -23 2 -27 3 -2 0 -20 0 -39 1 -20 0 -36
0 -37 0 0 0 0 2 0 4 -1 1 -1 4 -1 5 -1 5 -2 9 -3 21 0 6 0 12 -1 14 -1 16 -1
21 0 21 1 0 3 0 6 0 2 1 9 1 16 1 6 1 14 1 18 2 3 0 18 0 33 0 15 1 31 1 35 1
18 2 36 2 102 3 39 0 73 0 75 0 4 1 32 1 39 1 12 -1 19 10 14 23 0 1 -1 4 -2
7 -7 16 -22 29 -46 37 -2 1 -3 1 -3 1 0 0 -2 1 -3 1 -4 2 -8 3 -17 4 -4 0 -7
0 -8 1 -2 0 -107 1 -107 0z"/>
</g>
</svg>
