<?xml version="1.0" standalone="no"?>
<!DOCTYPE svg PUBLIC "-//W3C//DTD SVG 20010904//EN"
 "http://www.w3.org/TR/2001/REC-SVG-20010904/DTD/svg10.dtd">
<svg version="1.0" xmlns="http://www.w3.org/2000/svg"
 width="1000.000000pt" height="1000.000000pt" viewBox="0 0 1000.000000 1000.000000"
 preserveAspectRatio="xMidYMid meet">
<metadata>
Created by potrace 1.16, written by Peter Selinger 2001-2019
</metadata>
<g transform="translate(0.000000,1000.000000) scale(1.000000,-1.000000)"
fill="#000000" stroke="none">
<path d="M528 321 c0 -1 -8 -1 -18 -1 -10 -1 -19 -1 -21 -2 -3 0 -9 0 -14 0
-12 -1 -20 -2 -28 -2 -4 -1 -9 -1 -13 -2 -8 0 -18 -1 -22 -1 -2 -1 -5 -1 -8
-1 -5 -1 -10 -2 -17 -3 -3 0 -6 0 -7 -1 -1 0 -4 0 -6 -1 -3 0 -7 -1 -9 -1 -6
-1 -8 -2 -11 -2 -3 -1 -6 -2 -9 -2 -1 -1 -3 -1 -4 -1 -5 -2 -7 -2 -9 -3 -7 -1
-22 -7 -33 -12 -18 -9 -27 -19 -28 -31 0 -9 4 -17 12 -21 8 -5 19 -6 38 -5 4
1 9 1 10 1 1 1 5 1 8 2 4 0 8 0 10 0 2 1 8 1 13 2 5 0 11 0 13 0 2 1 10 1 18
1 15 1 24 2 33 3 12 1 31 2 39 2 4 1 11 1 30 3 27 1 95 2 104 1 2 -1 5 -1 6
-1 1 0 2 -1 3 -1 1 -2 1 -29 0 -31 0 0 -5 2 -10 4 -5 2 -10 3 -11 4 -1 0 -3 0
-4 1 -3 0 -6 1 -9 2 -1 0 -4 0 -5 1 -3 0 -11 1 -22 1 -5 1 -11 1 -14 2 -11 1
-66 0 -87 -2 -10 0 -16 -1 -19 -1 -1 -1 -5 -1 -7 -1 -7 -1 -13 -2 -18 -3 -1
-1 -4 -1 -5 -1 -1 -1 -4 -1 -5 -1 -1 -1 -3 -1 -4 -1 -1 -1 -4 -1 -6 -2 -5 -1
-7 -2 -11 -3 -7 -1 -26 -8 -37 -13 -7 -3 -13 -6 -14 -6 -2 0 -15 -7 -19 -11
-4 -4 -7 -8 -7 -14 0 -2 -2 -7 -6 -13 -7 -14 -17 -38 -19 -47 -3 -11 -3 -24 0
-31 1 -4 3 -7 3 -7 1 -1 1 -1 1 -1 -2 0 8 -9 12 -11 8 -4 10 -4 29 -5 16 0 27
0 33 -2 1 0 5 0 9 0 4 -1 9 -1 11 -1 2 -1 7 -1 11 -2 3 0 7 0 8 -1 1 0 5 0 7
0 2 -1 6 -1 7 -1 1 -1 5 -1 9 -2 4 0 8 0 9 -1 6 0 23 -2 44 -3 25 -1 107 0
121 1 2 1 13 2 21 2 1 1 4 1 6 1 1 1 4 1 5 1 1 1 6 2 11 3 11 3 32 8 33 8 2
-1 20 10 23 13 7 7 7 15 0 22 -4 4 -20 12 -25 14 -3 0 -5 1 -9 1 -1 1 -3 1 -4
1 -1 1 -3 1 -5 1 -2 1 -6 1 -8 2 -3 0 -6 1 -8 1 -2 1 -5 1 -6 2 -1 0 -3 0 -4
0 -10 2 -30 3 -46 3 -8 0 -30 0 -51 0 -34 0 -56 0 -70 2 -3 0 -8 0 -11 0 -9 1
-17 2 -20 3 -13 2 -57 2 -69 0 -1 -1 -4 -1 -6 -1 -2 -1 -5 -1 -6 -1 -2 -1 -4
-1 -6 -1 l-2 -1 1 6 c0 4 0 8 1 9 0 5 1 14 2 16 0 1 0 2 0 2 0 1 2 1 4 0 13
-1 18 -1 33 -1 14 0 34 1 39 1 1 1 4 1 7 1 3 1 7 1 8 2 1 0 5 0 7 1 2 0 6 0 8
1 17 2 53 2 76 0 2 -1 8 -1 14 -1 5 -1 13 -1 18 -2 16 -1 36 -1 45 2 4 0 3 0
22 6 24 8 37 13 44 18 5 3 9 8 7 9 0 1 2 4 5 8 2 3 5 8 6 10 3 4 8 18 9 21 0
1 0 4 1 6 1 4 1 23 0 28 -7 28 -23 47 -49 55 -3 1 -5 1 -5 2 0 0 -2 0 -4 0 -3
1 -5 1 -6 2 -1 0 -4 0 -6 1 -2 0 -5 0 -6 1 -3 0 -79 1 -79 1z"/>
</g>
</svg>
