<?xml version="1.0" standalone="no"?>
<!DOCTYPE svg PUBLIC "-//W3C//DTD SVG 20010904//EN"
 "http://www.w3.org/TR/2001/REC-SVG-20010904/DTD/svg10.dtd">
<svg version="1.0" xmlns="http://www.w3.org/2000/svg"
 width="1000.000000pt" height="1000.000000pt" viewBox="0 0 1000.000000 1000.000000"
 preserveAspectRatio="xMidYMid meet">
<metadata>
Created by potrace 1.16, written by Peter Selinger 2001-2019
</metadata>
<g transform="translate(0.000000,1000.000000) scale(1.000000,-1.000000)"
fill="#000000" stroke="none">
<path d="M662 317 c0 0 -6 0 -12 0 -12 -1 -15 -1 -23 -3 -3 -1 -7 -1 -8 -2 -3
0 -20 -5 -22 -6 -1 0 -2 0 -2 -1 -12 -2 -36 -15 -52 -27 -21 -16 -33 -35 -33
-51 0 -8 0 -8 2 -13 5 -9 13 -14 24 -14 6 0 6 0 22 8 16 8 32 15 52 23 14 6
26 10 26 9 0 0 1 0 2 1 4 1 14 2 22 2 7 0 11 -1 15 -5 4 -4 0 -27 -9 -50 -5
-10 -8 -19 -8 -23 -1 -3 -8 -21 -14 -38 -6 -15 -8 -21 -10 -27 0 -3 -1 -5 -1
-8 -2 -6 -5 -15 -9 -20 -1 -3 -4 -8 -4 -10 -3 -6 -2 -16 1 -22 6 -13 22 -20
35 -15 3 1 5 2 5 1 0 0 1 1 2 2 1 1 3 2 3 1 1 0 1 0 1 0 0 1 1 3 3 5 11 11 30
35 34 43 11 19 29 71 32 87 0 2 0 5 1 6 0 2 0 4 1 6 0 3 1 7 1 9 1 2 1 6 2 7
0 1 0 4 1 5 1 9 2 12 3 22 1 9 1 32 0 36 -2 6 -3 12 -4 13 0 0 0 1 -1 1 0 1
-5 11 -7 15 -14 18 -35 30 -58 33 -7 0 -13 1 -13 0z"/>
<path d="M351 314 c0 0 -4 0 -7 0 -8 -1 -12 -2 -17 -3 -3 -1 -5 -1 -6 -2 -4 0
-35 -14 -44 -18 -16 -8 -35 -21 -42 -28 -14 -12 -17 -25 -10 -33 2 -3 8 -5 13
-4 3 0 37 14 48 20 8 3 28 11 32 12 1 1 6 2 10 3 9 3 31 4 35 2 3 -2 9 -12 9
-15 -1 -1 -3 -7 -6 -13 -5 -10 -5 -10 -8 -11 -2 0 -5 0 -7 0 -2 -1 -3 -1 -3
-1 -1 0 -3 -1 -5 -2 -3 0 -5 -1 -6 -2 -9 -2 -25 -9 -42 -18 -22 -13 -25 -15
-40 -30 -9 -10 -13 -14 -15 -19 -3 -6 -7 -21 -8 -28 -1 -2 -1 -6 -1 -7 -4 -19
-4 -36 -2 -49 2 -6 2 -7 3 -11 4 -9 9 -17 17 -23 3 -3 14 -8 17 -8 2 -1 3 -1
4 -1 3 -2 24 -3 35 -1 5 2 7 2 14 4 5 1 9 2 10 3 1 0 2 0 3 0 0 1 2 1 3 1 1 1
8 3 14 4 6 2 12 4 13 4 2 1 4 1 5 2 2 0 4 1 5 1 1 1 12 4 23 7 11 3 21 6 22 7
10 2 41 18 51 27 4 4 9 11 10 14 0 1 0 1 0 1 1 2 1 16 0 18 -1 0 -1 1 -1 1 2
0 -3 7 -7 11 -4 4 -6 5 -12 7 -6 2 -9 2 -18 2 -7 -1 -12 -1 -14 -1 -2 -1 -5
-1 -13 -2 -2 -1 -10 -3 -17 -5 -14 -4 -39 -12 -43 -13 -1 0 -4 -1 -6 -2 -3 0
-6 -1 -7 -2 -1 0 -3 -1 -4 -1 -1 -1 -2 -1 -2 -1 0 1 -2 0 -4 -1 -3 0 -6 -1 -7
-2 -1 0 -4 -1 -6 -1 -1 -1 -3 -2 -3 -1 0 0 -1 -1 -3 -1 -2 -1 -4 -2 -9 -3 -1
0 -3 -1 -4 -1 -1 -1 -2 -1 -2 -1 0 1 -1 1 -2 0 -2 -1 -3 -1 -3 0 0 1 0 4 -1 7
-1 9 -1 36 1 37 1 0 9 2 22 6 7 2 13 4 14 4 1 1 5 2 10 4 12 5 28 10 28 9 0 0
2 1 4 2 2 1 4 1 5 2 6 1 7 1 10 2 6 3 13 10 18 19 5 9 10 20 11 24 0 1 0 3 1
4 3 15 4 31 3 46 -3 25 -20 44 -44 48 -4 0 -22 1 -22 0z"/>
</g>
</svg>
