<?xml version="1.0" standalone="no"?>
<!DOCTYPE svg PUBLIC "-//W3C//DTD SVG 20010904//EN"
 "http://www.w3.org/TR/2001/REC-SVG-20010904/DTD/svg10.dtd">
<svg version="1.0" xmlns="http://www.w3.org/2000/svg"
 width="1000.000000pt" height="1000.000000pt" viewBox="0 0 1000.000000 1000.000000"
 preserveAspectRatio="xMidYMid meet">
<metadata>
Created by potrace 1.16, written by Peter Selinger 2001-2019
</metadata>
<g transform="translate(0.000000,1000.000000) scale(1.000000,-1.000000)"
fill="#000000" stroke="none">
<path d="M724 811 c-10 -3 -21 -20 -23 -34 -1 -4 -2 -7 -3 -11 -1 -8 -2 -11
-3 -15 -1 -8 0 -95 1 -149 1 -5 1 -22 1 -39 1 -18 1 -37 2 -43 0 -6 0 -17 0
-23 1 -14 2 -29 2 -32 5 -22 28 -36 49 -29 2 1 5 2 5 1 1 0 1 0 1 1 -1 1 3 3
4 2 1 0 1 0 1 1 -1 0 3 4 4 3 1 0 1 0 1 1 -1 0 0 2 1 3 4 4 7 10 8 16 2 6 2
11 1 37 -2 31 -2 37 -2 64 l-1 28 7 0 c4 0 9 0 12 0 7 1 20 2 25 3 2 0 6 0 10
1 3 0 7 0 10 1 9 1 27 2 40 2 6 1 11 1 13 1 3 1 9 4 12 6 1 1 3 2 3 2 0 0 0 0
0 0 0 0 1 1 2 2 3 2 8 9 10 16 1 4 2 7 2 13 -1 7 -3 16 -5 17 -1 1 -1 1 -1 1
1 0 0 2 -5 7 -5 5 -13 10 -21 11 -8 1 -29 0 -45 -1 -2 -1 -7 -1 -10 -2 -4 0
-9 0 -10 -1 -2 0 -7 0 -11 0 -4 -1 -9 -1 -11 -2 -2 0 -9 0 -16 -1 l-13 0 0 3
c0 2 0 8 0 15 -1 14 -2 42 -2 49 -1 8 -2 13 -6 33 -5 25 -10 34 -20 41 -2 1
-3 2 -3 1 0 0 -1 0 -1 1 -2 1 -10 1 -15 -1z"/>
</g>
</svg>
