<?xml version="1.0" standalone="no"?>
<!DOCTYPE svg PUBLIC "-//W3C//DTD SVG 20010904//EN"
 "http://www.w3.org/TR/2001/REC-SVG-20010904/DTD/svg10.dtd">
<svg version="1.0" xmlns="http://www.w3.org/2000/svg"
 width="1000.000000pt" height="1000.000000pt" viewBox="0 0 1000.000000 1000.000000"
 preserveAspectRatio="xMidYMid meet">
<metadata>
Created by potrace 1.16, written by Peter Selinger 2001-2019
</metadata>
<g transform="translate(0.000000,1000.000000) scale(1.000000,-1.000000)"
fill="#000000" stroke="none">
<path d="M441 777 c-10 -5 -16 -14 -25 -37 -6 -17 -7 -19 -8 -37 -1 -24 0
-170 1 -206 1 -13 2 -33 2 -37 1 -11 2 -24 2 -26 1 -9 2 -17 2 -19 1 -3 2 -12
4 -20 0 -2 0 -6 0 -7 1 -1 1 -5 1 -8 1 -3 1 -7 2 -9 1 -11 1 -15 2 -25 0 -13
0 -14 3 -27 2 -6 3 -13 3 -16 2 -11 2 -13 3 -19 2 -5 7 -21 9 -26 4 -10 15
-13 24 -7 2 2 4 3 5 2 0 0 0 0 0 1 -1 0 0 2 2 3 3 3 10 15 14 22 3 6 3 8 5 14
0 1 0 4 1 5 0 1 0 4 1 6 0 4 1 6 1 10 3 12 4 19 4 30 0 11 0 26 -1 33 -1 1 -1
5 -1 8 -1 3 -1 7 -1 8 -1 1 -1 4 -1 8 -1 4 -1 7 -2 8 0 2 0 4 -1 6 0 3 0 6 0
7 -2 10 -4 30 -6 60 0 7 0 14 0 16 -1 2 0 4 0 4 1 0 3 0 5 0 8 1 26 4 31 5 2
1 5 2 11 3 2 0 4 0 5 1 2 0 5 0 7 1 2 0 5 0 6 1 2 0 17 1 35 2 6 0 13 0 14 0
1 1 5 1 8 1 10 2 17 5 23 11 15 15 14 39 -4 52 -3 3 -13 7 -18 8 -2 0 -4 0 -5
1 -11 2 -15 2 -28 2 -8 0 -16 0 -18 0 -3 -1 -8 -1 -12 -2 -4 0 -8 0 -9 -1 -16
-2 -19 -3 -23 -4 -1 0 -4 0 -6 -1 -2 0 -4 -1 -6 -1 -1 -1 -4 -1 -5 -2 -1 0 -3
-1 -4 -1 0 -1 -1 -1 -1 -1 0 1 -2 0 -4 -1 -1 0 -3 -1 -4 -1 0 1 0 89 0 134 0
11 0 14 -1 21 -1 2 -2 9 -3 17 -2 12 -7 22 -12 27 -7 6 -18 8 -27 3z"/>
</g>
</svg>
