<?xml version="1.0" standalone="no"?>
<!DOCTYPE svg PUBLIC "-//W3C//DTD SVG 20010904//EN"
 "http://www.w3.org/TR/2001/REC-SVG-20010904/DTD/svg10.dtd">
<svg version="1.0" xmlns="http://www.w3.org/2000/svg"
 width="1000.000000pt" height="1000.000000pt" viewBox="0 0 1000.000000 1000.000000"
 preserveAspectRatio="xMidYMid meet">
<metadata>
Created by potrace 1.16, written by Peter Selinger 2001-2019
</metadata>
<g transform="translate(0.000000,1000.000000) scale(1.000000,-1.000000)"
fill="#000000" stroke="none">
<path d="M734 760 c-7 -3 -15 -14 -16 -23 -1 -2 -1 -4 -1 -6 -1 -1 -1 -3 -1
-6 -1 -2 -1 -4 -1 -5 -1 -1 -1 -3 -1 -4 -1 -1 -1 -3 -1 -4 -3 -13 -4 -19 -5
-29 -1 -3 -1 -7 -1 -9 -5 -38 -6 -129 -2 -165 0 -3 0 -7 0 -9 1 -3 1 -9 2 -12
1 -10 1 -12 1 -18 1 -8 2 -12 3 -23 0 -5 0 -11 1 -13 0 -2 0 -8 1 -13 0 -5 0
-10 0 -11 1 -1 1 -4 2 -7 0 -3 0 -6 1 -7 0 -2 0 -4 1 -6 0 -3 0 -6 1 -7 2 -17
3 -22 4 -43 0 -8 0 -17 0 -19 1 -5 2 -21 3 -33 0 -4 0 -9 1 -11 0 -3 0 -6 1
-7 0 -3 1 -7 1 -12 1 -1 2 -7 2 -13 4 -29 12 -46 22 -46 3 0 6 3 12 13 4 6 12
23 15 34 1 2 1 4 2 5 0 1 0 2 1 2 0 1 0 1 0 1 0 0 0 1 1 2 0 1 1 5 2 9 1 3 2
7 3 9 2 10 2 10 3 19 0 4 0 8 1 9 0 5 1 26 2 46 0 12 0 27 1 34 1 20 0 59 -2
77 0 2 0 7 -1 12 0 5 0 9 0 9 0 2 0 3 1 3 2 0 4 0 10 2 2 1 5 1 6 2 3 0 12 4
19 8 11 5 26 11 27 10 1 0 1 0 1 0 -1 1 2 3 5 5 18 11 24 26 17 38 -3 5 -6 7
-13 11 -11 5 -18 7 -30 7 -32 0 -43 -1 -45 -3 -1 0 -2 0 -4 -1 -2 0 -2 0 -2 3
0 1 0 3 0 4 -1 1 -1 4 -1 8 -1 4 -1 7 -1 9 -1 1 -1 5 -1 8 -1 4 -1 8 -1 9 -1
1 -1 5 -1 8 -1 4 -1 8 -1 9 -1 1 -1 5 -1 9 -1 3 -1 8 -1 9 -1 3 -2 9 -3 16 0
2 0 6 -1 7 0 1 0 5 -1 9 0 3 0 6 -1 8 0 1 0 4 -1 6 -1 8 -1 11 -3 18 0 1 0 4
-1 5 0 1 -1 5 -2 9 0 3 -1 8 -2 10 -1 15 -4 23 -10 29 -6 6 -11 8 -17 5z"/>
</g>
</svg>
