<?xml version="1.0" standalone="no"?>
<!DOCTYPE svg PUBLIC "-//W3C//DTD SVG 20010904//EN"
 "http://www.w3.org/TR/2001/REC-SVG-20010904/DTD/svg10.dtd">
<svg version="1.0" xmlns="http://www.w3.org/2000/svg"
 width="1000.000000pt" height="1000.000000pt" viewBox="0 0 1000.000000 1000.000000"
 preserveAspectRatio="xMidYMid meet">
<metadata>
Created by potrace 1.16, written by Peter Selinger 2001-2019
</metadata>
<g transform="translate(0.000000,1000.000000) scale(1.000000,-1.000000)"
fill="#000000" stroke="none">
<path d="M850 765 c0 0 -1 0 -3 0 -4 -1 -7 -2 -7 -3 0 -1 0 -1 -1 -1 -1 1 -10
-7 -14 -12 -3 -6 -5 -11 -6 -18 -1 -2 -1 -4 -2 -4 0 -1 -1 -62 -1 -124 0 -28
-1 -41 -1 -41 -2 0 -8 -1 -24 -1 -11 0 -11 0 -12 2 0 1 0 10 0 20 -2 51 -3 65
-4 75 0 3 0 8 0 12 -1 5 -1 10 -2 19 -1 2 -1 6 -2 9 0 6 -1 9 -2 13 0 1 0 4
-1 6 0 2 -1 4 -1 5 0 1 -1 2 -1 2 0 4 -7 20 -12 26 -2 3 -9 8 -12 9 -1 0 -4 0
-7 0 -10 0 -16 -4 -22 -16 -3 -7 -7 -17 -6 -17 0 0 0 -1 -1 -2 0 -1 -1 -5 -1
-8 -1 -4 -1 -7 -2 -7 0 -1 -2 -50 -2 -75 0 -17 0 -27 1 -55 1 -27 2 -40 4 -61
0 -5 0 -13 0 -18 1 -6 1 -17 2 -26 0 -9 0 -64 0 -122 0 -107 0 -108 2 -115 5
-18 15 -29 30 -32 5 -1 14 0 18 2 1 1 3 1 3 0 1 0 1 0 1 0 -1 1 1 3 4 4 8 6
16 21 17 34 1 6 2 228 1 235 l0 5 19 0 19 0 1 -3 c0 -2 0 -8 0 -13 1 -5 1 -16
2 -25 0 -15 1 -24 1 -39 1 -4 1 -12 2 -18 0 -6 0 -14 1 -16 1 -20 2 -35 3 -52
0 -6 0 -16 0 -20 2 -24 2 -33 2 -47 1 -21 2 -23 9 -37 2 -5 5 -11 7 -14 1 -4
4 -8 9 -12 13 -12 20 -12 31 0 5 6 11 15 11 17 0 0 0 0 0 0 0 0 0 2 1 3 0 1 1
4 2 5 2 5 5 13 6 16 1 3 1 34 0 53 -1 9 -1 18 -2 21 0 2 0 11 0 19 -1 7 -1 16
-1 20 -1 4 -1 12 -2 18 0 6 0 13 0 15 -1 2 -1 9 -1 16 -1 7 -1 15 -2 19 0 11
-1 23 -1 38 -1 20 -2 42 -3 54 -1 2 -1 9 -2 14 0 4 0 10 -1 11 0 1 0 7 -1 12
0 4 0 9 -1 10 -1 7 -1 31 -1 66 0 69 0 104 0 109 -4 23 -18 39 -36 40 -3 1 -6
1 -6 0z"/>
<path d="M368 294 c-15 -3 -28 -18 -30 -35 -1 -2 -1 -6 -2 -8 0 -3 -1 -22 -1
-42 0 -21 0 -37 0 -38 -1 0 -5 0 -9 -1 -31 -1 -45 -2 -66 -5 -3 0 -7 0 -8 0
-6 -1 -16 -2 -17 -2 -1 -1 -4 -1 -8 -1 -4 -1 -7 -1 -8 -2 -2 0 -9 0 -16 -1 -8
0 -16 0 -17 0 -1 -1 -4 -1 -5 -2 -2 0 -6 -1 -9 -2 -25 -12 -28 -47 -5 -64 4
-3 11 -6 17 -7 8 -1 39 0 49 1 2 1 5 1 17 3 2 0 6 0 7 1 1 0 6 0 10 1 3 0 7 0
8 1 1 0 5 0 10 1 4 0 9 0 11 1 26 2 92 2 117 -1 4 0 13 0 42 -2 8 0 17 0 20
-1 2 0 19 0 37 0 32 -1 33 -1 42 1 5 2 13 5 18 7 5 2 11 4 13 5 9 4 14 12 13
21 0 7 -3 12 -12 19 -2 2 -6 4 -7 6 -8 7 -27 15 -39 15 -3 1 -16 1 -29 2 -13
0 -27 0 -31 1 -5 0 -14 0 -21 0 -13 1 -31 2 -39 3 -3 0 -5 0 -7 0 -2 0 -2 1
-2 36 0 33 0 46 -2 51 0 1 0 4 -1 6 0 1 -1 3 -1 4 -1 0 -1 1 -1 1 1 0 -3 8 -7
14 -7 10 -20 15 -31 13z"/>
</g>
</svg>
