<?xml version="1.0" standalone="no"?>
<!DOCTYPE svg PUBLIC "-//W3C//DTD SVG 20010904//EN"
 "http://www.w3.org/TR/2001/REC-SVG-20010904/DTD/svg10.dtd">
<svg version="1.0" xmlns="http://www.w3.org/2000/svg"
 width="1000.000000pt" height="1000.000000pt" viewBox="0 0 1000.000000 1000.000000"
 preserveAspectRatio="xMidYMid meet">
<metadata>
Created by potrace 1.16, written by Peter Selinger 2001-2019
</metadata>
<g transform="translate(0.000000,1000.000000) scale(1.000000,-1.000000)"
fill="#000000" stroke="none">
<path d="M734 838 c-6 -3 -12 -10 -18 -22 -5 -9 -11 -24 -9 -24 0 0 0 -1 -1
-2 -2 -4 -3 -18 -4 -65 0 -37 0 -64 -1 -95 -1 -10 -2 -25 -3 -42 -1 -21 -1
-32 -2 -58 0 -16 0 -30 0 -31 -3 -10 -4 -17 -3 -22 0 -5 1 -9 1 -10 0 0 0 0 0
-1 1 -3 6 -11 9 -14 5 -5 6 -5 11 -8 16 -8 38 -1 47 14 3 3 6 11 7 14 0 1 0 4
1 6 1 5 2 10 3 15 0 2 0 16 0 32 1 15 1 32 1 38 2 39 3 46 3 47 1 0 14 1 27 2
l11 0 -1 -4 c-1 -15 -1 -40 -2 -84 0 -50 0 -64 -2 -69 -1 -4 0 -17 1 -19 0 0
0 0 1 -1 0 -1 0 -1 0 -2 0 0 0 -1 0 -1 0 -1 0 -1 1 -1 1 0 1 0 1 -1 -1 -1 -1
-1 0 -1 1 0 1 0 1 -1 -2 -1 8 -11 14 -14 8 -5 18 -6 26 -4 4 1 4 1 8 2 10 5
18 14 21 25 4 12 4 17 5 83 0 30 0 59 0 64 1 5 1 15 2 22 0 6 0 14 0 18 2 33
3 85 2 116 -2 32 -2 36 -5 48 0 4 -1 8 -2 9 -1 4 -5 14 -8 18 -6 9 -14 13 -24
14 -17 0 -30 -12 -35 -32 -4 -13 -4 -20 -3 -67 1 -13 1 -28 1 -33 l1 -9 -4 0
c-3 0 -27 -1 -32 -1 l-2 0 -1 47 c0 26 0 49 0 51 -1 3 -2 7 -3 11 0 2 0 4 -1
5 0 1 0 3 -1 4 0 4 -1 6 -1 9 -1 1 -1 3 -1 4 -2 7 -9 16 -15 20 -5 2 -16 2
-22 0z"/>
<path d="M362 642 c-10 -3 -20 -14 -24 -25 -3 -9 -3 -14 -5 -33 0 -6 0 -14 -1
-16 0 -10 -1 -36 -2 -46 0 -7 0 -12 0 -13 0 0 -1 -1 -2 -1 -2 0 -14 -1 -22 -2
-12 -1 -39 -2 -68 -2 -26 0 -32 -1 -43 -7 -17 -8 -26 -27 -19 -44 3 -9 15 -20
24 -22 1 0 2 0 2 0 0 0 0 0 5 -1 7 -2 11 -2 31 -2 28 0 57 1 72 2 2 1 7 1 11
1 4 1 10 1 12 2 10 0 27 2 39 3 36 2 79 2 113 -1 2 0 7 0 12 0 5 -1 10 -1 13
-1 7 -1 19 -2 25 -3 6 0 68 0 73 0 8 1 20 6 25 11 2 2 3 3 3 2 1 0 1 0 1 1 0
0 1 2 2 5 4 6 5 8 6 17 1 17 -11 32 -30 38 -6 2 -6 2 -51 2 -19 1 -36 1 -38 1
-2 1 -8 1 -12 2 -5 0 -11 0 -13 1 -2 0 -8 0 -13 0 -5 1 -12 1 -15 2 -4 0 -55
1 -65 1 -1 0 -2 1 -1 7 0 13 1 36 2 42 1 16 1 40 -1 47 0 4 -1 8 -2 9 0 1 0 2
0 2 0 0 -2 3 -3 5 -4 6 -11 12 -17 15 -6 3 -17 4 -24 1z"/>
</g>
</svg>
