<?xml version="1.0" standalone="no"?>
<!DOCTYPE svg PUBLIC "-//W3C//DTD SVG 20010904//EN"
 "http://www.w3.org/TR/2001/REC-SVG-20010904/DTD/svg10.dtd">
<svg version="1.0" xmlns="http://www.w3.org/2000/svg"
 width="1000.000000pt" height="1000.000000pt" viewBox="0 0 1000.000000 1000.000000"
 preserveAspectRatio="xMidYMid meet">
<metadata>
Created by potrace 1.16, written by Peter Selinger 2001-2019
</metadata>
<g transform="translate(0.000000,1000.000000) scale(1.000000,-1.000000)"
fill="#000000" stroke="none">
<path d="M734 838 c-6 -3 -12 -10 -18 -22 -5 -9 -11 -24 -9 -24 0 0 0 -1 -1
-2 -2 -4 -3 -18 -4 -65 0 -37 0 -64 -1 -95 -1 -10 -2 -25 -3 -42 -1 -21 -1
-32 -2 -58 0 -16 0 -30 0 -31 -3 -10 -4 -17 -3 -22 0 -5 1 -9 1 -10 0 0 0 0 0
-1 1 -3 6 -11 9 -14 5 -5 6 -5 11 -8 16 -8 38 -1 47 14 3 3 6 11 7 14 0 1 0 4
1 6 1 5 2 10 3 15 0 2 0 15 0 30 1 23 1 42 2 61 5 72 6 191 3 206 -1 1 -1 4
-2 6 0 2 0 4 -1 5 0 1 0 3 -1 4 0 4 -1 6 -1 9 -1 1 -1 3 -1 4 -2 7 -9 16 -15
20 -5 2 -16 2 -22 0z"/>
<path d="M361 641 c0 0 -3 0 -5 0 -7 -1 -16 -6 -21 -11 -4 -5 -11 -17 -9 -17
0 0 0 -1 -1 -1 0 -1 -1 -3 -1 -5 -1 -2 -1 -5 -2 -6 0 -5 -1 -23 -1 -61 l0 -37
-3 0 c-2 0 -7 0 -11 0 -5 -1 -11 -1 -13 -1 -6 -1 -19 -2 -22 -2 -1 -1 -6 -1
-10 -1 -4 -1 -9 -1 -11 -2 -2 0 -10 0 -17 -1 -20 0 -23 -1 -30 -4 -10 -3 -19
-11 -24 -21 -2 -5 -2 -7 -2 -14 0 -7 0 -9 2 -14 4 -7 11 -14 18 -18 9 -4 14
-5 35 -4 11 0 21 0 23 0 2 1 7 1 11 1 4 1 9 1 10 1 2 1 13 2 22 2 5 1 17 2 23
3 2 0 9 0 15 1 6 0 13 0 15 1 2 0 20 0 41 0 52 1 79 2 100 3 26 1 64 1 69 0
12 -3 22 -1 32 7 1 1 3 2 3 1 1 0 1 0 0 1 0 0 1 2 2 3 6 6 10 18 9 26 0 4 -1
8 -1 9 0 0 0 0 0 1 -1 3 -4 8 -4 8 -1 0 -1 1 -1 1 0 2 -8 10 -14 13 -3 2 -6 3
-6 2 0 0 -1 0 -1 1 -1 1 -2 1 -2 1 0 -1 -1 0 -3 0 -1 1 -5 1 -8 2 -7 1 -57 1
-79 0 -10 -1 -35 -1 -55 -2 l-37 0 0 50 c1 54 1 57 -5 66 -5 9 -14 16 -22 17
-7 1 -9 2 -9 1z"/>
</g>
</svg>
