<?xml version="1.0" standalone="no"?>
<!DOCTYPE svg PUBLIC "-//W3C//DTD SVG 20010904//EN"
 "http://www.w3.org/TR/2001/REC-SVG-20010904/DTD/svg10.dtd">
<svg version="1.0" xmlns="http://www.w3.org/2000/svg"
 width="1000.000000pt" height="1000.000000pt" viewBox="0 0 1000.000000 1000.000000"
 preserveAspectRatio="xMidYMid meet">
<metadata>
Created by potrace 1.16, written by Peter Selinger 2001-2019
</metadata>
<g transform="translate(0.000000,1000.000000) scale(1.000000,-1.000000)"
fill="#000000" stroke="none">
<path d="M730 759 c-8 -2 -12 -7 -17 -16 -3 -7 -7 -17 -6 -17 0 0 0 -1 -1 -2
0 -1 -1 -5 -1 -8 -1 -4 -1 -7 -2 -7 0 -1 -2 -50 -2 -75 0 -17 0 -27 1 -55 1
-27 2 -40 4 -61 0 -5 0 -13 0 -18 1 -6 1 -17 2 -26 0 -9 0 -64 0 -122 0 -107
0 -108 2 -115 5 -18 15 -29 30 -32 5 -1 14 0 18 2 1 1 3 1 3 0 1 0 1 0 1 0 -1
1 1 3 4 4 9 6 16 21 17 35 1 9 2 216 1 234 -1 8 -1 19 -2 24 0 9 -1 26 -2 35
0 4 0 12 0 19 -1 11 -1 18 -2 57 -1 21 -2 34 -3 44 -1 17 -1 18 -2 30 -1 2 -1
6 -2 9 0 6 -1 9 -2 13 0 1 0 4 -1 6 0 2 -1 4 -1 5 0 1 -1 2 -1 3 -1 5 -7 19
-12 25 -2 3 -9 8 -12 9 -3 1 -10 1 -12 0z"/>
<path d="M332 298 c-7 -1 -10 -3 -15 -8 -8 -7 -13 -17 -15 -28 0 -6 0 -63 0
-85 l1 -15 -60 0 c-33 0 -62 0 -63 0 -23 -3 -37 -11 -44 -25 -6 -12 -5 -25 5
-35 5 -5 13 -11 16 -11 0 0 0 0 0 0 1 0 4 -1 6 -1 6 -2 8 -2 13 -3 8 -1 128
-1 146 0 47 3 61 3 116 3 48 0 68 0 76 -1 13 -3 26 -3 35 1 12 4 25 16 27 25
1 7 0 13 -4 23 -6 11 -18 21 -30 24 -4 0 -8 1 -14 2 -4 0 -8 0 -9 1 -8 1 -30
2 -81 2 l-59 0 0 3 c0 1 0 7 -1 14 0 6 0 26 0 45 -1 18 -1 35 -1 37 -5 23 -25
37 -45 32z"/>
</g>
</svg>
