<?xml version="1.0" standalone="no"?>
<!DOCTYPE svg PUBLIC "-//W3C//DTD SVG 20010904//EN"
 "http://www.w3.org/TR/2001/REC-SVG-20010904/DTD/svg10.dtd">
<svg version="1.0" xmlns="http://www.w3.org/2000/svg"
 width="1000.000000pt" height="1000.000000pt" viewBox="0 0 1000.000000 1000.000000"
 preserveAspectRatio="xMidYMid meet">
<metadata>
Created by potrace 1.16, written by Peter Selinger 2001-2019
</metadata>
<g transform="translate(0.000000,1000.000000) scale(1.000000,-1.000000)"
fill="#000000" stroke="none">
<path d="M418 338 c-6 -2 -14 -10 -18 -18 -4 -8 -7 -15 -7 -20 -1 -1 -1 -3 -1
-5 -1 -1 -1 -4 -1 -7 -1 -3 -1 -7 -2 -8 0 -6 -1 -11 -2 -17 0 -4 0 -8 -1 -10
0 -2 0 -21 -1 -43 0 -22 0 -40 0 -41 -1 0 -4 -1 -7 -1 -4 0 -9 0 -11 0 -3 -1
-10 -1 -15 -1 -20 -2 -44 -4 -55 -7 -4 0 -7 -1 -10 -1 -1 -1 -4 -1 -5 -2 -1 0
-4 0 -6 -1 -2 0 -4 0 -4 -1 -1 0 -2 0 -3 -1 -5 0 -13 -5 -18 -10 -8 -7 -11
-16 -11 -26 0 -20 18 -36 41 -36 5 0 15 1 19 1 1 1 4 1 6 2 1 0 3 0 4 0 3 1
18 3 33 4 29 3 42 3 115 3 88 0 174 0 201 0 11 0 24 0 30 0 12 0 16 0 25 4 4
1 8 2 9 2 1 0 2 1 1 1 0 1 1 1 2 1 3 1 10 8 12 13 3 6 4 13 3 20 -3 13 -23 30
-39 33 -1 0 -3 0 -5 1 -6 1 -26 1 -51 1 l-27 0 0 23 c0 45 -1 95 -3 103 -3 21
-14 35 -29 36 -8 0 -14 -2 -20 -8 -5 -5 -10 -16 -12 -26 -1 -4 -2 -7 -2 -9 -1
-1 -1 -4 -2 -7 0 -4 0 -7 -1 -8 0 -1 0 -6 -1 -10 0 -4 0 -8 -1 -9 0 -1 0 -6
-1 -11 0 -5 0 -11 -1 -13 -1 -10 -2 -27 -2 -45 -1 -8 -1 -15 -2 -15 0 -1 -80
0 -82 0 0 1 -1 2 0 5 1 12 2 105 1 119 -1 9 -2 16 -4 24 -3 17 -22 27 -39 21z"/>
</g>
</svg>
