<?xml version="1.0" standalone="no"?>
<!DOCTYPE svg PUBLIC "-//W3C//DTD SVG 20010904//EN"
 "http://www.w3.org/TR/2001/REC-SVG-20010904/DTD/svg10.dtd">
<svg version="1.0" xmlns="http://www.w3.org/2000/svg"
 width="1000.000000pt" height="1000.000000pt" viewBox="0 0 1000.000000 1000.000000"
 preserveAspectRatio="xMidYMid meet">
<metadata>
Created by potrace 1.16, written by Peter Selinger 2001-2019
</metadata>
<g transform="translate(0.000000,1000.000000) scale(1.000000,-1.000000)"
fill="#000000" stroke="none">
<path d="M559 624 c-4 -1 -9 -4 -12 -7 -5 -5 -14 -21 -17 -28 -2 -5 -2 -7 -4
-15 0 -2 0 -5 0 -6 -3 -12 -4 -42 -4 -71 0 -12 -1 -22 -1 -22 -1 0 -16 -1 -36
-1 l-21 0 -1 26 c0 15 0 30 0 35 -1 5 -1 12 -1 16 -1 4 -1 9 -1 11 -1 7 -2 12
-3 14 0 1 0 4 -1 6 -1 11 -5 21 -10 27 -3 3 -7 6 -10 7 -16 3 -29 -8 -32 -28
-1 -2 -1 -5 -1 -6 -1 -4 -2 -7 -2 -12 -1 -2 -1 -6 -1 -7 -1 -5 -3 -17 -3 -23
-1 -4 -2 -13 -3 -15 0 -2 0 -5 -1 -7 0 -2 0 -5 -1 -6 -1 -9 -2 -30 -1 -34 0
-2 0 -3 0 -4 0 0 -7 -1 -18 -1 -17 0 -42 -1 -51 -2 -2 0 -7 0 -11 0 -4 -1 -9
-1 -11 -2 -2 0 -6 0 -9 0 -22 -3 -24 -3 -32 -6 -24 -8 -35 -18 -36 -35 0 -7 1
-9 3 -14 1 -3 3 -6 3 -7 1 0 2 -1 2 -2 0 0 2 -2 5 -4 5 -4 10 -6 17 -8 1 0 3
0 4 0 3 -1 14 -2 17 -2 3 0 17 1 21 2 1 0 6 0 10 0 3 1 9 1 12 2 19 1 35 2
124 3 135 1 156 1 180 -1 5 -1 16 -2 18 -2 1 -1 4 -1 7 -1 3 -1 7 -1 8 -1 1
-1 4 -1 6 -1 2 -1 5 -1 7 -1 1 -1 3 -1 5 -1 2 -1 6 -1 8 -2 2 0 4 0 5 -1 1 0
6 0 12 -1 23 -1 36 0 49 6 3 1 6 2 7 2 0 0 0 0 0 0 0 1 2 3 5 6 13 15 13 38
-2 52 -4 4 -12 8 -17 10 -1 0 -12 0 -23 0 -12 1 -23 1 -24 1 -1 1 -4 1 -6 2
-2 0 -5 0 -6 0 -1 1 -4 1 -6 2 -3 0 -6 0 -7 0 -3 1 -6 1 -14 3 -3 0 -6 0 -7 1
-1 0 -6 0 -11 1 -4 0 -9 0 -10 1 -3 0 -22 1 -26 1 l-3 0 1 21 c0 12 0 27 1 33
1 14 1 45 0 51 -3 17 -11 38 -16 40 -1 0 -2 1 -2 1 0 3 -16 6 -22 4z"/>
</g>
</svg>
