<?xml version="1.0" standalone="no"?>
<!DOCTYPE svg PUBLIC "-//W3C//DTD SVG 20010904//EN"
 "http://www.w3.org/TR/2001/REC-SVG-20010904/DTD/svg10.dtd">
<svg version="1.0" xmlns="http://www.w3.org/2000/svg"
 width="1000.000000pt" height="1000.000000pt" viewBox="0 0 1000.000000 1000.000000"
 preserveAspectRatio="xMidYMid meet">
<metadata>
Created by potrace 1.16, written by Peter Selinger 2001-2019
</metadata>
<g transform="translate(0.000000,1000.000000) scale(1.000000,-1.000000)"
fill="#000000" stroke="none">
<path d="M546 580 c-13 -5 -23 -20 -24 -37 -1 -4 -1 -15 -2 -24 0 -17 0 -26
-2 -46 0 -8 -1 -20 -2 -27 0 -2 0 -7 -1 -12 0 -4 0 -9 -1 -11 0 -4 -1 -18 -1
-23 l-1 -4 -20 -1 c-23 0 -29 1 -30 3 0 0 0 1 0 1 0 0 0 1 0 2 -1 1 -1 3 -2 6
-2 7 -2 9 -2 29 0 20 0 30 2 57 1 20 1 42 0 46 -4 13 -9 24 -14 30 -12 13 -33
13 -44 -1 -4 -5 -13 -22 -13 -26 -1 -1 -1 -1 -1 -1 0 0 -2 -7 -3 -11 0 -3 -1
-17 -1 -32 -1 -5 -1 -16 -1 -25 -2 -29 -1 -64 0 -73 1 -2 1 -2 -8 -2 -13 0
-36 -2 -41 -2 -1 -1 -4 -1 -7 -1 -3 -1 -7 -1 -8 -2 -1 0 -5 0 -7 0 -2 -1 -6
-1 -7 -1 -7 -2 -11 -2 -16 -2 -9 -1 -12 -2 -18 -5 -9 -4 -18 -15 -20 -24 -1
-5 -1 -15 1 -19 0 -2 1 -4 0 -4 0 0 0 0 1 -1 0 0 1 -2 2 -4 5 -9 17 -17 27
-19 7 -1 20 0 29 1 1 1 4 1 7 1 3 1 6 1 7 1 1 1 4 1 7 1 3 1 7 1 8 2 10 1 69
2 99 1 24 -1 58 -2 110 -3 28 0 52 0 54 0 1 -1 5 -1 9 -1 3 -1 6 -1 7 -1 1 -1
3 -1 5 -1 6 -1 7 -2 18 -5 28 -8 52 1 59 22 6 17 -4 37 -24 46 -7 4 -29 10
-38 11 -3 1 -7 1 -10 2 -10 2 -26 3 -35 3 l-5 0 0 10 c1 5 1 12 1 14 1 2 1 8
2 12 0 4 0 9 0 11 1 3 1 10 3 29 1 28 2 64 1 74 -1 8 -5 18 -7 20 -1 1 -1 1
-1 1 3 0 -9 11 -15 14 -7 3 -19 4 -27 1z"/>
</g>
</svg>
