<?xml version="1.0" standalone="no"?>
<!DOCTYPE svg PUBLIC "-//W3C//DTD SVG 20010904//EN"
 "http://www.w3.org/TR/2001/REC-SVG-20010904/DTD/svg10.dtd">
<svg version="1.0" xmlns="http://www.w3.org/2000/svg"
 width="1000.000000pt" height="1000.000000pt" viewBox="0 0 1000.000000 1000.000000"
 preserveAspectRatio="xMidYMid meet">
<metadata>
Created by potrace 1.16, written by Peter Selinger 2001-2019
</metadata>
<g transform="translate(0.000000,1000.000000) scale(1.000000,-1.000000)"
fill="#000000" stroke="none">
<path d="M495 650 c0 0 -9 0 -19 0 -11 -1 -23 -1 -27 -2 -5 0 -14 0 -21 0 -7
-1 -16 -1 -19 -2 -4 0 -11 0 -15 -1 -4 0 -10 0 -15 -1 -14 -1 -16 -1 -34 -1
-49 -2 -46 -2 -54 -5 -5 -1 -13 -7 -16 -10 -3 -4 -7 -11 -8 -15 -2 -9 0 -21 5
-28 4 -7 14 -15 16 -14 1 0 1 0 1 -1 0 -1 0 -1 1 -1 0 0 1 0 1 0 1 0 3 -1 7
-2 3 0 5 0 6 -1 3 0 46 0 52 0 2 1 8 1 14 1 6 1 12 1 14 1 2 1 8 1 15 1 6 1
13 1 15 2 2 0 10 0 17 0 7 1 17 1 22 2 l10 0 0 -17 c0 -20 0 -24 2 -38 1 -1 1
-5 1 -7 1 -2 1 -5 1 -6 1 -2 1 -5 2 -8 0 -3 0 -6 1 -7 0 -4 2 -13 2 -17 3 -12
3 -16 3 -23 1 -5 1 -7 2 -11 1 -5 6 -11 9 -15 5 -5 11 -9 12 -8 1 0 1 0 1 -1
0 -1 0 -1 1 -1 0 0 1 0 1 0 4 -1 17 -2 22 -1 2 1 5 2 7 3 2 1 4 2 5 1 0 0 0 0
0 1 -1 0 -1 1 0 1 3 0 11 11 14 18 3 8 3 23 1 36 -1 1 -1 4 -1 6 -1 2 -1 6 -2
8 0 1 0 5 -1 8 -1 3 -1 7 -1 9 -1 1 -1 5 -2 7 0 2 0 5 -1 6 0 1 0 5 -1 8 0 3
0 6 -1 8 0 1 0 9 -1 18 0 8 0 17 0 19 l-1 4 5 0 c30 0 58 -1 87 -3 38 -2 69
-2 76 1 2 0 3 1 3 0 0 -1 17 9 21 13 10 9 11 22 4 33 -5 9 -16 18 -26 21 -4 1
-5 1 -11 3 -1 0 -4 0 -5 1 -9 1 -18 2 -39 3 -12 1 -30 2 -35 3 -17 1 -43 1
-80 1 -24 0 -43 0 -43 0z"/>
</g>
</svg>
