<?xml version="1.0" standalone="no"?>
<!DOCTYPE svg PUBLIC "-//W3C//DTD SVG 20010904//EN"
 "http://www.w3.org/TR/2001/REC-SVG-20010904/DTD/svg10.dtd">
<svg version="1.0" xmlns="http://www.w3.org/2000/svg"
 width="1000.000000pt" height="1000.000000pt" viewBox="0 0 1000.000000 1000.000000"
 preserveAspectRatio="xMidYMid meet">
<metadata>
Created by potrace 1.16, written by Peter Selinger 2001-2019
</metadata>
<g transform="translate(0.000000,1000.000000) scale(1.000000,-1.000000)"
fill="#000000" stroke="none">
<path d="M557 557 c0 0 -10 0 -22 0 -12 -1 -23 -1 -25 -1 -2 -1 -7 -1 -12 -1
-5 -1 -10 -1 -12 -2 -2 0 -7 0 -11 0 -4 -1 -9 -1 -11 -1 -2 -1 -7 -1 -11 -1
-9 -1 -10 -1 -30 -4 -1 0 -6 0 -9 0 -4 -1 -9 -1 -11 -2 -14 -1 -17 -1 -19 -2
-2 0 -8 0 -12 -1 -5 0 -11 0 -13 -1 -2 0 -12 0 -21 -1 -38 -1 -38 -1 -47 -5
-19 -9 -25 -31 -15 -51 4 -8 15 -17 23 -19 1 0 2 0 2 0 0 -1 9 -1 27 -1 20 0
23 0 36 1 3 1 9 1 13 2 9 0 18 1 21 1 1 1 6 1 10 1 11 1 17 2 20 2 1 1 6 1 10
2 l8 0 0 -9 c0 -19 1 -34 3 -62 0 -6 0 -18 2 -40 0 -13 1 -27 1 -33 2 -11 2
-19 3 -30 0 -11 0 -16 1 -17 0 0 0 0 1 -1 0 -1 0 -1 0 -2 0 0 0 -1 0 -1 0 -1
0 -1 1 -1 1 0 1 0 0 -1 0 -1 0 -1 1 -1 1 0 1 0 1 -1 -2 -1 11 -14 18 -17 15
-7 35 -1 46 14 2 4 4 7 4 7 0 1 1 4 1 8 2 7 2 30 0 48 -1 4 -2 18 -3 33 0 5 0
15 0 21 -1 7 -1 15 -1 19 -2 23 -2 30 -2 50 l-1 23 3 0 c2 1 25 1 51 0 89 0
95 0 100 0 3 1 7 1 10 2 7 0 7 0 12 2 22 7 27 34 10 50 -6 5 -19 11 -38 16 -8
1 -10 2 -14 3 -3 0 -6 0 -7 0 -2 1 -8 1 -18 3 -4 0 -74 2 -74 1z"/>
</g>
</svg>
