<?xml version="1.0" standalone="no"?>
<!DOCTYPE svg PUBLIC "-//W3C//DTD SVG 20010904//EN"
 "http://www.w3.org/TR/2001/REC-SVG-20010904/DTD/svg10.dtd">
<svg version="1.0" xmlns="http://www.w3.org/2000/svg"
 width="1000.000000pt" height="1000.000000pt" viewBox="0 0 1000.000000 1000.000000"
 preserveAspectRatio="xMidYMid meet">
<metadata>
Created by potrace 1.16, written by Peter Selinger 2001-2019
</metadata>
<g transform="translate(0.000000,1000.000000) scale(1.000000,-1.000000)"
fill="#000000" stroke="none">
<path d="M452 304 c0 0 -6 0 -12 0 -7 -1 -14 -1 -16 -1 -2 -1 -8 -1 -12 -1 -5
-1 -11 -1 -12 -1 -2 -1 -7 -1 -11 -1 -5 -1 -9 -1 -10 -2 -1 0 -5 0 -9 -1 -4 0
-9 0 -10 -1 -9 0 -25 -1 -43 -2 -11 0 -21 0 -23 -1 -3 -1 -6 -1 -7 -2 -5 -1
-14 -6 -18 -10 -13 -14 -12 -33 3 -47 6 -6 16 -11 21 -12 1 -1 3 -1 3 -1 0 0
3 -1 9 -2 9 -1 45 0 59 1 2 1 7 1 11 1 3 1 8 1 10 2 1 0 5 0 9 0 3 1 7 1 10 2
2 0 7 0 12 1 4 0 10 0 14 1 3 0 9 0 13 0 l8 1 -1 -3 c-2 -10 -2 -37 -1 -51 1
-5 1 -11 2 -14 0 -3 0 -7 0 -8 1 -2 1 -6 2 -9 0 -4 0 -8 1 -9 0 -1 0 -5 0 -7
1 -5 4 -23 5 -27 0 -1 0 -5 1 -7 1 -8 1 -10 2 -14 0 -2 1 -3 1 -4 0 0 1 -2 2
-4 0 -2 1 -4 1 -4 0 -1 0 -1 1 -1 1 0 1 -1 1 -1 0 -1 2 -4 4 -6 18 -19 50 -13
60 11 1 2 2 6 3 7 1 7 0 27 -2 37 0 1 0 4 -1 6 0 2 0 4 0 6 -1 1 -1 4 -1 7 -1
2 -1 6 -1 7 -1 1 -1 5 -2 9 0 3 0 7 -1 8 0 1 0 5 0 9 -1 4 -1 8 -2 9 0 3 -1 9
-1 20 -1 4 -1 9 -2 10 0 1 0 5 -1 8 0 6 0 9 -1 13 -1 2 6 2 34 1 10 -1 24 -1
31 -2 27 0 37 -1 50 -2 26 -1 67 -1 77 1 7 2 25 7 28 9 15 8 18 25 6 36 -7 8
-30 19 -41 22 -4 0 -18 3 -20 3 -3 1 -7 2 -22 4 -12 1 -39 2 -73 4 -10 0 -22
0 -26 0 -29 2 -111 3 -112 2z"/>
</g>
</svg>
