<?xml version="1.0" standalone="no"?>
<!DOCTYPE svg PUBLIC "-//W3C//DTD SVG 20010904//EN"
 "http://www.w3.org/TR/2001/REC-SVG-20010904/DTD/svg10.dtd">
<svg version="1.0" xmlns="http://www.w3.org/2000/svg"
 width="1000.000000pt" height="1000.000000pt" viewBox="0 0 1000.000000 1000.000000"
 preserveAspectRatio="xMidYMid meet">
<metadata>
Created by potrace 1.16, written by Peter Selinger 2001-2019
</metadata>
<g transform="translate(0.000000,1000.000000) scale(1.000000,-1.000000)"
fill="#000000" stroke="none">
<path d="M794 834 c-6 -2 -9 -5 -14 -10 -5 -5 -11 -15 -11 -20 -1 -1 -1 -2 -1
-3 -1 0 -1 -2 -1 -4 -1 -2 -1 -5 -2 -6 0 -1 0 -23 0 -49 0 -25 -1 -46 -1 -46
0 -1 -3 -1 -7 -2 -3 0 -8 0 -10 -1 -2 0 -7 0 -10 -1 -3 0 -7 0 -8 -1 -1 0 -4
0 -6 -1 -18 -2 -29 -8 -36 -18 -2 -4 -3 -6 -5 -11 0 -1 0 -5 0 -10 0 -7 0 -9
2 -14 4 -8 10 -14 18 -18 6 -3 7 -3 20 -3 8 0 17 0 20 0 2 1 8 1 12 2 9 0 8 0
10 0 0 0 1 -16 1 -45 0 -46 1 -89 2 -96 0 -2 0 -4 0 -4 0 -1 1 -2 1 -3 1 0 1
-1 1 -1 -1 0 0 -2 2 -5 7 -13 19 -20 34 -19 6 0 9 0 12 2 1 1 3 1 3 0 1 0 1 0
0 1 0 1 0 1 2 1 1 -1 1 -1 1 0 -1 0 1 2 3 3 8 6 13 15 15 27 0 2 0 12 0 22 0
10 0 77 0 150 -1 72 -1 132 -1 133 -1 1 -1 4 -1 6 -1 2 -1 5 -1 6 -1 1 -1 3
-1 4 -2 7 -6 17 -8 18 -1 0 -1 1 -1 1 0 2 -9 10 -13 13 -6 2 -15 3 -21 2z"/>
<path d="M412 621 c0 0 -10 0 -21 0 -11 -1 -24 -1 -28 -1 -13 -1 -30 -2 -34
-2 -3 -1 -14 -2 -27 -2 -18 -2 -36 -3 -40 -4 -2 0 -7 0 -12 -1 -5 0 -11 0 -13
-1 -2 0 -13 0 -22 0 -22 -1 -28 -2 -33 -3 -17 -6 -27 -22 -25 -40 2 -12 10
-23 20 -28 4 -2 8 -3 9 -3 1 -1 2 -1 2 -1 0 -2 46 -2 67 0 2 1 7 1 12 1 5 1
10 1 13 2 2 0 8 0 13 1 5 0 11 0 13 0 2 1 8 1 14 1 l10 1 0 -9 c0 -9 1 -43 1
-53 3 -34 4 -50 8 -69 1 -3 3 -10 4 -11 1 0 1 -1 0 -1 0 -1 0 -1 1 -1 0 0 1
-1 1 -1 0 -3 15 -16 17 -15 1 0 1 0 1 -1 0 -1 0 -1 1 -1 0 0 1 0 1 0 4 -1 17
-2 22 -1 2 1 5 2 7 3 2 1 4 2 5 1 0 0 0 0 0 1 -1 0 -1 1 0 1 1 0 8 7 10 11 3
3 5 9 6 13 0 5 0 18 -2 20 0 1 0 3 -1 10 -1 5 -3 18 -4 33 0 5 0 12 -1 14 0 2
0 14 -1 27 0 12 0 24 0 27 l-1 6 29 0 c16 -1 30 -1 32 -1 2 -1 8 -1 14 -1 6
-1 12 -1 14 -1 2 -1 7 -1 12 -1 5 -1 10 -1 13 -2 2 0 7 0 11 -1 4 0 9 0 11 -1
2 0 10 0 19 0 13 -1 16 -1 23 1 3 1 7 2 8 2 1 0 2 1 1 1 0 0 2 1 4 3 6 3 10 8
13 15 2 5 2 7 2 14 0 4 0 8 0 9 -2 5 -4 9 -4 9 -1 0 -1 0 -1 1 1 1 -7 9 -12
12 -5 3 -13 6 -17 6 -5 1 -11 2 -17 2 -13 1 -20 2 -26 3 -3 0 -8 0 -10 0 -2 1
-8 1 -13 1 -5 1 -10 1 -12 1 -2 1 -8 1 -14 2 -6 0 -12 0 -14 1 -9 0 -59 2 -59
1z"/>
</g>
</svg>
