<?xml version="1.0" standalone="no"?>
<!DOCTYPE svg PUBLIC "-//W3C//DTD SVG 20010904//EN"
 "http://www.w3.org/TR/2001/REC-SVG-20010904/DTD/svg10.dtd">
<svg version="1.0" xmlns="http://www.w3.org/2000/svg"
 width="1000.000000pt" height="1000.000000pt" viewBox="0 0 1000.000000 1000.000000"
 preserveAspectRatio="xMidYMid meet">
<metadata>
Created by potrace 1.16, written by Peter Selinger 2001-2019
</metadata>
<g transform="translate(0.000000,1000.000000) scale(1.000000,-1.000000)"
fill="#000000" stroke="none">
<path d="M728 714 c-13 -4 -23 -16 -27 -31 -3 -11 -3 -16 -6 -49 0 -10 -1 -21
-2 -30 0 -4 0 -9 -1 -11 0 -2 0 -8 -1 -14 0 -6 0 -11 0 -12 0 0 -1 -1 -1 -1 0
0 -1 0 -2 0 -1 -1 -6 -1 -12 -1 -14 -1 -23 -2 -30 -3 -1 -1 -4 -1 -6 -2 -12
-1 -23 -7 -30 -15 -5 -5 -8 -10 -9 -16 -3 -11 0 -24 8 -33 4 -3 11 -8 14 -9 1
0 2 0 2 -1 6 -2 20 -2 27 -1 1 1 4 1 7 1 3 1 6 1 7 2 1 0 7 0 13 1 l11 0 0
-16 c0 -8 0 -24 1 -35 1 -34 1 -55 -1 -72 -1 -2 -1 -7 -1 -10 -1 -4 -1 -9 -2
-10 0 -2 0 -11 -1 -20 0 -14 0 -19 2 -23 3 -11 10 -19 21 -24 15 -8 35 -2 45
12 7 9 7 12 8 36 1 6 1 12 1 14 1 1 1 5 2 10 0 4 0 8 1 9 1 11 2 48 0 87 -1
40 0 109 1 128 1 2 1 8 1 13 1 4 1 10 1 12 1 2 1 8 1 14 1 5 1 12 1 15 2 21 2
27 2 33 0 5 0 13 -2 18 0 1 0 4 -1 5 -2 12 -11 23 -22 28 -5 2 -16 3 -20 1z"/>
<path d="M430 542 c0 0 -7 0 -14 0 -8 -1 -16 -1 -18 -1 -2 -1 -7 -1 -10 -1 -4
-1 -9 -1 -10 -1 -2 -1 -6 -1 -8 -1 -3 -1 -7 -1 -8 -1 -1 -1 -5 -1 -7 -1 -2 -1
-5 -1 -7 -1 -1 -1 -4 -1 -7 -2 -3 0 -6 0 -7 -1 -1 0 -4 0 -7 -1 -3 0 -6 0 -7
0 -1 -1 -4 -1 -6 -1 -2 -1 -5 -1 -6 -1 -2 -1 -9 -2 -15 -3 -2 0 -10 0 -17 -1
-24 0 -25 -1 -32 -3 -9 -5 -18 -15 -21 -25 0 -2 0 -5 0 -9 -1 -14 6 -27 20
-34 3 -2 6 -3 6 -3 0 0 0 0 0 0 5 -2 38 -2 49 -1 3 1 8 1 10 2 2 0 5 0 7 1 1
0 4 0 6 1 2 0 5 0 7 1 1 0 4 0 6 1 2 0 5 0 6 1 1 0 4 0 7 0 3 1 6 1 7 1 1 1 4
1 7 2 3 0 6 0 6 0 2 1 2 -93 1 -107 -1 -5 -1 -18 -2 -28 0 -27 2 -36 12 -46 7
-7 14 -10 25 -11 7 0 10 1 14 2 13 5 21 16 24 28 0 3 1 11 2 27 0 8 0 18 1 21
0 3 0 31 0 62 1 30 1 56 1 57 0 1 11 1 46 1 25 0 47 0 49 0 16 3 23 6 33 18
11 12 13 20 9 31 -2 5 -17 19 -23 22 -3 2 -6 3 -6 3 -1 0 -1 0 -1 0 0 0 -1 0
-2 1 -2 0 -18 0 -36 1 -18 0 -45 0 -59 0 -14 0 -25 0 -25 0z"/>
</g>
</svg>
