<?xml version="1.0" standalone="no"?>
<!DOCTYPE svg PUBLIC "-//W3C//DTD SVG 20010904//EN"
 "http://www.w3.org/TR/2001/REC-SVG-20010904/DTD/svg10.dtd">
<svg version="1.0" xmlns="http://www.w3.org/2000/svg"
 width="1000.000000pt" height="1000.000000pt" viewBox="0 0 1000.000000 1000.000000"
 preserveAspectRatio="xMidYMid meet">
<metadata>
Created by potrace 1.16, written by Peter Selinger 2001-2019
</metadata>
<g transform="translate(0.000000,1000.000000) scale(1.000000,-1.000000)"
fill="#000000" stroke="none">
<path d="M793 753 c-9 -3 -21 -20 -23 -33 -1 -2 -2 -7 -2 -11 -4 -16 -4 -16
-5 -54 0 -19 0 -40 -1 -47 0 -8 0 -24 0 -38 -1 -13 -1 -25 -1 -25 -1 0 -2 0
-4 0 -5 -1 -17 -3 -21 -4 -2 0 -4 0 -5 -1 -7 -1 -22 -6 -28 -10 -7 -4 -14 -12
-18 -19 -3 -7 -3 -18 0 -25 5 -11 16 -18 31 -21 6 -1 25 0 33 1 1 1 4 1 7 1 4
1 5 1 5 -1 0 -1 0 -8 0 -17 1 -14 2 -39 3 -51 0 -3 0 -12 1 -20 0 -9 0 -18 1
-20 1 -25 2 -64 1 -109 0 -8 0 -17 0 -20 2 -13 2 -16 7 -35 2 -9 4 -17 4 -18
0 -2 5 -11 7 -13 7 -6 17 -8 25 -3 7 3 10 8 13 20 2 4 5 14 8 21 5 10 9 23 10
33 3 15 3 90 1 129 -1 3 -1 12 -2 20 0 8 0 17 0 20 -2 29 -3 142 -2 193 1 12
1 39 1 60 1 34 1 37 -1 46 -1 5 -2 11 -3 12 -1 6 -3 15 -5 18 -4 9 -15 20 -22
22 -4 1 -11 1 -15 -1z"/>
<path d="M436 306 c0 0 -7 0 -15 0 -9 -1 -18 -1 -20 -1 -2 -1 -9 -1 -15 -1
-47 -3 -80 -5 -96 -6 -4 -1 -10 -1 -14 -2 -9 0 -17 -1 -23 -1 -2 -1 -7 -1 -10
-2 -3 0 -7 0 -8 0 -1 -1 -4 -1 -6 -2 -3 0 -5 -1 -6 -1 -1 -1 -2 -1 -2 0 0 0
-3 -1 -7 -3 -15 -9 -24 -22 -23 -35 0 -5 1 -9 1 -10 0 0 0 0 0 -1 0 0 2 -3 3
-5 7 -12 22 -19 41 -19 4 0 19 1 22 2 1 0 6 0 11 1 5 0 10 0 12 1 2 0 8 0 14
1 5 0 11 0 13 1 2 0 9 0 15 1 6 0 13 0 14 0 3 1 3 1 1 -12 0 -4 0 -16 0 -25 0
-19 0 -36 3 -70 0 -4 0 -12 1 -17 1 -22 4 -32 12 -40 16 -16 37 -17 52 -1 4 3
10 13 10 15 0 1 1 2 1 4 1 3 1 18 1 27 -1 2 -1 9 -1 16 -1 7 -1 13 -1 14 -1 1
-1 4 -1 7 -1 3 -1 7 -2 8 0 1 0 5 0 7 -1 2 -1 6 -1 7 -1 1 -1 5 -1 7 -1 2 -1
6 -1 7 -1 3 -2 8 -3 15 0 3 0 6 -1 7 -1 6 -1 8 -2 11 0 3 -1 7 -1 10 -1 4 -1
6 -1 7 1 0 3 1 4 1 50 2 106 2 123 -1 6 -1 27 -1 32 0 2 1 4 1 6 1 1 1 4 1 6
1 8 1 15 5 22 10 11 8 13 15 6 28 -5 12 -10 16 -31 27 -10 5 -18 7 -36 9 -2 1
-7 1 -9 2 -4 0 -89 1 -89 0z"/>
</g>
</svg>
