<?xml version="1.0" standalone="no"?>
<!DOCTYPE svg PUBLIC "-//W3C//DTD SVG 20010904//EN"
 "http://www.w3.org/TR/2001/REC-SVG-20010904/DTD/svg10.dtd">
<svg version="1.0" xmlns="http://www.w3.org/2000/svg"
 width="1000.000000pt" height="1000.000000pt" viewBox="0 0 1000.000000 1000.000000"
 preserveAspectRatio="xMidYMid meet">
<metadata>
Created by potrace 1.16, written by Peter Selinger 2001-2019
</metadata>
<g transform="translate(0.000000,1000.000000) scale(1.000000,-1.000000)"
fill="#000000" stroke="none">
<path d="M895 746 c-11 -6 -16 -16 -19 -35 -1 -2 -1 -5 -1 -6 -1 -1 -1 -4 -2
-5 0 -2 0 -4 0 -5 -1 -1 -1 -5 -2 -8 0 -4 0 -9 -1 -10 -1 -10 -1 -37 -1 -60 0
-47 0 -169 0 -201 0 -28 0 -45 2 -66 1 -27 2 -51 2 -100 0 -38 0 -50 -1 -58
-1 -2 -2 -11 -3 -16 0 -2 0 -7 -1 -10 -1 -11 0 -23 1 -26 1 0 1 -3 2 -7 0 -9
1 -9 3 -13 3 -7 10 -11 17 -11 2 0 5 0 6 0 4 1 10 7 14 12 2 3 5 8 7 11 6 8 8
15 11 28 0 1 1 6 2 9 0 4 1 9 2 11 0 2 1 6 1 8 1 6 2 8 3 11 0 1 0 4 1 5 0 1
0 4 1 5 0 1 0 4 1 5 0 3 0 4 2 17 1 4 2 9 2 11 1 1 1 4 1 6 1 3 1 6 1 7 3 14
3 66 0 101 -1 14 -1 40 -1 60 0 126 0 191 -1 216 -1 3 -1 10 -1 17 -1 6 -1 12
-1 14 -1 2 -1 8 -1 13 -1 5 -1 10 -1 11 -1 1 -1 4 -1 6 -1 2 -1 6 -2 7 0 1 0
4 0 5 -1 1 -1 4 -2 5 0 1 0 4 -1 6 -3 24 -22 37 -39 30z"/>
<path d="M800 686 c0 0 -2 0 -3 0 -6 -1 -12 -6 -16 -12 -1 -1 -3 -5 -4 -8 -2
-6 -2 -8 -4 -14 0 -1 0 -3 0 -4 -2 -5 -2 -18 -3 -41 0 -13 0 -26 0 -27 -1 -8
-2 -21 -2 -28 0 -6 -1 -7 -2 -7 -2 0 -14 -1 -16 -1 -2 -1 -5 -1 -7 -1 -2 -1
-6 -1 -7 -2 -1 0 -4 0 -5 -1 -7 -1 -22 -6 -28 -10 -7 -4 -14 -12 -18 -19 -3
-7 -3 -18 0 -25 5 -11 16 -18 31 -21 7 -1 24 0 33 1 2 1 4 1 6 2 1 0 6 0 10 1
l7 0 0 -4 c0 -6 1 -35 1 -39 1 -4 2 -22 3 -35 0 -5 0 -12 0 -16 1 -5 1 -13 2
-18 0 -10 0 -13 1 -17 1 -1 1 -3 1 -4 1 -1 1 -3 2 -4 0 -2 1 -6 2 -9 2 -9 4
-14 11 -21 6 -5 11 -8 17 -7 7 0 16 5 22 11 2 2 6 10 6 11 0 0 1 1 1 2 1 0 1
1 1 1 -1 0 -1 1 0 2 1 0 1 1 1 1 -1 0 0 3 1 7 5 13 5 15 7 37 1 21 0 35 -1 64
-1 3 -1 12 -1 19 -1 8 -1 18 -1 22 -1 3 -1 11 -1 18 -2 28 -3 38 -5 59 0 2 0
6 -1 9 0 5 -2 15 -4 22 -2 10 -3 20 -5 35 0 3 0 9 -1 12 0 3 0 9 -1 12 -2 28
-7 40 -18 45 -4 2 -11 3 -12 2z"/>
<path d="M436 306 c0 0 -7 0 -15 0 -9 -1 -18 -1 -20 -1 -2 -1 -9 -1 -15 -1
-47 -3 -80 -5 -96 -6 -4 -1 -10 -1 -14 -2 -9 0 -17 -1 -23 -1 -2 -1 -7 -1 -10
-2 -3 0 -7 0 -8 0 -1 -1 -4 -1 -6 -2 -3 0 -5 -1 -6 -1 -1 -1 -2 -1 -2 0 0 0
-3 -1 -7 -3 -15 -9 -24 -22 -23 -35 0 -5 1 -9 1 -10 0 0 0 0 0 -1 0 0 2 -3 3
-5 7 -12 22 -19 41 -19 4 0 19 1 22 2 1 0 6 0 11 1 5 0 10 0 12 1 2 0 8 0 14
1 5 0 11 0 13 1 2 0 9 0 15 1 6 0 13 0 14 0 3 1 3 1 1 -12 0 -4 0 -16 0 -25 0
-19 0 -36 3 -70 0 -4 0 -12 1 -17 1 -22 4 -32 12 -40 16 -16 37 -17 52 -1 4 3
10 13 10 15 0 1 1 2 1 4 1 3 1 18 1 27 -1 2 -1 9 -1 16 -1 7 -1 13 -1 14 -1 1
-1 4 -1 7 -1 3 -1 7 -2 8 0 1 0 5 0 7 -1 2 -1 6 -1 7 -1 1 -1 5 -1 7 -1 2 -1
6 -1 7 -1 3 -2 8 -3 15 0 3 0 6 -1 7 -1 6 -1 8 -2 11 0 3 -1 7 -1 10 -1 4 -1
6 -1 7 1 0 3 1 4 1 50 2 106 2 123 -1 6 -1 27 -1 32 0 2 1 4 1 6 1 1 1 4 1 6
1 8 1 15 5 22 10 11 8 13 15 6 28 -5 12 -10 16 -31 27 -10 5 -18 7 -36 9 -2 1
-7 1 -9 2 -4 0 -89 1 -89 0z"/>
</g>
</svg>
