<?xml version="1.0" standalone="no"?>
<!DOCTYPE svg PUBLIC "-//W3C//DTD SVG 20010904//EN"
 "http://www.w3.org/TR/2001/REC-SVG-20010904/DTD/svg10.dtd">
<svg version="1.0" xmlns="http://www.w3.org/2000/svg"
 width="1000.000000pt" height="1000.000000pt" viewBox="0 0 1000.000000 1000.000000"
 preserveAspectRatio="xMidYMid meet">
<metadata>
Created by potrace 1.16, written by Peter Selinger 2001-2019
</metadata>
<g transform="translate(0.000000,1000.000000) scale(1.000000,-1.000000)"
fill="#000000" stroke="none">
<path d="M788 682 c-13 -3 -23 -13 -27 -28 -1 -4 -1 -10 0 -25 1 -29 0 -78 0
-116 -1 -31 -2 -140 -1 -177 0 -16 0 -31 -2 -42 -1 -15 -1 -24 2 -34 3 -12 3
-11 4 -13 2 -7 4 -13 5 -14 0 -1 0 -2 0 -2 0 0 0 0 0 -1 2 -5 6 -11 10 -13 8
-4 17 0 27 11 15 17 23 30 26 41 3 16 4 40 4 72 -1 46 0 130 0 159 2 56 1 131
-1 146 -3 26 -24 42 -47 36z"/>
<path d="M706 647 c-7 -3 -16 -10 -24 -21 -4 -5 -9 -14 -9 -18 -1 -1 -1 -4 -1
-5 -2 -5 -2 -11 -4 -21 0 -4 0 -7 -1 -8 0 -2 -1 -26 -1 -32 0 -2 -1 -4 -1 -4
-2 0 -7 -1 -13 -3 -10 -2 -11 -2 -14 -3 -1 0 -4 0 -5 -1 -5 -1 -15 -7 -20 -11
-5 -5 -8 -12 -10 -17 -1 -6 0 -18 1 -20 0 0 0 0 0 -1 2 -8 16 -21 25 -23 1 0
2 0 2 0 0 -1 19 -2 23 -1 2 1 5 1 7 2 l4 0 -1 -31 c0 -17 0 -34 0 -37 -2 -18
-3 -27 -4 -31 -3 -22 -2 -31 3 -41 4 -8 10 -14 18 -18 10 -5 25 -3 34 3 1 1 3
2 4 1 0 0 0 0 0 0 -1 1 0 2 2 4 4 3 7 9 10 16 2 6 3 7 4 14 0 2 0 6 1 7 0 1 0
5 1 9 0 3 0 7 1 9 0 2 0 7 1 11 0 3 0 9 1 11 0 2 0 32 0 65 1 55 1 87 3 104 2
40 2 50 -2 61 -8 25 -20 35 -35 30z"/>
<path d="M430 542 c0 0 -7 0 -14 0 -8 -1 -16 -1 -18 -1 -2 -1 -7 -1 -10 -1 -4
-1 -9 -1 -10 -1 -2 -1 -6 -1 -8 -1 -3 -1 -7 -1 -8 -1 -1 -1 -5 -1 -7 -1 -2 -1
-5 -1 -7 -1 -1 -1 -4 -1 -7 -2 -3 0 -6 0 -7 -1 -1 0 -4 0 -7 -1 -3 0 -6 0 -7
0 -1 -1 -4 -1 -6 -1 -2 -1 -5 -1 -6 -1 -2 -1 -9 -2 -15 -3 -2 0 -10 0 -17 -1
-24 0 -25 -1 -32 -3 -9 -5 -18 -15 -21 -25 0 -2 0 -5 0 -9 -1 -14 6 -27 20
-34 3 -2 6 -3 6 -3 0 0 0 0 0 0 5 -2 38 -2 49 -1 3 1 8 1 10 2 2 0 5 0 7 1 1
0 4 0 6 1 2 0 5 0 7 1 1 0 4 0 6 1 2 0 5 0 6 1 1 0 4 0 7 0 3 1 6 1 7 1 1 1 4
1 7 2 3 0 6 0 6 0 2 1 2 -93 1 -107 -1 -5 -1 -18 -2 -28 0 -27 2 -36 12 -46 7
-7 14 -10 25 -11 7 0 10 1 14 2 13 5 21 16 24 28 0 3 1 11 2 27 0 8 0 18 1 21
0 3 0 31 0 62 1 30 1 56 1 57 0 1 11 1 46 1 25 0 47 0 49 0 16 3 23 6 33 18
11 12 13 20 9 31 -2 5 -17 19 -23 22 -3 2 -6 3 -6 3 -1 0 -1 0 -1 0 0 0 -1 0
-2 1 -2 0 -18 0 -36 1 -18 0 -45 0 -59 0 -14 0 -25 0 -25 0z"/>
</g>
</svg>
