<?xml version="1.0" standalone="no"?>
<!DOCTYPE svg PUBLIC "-//W3C//DTD SVG 20010904//EN"
 "http://www.w3.org/TR/2001/REC-SVG-20010904/DTD/svg10.dtd">
<svg version="1.0" xmlns="http://www.w3.org/2000/svg"
 width="1000.000000pt" height="1000.000000pt" viewBox="0 0 1000.000000 1000.000000"
 preserveAspectRatio="xMidYMid meet">
<metadata>
Created by potrace 1.16, written by Peter Selinger 2001-2019
</metadata>
<g transform="translate(0.000000,1000.000000) scale(1.000000,-1.000000)"
fill="#000000" stroke="none">
<path d="M675 711 c-1 0 -2 0 -3 -1 -12 -2 -24 -15 -27 -28 0 -4 -1 -21 -1
-129 -2 -137 -1 -167 0 -191 2 -18 2 -32 2 -43 -1 -24 -1 -41 0 -44 2 -10 5
-16 8 -21 4 -6 17 -14 22 -15 5 0 18 5 23 9 3 1 5 3 6 2 0 0 0 0 0 0 -1 1 0 3
2 4 6 7 12 22 13 32 3 18 3 50 0 81 -1 23 -1 112 0 282 1 14 0 28 0 31 -2 8
-5 15 -10 20 -7 7 -9 8 -17 10 -3 2 -17 2 -18 1z"/>
<path d="M430 542 c0 0 -7 0 -14 0 -8 -1 -16 -1 -18 -1 -2 -1 -7 -1 -10 -1 -4
-1 -9 -1 -10 -1 -2 -1 -6 -1 -8 -1 -3 -1 -7 -1 -8 -1 -1 -1 -5 -1 -7 -1 -2 -1
-5 -1 -7 -1 -1 -1 -4 -1 -7 -2 -3 0 -6 0 -7 -1 -1 0 -4 0 -7 -1 -3 0 -6 0 -7
0 -1 -1 -4 -1 -6 -1 -2 -1 -5 -1 -6 -1 -2 -1 -9 -2 -15 -3 -2 0 -10 0 -17 -1
-24 0 -25 -1 -32 -3 -9 -5 -18 -15 -21 -25 0 -2 0 -5 0 -9 -1 -14 6 -27 20
-34 3 -2 6 -3 6 -3 0 0 0 0 0 0 5 -2 38 -2 49 -1 3 1 8 1 10 2 2 0 5 0 7 1 1
0 4 0 6 1 2 0 5 0 7 1 1 0 4 0 6 1 2 0 5 0 6 1 1 0 4 0 7 0 3 1 6 1 7 1 1 1 4
1 7 2 3 0 6 0 6 0 2 1 2 -93 1 -107 -1 -5 -1 -18 -2 -28 0 -27 2 -36 12 -46 7
-7 14 -10 25 -11 7 0 10 1 14 2 13 5 21 16 24 28 0 3 1 11 2 27 0 8 0 18 1 21
0 3 0 31 0 62 1 30 1 56 1 57 0 1 11 1 46 1 25 0 47 0 49 0 16 3 23 6 33 18
11 12 13 20 9 31 -2 5 -17 19 -23 22 -3 2 -6 3 -6 3 -1 0 -1 0 -1 0 0 0 -1 0
-2 1 -2 0 -18 0 -36 1 -18 0 -45 0 -59 0 -14 0 -25 0 -25 0z"/>
</g>
</svg>
