<?xml version="1.0" standalone="no"?>
<!DOCTYPE svg PUBLIC "-//W3C//DTD SVG 20010904//EN"
 "http://www.w3.org/TR/2001/REC-SVG-20010904/DTD/svg10.dtd">
<svg version="1.0" xmlns="http://www.w3.org/2000/svg"
 width="1000.000000pt" height="1000.000000pt" viewBox="0 0 1000.000000 1000.000000"
 preserveAspectRatio="xMidYMid meet">
<metadata>
Created by potrace 1.16, written by Peter Selinger 2001-2019
</metadata>
<g transform="translate(0.000000,1000.000000) scale(1.000000,-1.000000)"
fill="#000000" stroke="none">
<path d="M715 750 c-12 -4 -21 -16 -25 -31 0 -1 0 -3 -1 -6 0 -2 -1 -12 -1
-22 0 -21 0 -32 -2 -54 -1 -31 -1 -103 1 -124 3 -21 4 -49 5 -86 1 -70 1 -71
2 -94 1 -4 1 -11 2 -17 0 -6 0 -13 0 -15 1 -5 2 -14 3 -17 0 -2 0 -5 1 -7 0
-2 0 -5 1 -6 0 -1 0 -5 1 -8 0 -10 1 -12 3 -20 1 -2 1 -5 1 -5 2 -6 6 -13 10
-17 7 -7 18 -10 26 -7 2 0 4 1 4 0 1 0 1 0 1 1 -1 0 0 1 1 1 3 1 9 8 11 13 2
4 6 14 6 17 1 0 1 2 1 4 2 6 2 7 2 13 1 2 1 6 2 9 3 23 3 29 0 66 -1 17 -1 29
-2 48 0 44 -1 76 -2 85 -1 22 -1 28 -2 36 0 4 0 9 -1 11 -2 21 -2 82 -1 114 2
23 2 73 1 79 -1 6 -5 17 -8 22 -5 8 -14 16 -21 18 -4 1 -16 1 -19 -1z"/>
<path d="M436 306 c0 0 -7 0 -15 0 -9 -1 -18 -1 -20 -1 -2 -1 -9 -1 -15 -1
-47 -3 -80 -5 -96 -6 -4 -1 -10 -1 -14 -2 -9 0 -17 -1 -23 -1 -2 -1 -7 -1 -10
-2 -3 0 -7 0 -8 0 -1 -1 -4 -1 -6 -2 -3 0 -5 -1 -6 -1 -1 -1 -2 -1 -2 0 0 0
-3 -1 -7 -3 -15 -9 -24 -22 -23 -35 0 -5 1 -9 1 -10 0 0 0 0 0 -1 0 0 2 -3 3
-5 7 -12 22 -19 41 -19 4 0 19 1 22 2 1 0 6 0 11 1 5 0 10 0 12 1 2 0 8 0 14
1 5 0 11 0 13 1 2 0 9 0 15 1 6 0 13 0 14 0 3 1 3 1 1 -12 0 -4 0 -16 0 -25 0
-19 0 -36 3 -70 0 -4 0 -12 1 -17 1 -22 4 -32 12 -40 16 -16 37 -17 52 -1 4 3
10 13 10 15 0 1 1 2 1 4 1 3 1 18 1 27 -1 2 -1 9 -1 16 -1 7 -1 13 -1 14 -1 1
-1 4 -1 7 -1 3 -1 7 -2 8 0 1 0 5 0 7 -1 2 -1 6 -1 7 -1 1 -1 5 -1 7 -1 2 -1
6 -1 7 -1 3 -2 8 -3 15 0 3 0 6 -1 7 -1 6 -1 8 -2 11 0 3 -1 7 -1 10 -1 4 -1
6 -1 7 1 0 3 1 4 1 50 2 106 2 123 -1 6 -1 27 -1 32 0 2 1 4 1 6 1 1 1 4 1 6
1 8 1 15 5 22 10 11 8 13 15 6 28 -5 12 -10 16 -31 27 -10 5 -18 7 -36 9 -2 1
-7 1 -9 2 -4 0 -89 1 -89 0z"/>
</g>
</svg>
