<?xml version="1.0" standalone="no"?>
<!DOCTYPE svg PUBLIC "-//W3C//DTD SVG 20010904//EN"
 "http://www.w3.org/TR/2001/REC-SVG-20010904/DTD/svg10.dtd">
<svg version="1.0" xmlns="http://www.w3.org/2000/svg"
 width="1000.000000pt" height="1000.000000pt" viewBox="0 0 1000.000000 1000.000000"
 preserveAspectRatio="xMidYMid meet">
<metadata>
Created by potrace 1.16, written by Peter Selinger 2001-2019
</metadata>
<g transform="translate(0.000000,1000.000000) scale(1.000000,-1.000000)"
fill="#000000" stroke="none">
<path d="M599 668 c0 0 -7 0 -37 -2 -8 0 -34 -1 -38 -1 -3 -1 -11 -1 -18 -1
-7 -1 -15 -1 -17 -2 -3 0 -16 0 -29 0 -42 -1 -75 -3 -90 -4 -2 -1 -7 -1 -10
-2 -11 -1 -12 -1 -19 -1 -4 -1 -8 -1 -9 -1 -7 -1 -16 -2 -17 -3 -4 0 -16 -1
-25 -2 -13 0 -16 0 -22 -3 -13 -6 -21 -20 -21 -33 0 -4 0 -7 0 -8 3 -12 10
-21 21 -27 3 -1 5 -2 5 -2 1 0 1 0 1 0 6 -2 11 -2 19 -2 8 0 24 1 28 1 1 1 4
1 8 2 4 0 7 0 8 0 1 1 5 1 9 2 4 0 8 0 9 0 1 1 5 1 9 1 5 1 9 1 10 1 2 1 18 2
27 3 l7 0 0 -4 c-1 -3 -1 -6 -1 -7 -2 -8 -2 -17 -2 -49 0 -32 0 -45 1 -53 1
-4 2 -14 3 -25 1 -6 2 -14 3 -17 3 -21 14 -34 28 -36 3 0 5 0 5 0 0 0 2 0 5 0
14 3 25 16 24 31 0 6 -1 18 -2 21 0 3 -1 101 0 123 l1 17 3 1 c1 0 8 0 15 0 8
1 17 1 20 2 8 0 18 1 39 2 13 0 13 0 13 -2 -1 -2 -2 -8 -3 -17 -1 -4 -2 -16
-3 -26 -3 -25 -3 -82 0 -106 0 -2 0 -8 0 -13 1 -12 2 -14 3 -20 4 -9 11 -17
21 -22 12 -6 26 -5 38 5 6 5 10 11 13 18 2 6 2 8 1 21 0 7 0 15 0 17 -3 18 -3
82 -1 94 1 1 1 5 1 9 1 3 1 8 1 9 1 4 2 12 3 18 0 3 0 8 1 11 0 2 0 5 0 6 0 1
5 1 25 1 14 -1 30 -1 35 -2 13 -1 43 -1 46 0 2 1 6 2 10 4 4 2 7 3 8 3 0 0 0
0 0 1 -1 0 0 1 2 3 7 5 12 16 12 25 1 16 -10 30 -28 36 -7 2 -10 3 -31 4 -8 0
-17 0 -19 1 -6 0 -99 1 -99 0z"/>
</g>
</svg>
