<?xml version="1.0" standalone="no"?>
<!DOCTYPE svg PUBLIC "-//W3C//DTD SVG 20010904//EN"
 "http://www.w3.org/TR/2001/REC-SVG-20010904/DTD/svg10.dtd">
<svg version="1.0" xmlns="http://www.w3.org/2000/svg"
 width="1000.000000pt" height="1000.000000pt" viewBox="0 0 1000.000000 1000.000000"
 preserveAspectRatio="xMidYMid meet">
<metadata>
Created by potrace 1.16, written by Peter Selinger 2001-2019
</metadata>
<g transform="translate(0.000000,1000.000000) scale(1.000000,-1.000000)"
fill="#000000" stroke="none">
<path d="M464 320 c0 -1 -8 -1 -18 -1 -10 -1 -19 -1 -21 -1 -3 -1 -9 -1 -15
-2 -7 0 -13 0 -15 -1 -3 0 -9 0 -15 -1 -24 -1 -40 -2 -54 -4 -3 0 -7 0 -10 -1
-3 0 -7 0 -9 -1 -3 0 -6 0 -8 -1 -3 0 -6 0 -7 0 -1 -1 -5 -1 -7 -1 -7 -1 -13
-2 -18 -3 -1 -1 -4 -1 -6 -2 -13 -1 -22 -6 -28 -14 -5 -7 -8 -15 -8 -23 0 -8
0 -10 3 -17 3 -6 14 -18 16 -16 1 0 1 0 1 -1 0 -1 1 -1 6 -3 1 0 1 0 1 0 3 -2
18 -2 28 0 5 2 11 3 18 4 2 0 6 0 7 1 6 0 17 2 26 2 2 1 7 1 10 1 6 1 22 2 27
2 l3 1 -1 -7 c-1 -24 0 -60 4 -81 1 -3 1 -7 1 -9 1 -2 1 -4 1 -6 1 -1 1 -5 1
-8 3 -27 8 -43 18 -55 10 -10 23 -15 33 -11 2 1 4 1 4 0 1 0 1 0 1 1 -1 0 0 1
1 2 7 2 17 17 19 29 2 9 2 27 0 38 -1 1 -1 4 -2 6 0 2 0 5 0 6 -1 3 -2 8 -3
14 0 5 -5 27 -5 27 0 0 0 0 0 1 -1 1 -2 9 -4 18 -2 9 -4 19 -5 22 0 2 0 5 -1
7 0 1 0 3 -1 6 l0 4 4 0 c3 0 7 0 10 1 3 0 27 0 53 1 l48 0 -1 -10 c0 -5 0
-12 -1 -15 0 -9 -1 -66 -1 -90 0 -26 0 -32 3 -41 6 -14 20 -24 35 -24 17 0 31
11 36 29 1 6 2 10 2 36 0 51 1 86 3 100 0 1 0 4 0 6 l0 3 5 -1 c3 0 6 0 7 0 1
-1 4 -1 7 -1 3 -1 7 -1 8 -2 1 0 4 0 6 -1 3 0 5 0 6 0 1 -1 4 -1 7 -2 3 0 6 0
6 0 0 -1 3 -1 6 -1 3 -1 7 -1 8 -1 1 -1 4 -1 7 -2 3 0 6 0 7 0 1 -1 4 -1 7 -1
3 -1 7 -1 8 -2 1 0 5 0 8 -1 3 0 7 0 8 -1 14 -2 30 -2 42 1 6 1 7 1 9 2 1 1 2
1 2 0 0 0 1 0 1 1 1 1 4 2 6 4 5 4 10 11 12 18 3 7 2 18 -1 25 -4 7 -9 13 -15
16 -6 4 -11 5 -24 7 -3 0 -7 0 -8 1 -1 0 -6 0 -10 1 -4 0 -8 0 -9 1 -1 0 -5 0
-8 1 -3 0 -6 0 -7 1 -1 0 -5 0 -8 1 -3 0 -6 0 -7 1 -1 0 -4 0 -7 1 -3 0 -6 0
-7 1 -2 0 -5 0 -7 1 -2 0 -5 0 -6 1 -2 0 -5 0 -7 1 -2 0 -5 0 -6 1 -1 0 -4 0
-6 1 -3 0 -6 0 -7 1 -1 0 -5 0 -8 1 -3 0 -6 0 -7 1 -1 0 -5 0 -8 1 -3 0 -7 0
-8 1 -1 0 -6 0 -10 1 -4 0 -9 0 -11 1 -2 0 -7 0 -12 1 -5 0 -10 0 -12 1 -4 0
-116 1 -116 1z"/>
</g>
</svg>
