<?xml version="1.0" standalone="no"?>
<!DOCTYPE svg PUBLIC "-//W3C//DTD SVG 20010904//EN"
 "http://www.w3.org/TR/2001/REC-SVG-20010904/DTD/svg10.dtd">
<svg version="1.0" xmlns="http://www.w3.org/2000/svg"
 width="1000.000000pt" height="1000.000000pt" viewBox="0 0 1000.000000 1000.000000"
 preserveAspectRatio="xMidYMid meet">
<metadata>
Created by potrace 1.16, written by Peter Selinger 2001-2019
</metadata>
<g transform="translate(0.000000,1000.000000) scale(1.000000,-1.000000)"
fill="#000000" stroke="none">
<path d="M420 573 c0 0 -7 0 -16 0 -9 -1 -17 -1 -19 -1 -2 -1 -7 -1 -11 -1 -4
-1 -9 -1 -10 -1 -3 -1 -8 -2 -14 -3 -3 0 -6 0 -7 -1 -2 0 -5 0 -7 -1 -2 0 -5
0 -5 -1 0 0 -2 0 -5 -1 -2 0 -4 0 -5 -1 -5 -1 -8 -1 -12 -1 -13 -2 -20 -4 -27
-11 -19 -17 -18 -42 3 -58 3 -2 9 -5 11 -6 1 0 1 0 1 0 1 -1 7 -1 13 -1 7 0
13 0 24 2 4 1 9 2 11 2 1 1 4 1 5 1 1 1 4 1 6 1 6 1 11 2 14 3 7 1 16 1 16 0
-1 -2 -3 -17 -3 -38 -1 -9 -1 -20 -2 -25 0 -5 0 -14 -1 -19 0 -6 0 -14 0 -17
-1 -4 -1 -12 -2 -18 0 -6 0 -13 -1 -15 0 -9 -1 -35 -1 -46 0 -25 3 -36 12 -45
13 -13 32 -15 47 -5 3 1 5 2 5 2 1 0 1 0 1 1 -1 0 0 1 1 3 7 6 11 16 10 27 0
10 0 33 0 41 1 4 1 11 1 17 1 5 1 12 2 15 0 5 1 20 1 35 1 3 1 12 2 21 1 18 1
57 0 64 l-1 5 8 -1 c9 0 40 -1 46 -2 13 0 42 -2 62 -2 8 0 9 0 8 -2 0 -1 0 -7
-1 -12 0 -6 0 -13 -1 -16 0 -3 0 -10 0 -16 -1 -6 -1 -13 -1 -17 -2 -18 -2 -40
-3 -69 0 -18 0 -36 0 -40 0 -12 1 -18 6 -26 11 -17 29 -22 47 -13 13 6 21 18
23 34 0 3 0 20 0 40 1 20 1 41 1 48 2 37 3 40 5 70 0 8 1 14 1 15 0 1 2 1 5 1
3 -1 9 -1 14 -1 11 -1 18 -2 21 -3 6 -1 32 -1 38 1 15 3 26 12 29 25 0 2 0 13
0 15 -2 6 -6 13 -11 18 -4 3 -14 10 -15 9 -1 0 -1 0 -1 1 0 1 0 1 -1 1 0 0 -3
0 -6 1 -3 2 -6 2 -6 3 -4 0 -8 1 -12 2 -3 0 -7 0 -9 1 -2 0 -7 0 -10 1 -4 0
-10 0 -12 0 -7 1 -22 2 -37 3 -8 0 -19 0 -24 1 -11 0 -21 0 -60 2 -13 0 -25 0
-27 1 -3 0 -12 0 -20 1 -9 0 -18 0 -21 1 -18 0 -73 2 -73 1z"/>
</g>
</svg>
