<?xml version="1.0" standalone="no"?>
<!DOCTYPE svg PUBLIC "-//W3C//DTD SVG 20010904//EN"
 "http://www.w3.org/TR/2001/REC-SVG-20010904/DTD/svg10.dtd">
<svg version="1.0" xmlns="http://www.w3.org/2000/svg"
 width="1000.000000pt" height="1000.000000pt" viewBox="0 0 1000.000000 1000.000000"
 preserveAspectRatio="xMidYMid meet">
<metadata>
Created by potrace 1.16, written by Peter Selinger 2001-2019
</metadata>
<g transform="translate(0.000000,1000.000000) scale(1.000000,-1.000000)"
fill="#000000" stroke="none">
<path d="M530 443 c0 -1 -14 -1 -30 -1 -17 -1 -37 -1 -45 -2 -9 0 -24 0 -34 0
-19 -1 -47 -2 -67 -2 -28 -1 -59 -2 -75 -3 -24 0 -28 -1 -40 -8 -12 -8 -18
-18 -17 -29 0 -4 0 -7 0 -8 1 -4 5 -10 10 -15 8 -8 17 -13 27 -15 6 -1 37 -1
68 0 13 1 28 1 34 2 6 0 18 0 28 0 9 1 26 1 38 2 11 0 27 0 34 0 59 2 166 3
215 2 26 -1 28 -1 48 7 17 7 21 10 25 19 2 6 -1 18 -6 24 -4 3 -5 4 -21 12
-17 8 -25 11 -37 13 -3 0 -8 0 -10 1 -6 0 -145 1 -145 1z"/>
</g>
</svg>
