<?xml version="1.0" standalone="no"?>
<!DOCTYPE svg PUBLIC "-//W3C//DTD SVG 20010904//EN"
 "http://www.w3.org/TR/2001/REC-SVG-20010904/DTD/svg10.dtd">
<svg version="1.0" xmlns="http://www.w3.org/2000/svg"
 width="1000.000000pt" height="1000.000000pt" viewBox="0 0 1000.000000 1000.000000"
 preserveAspectRatio="xMidYMid meet">
<metadata>
Created by potrace 1.16, written by Peter Selinger 2001-2019
</metadata>
<g transform="translate(0.000000,1000.000000) scale(1.000000,-1.000000)"
fill="#000000" stroke="none">
<path d="M461 562 c0 0 -10 0 -22 0 -13 -1 -25 -1 -28 -1 -10 -1 -26 -2 -36
-3 -6 0 -13 0 -17 0 -18 -2 -31 -2 -58 -2 -16 -1 -29 -1 -30 -1 0 -1 -2 -1 -4
-2 -2 0 -4 -1 -5 -1 0 -1 -1 -1 -1 0 -1 0 -1 0 -1 -1 0 0 -1 -1 -1 -1 -1 0 -4
-1 -6 -3 -15 -11 -19 -31 -11 -47 3 -5 10 -12 16 -15 9 -5 13 -5 47 -5 24 0
37 0 59 2 3 0 11 0 18 0 7 1 15 1 18 1 8 1 28 2 37 3 11 0 72 0 82 0 13 -1 32
-2 36 -3 3 0 9 0 14 0 5 -1 12 -1 16 -1 12 -1 23 -2 34 -3 6 0 16 0 21 0 4 -1
18 -1 29 -2 11 0 25 0 30 -1 5 0 20 0 32 -1 l23 0 7 3 c12 4 19 10 24 19 8 18
1 38 -17 48 -9 5 -13 6 -38 7 -9 0 -20 0 -24 0 -4 1 -18 1 -31 1 -13 1 -27 1
-31 1 -4 1 -14 1 -21 1 -8 1 -17 1 -19 1 -2 1 -9 1 -14 1 -6 1 -13 1 -15 1 -2
1 -9 1 -15 2 -7 0 -14 0 -16 1 -13 0 -81 2 -82 1z"/>
</g>
</svg>
