<?xml version="1.0" standalone="no"?>
<!DOCTYPE svg PUBLIC "-//W3C//DTD SVG 20010904//EN"
 "http://www.w3.org/TR/2001/REC-SVG-20010904/DTD/svg10.dtd">
<svg version="1.0" xmlns="http://www.w3.org/2000/svg"
 width="1000.000000pt" height="1000.000000pt" viewBox="0 0 1000.000000 1000.000000"
 preserveAspectRatio="xMidYMid meet">
<metadata>
Created by potrace 1.16, written by Peter Selinger 2001-2019
</metadata>
<g transform="translate(0.000000,1000.000000) scale(1.000000,-1.000000)"
fill="#000000" stroke="none">
<path d="M446 277 c0 0 -6 0 -13 0 -7 -1 -14 -1 -16 -1 -2 -1 -8 -1 -12 -1 -5
-1 -11 -1 -13 -1 -2 -1 -7 -1 -11 -2 -5 0 -10 0 -12 -1 -18 -1 -59 -2 -86 0
-22 1 -36 1 -40 0 -9 -3 -20 -11 -24 -21 -5 -10 -5 -21 0 -32 1 -2 2 -3 2 -3
1 0 1 -1 1 -1 0 -2 12 -13 13 -12 1 0 1 0 1 -1 0 -1 1 -1 6 -3 1 0 1 0 2 0 1
-1 8 -2 13 -2 26 -3 93 -3 117 -1 2 1 7 1 12 1 4 1 9 1 11 2 2 0 7 0 12 1 5 0
10 0 12 1 29 3 135 2 186 -3 19 -1 44 -2 78 -4 35 -1 55 -2 59 -3 3 0 14 0 18
1 4 0 11 4 15 7 2 1 4 2 4 2 1 0 1 0 1 1 0 0 1 2 2 4 6 8 9 22 7 32 -2 5 -6
13 -10 17 -4 4 -12 9 -15 10 0 0 -2 0 -3 0 -11 3 -24 4 -72 5 -25 1 -44 2 -50
3 -3 0 -10 0 -16 1 -6 0 -12 0 -14 0 -2 1 -9 1 -15 2 -7 0 -15 0 -17 0 -20 2
-132 3 -133 2z"/>
</g>
</svg>
