<?xml version="1.0" standalone="no"?>
<!DOCTYPE svg PUBLIC "-//W3C//DTD SVG 20010904//EN"
 "http://www.w3.org/TR/2001/REC-SVG-20010904/DTD/svg10.dtd">
<svg version="1.0" xmlns="http://www.w3.org/2000/svg"
 width="1000.000000pt" height="1000.000000pt" viewBox="0 0 1000.000000 1000.000000"
 preserveAspectRatio="xMidYMid meet">
<metadata>
Created by potrace 1.16, written by Peter Selinger 2001-2019
</metadata>
<g transform="translate(0.000000,1000.000000) scale(1.000000,-1.000000)"
fill="#000000" stroke="none">
<path d="M726 773 c-9 -3 -17 -13 -21 -24 -4 -9 -4 -14 -5 -37 -1 -8 -1 -17
-1 -19 -4 -39 -5 -76 -3 -116 0 -9 0 -66 1 -128 0 -134 1 -187 2 -196 1 -1 1
-4 1 -8 2 -16 3 -19 10 -32 4 -10 7 -13 13 -17 10 -7 23 -5 33 5 4 5 11 17 13
24 2 6 3 8 3 18 1 3 1 8 2 12 0 8 0 10 0 54 -1 19 -1 86 -1 150 -1 63 -1 119
-1 124 -2 26 -1 68 2 93 2 26 3 52 2 59 -1 1 -1 4 -2 6 -5 25 -27 40 -48 32z"/>
<path d="M349 270 c0 0 -7 0 -14 -1 -8 0 -16 0 -18 0 -2 -1 -9 -1 -15 -1 -6
-1 -13 -1 -15 -2 -2 0 -8 0 -13 0 -6 -1 -12 -1 -15 -1 -14 -2 -31 -2 -55 -2
-30 -1 -32 -1 -39 -4 -18 -8 -28 -24 -23 -42 2 -12 13 -22 27 -28 7 -2 15 -2
40 -2 23 0 39 0 68 2 10 1 18 2 30 3 5 0 11 0 14 0 29 3 124 3 151 0 8 -1 38
-1 41 0 13 4 25 12 30 21 2 5 2 5 2 12 1 10 -2 16 -11 25 -6 6 -16 12 -22 14
-1 0 -3 0 -4 0 -1 1 -4 1 -6 2 -3 0 -6 0 -7 0 -2 1 -8 1 -20 3 -14 1 -36 1
-78 1 -26 0 -48 0 -48 0z"/>
</g>
</svg>
