<?xml version="1.0" standalone="no"?>
<!DOCTYPE svg PUBLIC "-//W3C//DTD SVG 20010904//EN"
 "http://www.w3.org/TR/2001/REC-SVG-20010904/DTD/svg10.dtd">
<svg version="1.0" xmlns="http://www.w3.org/2000/svg"
 width="1000.000000pt" height="1000.000000pt" viewBox="0 0 1000.000000 1000.000000"
 preserveAspectRatio="xMidYMid meet">
<metadata>
Created by potrace 1.16, written by Peter Selinger 2001-2019
</metadata>
<g transform="translate(0.000000,1000.000000) scale(1.000000,-1.000000)"
fill="#000000" stroke="none">
<path d="M740 784 c-4 -1 -10 -5 -14 -8 -9 -9 -17 -27 -20 -45 -1 -2 -1 -5 -1
-6 -1 -5 -2 -13 -4 -29 0 -5 0 -49 0 -97 0 -76 0 -99 2 -116 0 -4 1 -14 2 -20
0 -2 0 -7 1 -10 0 -4 0 -9 1 -11 1 -15 1 -41 1 -72 0 -18 1 -31 3 -39 1 -3 1
-6 1 -7 0 0 1 -1 1 -1 1 0 1 0 1 -1 -1 -1 3 -7 7 -11 13 -13 33 -12 46 1 7 7
12 21 15 37 0 2 0 5 1 6 1 10 2 47 1 72 -1 20 -3 37 -3 42 -1 1 -1 6 -2 10 0
4 0 9 -1 11 -1 15 -2 135 -1 222 0 27 0 35 -2 41 0 1 0 3 -1 4 0 1 0 3 0 4 -2
8 -9 18 -17 21 -4 2 -13 3 -17 2z"/>
<path d="M565 413 c0 0 -6 0 -13 0 -16 -1 -22 -2 -34 -3 -13 0 -20 -1 -33 -1
-7 -1 -17 -1 -22 -2 -6 0 -55 0 -109 0 -54 -1 -100 -1 -102 -1 -2 -1 -7 -3
-11 -5 -13 -6 -20 -18 -20 -31 0 -9 0 -9 3 -16 6 -11 20 -21 32 -23 7 -1 185
-1 209 0 27 2 28 2 59 4 11 0 34 2 52 2 5 1 10 1 12 1 1 1 3 1 5 1 4 1 5 1 12
3 2 0 6 1 9 1 2 1 4 1 5 1 1 1 3 1 5 1 2 1 4 1 6 1 1 1 3 1 5 1 2 1 5 1 6 2 2
1 4 1 4 0 1 0 1 0 1 1 -1 0 -1 1 0 1 1 0 3 2 5 4 9 8 9 23 -1 33 -4 4 -13 10
-20 13 -7 4 -25 9 -39 12 -4 0 -26 1 -26 0z"/>
</g>
</svg>
