<?xml version="1.0" standalone="no"?>
<!DOCTYPE svg PUBLIC "-//W3C//DTD SVG 20010904//EN"
 "http://www.w3.org/TR/2001/REC-SVG-20010904/DTD/svg10.dtd">
<svg version="1.0" xmlns="http://www.w3.org/2000/svg"
 width="1000.000000pt" height="1000.000000pt" viewBox="0 0 1000.000000 1000.000000"
 preserveAspectRatio="xMidYMid meet">
<metadata>
Created by potrace 1.16, written by Peter Selinger 2001-2019
</metadata>
<g transform="translate(0.000000,1000.000000) scale(1.000000,-1.000000)"
fill="#000000" stroke="none">
<path d="M751 881 c-7 -3 -17 -12 -20 -20 -2 -3 -3 -6 -3 -7 -1 -1 -1 -2 -1
-3 -3 -7 -4 -15 -4 -97 0 -46 0 -91 -1 -99 0 -9 0 -34 0 -54 -1 -38 -1 -44 -2
-68 -1 -18 -2 -26 -4 -41 -1 -18 -2 -32 -1 -38 1 -5 5 -15 7 -16 0 -1 1 -2 1
-3 0 -2 15 -12 17 -12 1 0 1 0 1 0 2 -1 5 -1 9 -1 18 -1 34 14 38 35 3 10 3
12 5 30 0 4 0 9 1 12 0 4 1 15 1 28 2 28 2 38 3 65 0 16 0 42 1 57 0 37 1 185
0 192 -2 11 -3 16 -7 23 -7 16 -25 23 -41 17z"/>
<path d="M440 577 c0 0 -8 0 -16 -1 -9 0 -18 0 -20 0 -19 -2 -27 -2 -30 -3 -2
0 -8 0 -14 0 -7 -1 -14 -1 -17 -1 -3 -1 -10 -1 -15 -2 -6 0 -13 0 -16 -1 -7 0
-22 -1 -32 -1 -12 -1 -30 -2 -34 -3 -2 0 -7 0 -12 0 -8 -1 -10 -1 -16 -3 -10
-1 -20 -10 -26 -21 -2 -5 -2 -7 -2 -14 0 -11 0 -12 3 -18 4 -8 16 -18 23 -19
1 0 2 -1 3 -1 1 -1 25 0 32 0 4 1 17 2 32 3 13 0 27 1 33 1 3 1 10 1 16 2 21
1 30 1 48 3 12 0 16 1 30 2 6 0 14 0 18 1 3 0 36 0 73 0 36 1 68 1 71 1 2 1 4
1 4 1 2 0 13 5 16 8 2 1 4 2 5 2 0 0 0 0 0 1 -1 0 0 2 2 3 11 14 7 36 -10 48
-3 2 -10 6 -12 7 -3 0 -17 4 -20 5 -3 0 -117 1 -117 0z"/>
</g>
</svg>
