<?xml version="1.0" standalone="no"?>
<!DOCTYPE svg PUBLIC "-//W3C//DTD SVG 20010904//EN"
 "http://www.w3.org/TR/2001/REC-SVG-20010904/DTD/svg10.dtd">
<svg version="1.0" xmlns="http://www.w3.org/2000/svg"
 width="1000.000000pt" height="1000.000000pt" viewBox="0 0 1000.000000 1000.000000"
 preserveAspectRatio="xMidYMid meet">
<metadata>
Created by potrace 1.16, written by Peter Selinger 2001-2019
</metadata>
<g transform="translate(0.000000,1000.000000) scale(1.000000,-1.000000)"
fill="#000000" stroke="none">
<path d="M871 824 c-14 -6 -23 -18 -27 -35 0 -1 0 -3 -1 -4 -1 -6 -1 -22 -1
-65 0 -30 -1 -46 -1 -46 -2 0 -13 -1 -19 -1 -2 -1 -7 -1 -11 -1 -4 -1 -9 -1
-11 -2 -2 0 -9 0 -16 -1 l-13 0 0 3 c0 2 0 8 0 15 -1 14 -2 42 -2 49 -1 8 -2
13 -6 33 -5 25 -10 34 -20 41 -2 1 -3 2 -3 1 0 0 -1 0 -1 1 -2 1 -9 1 -14 0
-10 -4 -22 -20 -24 -35 -1 -4 -2 -7 -3 -11 -1 -8 -2 -11 -3 -15 -1 -8 0 -95 1
-149 1 -5 1 -22 1 -39 1 -18 1 -37 2 -43 0 -6 0 -17 0 -23 1 -14 2 -29 2 -32
5 -22 28 -36 49 -29 2 1 5 2 5 1 1 0 1 0 1 1 -1 1 3 3 4 2 1 0 1 0 1 1 -1 0 3
4 4 3 1 0 1 0 1 1 -1 0 0 2 1 3 4 4 7 10 8 16 2 6 2 11 1 37 -2 31 -2 37 -2
64 l-1 28 7 0 c4 0 9 0 12 0 8 1 22 2 24 2 4 1 18 2 22 2 4 0 5 0 5 -1 0 -6 1
-19 1 -21 1 -1 1 -5 1 -8 1 -3 1 -7 1 -8 1 -1 1 -4 1 -6 1 -2 1 -6 2 -7 0 -1
0 -4 1 -6 0 -2 0 -4 1 -5 0 -2 0 -4 1 -5 0 -2 1 -9 3 -15 1 -6 2 -12 2 -13 1
-1 2 -6 2 -9 1 -4 2 -8 3 -9 0 -1 0 -1 0 -1 0 0 0 -1 0 -2 1 -2 5 -11 7 -16 3
-8 15 -15 25 -16 8 0 13 2 20 6 2 1 5 2 5 2 1 0 1 0 1 1 -1 0 1 2 3 4 3 3 8
13 9 15 0 1 0 1 0 1 0 0 0 1 0 2 3 12 3 25 0 39 -1 1 -1 4 -1 5 -1 1 -1 4 -1
5 -1 1 -1 3 -2 4 0 1 -1 9 -3 16 -1 7 -2 14 -2 16 -1 2 -2 8 -3 17 0 3 0 7 -1
9 0 4 -1 49 -1 120 -1 34 -1 64 -1 67 -2 15 -8 28 -15 36 -3 4 -11 9 -13 9 0
1 -1 1 -1 1 -2 1 -14 1 -17 0z"/>
</g>
</svg>
