<?xml version="1.0" standalone="no"?>
<!DOCTYPE svg PUBLIC "-//W3C//DTD SVG 20010904//EN"
 "http://www.w3.org/TR/2001/REC-SVG-20010904/DTD/svg10.dtd">
<svg version="1.0" xmlns="http://www.w3.org/2000/svg"
 width="1000.000000pt" height="1000.000000pt" viewBox="0 0 1000.000000 1000.000000"
 preserveAspectRatio="xMidYMid meet">
<metadata>
Created by potrace 1.16, written by Peter Selinger 2001-2019
</metadata>
<g transform="translate(0.000000,1000.000000) scale(1.000000,-1.000000)"
fill="#000000" stroke="none">
<path d="M592 762 c-6 -3 -12 -7 -16 -14 -4 -6 -8 -14 -8 -18 -1 -2 -1 -4 -2
-4 0 -1 0 -34 0 -73 0 -71 -1 -71 -2 -72 -2 0 -4 0 -6 0 -4 -1 -7 -1 -13 -3
-1 0 -4 0 -6 -1 -1 0 -12 -3 -24 -6 -11 -3 -21 -5 -22 -5 -1 -1 -6 -2 -11 -3
-6 -2 -12 -3 -13 -4 -1 0 -3 -1 -5 -1 -1 -1 -4 -1 -5 -2 -1 0 -4 -1 -6 -1 -3
-2 -3 -2 -3 1 0 31 -1 126 -1 129 -1 2 -1 4 -2 6 -1 5 -2 11 -3 13 0 0 0 1 -1
1 0 0 -1 3 -2 5 -5 11 -17 19 -28 19 -7 0 -10 0 -16 -4 -11 -6 -18 -19 -21
-39 -1 -7 -2 -31 -3 -100 -1 -145 -1 -155 2 -185 1 -4 1 -8 2 -9 0 -1 0 -5 1
-7 0 -6 1 -8 1 -13 1 -3 1 -6 1 -7 1 -2 1 -5 1 -6 1 -5 2 -12 3 -20 0 -11 1
-15 2 -19 0 -2 1 -3 1 -4 2 -11 15 -29 26 -35 6 -3 13 -3 19 0 2 1 4 2 4 2 0
0 0 0 0 0 0 0 3 3 7 7 12 13 17 27 16 49 0 11 0 15 -1 24 -1 2 -1 6 -2 8 0 3
0 6 -1 7 0 2 0 4 0 6 -1 1 -1 5 -1 7 -1 5 -2 9 -2 16 -2 11 -3 28 -3 49 -1 15
-1 17 1 18 3 2 55 16 80 23 1 0 8 2 15 3 17 5 23 6 23 4 0 -2 0 -5 1 -20 1
-10 2 -18 2 -31 1 -5 2 -29 3 -47 0 -5 0 -27 0 -49 1 -37 1 -46 3 -55 1 -12 8
-27 13 -33 5 -4 13 -9 18 -9 5 0 14 3 19 6 10 7 20 25 23 43 2 11 0 111 -2
148 -1 4 -1 12 -2 17 0 4 0 11 -1 15 0 3 0 10 -1 16 0 6 0 13 -1 17 0 8 -1 62
-1 140 -1 31 -1 57 -1 58 -1 1 -1 4 -2 5 -1 10 -8 23 -14 29 -8 9 -22 12 -33
8z"/>
</g>
</svg>
