<?xml version="1.0" standalone="no"?>
<!DOCTYPE svg PUBLIC "-//W3C//DTD SVG 20010904//EN"
 "http://www.w3.org/TR/2001/REC-SVG-20010904/DTD/svg10.dtd">
<svg version="1.0" xmlns="http://www.w3.org/2000/svg"
 width="1000.000000pt" height="1000.000000pt" viewBox="0 0 1000.000000 1000.000000"
 preserveAspectRatio="xMidYMid meet">
<metadata>
Created by potrace 1.16, written by Peter Selinger 2001-2019
</metadata>
<g transform="translate(0.000000,1000.000000) scale(1.000000,-1.000000)"
fill="#000000" stroke="none">
<path d="M868 767 c-1 -1 -2 -1 -2 -1 0 2 -8 -3 -11 -6 -4 -5 -8 -12 -10 -20
0 -1 0 -3 -1 -4 0 -2 -1 -5 -1 -11 -2 -9 -3 -34 -4 -94 0 -29 0 -54 0 -58 l0
-7 -7 0 c-4 0 -12 0 -19 0 -13 -1 -21 -2 -23 -3 -1 0 -2 0 -4 -1 -2 0 -2 0 -2
3 0 1 0 3 0 4 -1 1 -1 4 -1 8 -1 4 -1 7 -1 9 -1 1 -1 5 -1 8 -1 4 -1 8 -1 9
-1 1 -1 5 -1 8 -1 4 -1 8 -1 9 -1 1 -1 5 -1 9 -1 3 -1 8 -1 9 -1 3 -2 9 -3 16
0 2 0 6 -1 7 0 1 0 5 -1 9 0 3 0 6 -1 8 0 1 0 4 -1 6 -1 8 -1 11 -3 18 0 1 0
4 -1 5 0 1 -1 5 -2 9 0 3 -1 8 -2 10 -1 10 -2 16 -4 21 -5 9 -13 15 -19 14 -8
-1 -19 -13 -20 -24 -1 -2 -1 -4 -1 -6 -1 -1 -1 -3 -1 -6 -1 -2 -1 -4 -1 -5 -1
-1 -1 -3 -1 -4 -1 -1 -1 -3 -1 -4 -3 -13 -4 -19 -5 -29 -1 -3 -1 -7 -1 -9 -5
-38 -6 -129 -2 -165 0 -3 0 -7 0 -9 1 -3 1 -9 2 -12 1 -10 1 -12 1 -18 1 -8 2
-12 3 -23 0 -5 0 -11 1 -13 0 -2 0 -8 1 -13 0 -5 0 -10 0 -11 1 -1 1 -4 2 -7
0 -3 0 -6 1 -7 0 -2 0 -4 1 -6 0 -3 0 -6 1 -7 2 -17 3 -22 4 -43 0 -8 0 -17 0
-19 1 -5 2 -21 3 -33 0 -4 0 -9 1 -11 0 -3 0 -6 1 -7 0 -3 1 -7 1 -12 1 -1 2
-7 2 -13 4 -29 12 -46 22 -46 3 0 6 3 12 13 4 6 12 23 15 34 1 2 1 4 2 5 0 1
0 2 1 2 0 1 0 1 0 1 0 0 0 1 1 2 0 1 1 5 2 9 1 3 2 7 3 9 2 10 2 10 3 19 0 4
0 8 1 9 0 5 1 26 2 46 0 12 0 27 1 34 1 20 0 59 -2 77 0 2 0 7 -1 12 0 5 0 9
0 9 0 2 0 3 1 3 2 0 4 0 10 2 2 1 5 1 6 2 3 0 12 4 21 8 5 3 10 5 10 5 1 0 2
-5 2 -22 0 -20 0 -32 2 -43 0 -3 0 -7 0 -10 1 -4 1 -8 1 -9 1 -1 1 -6 1 -10 1
-4 1 -9 1 -10 1 -1 1 -6 1 -12 1 -5 1 -11 1 -13 1 -2 1 -8 2 -12 0 -5 0 -10 0
-11 1 -1 1 -7 1 -13 1 -7 1 -13 1 -14 1 -1 1 -6 1 -11 1 -11 2 -17 2 -25 1 -2
1 -8 2 -13 0 -5 0 -10 0 -11 1 -1 1 -6 2 -11 0 -5 0 -10 1 -11 0 -1 0 -6 0
-10 1 -9 2 -12 3 -18 1 -4 1 -5 1 -5 0 -1 0 -1 1 -2 0 -1 0 -1 0 -1 0 -1 0 -1
0 -2 1 0 1 -1 1 -2 1 -2 2 -5 4 -9 4 -12 10 -19 19 -22 6 -2 14 -1 20 4 1 1 3
2 4 1 0 0 0 0 0 1 -1 0 0 1 1 2 2 2 5 8 7 18 5 17 5 20 4 45 -2 23 -2 25 -3
44 0 10 0 22 -1 27 -1 45 -2 81 -1 137 0 11 0 30 0 41 -1 11 -1 36 -2 56 0 19
0 37 0 39 -1 3 -1 11 -1 18 -1 7 -1 16 -2 21 0 5 0 12 0 17 -1 14 -2 25 -3 30
0 2 0 7 0 9 -1 3 -1 6 -1 8 -1 1 -1 5 -1 8 -1 3 -1 7 -2 8 0 1 0 4 0 6 -1 1
-1 5 -2 7 0 2 0 5 -1 7 0 1 0 3 -1 5 -1 6 -8 25 -11 29 -3 4 -7 8 -12 10 -3 1
-12 2 -14 1z"/>
</g>
</svg>
