<?xml version="1.0" standalone="no"?>
<!DOCTYPE svg PUBLIC "-//W3C//DTD SVG 20010904//EN"
 "http://www.w3.org/TR/2001/REC-SVG-20010904/DTD/svg10.dtd">
<svg version="1.0" xmlns="http://www.w3.org/2000/svg"
 width="1000.000000pt" height="1000.000000pt" viewBox="0 0 1000.000000 1000.000000"
 preserveAspectRatio="xMidYMid meet">
<metadata>
Created by potrace 1.16, written by Peter Selinger 2001-2019
</metadata>
<g transform="translate(0.000000,1000.000000) scale(1.000000,-1.000000)"
fill="#000000" stroke="none">
<path d="M737 809 c0 0 -2 0 -3 0 -8 -2 -16 -9 -20 -18 -2 -6 -9 -27 -9 -32
-1 -2 -1 -5 -2 -6 0 -2 0 -5 -1 -9 0 -3 0 -7 -1 -9 -1 -11 -1 -32 -1 -81 0
-50 0 -64 2 -96 0 -5 0 -20 0 -32 1 -12 1 -24 1 -26 3 -17 10 -30 20 -39 5 -5
17 -7 25 -6 7 2 15 7 19 14 4 6 10 23 11 33 1 8 1 41 0 59 -2 43 -2 52 -2 153
0 9 0 18 0 20 -1 2 -1 7 -1 11 -1 9 -2 15 -3 17 0 1 0 3 -1 4 0 1 0 5 -1 8 -1
2 -1 6 -1 7 -2 6 -2 8 -4 12 -3 6 -6 10 -12 13 -3 1 -5 3 -6 3 -3 0 -10 1 -10
0z"/>
</g>
</svg>
