<?xml version="1.0" standalone="no"?>
<!DOCTYPE svg PUBLIC "-//W3C//DTD SVG 20010904//EN"
 "http://www.w3.org/TR/2001/REC-SVG-20010904/DTD/svg10.dtd">
<svg version="1.0" xmlns="http://www.w3.org/2000/svg"
 width="1000.000000pt" height="1000.000000pt" viewBox="0 0 1000.000000 1000.000000"
 preserveAspectRatio="xMidYMid meet">
<metadata>
Created by potrace 1.16, written by Peter Selinger 2001-2019
</metadata>
<g transform="translate(0.000000,1000.000000) scale(1.000000,-1.000000)"
fill="#000000" stroke="none">
<path d="M745 760 c-10 -4 -18 -14 -20 -26 -1 -3 -1 -5 -1 -5 -1 0 -1 -2 -1
-4 -1 -2 -1 -5 -1 -6 -1 -3 -2 -11 -3 -20 0 -3 0 -16 0 -28 0 -13 0 -40 0 -60
0 -98 0 -111 1 -128 1 -2 1 -8 2 -13 0 -5 0 -10 0 -11 1 -1 1 -6 1 -11 1 -5 1
-11 2 -12 0 -4 1 -15 2 -25 0 -9 1 -40 1 -68 1 -23 1 -25 3 -31 2 -7 5 -12 12
-19 8 -9 16 -12 25 -12 8 -1 14 3 21 11 5 6 11 16 12 19 0 1 0 1 0 1 0 1 1 2
1 6 3 10 3 63 1 98 -1 8 -2 21 -2 25 -1 2 -1 7 -2 12 0 4 0 9 -1 11 0 2 0 7
-1 12 0 5 0 10 -1 12 -1 9 -1 35 -1 54 1 104 0 149 -1 158 -1 1 -1 3 -1 6 -1
5 -3 15 -4 17 0 0 0 0 0 1 -1 3 -3 7 -6 14 -6 11 -13 19 -21 21 -6 2 -13 2
-17 1z"/>
</g>
</svg>
