<?xml version="1.0" standalone="no"?>
<!DOCTYPE svg PUBLIC "-//W3C//DTD SVG 20010904//EN"
 "http://www.w3.org/TR/2001/REC-SVG-20010904/DTD/svg10.dtd">
<svg version="1.0" xmlns="http://www.w3.org/2000/svg"
 width="1000.000000pt" height="1000.000000pt" viewBox="0 0 1000.000000 1000.000000"
 preserveAspectRatio="xMidYMid meet">
<metadata>
Created by potrace 1.16, written by Peter Selinger 2001-2019
</metadata>
<g transform="translate(0.000000,1000.000000) scale(1.000000,-1.000000)"
fill="#000000" stroke="none">
<path d="M494 780 c0 0 -2 0 -4 0 -5 -1 -11 -5 -15 -9 -7 -7 -14 -20 -16 -30
-1 -9 0 -107 1 -134 1 -2 1 -11 2 -20 0 -9 0 -18 1 -21 1 -24 1 -59 1 -101 1
-79 2 -163 4 -169 0 -2 1 -7 2 -12 1 -4 2 -9 2 -11 1 -1 1 -4 2 -5 1 -6 4 -15
11 -30 6 -14 20 -20 31 -14 7 4 10 9 15 24 5 14 6 15 6 22 1 2 1 6 2 8 0 2 0
5 0 6 1 2 1 4 3 17 0 4 0 70 -1 88 0 6 0 42 0 79 -1 36 -1 71 -1 78 -3 49 -3
50 -3 67 -1 7 -1 16 -2 20 0 4 0 24 0 46 -1 42 -2 59 -3 64 -1 8 -7 20 -13 27
-3 3 -9 7 -13 8 -4 2 -12 3 -12 2z"/>
</g>
</svg>
