<?xml version="1.0" standalone="no"?>
<!DOCTYPE svg PUBLIC "-//W3C//DTD SVG 20010904//EN"
 "http://www.w3.org/TR/2001/REC-SVG-20010904/DTD/svg10.dtd">
<svg version="1.0" xmlns="http://www.w3.org/2000/svg"
 width="1000.000000pt" height="1000.000000pt" viewBox="0 0 1000.000000 1000.000000"
 preserveAspectRatio="xMidYMid meet">
<metadata>
Created by potrace 1.16, written by Peter Selinger 2001-2019
</metadata>
<g transform="translate(0.000000,1000.000000) scale(1.000000,-1.000000)"
fill="#000000" stroke="none">
<path d="M736 770 c-16 -5 -26 -21 -28 -45 -2 -16 -3 -72 -2 -103 1 -9 1 -34
1 -55 1 -22 1 -42 1 -44 1 -3 1 -9 2 -13 0 -4 0 -9 0 -10 5 -28 6 -70 5 -105
-2 -31 -2 -68 1 -91 0 -3 0 -7 0 -11 2 -17 2 -21 4 -30 2 -11 7 -25 9 -25 1 0
1 -1 1 -1 0 -2 7 -8 12 -11 5 -2 13 -4 17 -3 1 0 4 0 5 0 9 2 20 10 25 19 2 5
2 7 4 14 0 2 0 4 1 5 0 3 0 21 0 26 -1 2 -1 7 -1 11 -1 4 -1 9 -2 11 -2 22 -2
85 0 88 2 1 41 2 71 1 9 0 11 0 18 4 8 3 14 10 18 16 3 7 3 8 4 16 0 11 -3 20
-11 28 -4 4 -12 9 -15 10 -1 0 -1 0 -1 0 -1 0 -2 0 -9 2 -4 1 -63 1 -71 0 -5
-1 -5 0 -6 3 0 6 -1 18 -1 20 -1 1 -1 5 -2 9 0 4 0 8 -1 10 0 1 0 8 -1 14 0 6
0 13 0 16 -1 2 0 4 0 5 1 0 26 1 62 1 19 1 24 1 28 3 2 1 3 1 3 0 0 0 1 1 2 1
2 1 3 2 3 1 1 0 1 0 1 1 0 0 1 1 2 1 5 2 15 15 17 23 1 7 0 16 -3 23 -3 5 -17
20 -17 17 0 0 0 0 -1 1 -1 1 -9 4 -13 5 -5 0 -32 1 -63 0 l-22 0 -1 7 c-1 10
0 42 0 64 1 20 1 33 1 37 -2 6 -2 8 -5 14 -5 9 -16 19 -24 21 -5 1 -13 1 -18
-1z"/>
</g>
</svg>
