<?xml version="1.0" standalone="no"?>
<!DOCTYPE svg PUBLIC "-//W3C//DTD SVG 20010904//EN"
 "http://www.w3.org/TR/2001/REC-SVG-20010904/DTD/svg10.dtd">
<svg version="1.0" xmlns="http://www.w3.org/2000/svg"
 width="1000.000000pt" height="1000.000000pt" viewBox="0 0 1000.000000 1000.000000"
 preserveAspectRatio="xMidYMid meet">
<metadata>
Created by potrace 1.16, written by Peter Selinger 2001-2019
</metadata>
<g transform="translate(0.000000,1000.000000) scale(1.000000,-1.000000)"
fill="#000000" stroke="none">
<path d="M724 811 c-10 -3 -21 -20 -23 -34 -1 -4 -2 -7 -3 -11 -1 -8 -2 -11
-3 -15 -1 -8 0 -95 1 -149 1 -5 1 -22 1 -39 1 -18 1 -37 2 -43 0 -6 0 -17 0
-23 1 -14 2 -29 2 -32 5 -22 28 -36 49 -29 2 1 5 2 5 1 1 0 1 0 1 1 -1 1 3 3
4 2 1 0 1 0 1 1 -1 0 3 4 4 3 1 0 1 0 1 1 -1 0 0 2 1 3 6 6 10 17 9 29 0 8 -1
35 -2 48 l0 8 5 1 c2 1 6 1 7 1 1 1 3 1 4 1 2 1 5 2 11 3 2 0 4 0 5 1 2 0 4 0
6 1 2 0 4 0 5 1 2 0 7 0 13 1 15 0 22 1 25 2 1 0 3 0 4 0 2 1 12 6 15 9 8 8
12 20 10 32 -2 6 -7 15 -13 20 -5 5 -14 10 -19 11 -2 1 -5 1 -6 2 -3 0 -21 0
-25 0 -2 -1 -6 -1 -10 -1 -3 -1 -7 -1 -8 -2 -1 0 -4 0 -6 -1 -2 0 -4 0 -5 -1
-2 0 -4 0 -5 0 -1 -1 -4 -1 -5 -1 -1 -1 -4 -1 -6 -2 l-4 0 0 10 c0 6 0 13 0
15 -1 6 -1 6 7 6 3 1 6 1 7 1 1 1 3 1 5 1 2 1 4 1 6 1 1 1 3 1 5 1 2 1 5 1 6
1 3 1 10 2 27 3 24 1 24 1 33 4 22 8 31 31 21 51 -2 6 -10 14 -16 17 -11 4
-18 5 -42 4 -18 -1 -31 -2 -36 -3 -4 -1 -9 -2 -11 -2 -12 -3 -14 -3 -15 0 0 1
0 6 0 12 -1 13 -1 13 -6 36 -5 25 -10 34 -20 41 -2 1 -3 2 -3 1 0 0 -1 0 -1 1
-2 1 -10 1 -15 -1z"/>
</g>
</svg>
