<?xml version="1.0" standalone="no"?>
<!DOCTYPE svg PUBLIC "-//W3C//DTD SVG 20010904//EN"
 "http://www.w3.org/TR/2001/REC-SVG-20010904/DTD/svg10.dtd">
<svg version="1.0" xmlns="http://www.w3.org/2000/svg"
 width="1000.000000pt" height="1000.000000pt" viewBox="0 0 1000.000000 1000.000000"
 preserveAspectRatio="xMidYMid meet">
<metadata>
Created by potrace 1.16, written by Peter Selinger 2001-2019
</metadata>
<g transform="translate(0.000000,1000.000000) scale(1.000000,-1.000000)"
fill="#000000" stroke="none">
<path d="M396 758 c-9 -3 -24 -22 -27 -35 -2 -8 -3 -13 -5 -20 0 -3 0 -5 -1
-6 0 -3 -1 -9 -1 -15 -1 -5 -1 -46 -1 -57 1 -13 2 -33 2 -37 1 -2 1 -10 2 -17
0 -7 0 -15 1 -17 0 -2 0 -10 1 -17 0 -7 0 -15 1 -17 0 -7 1 -33 1 -44 1 -7 1
-21 1 -32 2 -39 2 -57 3 -71 1 -7 2 -23 3 -33 1 -31 5 -43 19 -57 13 -12 29
-11 42 3 5 6 11 16 13 21 0 1 0 4 1 5 1 5 0 48 -2 66 0 2 0 10 -1 18 0 7 0 16
0 18 -1 3 0 5 0 6 1 0 5 0 9 0 3 1 8 1 9 2 2 0 4 0 6 0 9 2 29 3 68 2 32 -1
41 1 56 11 8 5 13 11 16 16 3 6 3 19 1 24 -4 6 -8 10 -16 15 -13 8 -19 9 -51
10 -43 1 -71 0 -88 -2 -7 -2 -10 -2 -11 -3 -2 0 -2 1 -2 3 0 4 -1 10 -2 27 0
7 0 15 0 18 l0 6 11 4 c6 2 12 4 14 4 1 1 6 2 11 3 5 2 10 3 10 3 0 0 2 0 5 1
9 2 10 2 15 3 2 0 5 0 7 1 1 0 12 0 25 1 26 0 30 0 36 2 2 1 5 2 5 1 1 0 1 0
1 0 -1 1 1 3 4 4 14 10 19 30 12 46 -6 12 -19 20 -36 22 -6 1 -35 1 -43 1 -6
-1 -17 -2 -19 -3 -2 0 -4 0 -6 0 -2 -1 -5 -1 -6 -2 -1 0 -4 0 -5 0 -1 -1 -4
-1 -5 -1 -1 -1 -4 -1 -5 -2 -2 0 -6 -1 -9 -2 -4 0 -7 -1 -8 -1 -1 -1 -4 -1 -6
-2 -2 -1 -5 -1 -5 -1 0 0 -2 -1 -4 -2 -2 0 -4 -1 -4 -1 -1 0 -1 13 -1 28 0 16
0 30 0 32 -1 1 -1 5 -1 9 -1 4 -1 10 -2 14 0 9 -1 13 -3 23 -4 14 -8 20 -16
24 -5 2 -13 2 -19 0z"/>
</g>
</svg>
