<?xml version="1.0" standalone="no"?>
<!DOCTYPE svg PUBLIC "-//W3C//DTD SVG 20010904//EN"
 "http://www.w3.org/TR/2001/REC-SVG-20010904/DTD/svg10.dtd">
<svg version="1.0" xmlns="http://www.w3.org/2000/svg"
 width="1000.000000pt" height="1000.000000pt" viewBox="0 0 1000.000000 1000.000000"
 preserveAspectRatio="xMidYMid meet">
<metadata>
Created by potrace 1.16, written by Peter Selinger 2001-2019
</metadata>
<g transform="translate(0.000000,1000.000000) scale(1.000000,-1.000000)"
fill="#000000" stroke="none">
<path d="M875 793 c-15 -4 -25 -17 -28 -34 0 -3 0 -34 0 -68 0 -59 0 -62 -2
-62 -6 2 -29 3 -43 1 -11 0 -16 -1 -19 -2 -2 0 -4 0 -6 -1 l-3 0 0 11 c1 6 1
15 2 19 0 3 0 10 0 15 1 16 2 27 3 30 2 20 2 34 1 41 -1 2 -1 4 -1 4 0 0 0 0
0 1 -1 3 -5 12 -6 12 -1 0 -1 1 -1 1 0 3 -13 12 -19 14 -2 0 -15 0 -18 0 -15
-4 -27 -21 -29 -40 -3 -19 -4 -28 -4 -42 -1 -4 -1 -11 -1 -15 -1 -4 -1 -11 -1
-16 -2 -25 -2 -29 -3 -34 0 -3 0 -10 -1 -15 0 -6 0 -12 -1 -14 0 -3 0 -61 -1
-129 0 -68 0 -140 0 -158 0 -35 0 -40 2 -51 3 -10 8 -20 14 -26 12 -13 28 -14
42 -3 4 3 10 12 13 19 2 6 2 6 2 11 2 9 2 14 3 44 0 36 1 97 2 98 0 0 2 0 6 1
16 1 22 1 26 1 2 1 7 1 11 1 5 1 10 2 16 3 1 0 4 0 7 0 3 1 5 1 10 2 1 1 2 0
2 -2 0 -3 1 -22 1 -30 2 -24 3 -94 2 -141 0 -17 0 -24 1 -32 3 -14 14 -27 25
-30 11 -2 26 3 34 13 6 7 13 22 14 33 2 9 2 31 2 73 0 58 -1 97 -5 129 0 2 0
6 -1 10 0 4 0 8 -1 10 -1 19 -2 90 -1 123 2 26 2 192 1 197 -1 2 -1 4 -1 5 0
0 -1 1 -1 1 -1 0 -1 0 -1 1 0 1 -1 5 -2 5 -1 0 -1 1 -1 1 0 2 -8 10 -13 12 -2
1 -6 3 -8 4 -5 1 -15 1 -20 -1z m-38 -239 c3 -1 5 -2 7 -2 0 0 1 -3 0 -8 0 -5
0 -20 0 -33 l0 -24 -7 -1 c-7 0 -10 0 -20 -2 -2 0 -5 0 -18 -1 -3 -1 -9 -1
-14 -2 -6 0 -11 0 -12 -1 -1 0 -2 1 -2 1 0 1 -1 16 -1 34 l1 33 2 1 c2 1 5 1
6 1 2 1 5 1 6 1 2 1 4 1 6 2 1 0 5 0 8 1 3 0 6 0 6 0 0 1 30 0 32 0z"/>
</g>
</svg>
