<?xml version="1.0" standalone="no"?>
<!DOCTYPE svg PUBLIC "-//W3C//DTD SVG 20010904//EN"
 "http://www.w3.org/TR/2001/REC-SVG-20010904/DTD/svg10.dtd">
<svg version="1.0" xmlns="http://www.w3.org/2000/svg"
 width="1000.000000pt" height="1000.000000pt" viewBox="0 0 1000.000000 1000.000000"
 preserveAspectRatio="xMidYMid meet">
<metadata>
Created by potrace 1.16, written by Peter Selinger 2001-2019
</metadata>
<g transform="translate(0.000000,1000.000000) scale(1.000000,-1.000000)"
fill="#000000" stroke="none">
<path d="M858 819 c-11 -4 -20 -17 -22 -32 -1 -2 -1 -4 -1 -5 -5 -21 -5 -24
-7 -44 0 -7 -1 -12 -1 -12 -1 -1 -4 -1 -6 -1 -7 0 -21 -2 -25 -2 -8 -2 -10 -2
-12 -2 -12 -3 -14 -3 -15 0 0 1 0 6 0 12 -1 13 -1 13 -6 36 -5 25 -10 34 -20
41 -2 1 -3 2 -3 1 0 0 -1 0 -1 1 -2 1 -9 1 -14 0 -10 -4 -22 -20 -24 -35 -1
-4 -2 -7 -3 -11 -1 -8 -2 -11 -3 -15 -1 -8 0 -95 1 -149 1 -5 1 -22 1 -39 1
-18 1 -37 2 -43 0 -6 0 -17 0 -23 1 -14 2 -29 2 -32 5 -22 28 -36 49 -29 2 1
5 2 5 1 1 0 1 0 1 1 -1 1 3 3 4 2 1 0 1 0 1 1 -1 0 3 4 4 3 1 0 1 0 1 1 -1 0
0 2 1 3 6 6 10 17 9 29 0 8 -1 35 -2 48 l0 8 5 1 c2 1 6 1 7 1 1 1 3 1 4 1 2
1 5 2 11 3 2 0 4 0 5 1 2 0 4 0 6 1 2 0 4 0 5 1 2 0 6 0 10 1 5 0 7 0 7 -1 0
-1 0 -2 0 -3 1 -2 1 -5 2 -8 0 -3 0 -6 1 -7 0 -1 0 -5 1 -8 0 -3 0 -6 1 -6 0
-1 2 -23 2 -45 1 -26 2 -30 4 -37 6 -17 18 -27 33 -27 16 0 33 16 36 36 3 15
3 66 1 79 -1 1 -1 4 -1 6 -1 3 -1 7 -2 10 0 2 0 5 -1 7 0 1 0 4 -1 6 0 2 0 5
-1 6 0 1 0 5 -1 10 0 4 0 9 -1 11 0 1 0 7 -1 13 0 6 0 13 -1 16 0 8 -1 55 -1
98 -1 23 -1 43 -1 46 -1 2 -1 6 -1 9 -1 2 -1 6 -2 7 0 1 0 4 -1 6 0 2 -1 6 -1
8 -1 2 -1 6 -2 7 -1 10 -3 14 -5 19 -4 7 -11 15 -16 17 -5 2 -13 2 -17 1z
m-30 -181 c0 -6 0 -13 0 -14 1 -4 0 -5 -7 -5 -13 -2 -17 -2 -23 -3 -1 -1 -3
-1 -5 -1 -2 -1 -5 -1 -6 -1 -3 -1 -7 -2 -11 -3 l-4 0 0 10 c0 6 0 13 0 15 -1
6 -1 6 7 6 3 1 6 1 7 1 1 1 3 1 5 1 4 1 7 2 12 3 1 0 5 0 8 1 2 0 5 0 5 0 0 0
3 1 6 1 l6 0 0 -11z"/>
</g>
</svg>
