<?xml version="1.0" standalone="no"?>
<!DOCTYPE svg PUBLIC "-//W3C//DTD SVG 20010904//EN"
 "http://www.w3.org/TR/2001/REC-SVG-20010904/DTD/svg10.dtd">
<svg version="1.0" xmlns="http://www.w3.org/2000/svg"
 width="1000.000000pt" height="1000.000000pt" viewBox="0 0 1000.000000 1000.000000"
 preserveAspectRatio="xMidYMid meet">
<metadata>
Created by potrace 1.16, written by Peter Selinger 2001-2019
</metadata>
<g transform="translate(0.000000,1000.000000) scale(1.000000,-1.000000)"
fill="#000000" stroke="none">
<path d="M396 758 c-9 -3 -24 -22 -27 -35 -2 -8 -3 -13 -5 -20 0 -3 0 -5 -1
-6 0 -3 -1 -9 -1 -15 -1 -5 -1 -46 -1 -57 1 -13 2 -33 2 -37 1 -2 1 -10 2 -17
0 -7 0 -15 1 -17 0 -2 0 -10 1 -17 0 -7 0 -15 1 -17 0 -7 1 -33 1 -44 1 -7 1
-21 1 -32 2 -39 2 -57 3 -71 1 -7 2 -23 3 -33 1 -31 5 -43 19 -57 13 -12 29
-11 42 3 5 6 11 16 13 21 0 1 0 4 1 5 1 5 0 48 -2 66 0 2 0 10 -1 18 0 7 0 16
0 18 -1 3 0 5 0 6 1 0 5 0 9 0 3 1 8 1 9 2 2 0 4 0 6 0 12 3 73 3 75 1 1 -1 0
-47 0 -84 -1 -14 -1 -26 0 -28 6 -18 7 -20 13 -26 12 -11 30 -11 43 -1 5 4 14
18 16 24 0 1 0 1 0 2 0 0 1 1 1 6 1 2 1 5 2 7 1 5 1 39 1 109 0 66 0 86 -1
112 -1 15 -2 28 -3 32 0 2 0 7 -1 12 0 5 0 10 0 12 -1 1 -1 6 -1 10 -1 4 -1 9
-2 10 0 2 0 5 -1 19 -1 2 -1 7 -2 12 0 4 0 10 -1 12 0 7 -1 27 -2 42 0 21 -2
27 -8 37 -4 6 -8 10 -15 14 -12 5 -27 3 -37 -6 -7 -6 -13 -16 -15 -26 -1 -4
-1 -32 0 -47 2 -20 2 -29 2 -30 1 -1 -1 -2 -14 -2 -6 -1 -12 -1 -13 -1 -1 -1
-5 -1 -7 -1 -2 -1 -5 -1 -7 -1 -1 -1 -3 -1 -5 -1 -2 -1 -5 -1 -6 -1 -3 -1 -6
-2 -10 -3 -2 0 -6 -1 -9 -2 -4 -1 -7 -1 -8 -1 -1 -1 -4 -1 -6 -2 -2 -1 -5 -1
-5 -1 0 0 -2 -1 -4 -2 -2 0 -4 -1 -4 -1 -1 0 -1 13 -1 28 0 16 0 30 0 32 -1 1
-1 5 -1 9 -1 4 -1 10 -2 14 0 9 -1 13 -3 23 -4 14 -8 20 -16 24 -5 2 -13 2
-19 0z m148 -194 c0 -3 0 -7 0 -9 1 -2 1 -9 1 -16 1 -8 1 -16 2 -18 0 -10 0
-20 0 -21 -1 0 -4 -1 -9 0 -19 1 -56 0 -72 -2 -7 0 -17 -2 -19 -3 -2 0 -2 1
-2 3 0 4 -1 10 -2 27 0 7 0 15 0 18 l0 6 11 4 c6 2 12 4 14 4 1 1 5 2 9 3 4 1
9 2 10 2 1 1 5 1 7 2 3 1 7 1 9 2 2 0 4 0 5 1 1 0 5 0 8 1 3 0 6 0 6 0 0 1 5
1 11 1 l11 0 0 -5z"/>
</g>
</svg>
