<?xml version="1.0" standalone="no"?>
<!DOCTYPE svg PUBLIC "-//W3C//DTD SVG 20010904//EN"
 "http://www.w3.org/TR/2001/REC-SVG-20010904/DTD/svg10.dtd">
<svg version="1.0" xmlns="http://www.w3.org/2000/svg"
 width="1000.000000pt" height="1000.000000pt" viewBox="0 0 1000.000000 1000.000000"
 preserveAspectRatio="xMidYMid meet">
<metadata>
Created by potrace 1.16, written by Peter Selinger 2001-2019
</metadata>
<g transform="translate(0.000000,1000.000000) scale(1.000000,-1.000000)"
fill="#000000" stroke="none">
<path d="M783 815 c-2 -1 -6 -4 -7 -6 -4 -4 -9 -13 -10 -17 0 -1 0 -1 0 -1 0
0 -2 -6 -2 -11 -1 -1 -1 -4 -1 -5 -1 -1 -1 -4 -2 -6 0 -3 0 -6 0 -7 -2 -13 -3
-29 -3 -65 0 -24 0 -32 -1 -32 -1 0 -4 0 -6 -1 -3 0 -8 0 -10 0 -4 -1 -6 -1
-13 -3 -1 0 -4 0 -6 -1 -6 -1 -18 -5 -23 -8 -5 -3 -11 -9 -13 -14 -1 -3 -3
-10 -2 -13 1 -7 1 -10 4 -14 3 -5 7 -10 13 -13 3 -3 13 -7 17 -7 1 -1 4 -1 5
-1 8 -2 16 -3 29 -2 6 0 7 0 8 -1 0 -1 0 -7 0 -13 1 -6 1 -12 1 -13 1 -1 1 -5
1 -8 1 -7 2 -11 3 -17 1 -8 1 -10 2 -12 0 -1 0 -4 0 -5 1 -5 2 -8 2 -10 1 -1
1 -3 1 -5 1 -2 1 -5 2 -6 0 -1 0 -4 1 -6 0 -2 0 -4 1 -5 0 -1 0 -4 1 -6 0 -3
2 -9 4 -14 1 -6 3 -12 4 -14 1 -5 1 -6 1 -6 0 -1 0 -1 0 -2 2 -5 13 -24 17
-26 6 -5 15 -3 22 4 9 10 13 19 16 37 1 1 1 4 1 5 1 1 1 4 2 6 1 6 0 60 -1 69
-1 1 -1 5 -2 9 0 3 0 7 -1 8 -2 22 -3 35 -3 74 -1 40 -2 75 -3 81 -1 1 -1 6
-2 10 0 6 0 8 -2 20 0 4 -1 10 -1 15 -1 1 -1 5 -2 8 0 3 0 6 -1 7 0 2 0 4 -1
6 -2 14 -7 27 -14 33 -7 6 -18 8 -26 4z"/>
</g>
</svg>
