<?xml version="1.0" standalone="no"?>
<!DOCTYPE svg PUBLIC "-//W3C//DTD SVG 20010904//EN"
 "http://www.w3.org/TR/2001/REC-SVG-20010904/DTD/svg10.dtd">
<svg version="1.0" xmlns="http://www.w3.org/2000/svg"
 width="1000.000000pt" height="1000.000000pt" viewBox="0 0 1000.000000 1000.000000"
 preserveAspectRatio="xMidYMid meet">
<metadata>
Created by potrace 1.16, written by Peter Selinger 2001-2019
</metadata>
<g transform="translate(0.000000,1000.000000) scale(1.000000,-1.000000)"
fill="#000000" stroke="none">
<path d="M544 740 c-13 -3 -22 -15 -25 -29 -2 -8 -2 -20 1 -31 0 -1 0 -4 0 -5
1 -1 1 -5 2 -8 0 -3 0 -6 0 -6 1 0 1 -3 1 -6 1 -3 1 -7 1 -8 1 -2 3 -15 4 -23
0 -6 0 -54 0 -55 -1 0 -10 0 -21 -1 -11 0 -21 0 -22 0 -2 -1 -6 -1 -9 -1 -4
-1 -7 -1 -9 -1 -1 -1 -4 -1 -7 -1 -2 -1 -5 -1 -6 -1 -1 -1 -4 -1 -7 -2 -3 0
-6 0 -7 -1 -2 0 -5 0 -7 -1 -2 0 -6 0 -7 -1 -2 0 -6 0 -8 -1 -2 0 -6 0 -8 0
-13 -2 -20 -5 -27 -12 -15 -15 -15 -38 0 -53 12 -12 24 -14 57 -8 1 0 4 0 7 0
2 1 5 1 6 1 1 1 4 1 7 1 3 1 6 1 7 2 2 0 5 0 7 1 2 0 6 0 7 1 10 1 44 2 45 1
1 0 1 -9 1 -20 1 -18 1 -24 3 -48 0 -7 0 -20 1 -31 0 -23 1 -37 2 -42 2 -20 3
-23 10 -43 9 -26 16 -37 23 -39 11 -1 18 9 29 41 3 11 6 21 7 22 0 1 0 3 1 4
0 1 0 4 1 6 0 3 0 6 1 6 1 2 1 22 1 42 0 20 0 31 -2 64 0 13 -1 81 0 136 0 25
0 41 -1 48 -1 1 -1 5 -1 8 -1 7 -2 11 -3 15 0 1 0 4 -1 7 0 3 -1 6 -4 18 0 1
0 3 0 4 -1 4 -2 6 -3 10 -3 20 -11 33 -23 39 -8 3 -17 4 -24 1z"/>
</g>
</svg>
