<?xml version="1.0" standalone="no"?>
<!DOCTYPE svg PUBLIC "-//W3C//DTD SVG 20010904//EN"
 "http://www.w3.org/TR/2001/REC-SVG-20010904/DTD/svg10.dtd">
<svg version="1.0" xmlns="http://www.w3.org/2000/svg"
 width="1000.000000pt" height="1000.000000pt" viewBox="0 0 1000.000000 1000.000000"
 preserveAspectRatio="xMidYMid meet">
<metadata>
Created by potrace 1.16, written by Peter Selinger 2001-2019
</metadata>
<g transform="translate(0.000000,1000.000000) scale(1.000000,-1.000000)"
fill="#000000" stroke="none">
<path d="M813 763 c-6 -1 -13 -6 -17 -9 -4 -6 -10 -15 -11 -19 -1 -7 -1 -11
-1 -27 0 -11 0 -26 0 -34 1 -9 1 -22 2 -29 0 -7 0 -19 1 -25 0 -7 0 -25 1 -39
0 -15 0 -28 0 -29 1 0 0 -1 -2 -1 -1 0 -9 0 -16 0 -25 -2 -26 -2 -40 -2 -7 0
-16 -1 -19 -2 -19 -5 -31 -19 -30 -36 0 -5 0 -6 2 -11 2 -6 4 -10 10 -15 5 -4
12 -9 16 -10 1 0 2 0 2 0 0 0 1 0 6 -1 3 -1 28 -1 39 0 26 1 36 1 36 1 1 0 1
-5 1 -10 1 -5 1 -11 1 -13 1 -2 1 -8 1 -12 1 -5 1 -12 2 -15 0 -3 0 -8 0 -10
2 -19 2 -25 3 -32 0 -11 0 -86 0 -92 -1 -10 -2 -23 -3 -26 -1 -13 -1 -17 -1
-19 -1 -1 -1 -5 -1 -9 -1 -4 -1 -8 -2 -9 0 -6 0 -22 1 -26 0 -6 1 -7 1 -7 0 0
0 -1 0 -2 1 -4 7 -14 11 -18 7 -7 13 -9 23 -9 6 0 8 0 14 2 3 2 6 3 6 3 1 0 1
0 1 0 0 1 1 3 3 5 3 3 9 14 9 15 0 1 1 3 2 5 1 4 1 5 3 12 0 1 1 4 1 7 0 2 1
6 1 9 1 2 1 6 1 8 1 1 1 6 2 10 0 3 0 7 1 8 0 1 0 6 1 11 0 5 0 10 1 11 2 14
2 101 0 134 -2 17 -2 23 -2 26 -1 4 -1 7 -3 26 0 4 0 9 -1 12 0 2 0 8 -1 13 0
5 0 11 -1 13 0 2 0 9 -1 16 0 7 0 16 -1 20 0 12 -1 34 -2 61 0 14 0 29 0 33
-1 4 -1 16 -2 27 0 11 0 22 -1 25 0 3 0 16 0 29 -1 13 -1 24 -1 25 -3 10 -7
17 -13 23 -4 3 -10 7 -12 8 -1 0 -1 0 -1 0 -2 2 -14 2 -20 0z"/>
</g>
</svg>
