<?xml version="1.0" standalone="no"?>
<!DOCTYPE svg PUBLIC "-//W3C//DTD SVG 20010904//EN"
 "http://www.w3.org/TR/2001/REC-SVG-20010904/DTD/svg10.dtd">
<svg version="1.0" xmlns="http://www.w3.org/2000/svg"
 width="1000.000000pt" height="1000.000000pt" viewBox="0 0 1000.000000 1000.000000"
 preserveAspectRatio="xMidYMid meet">
<metadata>
Created by potrace 1.16, written by Peter Selinger 2001-2019
</metadata>
<g transform="translate(0.000000,1000.000000) scale(1.000000,-1.000000)"
fill="#000000" stroke="none">
<path d="M859 806 c-5 -3 -10 -9 -14 -17 -4 -7 -8 -20 -9 -26 -1 -2 -1 -5 -1
-5 -1 0 -1 -2 -1 -5 -1 -2 -1 -5 -2 -6 -1 -6 -2 -14 -3 -26 -1 -16 0 -77 1
-92 1 -2 1 -7 2 -11 0 -4 0 -9 1 -11 0 -2 0 -7 0 -11 1 -4 1 -9 1 -11 1 -2 1
-6 1 -9 1 -4 1 -7 1 -9 1 -1 1 -5 1 -8 1 -4 1 -8 2 -9 0 -2 0 -6 0 -8 1 -3 1
-7 1 -8 1 -1 2 -8 3 -14 0 -6 1 -12 1 -13 1 -1 1 -4 1 -7 1 -3 1 -8 2 -11 0
-2 0 -8 0 -12 0 -10 0 -34 0 -38 3 -17 22 -26 37 -19 8 4 12 9 16 20 4 12 4
13 5 31 0 9 0 17 0 18 2 10 3 43 2 91 -1 14 -1 40 -2 57 0 16 0 34 0 40 -1 5
-1 15 -2 21 0 16 -1 24 -1 28 -1 5 -2 10 -3 16 -1 17 -6 38 -11 48 -7 16 -18
21 -29 16z"/>
<path d="M773 785 c-5 -2 -14 -7 -17 -11 -11 -12 -16 -30 -18 -68 -2 -20 -3
-35 -3 -42 l0 -4 -10 0 c-12 1 -20 1 -24 0 -1 0 -4 0 -5 -1 -8 -1 -19 -11 -23
-19 -4 -10 -4 -19 -1 -29 1 -4 3 -7 3 -7 1 0 1 0 1 -1 0 -3 13 -14 17 -15 1 0
1 0 2 0 0 0 0 0 1 0 1 -1 1 -1 1 -1 1 -1 23 -3 35 -3 2 0 2 -1 2 -14 0 -15 1
-47 2 -58 2 -28 15 -48 34 -51 16 -2 30 7 37 25 4 13 5 19 4 56 -2 33 -1 89 0
126 1 10 2 29 3 33 4 44 1 61 -10 74 -3 4 -11 9 -15 10 -5 1 -12 1 -16 0z"/>
</g>
</svg>
