<?xml version="1.0" standalone="no"?>
<!DOCTYPE svg PUBLIC "-//W3C//DTD SVG 20010904//EN"
 "http://www.w3.org/TR/2001/REC-SVG-20010904/DTD/svg10.dtd">
<svg version="1.0" xmlns="http://www.w3.org/2000/svg"
 width="1000.000000pt" height="1000.000000pt" viewBox="0 0 1000.000000 1000.000000"
 preserveAspectRatio="xMidYMid meet">
<metadata>
Created by potrace 1.16, written by Peter Selinger 2001-2019
</metadata>
<g transform="translate(0.000000,1000.000000) scale(1.000000,-1.000000)"
fill="#000000" stroke="none">
<path d="M577 739 c-1 -1 -2 -1 -2 -1 0 1 -2 0 -5 -2 -10 -5 -18 -15 -20 -28
-1 -4 -2 -27 -2 -84 0 -132 0 -144 0 -151 1 -4 1 -10 2 -14 0 -4 0 -8 0 -11 2
-19 3 -44 2 -95 0 -15 0 -21 1 -28 1 -1 1 -4 1 -7 1 -3 1 -7 2 -10 1 -9 1 -11
4 -19 4 -9 6 -13 8 -16 3 -3 8 -6 8 -5 0 0 1 0 1 -1 2 -2 11 0 15 2 4 2 6 5
10 11 7 11 8 13 13 26 8 21 10 27 11 32 0 3 0 7 1 8 1 12 2 70 1 91 -1 5 -1
13 -2 17 0 4 0 9 0 12 -2 13 -2 23 -2 46 1 146 0 183 -1 191 -4 15 -13 28 -25
34 -6 3 -18 4 -21 2z"/>
<path d="M480 686 c-13 -3 -23 -14 -27 -29 -1 -4 -1 -10 0 -24 0 -24 1 -60 0
-66 l0 -4 -10 0 c-16 0 -40 -2 -51 -5 -1 0 -5 0 -9 -1 -3 0 -7 0 -8 -1 -2 0
-4 0 -5 -1 -10 -1 -20 -10 -26 -21 -2 -5 -2 -7 -2 -14 0 -8 0 -13 1 -14 0 0 0
0 0 -1 1 -1 4 -7 5 -9 6 -6 15 -13 20 -13 1 0 2 -1 3 -1 1 -1 23 -1 27 0 1 1
6 1 16 3 2 0 6 0 7 1 1 0 9 0 16 1 l13 0 0 -34 c-1 -19 -1 -37 -1 -39 -1 -6
-2 -17 -3 -19 0 -4 0 -64 0 -67 1 -1 1 -3 1 -4 1 -3 5 -10 7 -13 5 -6 16 -7
25 -3 6 3 14 10 17 16 3 4 19 35 19 36 0 0 1 4 2 8 6 18 8 30 8 75 1 55 2 82
2 88 1 3 1 11 2 19 1 30 0 88 -2 104 -2 7 -4 14 -6 15 -1 1 -1 1 -1 1 1 0 -3
5 -6 8 -9 8 -23 12 -34 8z"/>
</g>
</svg>
