<?xml version="1.0" standalone="no"?>
<!DOCTYPE svg PUBLIC "-//W3C//DTD SVG 20010904//EN"
 "http://www.w3.org/TR/2001/REC-SVG-20010904/DTD/svg10.dtd">
<svg version="1.0" xmlns="http://www.w3.org/2000/svg"
 width="1000.000000pt" height="1000.000000pt" viewBox="0 0 1000.000000 1000.000000"
 preserveAspectRatio="xMidYMid meet">
<metadata>
Created by potrace 1.16, written by Peter Selinger 2001-2019
</metadata>
<g transform="translate(0.000000,1000.000000) scale(1.000000,-1.000000)"
fill="#000000" stroke="none">
<path d="M895 761 c0 0 -2 0 -4 0 -8 -2 -17 -9 -24 -18 -2 -4 -9 -19 -8 -19 1
0 1 -1 0 -2 -1 -2 -2 -8 -3 -16 0 -8 -1 -16 -1 -20 -1 -4 -2 -19 -2 -26 -1 -2
-1 -8 -1 -12 -1 -5 -1 -12 -1 -16 -1 -4 -1 -11 -2 -15 0 -5 0 -13 0 -17 -2
-21 -2 -25 -3 -34 0 -6 0 -13 0 -16 -2 -23 -2 -35 -2 -72 0 -37 0 -50 1 -75 1
-10 2 -26 2 -29 1 -2 1 -8 2 -14 0 -11 0 -13 1 -28 1 -10 2 -19 3 -26 0 -3 0
-9 0 -12 2 -18 3 -25 9 -33 5 -9 14 -16 23 -18 3 0 12 0 16 0 3 1 13 5 13 7 1
1 2 1 2 0 1 0 1 0 1 0 0 1 1 3 3 5 5 6 10 18 10 28 0 4 -1 21 -1 28 -1 4 -2
16 -3 26 -1 21 -1 25 -2 31 0 3 0 8 -1 11 0 11 -1 24 -2 29 -2 37 -2 101 0
136 1 2 1 9 1 16 1 6 1 14 1 18 1 4 1 11 2 17 0 9 0 14 2 32 1 21 2 34 2 41 1
2 1 8 2 13 0 5 0 10 0 11 1 1 1 5 2 8 0 3 1 7 1 10 2 9 1 20 -2 27 0 1 0 2 0
2 -2 7 -14 19 -21 21 -1 0 -1 0 -1 0 -1 1 -15 2 -15 1z"/>
<path d="M784 698 c-9 -5 -16 -15 -19 -31 -1 -5 -3 -12 -4 -16 -4 -14 -5 -24
-6 -60 0 -11 0 -20 0 -21 0 0 -3 0 -5 0 -3 -1 -7 -1 -8 -2 -12 -1 -21 -2 -33
-2 -9 -1 -14 -2 -16 -3 -1 0 -2 -1 -3 -1 -1 0 -2 0 -2 -1 0 -1 -1 -1 -1 0 -2
1 -13 -11 -15 -16 -10 -20 -2 -42 17 -51 9 -5 16 -5 38 -4 4 1 10 1 12 1 1 1
5 1 9 1 l7 1 0 -33 c0 -30 0 -47 1 -54 1 -1 1 -4 1 -6 1 -4 1 -6 2 -11 3 -12
10 -27 15 -33 14 -16 36 -8 48 16 7 14 9 28 9 50 0 18 0 89 0 148 0 46 0 58
-2 68 -1 6 -7 35 -8 39 -3 10 -9 17 -15 21 -5 2 -16 2 -22 0z"/>
</g>
</svg>
