<?xml version="1.0" standalone="no"?>
<!DOCTYPE svg PUBLIC "-//W3C//DTD SVG 20010904//EN"
 "http://www.w3.org/TR/2001/REC-SVG-20010904/DTD/svg10.dtd">
<svg version="1.0" xmlns="http://www.w3.org/2000/svg"
 width="1000.000000pt" height="1000.000000pt" viewBox="0 0 1000.000000 1000.000000"
 preserveAspectRatio="xMidYMid meet">
<metadata>
Created by potrace 1.16, written by Peter Selinger 2001-2019
</metadata>
<g transform="translate(0.000000,1000.000000) scale(1.000000,-1.000000)"
fill="#000000" stroke="none">
<path d="M548 711 c-7 -3 -13 -6 -17 -11 -4 -4 -10 -14 -10 -19 -1 -1 -1 -2
-1 -3 -2 -2 -2 -14 -2 -42 0 -18 -1 -30 -2 -31 0 0 -10 -1 -21 -1 -12 -1 -23
-1 -24 -1 -2 -1 -6 -1 -9 -1 -4 -1 -8 -1 -9 -1 -3 -1 -9 -2 -15 -3 -3 0 -7 0
-8 -1 -1 0 -5 0 -8 -1 -4 0 -7 0 -8 -1 -2 0 -4 0 -6 -1 -7 -1 -17 -5 -23 -10
-1 -1 -3 -4 -5 -6 -14 -18 -7 -43 13 -53 7 -4 17 -6 23 -5 6 0 17 1 20 1 1 1
4 1 8 2 4 0 7 0 8 1 1 0 4 0 7 0 3 1 6 1 7 2 5 0 19 1 31 1 l12 1 -1 -5 c0
-11 -1 -20 -1 -21 -1 0 -11 -1 -23 -1 -21 0 -41 0 -55 -2 -13 -1 -18 -1 -20
-2 -1 0 -4 0 -5 -1 -8 -1 -17 -7 -22 -13 -10 -11 -12 -30 -3 -43 5 -8 13 -14
22 -16 5 -2 21 -2 36 0 2 0 15 0 28 1 13 0 27 0 32 0 5 0 9 0 9 0 0 -1 1 -5 1
-21 1 -8 1 -15 2 -17 0 -3 0 -14 2 -34 0 -16 8 -43 16 -54 10 -16 25 -19 37
-7 4 3 13 20 15 27 2 3 2 4 2 4 0 0 0 1 0 2 1 1 1 4 2 6 3 10 3 15 3 26 0 7
-1 27 -1 35 -3 25 -3 99 -1 123 1 2 1 7 1 12 1 5 1 10 1 11 1 1 1 5 1 9 1 5 1
9 1 10 1 1 1 4 1 8 1 4 1 8 2 10 2 16 2 34 2 60 1 34 -1 44 -7 56 -8 16 -24
24 -38 20z"/>
</g>
</svg>
