<?xml version="1.0" standalone="no"?>
<!DOCTYPE svg PUBLIC "-//W3C//DTD SVG 20010904//EN"
 "http://www.w3.org/TR/2001/REC-SVG-20010904/DTD/svg10.dtd">
<svg version="1.0" xmlns="http://www.w3.org/2000/svg"
 width="1000.000000pt" height="1000.000000pt" viewBox="0 0 1000.000000 1000.000000"
 preserveAspectRatio="xMidYMid meet">
<metadata>
Created by potrace 1.16, written by Peter Selinger 2001-2019
</metadata>
<g transform="translate(0.000000,1000.000000) scale(1.000000,-1.000000)"
fill="#000000" stroke="none">
<path d="M796 816 c-7 -3 -14 -10 -18 -18 -2 -4 -4 -9 -4 -10 -1 -1 -1 -4 -2
-6 -2 -9 -2 -16 -2 -42 l0 -27 -3 0 c-1 0 -4 0 -5 0 -1 -1 -6 -1 -10 -1 -10
-1 -15 -2 -21 -2 -3 -1 -8 -1 -10 -2 -18 -1 -22 -2 -28 -5 -6 -3 -13 -11 -17
-18 -2 -5 -2 -7 -2 -14 0 -8 0 -11 1 -14 0 0 0 -1 0 -1 0 -1 0 -1 1 -1 1 0 1
0 1 -1 -1 -1 6 -10 11 -14 8 -6 14 -8 28 -7 6 0 15 0 19 0 3 1 8 1 10 1 4 1
18 2 22 2 l2 1 0 -13 1 -12 -6 0 c-7 0 -27 -1 -34 -2 -4 0 -11 0 -31 -2 -15 0
-24 -5 -31 -13 -15 -18 -11 -43 8 -56 5 -3 14 -6 23 -6 6 0 23 0 38 2 2 0 11
0 20 1 l15 0 0 -2 c0 -3 1 -14 2 -17 0 -2 0 -4 1 -6 0 -7 1 -9 2 -16 3 -10 9
-22 17 -29 7 -8 17 -11 27 -9 7 2 15 9 21 19 7 12 10 25 8 43 -1 4 -1 8 -2 11
0 2 0 6 0 8 -2 10 -2 39 -2 67 0 130 0 149 -2 165 -1 15 -7 30 -14 38 -9 9
-22 12 -34 8z"/>
</g>
</svg>
