<?xml version="1.0" standalone="no"?>
<!DOCTYPE svg PUBLIC "-//W3C//DTD SVG 20010904//EN"
 "http://www.w3.org/TR/2001/REC-SVG-20010904/DTD/svg10.dtd">
<svg version="1.0" xmlns="http://www.w3.org/2000/svg"
 width="1000.000000pt" height="1000.000000pt" viewBox="0 0 1000.000000 1000.000000"
 preserveAspectRatio="xMidYMid meet">
<metadata>
Created by potrace 1.16, written by Peter Selinger 2001-2019
</metadata>
<g transform="translate(0.000000,1000.000000) scale(1.000000,-1.000000)"
fill="#000000" stroke="none">
<path d="M834 759 c0 0 -2 0 -4 0 -9 -2 -16 -8 -22 -20 -4 -9 -8 -20 -8 -20 1
0 1 -1 0 -2 -2 -5 -2 -19 -2 -43 0 -15 -1 -23 -1 -23 -1 0 -5 0 -10 0 -10 -1
-25 -2 -29 -3 -14 -2 -19 -3 -23 -3 -1 -1 -4 -1 -5 -1 -1 -1 -4 -1 -5 -1 -1
-1 -4 -1 -5 -2 -6 0 -14 -3 -18 -5 -8 -4 -16 -15 -19 -23 -1 -5 -1 -17 1 -22
4 -12 13 -21 26 -25 4 -1 18 -1 23 0 1 1 4 1 5 2 2 0 6 1 10 1 3 1 8 2 11 2 2
1 5 1 6 2 4 0 18 1 27 1 l9 1 0 -32 0 -31 -28 0 c-16 -1 -30 -1 -31 -1 -2 -1
-6 -1 -9 -1 -7 -1 -10 -2 -11 -3 -1 0 -1 0 -1 1 1 1 1 1 -1 0 -1 0 -3 -1 -4
-1 -1 1 -2 0 -2 0 0 -1 -1 -1 -2 -1 -1 1 -2 0 -3 0 0 -1 -1 -1 -1 0 0 0 -1 0
-1 -1 -1 -1 -2 -1 -2 0 -1 0 -1 0 -1 -1 0 -1 0 -1 -1 0 -1 0 -1 0 -1 -1 0 -1
0 -1 -1 -1 0 1 -1 0 -1 -1 -1 -1 -2 -1 -3 -1 -1 1 -1 1 0 0 0 -1 0 -1 -1 -1
-1 1 -2 0 -1 -1 0 -1 0 -1 0 -1 -2 1 -6 -4 -5 -5 0 -1 0 -1 -1 -1 0 1 -2 -1
-3 -4 -9 -19 -3 -41 15 -51 3 -2 6 -3 6 -2 0 0 1 0 2 -1 2 -2 19 -2 31 0 11 3
60 3 62 1 0 0 1 -4 1 -8 1 -4 1 -10 1 -12 1 -6 2 -21 3 -33 0 -5 0 -13 1 -17
0 -4 0 -24 1 -45 0 -21 0 -38 0 -40 1 -1 1 -4 2 -6 1 -2 1 -5 1 -5 0 0 0 0 1
-1 1 -1 1 -3 3 -13 1 -2 1 -4 1 -4 0 -1 1 -2 1 -3 1 0 1 -1 1 -1 -1 0 3 -7 7
-13 3 -6 10 -12 14 -14 6 -3 12 -2 17 2 6 4 14 15 17 23 2 5 2 6 4 13 0 2 1 7
3 11 1 3 2 8 3 10 1 5 1 72 0 90 -1 7 -1 16 -1 20 -1 12 -2 27 -3 31 0 4 -1
20 -2 30 0 3 0 30 0 58 -1 68 -2 114 -2 118 -1 7 -2 28 -3 52 0 13 0 25 0 27
-1 1 -1 4 -1 7 -2 8 -3 13 -7 21 -1 3 -3 8 -4 10 -3 6 -12 15 -16 15 0 1 -1 1
-2 1 0 1 -1 1 -1 1 0 -1 -2 0 -4 0 -2 0 -4 1 -4 0z"/>
</g>
</svg>
