<?xml version="1.0" standalone="no"?>
<!DOCTYPE svg PUBLIC "-//W3C//DTD SVG 20010904//EN"
 "http://www.w3.org/TR/2001/REC-SVG-20010904/DTD/svg10.dtd">
<svg version="1.0" xmlns="http://www.w3.org/2000/svg"
 width="1000.000000pt" height="1000.000000pt" viewBox="0 0 1000.000000 1000.000000"
 preserveAspectRatio="xMidYMid meet">
<metadata>
Created by potrace 1.16, written by Peter Selinger 2001-2019
</metadata>
<g transform="translate(0.000000,1000.000000) scale(1.000000,-1.000000)"
fill="#000000" stroke="none">
<path d="M844 815 c-8 -2 -17 -9 -22 -18 -4 -7 -8 -23 -10 -36 0 -3 0 -6 -1
-7 0 -3 0 -181 0 -194 1 -9 2 -24 2 -29 1 -2 1 -7 1 -10 2 -16 3 -26 3 -30 1
-2 2 -10 3 -19 0 -2 0 -7 0 -11 2 -22 2 -20 5 -28 1 -4 2 -9 3 -11 3 -11 10
-21 19 -25 13 -7 31 -1 39 13 2 4 8 20 10 27 1 6 2 18 1 29 -1 2 -1 8 -2 13 0
4 0 8 -1 9 0 1 0 5 -1 9 0 3 0 7 -1 8 0 1 0 5 0 10 -1 4 -1 9 -2 10 0 1 0 6
-1 11 0 5 0 10 -1 12 0 2 0 41 -1 87 0 94 0 121 -1 125 -1 3 -2 6 -3 11 0 2
-2 9 -2 12 -1 0 -1 3 -2 5 -3 10 -11 21 -18 24 -5 3 -12 4 -17 3z"/>
<path d="M761 773 c-6 -1 -13 -6 -17 -12 -4 -7 -10 -24 -12 -35 0 -3 0 -6 -1
-7 0 -2 0 -5 -1 -8 0 -4 -1 -7 -1 -7 -1 0 -5 -1 -10 -1 -12 0 -17 -1 -23 -4
-13 -5 -22 -21 -21 -35 0 -8 0 -9 3 -15 4 -9 16 -19 25 -21 1 0 3 0 4 0 1 -1
6 -1 12 -1 l10 0 -1 -3 c0 -2 0 -3 0 -3 -1 -1 -19 -6 -22 -7 -19 -4 -34 -17
-38 -31 -1 -5 0 -18 1 -20 0 0 0 0 0 -1 1 -2 5 -8 8 -12 7 -8 17 -12 29 -12 8
0 10 0 23 4 3 1 6 1 6 1 1 0 1 -3 1 -6 1 -4 1 -8 1 -9 2 -9 2 -14 2 -31 0 -20
1 -27 5 -36 5 -8 12 -15 20 -17 10 -2 23 1 29 9 4 3 9 12 10 16 0 2 0 5 1 8 1
6 2 13 3 27 0 16 1 28 2 37 1 12 0 30 -1 42 -1 3 -1 10 -3 24 0 4 0 24 -1 44
0 32 0 53 -1 60 -1 1 -1 5 -2 8 0 3 0 6 -1 7 0 2 0 4 -1 6 0 4 -3 12 -4 14 -1
0 -1 1 0 1 0 0 0 1 -1 2 -1 0 -1 1 0 1 0 0 0 1 -1 2 -1 0 -1 1 -1 1 2 0 -4 10
-8 13 -6 6 -15 9 -23 7z"/>
</g>
</svg>
