<?xml version="1.0" standalone="no"?>
<!DOCTYPE svg PUBLIC "-//W3C//DTD SVG 20010904//EN"
 "http://www.w3.org/TR/2001/REC-SVG-20010904/DTD/svg10.dtd">
<svg version="1.0" xmlns="http://www.w3.org/2000/svg"
 width="1000.000000pt" height="1000.000000pt" viewBox="0 0 1000.000000 1000.000000"
 preserveAspectRatio="xMidYMid meet">
<metadata>
Created by potrace 1.16, written by Peter Selinger 2001-2019
</metadata>
<g transform="translate(0.000000,1000.000000) scale(1.000000,-1.000000)"
fill="#000000" stroke="none">
<path d="M885 773 c-8 -2 -16 -12 -18 -22 -1 -1 -1 -4 -1 -5 -2 -5 -3 -13 -4
-20 0 -3 0 -7 0 -9 -1 -2 -1 -8 -1 -11 -1 -4 -1 -10 -1 -14 -3 -36 -5 -101 -5
-154 0 -43 1 -68 4 -101 0 -2 0 -8 1 -12 0 -5 0 -10 0 -11 1 -2 1 -7 1 -12 1
-5 1 -10 2 -11 0 -1 0 -5 0 -9 1 -4 1 -8 1 -10 1 -3 1 -7 1 -10 1 -4 1 -8 1
-10 1 -2 1 -6 1 -9 1 -4 1 -8 1 -9 1 -1 1 -5 1 -7 1 -2 1 -5 1 -6 1 -2 1 -5 1
-7 1 -7 2 -12 3 -14 0 -2 0 -4 1 -5 0 -2 0 -4 0 -6 1 -1 1 -3 1 -4 1 -2 1 -5
1 -7 3 -20 3 -19 8 -35 6 -16 8 -21 12 -25 7 -6 17 -9 24 -6 7 3 15 13 17 20
0 2 0 4 1 5 0 1 0 4 1 6 0 2 1 4 1 5 1 1 1 2 1 2 -1 0 0 1 0 3 1 2 1 6 2 10 1
8 1 74 0 84 -1 4 -1 9 -1 10 -1 1 -1 6 -1 10 -1 4 -1 9 -2 11 0 1 0 6 0 10 -1
3 -1 8 -1 9 -1 1 -1 6 -2 10 0 4 0 9 0 11 -1 6 -2 18 -3 24 0 2 0 8 0 13 -1 4
-1 10 -1 14 -1 4 -1 10 -1 15 -1 5 -1 13 -2 18 0 4 0 14 -1 21 0 6 0 14 -1 18
0 6 -1 36 -2 63 0 9 0 22 0 30 -1 7 -1 22 -1 33 -1 27 -2 48 -3 53 -1 11 -1
17 -2 19 0 1 0 3 0 4 -1 5 -3 10 -3 11 0 0 0 0 0 1 -1 3 -6 10 -9 13 -7 6 -15
8 -23 5z"/>
<path d="M799 693 c-10 -3 -16 -10 -17 -23 -1 -2 -1 -4 -1 -5 -1 -3 -2 -13 -4
-28 0 -5 0 -10 -1 -11 0 -1 0 -3 0 -4 0 0 -2 0 -5 1 -11 4 -24 6 -32 4 -2 -1
-4 -1 -6 -2 -9 -1 -22 -9 -29 -15 -5 -5 -12 -16 -14 -21 -3 -9 0 -21 6 -28 5
-4 9 -7 19 -9 12 -3 24 -3 41 0 1 1 10 4 16 7 1 0 1 -2 1 -7 -1 -3 -1 -11 -1
-17 0 -6 -1 -11 -1 -12 0 0 -3 0 -7 -1 -7 0 -12 -1 -19 -2 -1 -1 -3 -1 -4 -1
-4 -1 -12 -4 -18 -7 -12 -4 -20 -11 -25 -21 -2 -3 -3 -6 -3 -6 1 0 1 -1 0 -2
-1 -1 -1 -6 -1 -11 l-1 -8 7 -7 c13 -13 24 -16 49 -14 4 1 8 1 9 2 2 0 4 0 5
1 1 0 4 0 5 0 l2 1 -1 -15 c-1 -29 -1 -34 1 -50 3 -22 11 -36 25 -43 6 -3 14
-4 20 -1 8 4 16 14 20 24 1 3 2 9 3 17 2 19 2 25 1 51 -1 9 -1 38 -2 64 0 26
0 50 0 54 -1 3 -1 11 -1 18 -1 20 -2 25 -2 32 -2 19 -3 29 -5 39 -1 1 -1 4 -1
5 -1 1 -1 4 -1 5 -1 1 -1 4 -1 5 -1 2 -1 4 -3 9 0 4 -1 9 -2 14 0 5 0 6 -2 9
-4 7 -13 11 -20 9z"/>
</g>
</svg>
