<?xml version="1.0" standalone="no"?>
<!DOCTYPE svg PUBLIC "-//W3C//DTD SVG 20010904//EN"
 "http://www.w3.org/TR/2001/REC-SVG-20010904/DTD/svg10.dtd">
<svg version="1.0" xmlns="http://www.w3.org/2000/svg"
 width="1000.000000pt" height="1000.000000pt" viewBox="0 0 1000.000000 1000.000000"
 preserveAspectRatio="xMidYMid meet">
<metadata>
Created by potrace 1.16, written by Peter Selinger 2001-2019
</metadata>
<g transform="translate(0.000000,1000.000000) scale(1.000000,-1.000000)"
fill="#000000" stroke="none">
<path d="M595 714 c-14 -3 -24 -14 -28 -30 -1 -6 -1 -11 -2 -40 0 -17 0 -34
-1 -37 0 -4 0 -12 0 -18 -2 -28 -4 -56 -5 -71 -1 -26 -2 -51 -1 -72 2 -21 2
-23 2 -29 1 -3 1 -8 2 -11 0 -3 0 -7 0 -10 1 -2 1 -8 2 -13 0 -5 0 -11 1 -13
2 -21 2 -50 1 -72 -1 -8 -1 -13 0 -16 1 -2 1 -5 1 -5 1 -3 11 -23 14 -26 5 -7
17 -10 25 -6 13 6 28 23 32 34 1 4 1 4 2 8 3 15 3 63 1 89 -1 2 -1 8 -1 13 -1
4 -1 10 -1 12 -1 2 -1 7 -2 11 0 4 0 8 -1 9 0 2 -1 19 -2 28 0 7 0 37 0 45 1
9 2 29 3 35 0 3 0 11 0 17 1 6 1 15 2 19 0 4 0 12 1 18 0 6 0 14 1 18 0 3 0
21 1 41 0 38 0 42 -5 53 -4 9 -15 18 -24 20 -5 1 -13 1 -18 -1z"/>
<path d="M504 692 c-9 -3 -13 -8 -19 -19 -3 -8 -4 -10 -6 -16 0 -3 -1 -9 -1
-19 -1 -5 -1 -11 -1 -13 -1 -3 -1 -9 -1 -13 -1 -8 -2 -13 -2 -14 -1 0 -4 0 -9
-1 -8 0 -17 -1 -24 -3 -1 0 -4 0 -6 -1 -2 0 -5 0 -6 -1 -1 0 -4 0 -6 -1 -2 0
-4 0 -5 -1 -2 0 -4 0 -6 -1 -3 0 -8 -1 -12 -2 -4 -1 -8 -2 -9 -2 -13 -4 -20
-7 -27 -13 -4 -3 -12 -13 -11 -13 0 0 0 -2 -1 -3 -1 -3 -2 -16 -1 -21 2 -7 12
-21 16 -21 1 0 1 0 1 -1 0 -1 0 -1 1 0 1 0 1 0 1 -1 0 -1 0 -1 1 -1 0 1 1 1 1
0 1 -1 3 -1 4 -1 1 -1 3 -1 3 -1 0 -1 17 -2 21 -1 2 1 6 2 10 3 4 1 9 2 11 2
2 1 4 1 10 2 1 1 4 1 6 2 2 0 4 0 5 0 1 1 3 1 5 1 2 1 6 1 8 2 6 1 11 1 10 -1
0 -1 -1 -14 -2 -23 0 -4 0 -6 0 -6 0 -1 -5 -1 -11 -1 -6 -1 -11 -1 -12 -1 -2
-1 -5 -1 -8 -1 -3 -1 -7 -1 -8 -1 -1 -1 -3 -1 -5 -1 -2 -1 -4 -1 -6 -1 -1 -1
-3 -1 -5 -1 -7 -2 -10 -2 -15 -4 -4 -1 -8 -1 -9 -2 -2 0 -4 -1 -5 -1 -1 -1 -2
-1 -2 -1 0 1 -1 0 -3 0 -1 -1 -3 -1 -4 -2 -9 -1 -21 -11 -25 -19 -3 -6 -3 -8
-4 -17 0 -17 10 -31 28 -37 5 -1 17 -1 24 1 4 1 8 2 9 2 1 1 3 1 5 1 10 3 15
4 19 4 2 1 5 1 6 2 1 0 4 0 6 1 3 0 6 0 7 1 1 0 6 0 10 1 l8 0 0 -12 c-1 -13
-2 -17 -2 -22 -1 -2 -1 -6 -2 -9 0 -4 0 -7 -1 -8 -1 -6 -1 -25 1 -29 0 -2 1
-4 0 -4 0 -1 0 -1 1 -1 0 0 1 -2 2 -3 1 -2 2 -4 2 -4 1 0 1 -1 1 -1 0 -2 10
-11 16 -14 6 -3 15 -3 22 -1 5 1 18 9 18 10 0 1 1 1 1 0 1 0 1 0 1 0 -1 1 1 3
2 6 5 6 7 12 8 25 1 8 2 16 3 18 0 1 0 5 1 9 0 3 0 7 1 8 0 5 1 25 1 36 0 41
0 66 0 73 1 7 1 10 3 25 0 3 0 7 0 10 1 3 1 6 3 18 0 2 0 6 1 9 0 3 0 7 1 8 0
1 0 5 0 8 1 2 1 7 1 9 1 2 1 7 2 11 0 3 0 7 1 9 0 2 0 7 2 23 0 2 0 10 0 19 1
17 0 22 -6 34 -5 11 -12 18 -21 20 -8 2 -15 2 -22 -1z"/>
</g>
</svg>
