<?xml version="1.0" standalone="no"?>
<!DOCTYPE svg PUBLIC "-//W3C//DTD SVG 20010904//EN"
 "http://www.w3.org/TR/2001/REC-SVG-20010904/DTD/svg10.dtd">
<svg version="1.0" xmlns="http://www.w3.org/2000/svg"
 width="1000.000000pt" height="1000.000000pt" viewBox="0 0 1000.000000 1000.000000"
 preserveAspectRatio="xMidYMid meet">
<metadata>
Created by potrace 1.16, written by Peter Selinger 2001-2019
</metadata>
<g transform="translate(0.000000,1000.000000) scale(1.000000,-1.000000)"
fill="#000000" stroke="none">
<path d="M507 634 c-10 -4 -18 -16 -22 -32 -1 -4 -3 -11 -5 -16 -3 -12 -3 -13
-4 -48 -1 -5 -1 -13 -2 -19 0 -7 0 -17 0 -24 -1 -6 -1 -12 -1 -12 -1 -1 -4 -1
-18 -3 -4 0 -9 0 -11 -1 -2 0 -7 0 -11 -1 -4 0 -9 0 -11 -1 -2 0 -7 0 -12 0
-5 -1 -11 -1 -13 -2 -2 0 -9 0 -14 -1 -5 0 -13 0 -16 0 -4 -1 -13 -1 -20 -2
-7 0 -14 0 -15 0 -15 -2 -19 -2 -21 -3 -5 0 -11 -1 -12 -2 -1 0 -2 0 -3 -1 -4
0 -19 -7 -23 -10 -6 -4 -13 -12 -15 -17 -6 -16 5 -34 25 -41 3 -1 7 -2 10 -2
2 -1 5 -1 8 -2 6 -1 27 0 35 2 1 0 8 0 14 0 7 1 16 1 21 1 4 1 12 1 17 2 5 0
11 0 14 0 3 1 9 1 13 2 6 0 11 0 22 1 3 1 9 1 13 2 3 0 8 0 10 1 2 0 7 0 12 1
5 0 10 0 12 1 18 1 52 2 153 1 36 0 75 1 82 2 1 1 3 1 4 2 2 0 3 1 3 0 0 0 0
0 1 1 0 0 2 1 3 2 4 2 9 7 12 11 7 9 9 25 4 35 -1 2 -2 5 -2 5 0 1 -4 6 -7 9
-4 3 -10 7 -15 8 -4 1 -22 2 -85 1 -44 0 -82 1 -84 1 l-3 1 0 6 c0 4 0 12 0
20 3 50 3 58 1 70 -1 1 -1 2 -1 2 0 0 0 0 -2 7 0 3 -1 7 -2 10 -2 13 -10 27
-19 32 -4 2 -15 2 -20 1z"/>
</g>
</svg>
