<?xml version="1.0" standalone="no"?>
<!DOCTYPE svg PUBLIC "-//W3C//DTD SVG 20010904//EN"
 "http://www.w3.org/TR/2001/REC-SVG-20010904/DTD/svg10.dtd">
<svg version="1.0" xmlns="http://www.w3.org/2000/svg"
 width="1000.000000pt" height="1000.000000pt" viewBox="0 0 1000.000000 1000.000000"
 preserveAspectRatio="xMidYMid meet">
<metadata>
Created by potrace 1.16, written by Peter Selinger 2001-2019
</metadata>
<g transform="translate(0.000000,1000.000000) scale(1.000000,-1.000000)"
fill="#000000" stroke="none">
<path d="M465 586 c0 0 -3 0 -5 0 -6 -1 -14 -5 -19 -10 -4 -4 -10 -14 -10 -19
-1 -1 -1 -2 -1 -3 -1 0 -1 -2 -1 -5 -1 -2 -1 -5 -1 -6 -1 -1 -1 -5 -1 -10 -1
-4 -1 -9 -2 -11 -1 -18 -2 -84 -1 -101 1 -13 3 -23 4 -27 0 -1 0 -5 0 -7 l1
-5 -29 -1 c-28 0 -60 -1 -68 -1 -4 -1 -12 -2 -19 -2 -11 -2 -16 -2 -17 -3 -2
0 -4 0 -6 -1 -7 -1 -14 -2 -18 -3 -1 0 -4 0 -6 -1 -2 0 -5 0 -6 -1 -1 0 -4 0
-6 -1 -15 -2 -28 -15 -31 -30 0 -2 0 -5 0 -8 0 -4 4 -18 5 -18 1 0 1 0 1 -1 0
-3 13 -14 17 -15 1 0 1 0 2 0 0 0 0 0 1 0 1 -1 1 -1 1 -1 3 -2 20 -2 30 1 1 0
4 0 5 1 1 0 4 0 5 0 1 1 4 1 6 2 3 0 6 0 7 1 4 0 15 2 24 2 17 2 30 3 84 4 27
0 52 0 56 0 12 1 34 2 40 2 2 1 9 1 16 1 6 1 12 1 14 2 2 0 8 0 14 1 5 0 11 0
13 1 13 1 31 1 56 1 34 1 41 0 60 -5 12 -3 22 -2 32 4 2 1 5 2 5 2 1 0 1 0 1
1 -1 0 0 1 2 3 9 9 12 25 7 40 -1 1 -2 3 -2 3 -1 0 -1 0 -1 1 1 0 1 1 -4 6 -8
8 -19 14 -33 17 -23 4 -31 5 -67 4 -29 0 -47 0 -61 -1 -2 -1 -8 -1 -13 -2 -6
0 -12 0 -14 -1 -2 0 -8 0 -14 -1 -6 0 -11 0 -11 -1 -1 0 -2 1 -2 8 -1 3 -1 7
-1 8 -1 1 -1 5 -2 8 0 3 0 6 -1 8 -2 12 -2 80 0 102 4 35 2 47 -9 58 -4 4 -13
9 -17 10 -4 0 -10 1 -10 0z"/>
</g>
</svg>
