<?xml version="1.0" standalone="no"?>
<!DOCTYPE svg PUBLIC "-//W3C//DTD SVG 20010904//EN"
 "http://www.w3.org/TR/2001/REC-SVG-20010904/DTD/svg10.dtd">
<svg version="1.0" xmlns="http://www.w3.org/2000/svg"
 width="1000.000000pt" height="1000.000000pt" viewBox="0 0 1000.000000 1000.000000"
 preserveAspectRatio="xMidYMid meet">
<metadata>
Created by potrace 1.16, written by Peter Selinger 2001-2019
</metadata>
<g transform="translate(0.000000,1000.000000) scale(1.000000,-1.000000)"
fill="#000000" stroke="none">
<path d="M488 317 c-1 0 -1 0 -2 0 -7 -2 -14 -6 -18 -13 -7 -9 -14 -30 -16
-44 -1 -17 -1 -76 2 -86 0 -4 1 -10 1 -13 l1 -3 -69 -1 c-61 0 -81 0 -88 -2
-2 0 -5 0 -7 -1 -2 0 -5 -1 -7 -1 -1 -1 -2 -1 -2 -1 0 1 -22 -5 -26 -7 -19
-10 -23 -31 -9 -45 4 -3 11 -7 13 -7 0 -1 1 -1 2 -1 0 -1 2 -1 3 -1 1 -1 3 -1
4 -1 1 -1 3 -1 4 -1 4 -1 7 -2 9 -2 2 -1 8 -2 17 -4 10 -1 30 -1 114 -1 81 0
117 0 167 1 5 1 23 1 41 1 17 1 40 1 53 2 12 0 29 0 39 0 9 1 19 1 21 2 6 2
15 5 18 7 2 1 3 2 4 1 0 0 0 0 0 1 -1 0 0 1 0 1 3 1 7 10 8 15 1 17 -15 36
-36 41 -1 0 -3 0 -4 1 -6 1 -10 2 -22 4 -2 0 -6 0 -7 1 -9 1 -17 1 -45 1 -17
0 -36 0 -40 0 -5 -1 -22 -1 -38 -2 -16 0 -31 0 -35 0 -3 -1 -6 0 -6 0 0 0 0 3
0 6 -1 3 -1 7 -1 10 -1 2 -1 5 -2 8 0 2 0 4 -1 6 0 1 0 12 -1 25 0 42 -1 59
-1 62 -1 1 -1 5 -1 8 -2 12 -5 19 -11 25 -4 4 -9 7 -13 8 -2 0 -13 1 -13 0z"/>
</g>
</svg>
