<?xml version="1.0" standalone="no"?>
<!DOCTYPE svg PUBLIC "-//W3C//DTD SVG 20010904//EN"
 "http://www.w3.org/TR/2001/REC-SVG-20010904/DTD/svg10.dtd">
<svg version="1.0" xmlns="http://www.w3.org/2000/svg"
 width="1000.000000pt" height="1000.000000pt" viewBox="0 0 1000.000000 1000.000000"
 preserveAspectRatio="xMidYMid meet">
<metadata>
Created by potrace 1.16, written by Peter Selinger 2001-2019
</metadata>
<g transform="translate(0.000000,1000.000000) scale(1.000000,-1.000000)"
fill="#000000" stroke="none">
<path d="M631 683 c-10 -3 -17 -10 -22 -20 -3 -5 -3 -7 -4 -14 -3 -13 -3 -139
0 -173 0 -8 1 -38 3 -66 0 -8 0 -14 0 -15 1 -3 0 -3 -4 -3 -3 1 -10 1 -39 3
-7 0 -15 0 -17 0 -2 1 -8 1 -12 1 -4 1 -9 1 -11 1 -2 1 -6 1 -10 2 -4 0 -8 0
-9 0 -1 1 -5 1 -9 1 -4 1 -8 1 -9 2 -1 0 -7 0 -13 1 -12 0 -12 0 -13 2 0 1 0
3 0 5 -1 2 -1 17 -1 35 0 33 -1 37 -6 55 0 3 -1 6 -1 7 -6 25 -25 39 -41 31
-10 -5 -18 -16 -22 -31 0 -1 -1 -6 -2 -11 -2 -6 -3 -13 -4 -16 0 -7 0 -68 0
-75 1 -2 0 -4 0 -4 -1 -1 -11 -2 -29 -3 -6 0 -21 0 -33 0 -13 -1 -25 -1 -26
-1 -11 -3 -25 -13 -28 -21 -4 -7 -4 -15 -3 -22 1 -2 1 -4 1 -5 0 0 1 -1 1 -1
0 0 1 -1 2 -3 1 -3 9 -11 15 -15 6 -4 15 -7 25 -8 15 -1 54 0 83 2 29 3 85 3
99 1 1 -1 4 -1 8 -1 4 -1 8 -1 9 -2 1 0 6 0 11 0 4 -1 10 -1 12 -2 14 -1 20
-1 24 -2 7 0 36 0 40 0 2 1 5 2 7 2 3 1 5 1 6 2 1 0 3 0 4 1 3 1 3 1 3 -3 0
-8 0 -13 0 -20 -2 -14 -1 -21 3 -29 4 -8 15 -17 24 -20 2 -1 17 0 19 0 4 1 7
3 10 5 1 1 3 2 3 1 1 0 1 0 1 1 -1 0 0 1 2 2 2 2 11 14 10 14 -1 0 -1 1 0 2 1
1 1 3 2 4 0 2 0 3 0 5 3 12 3 40 1 56 -1 1 -1 5 -2 7 0 2 0 5 -1 6 0 1 0 4 0
7 -1 3 -1 7 -2 9 0 3 -1 13 -2 27 0 2 0 12 -1 21 l0 17 2 0 c1 0 3 0 4 0 1 1
4 1 6 1 2 1 6 1 8 2 16 2 43 3 63 2 18 -2 27 -1 31 1 1 1 2 1 2 1 0 -1 2 0 5
2 8 5 14 12 18 22 1 3 1 14 -1 19 -3 10 -10 19 -20 23 -3 2 -6 3 -7 4 -1 0 -1
0 -1 0 0 0 -5 1 -12 2 -13 3 -56 3 -76 1 -2 -1 -6 -1 -8 -1 -5 -1 -14 -2 -16
-3 -2 0 -2 1 -2 8 0 8 0 61 0 113 1 21 0 22 -4 31 -5 10 -15 19 -24 21 -5 1
-15 1 -20 -1z"/>
</g>
</svg>
